<?xml version="1.0" ?><svg enable-background="new 0 0 500 500" id="Layer_2" version="1.1" viewBox="0 0 500 500" xml:space="preserve" xmlns="http://www.w3.org/2000/svg" xmlns:xlink="http://www.w3.org/1999/xlink"><g><path d="M231.357,342.256c0,0,9.693,25.762,14.069,37.422l31.339,15.201l82.195-24.717   c0,0-73.661,8.947-80.711-27.906l-8.253-4.394C269.996,337.862,260.434,342.256,231.357,342.256z" fill="#BCBCBC"/><g><path d="    M260,197v-18.01c0-20.429,16.561-36.99,36.99-36.99h118.454C435.633,142,452,125.633,452,105.444V82" fill="none" stroke="#333333" stroke-linecap="round" stroke-linejoin="round" stroke-miterlimit="10" stroke-width="20"/><line fill="none" stroke="#333333" stroke-linecap="round" stroke-linejoin="round" stroke-miterlimit="10" stroke-width="20" x1="388" x2="388" y1="134" y2="107"/><path d="    M338,134V97.507C338,84.525,348.525,74,361.507,74h17.295C391.062,74,401,64.062,401,51.802V39" fill="none" stroke="#333333" stroke-linecap="round" stroke-linejoin="round" stroke-miterlimit="10" stroke-width="20"/><path d="    M224,186v-7.01c0-20.429-16.561-36.99-36.99-36.99H68.87C44.089,142,24,121.911,24,97.13V87" fill="none" stroke="#333333" stroke-linecap="round" stroke-linejoin="round" stroke-miterlimit="10" stroke-width="20"/><path d="    M95,134v-31c0-8.837-7.163-16-16-16h0c-12.15,0-22-9.85-22-22v0" fill="none" stroke="#333333" stroke-linecap="round" stroke-linejoin="round" stroke-miterlimit="10" stroke-width="20"/><path d="    M95,19L95,19c0,18.225,14.775,33,33,33h6.333C150.165,52,163,64.835,163,80.667V134" fill="none" stroke="#333333" stroke-linecap="round" stroke-linejoin="round" stroke-miterlimit="10" stroke-width="20"/><line fill="none" stroke="#333333" stroke-linecap="round" stroke-linejoin="round" stroke-miterlimit="10" stroke-width="20" x1="129" x2="129" y1="97" y2="134"/><path d="    M196,143V86.5c0-9.113,7.387-16.5,16.5-16.5h0c9.113,0,16.5-7.387,16.5-16.5V39" fill="none" stroke="#333333" stroke-linecap="round" stroke-linejoin="round" stroke-miterlimit="10" stroke-width="20"/><path d="    M273,151v-14.983C273,122.753,262.247,112,248.983,112H241c-6.627,0-12-5.373-12-12v0" fill="none" stroke="#333333" stroke-linecap="round" stroke-linejoin="round" stroke-miterlimit="10" stroke-width="20"/><path d="    M308,134V72.931C308,58.61,296.39,47,282.069,47h0C269.881,47,260,37.119,260,24.931V16" fill="none" stroke="#333333" stroke-linecap="round" stroke-linejoin="round" stroke-miterlimit="10" stroke-width="20"/><path d="    M175.04,200.081L196.328,192h42.06c11.611,0,38.021,23.737,50.597,23.737l115.482,1.265c9.879,0.084,17.379,8.921,15.856,18.682    l-5.864,37.592c-4.596,12.121-15.475,20.741-28.326,22.445l-19.606,5.25c-3.017,0.4-5.969,1.189-8.783,2.347l-39.066,20.194    c-12.945,5.327-26.541,8.907-40.431,10.643l-61.852,7.733c-18.996,2.375-37.558-6.897-47.068-23.512l0,0    c-6.56-11.461-8.048-25.137-4.105-37.74l1.266-4.047" fill="none" stroke="#333333" stroke-linecap="round" stroke-linejoin="round" stroke-miterlimit="10" stroke-width="15"/><path d="    M183.355,206.959l-62.347-40.239c0,0-10.874,67.684,37.103,61.494" fill="none" stroke="#333333" stroke-linecap="round" stroke-linejoin="round" stroke-miterlimit="10" stroke-width="15"/><path d="    M131.437,226.218c0,0-89.493,64.642-12.661,257.947" fill="none" stroke="#333333" stroke-linecap="round" stroke-linejoin="round" stroke-miterlimit="10" stroke-width="15"/><path d="    M231.357,342.256c0,0,5.189,51.92,45.407,55.812" fill="none" stroke="#333333" stroke-linecap="round" stroke-linejoin="round" stroke-miterlimit="10" stroke-width="15"/><path d="    M278.248,334.155c0,0,3.16,22.372,23.542,27.81c20.382,5.439,163.091,0,163.091,0" fill="none" stroke="#333333" stroke-linecap="round" stroke-linejoin="round" stroke-miterlimit="10" stroke-width="15"/></g><path d="M240.835,246.544h-23.752c-5.041,0-9.165-4.124-9.165-9.165v0c0-5.041,4.124-9.165,9.165-9.165h23.752   c5.041,0,9.165,4.124,9.165,9.165v0C250,242.419,245.876,246.544,240.835,246.544z" fill="#F44E57"/><line fill="none" stroke="#333333" stroke-linecap="round" stroke-linejoin="round" stroke-miterlimit="10" stroke-width="15" x1="382.367" x2="414.727" y1="219.686" y2="252.577"/></g></svg>