<svg xmlns="http://www.w3.org/2000/svg" width="32" height="32" viewBox="0 0 8.467 8.467"><g fill="#586597" transform="translate(293.777 -178.02)"><path d="m -1262.543,1051.3145 c -1.447,0 -2.7633,0.5937 -3.7129,1.5429 -0.077,0.077 -0.1448,0.158 -0.2148,0.2383 -0.1063,-0.01 -0.2096,-0.033 -0.3184,-0.033 -1.9273,0 -3.5059,1.5734 -3.5058,3.5 h -0.4942 c -0.2778,0 -0.503,0.2242 -0.5019,0.502 0,4.9973 2.5227,8.4857 6.0019,9.6054 v 2.3887 a 0.50012379,0.49999672 0 0 0 0.502,0.5019 h 7.9961 a 0.50012379,0.49999672 0 0 0 0.5019,-0.5019 v -2.3906 c 3.4772,-1.1224 6.002,-4.6099 6.002,-9.6035 10e-4,-0.2778 -0.224,-0.5031 -0.502,-0.502 h -0.5019 c 10e-5,-2.8928 -2.3561,-5.248 -5.25,-5.248 -0.7236,0 -1.4164,0.1465 -2.0449,0.4121 -0.3145,0.1326 -0.6133,0.2996 -0.8926,0.4882 -0.023,0.016 -0.044,0.035 -0.066,0.051 -0.8515,-0.5958 -1.8825,-0.9511 -2.9981,-0.9511 z" color="#000" font-family="sans-serif" font-weight="400" overflow="visible" transform="matrix(.26458 0 0 .26458 43.71 -97.294)" white-space="normal" style="line-height:normal;font-variant-ligatures:normal;font-variant-position:normal;font-variant-caps:normal;font-variant-numeric:normal;font-variant-alternates:normal;font-feature-settings:normal;text-indent:0;text-align:start;text-decoration-line:none;text-decoration-style:solid;text-decoration-color:#000;text-transform:none;text-orientation:mixed;shape-padding:0;isolation:auto;mix-blend-mode:normal"/><path fill="#fbcd9e" d="M-1262.543 1052.3184c2.3536 0 4.2521 1.8918 4.252 4.2441h-.752c.0001-1.9266-1.5726-3.5-3.5-3.5-.8008 0-1.5322.2833-2.123.7383-.2092-.1613-.4312-.3028-.6738-.4141.7488-.6596 1.7171-1.0683 2.7968-1.0683zM-1256.541 1052.3184c2.3536 0 4.252 1.8918 4.2519 4.2441h-.7519c0-1.9266-1.5727-3.5-3.5-3.5-.4818 0-.9381.104-1.3574.2813-.1289.054-.2461.128-.3672.1953-.1477-.2081-.3107-.4037-.4864-.5879.1801-.1101.3612-.2184.5567-.3008.5082-.2151 1.0659-.332 1.6543-.332zM-1266.7891 1054.0664c1.387 0 2.4962 1.1101 2.4961 2.4961h-.7461c.0001-.9605-.7894-1.75-1.75-1.75-.9606 0-1.748.7896-1.748 1.75h-.7539c-.0001-1.386 1.115-2.4961 2.5019-2.4961z" color="#000" font-family="sans-serif" font-weight="400" overflow="visible" transform="matrix(.26458 0 0 .26458 43.71 -97.294)" white-space="normal" style="line-height:normal;font-variant-ligatures:normal;font-variant-position:normal;font-variant-caps:normal;font-variant-numeric:normal;font-variant-alternates:normal;font-feature-settings:normal;text-indent:0;text-align:start;text-decoration-line:none;text-decoration-style:solid;text-decoration-color:#000;text-transform:none;text-orientation:mixed;shape-padding:0;isolation:auto;mix-blend-mode:normal"/><path fill="#f6c490" d="M-1262.543 1054.0664c1.387 0 2.502 1.1101 2.502 2.4961h-.752c.0001-.9605-.7893-1.75-1.75-1.75-.3905 0-.7487.1362-1.041.3555-.1022-.2333-.2325-.4507-.3808-.6543.403-.2813.8891-.4473 1.4218-.4473zM-1256.541 1054.0664c1.3869 0 2.5039 1.1101 2.5039 2.4961h-.7539c0-.9605-.7894-1.75-1.75-1.75-.3553 0-.6858.1084-.9629.293-.07-.2427-.1644-.4743-.2676-.7012.084-.05.1647-.106.2559-.1445.2989-.1266.6278-.1934.9746-.1934zM-1266.7891 1055.8164c.4203 0 .7461.3264.7461.7461h-1.498c0-.4199.3315-.7461.7519-.7461z" color="#000" font-family="sans-serif" font-weight="400" overflow="visible" transform="matrix(.26458 0 0 .26458 43.71 -97.294)" white-space="normal" style="line-height:normal;font-variant-ligatures:normal;font-variant-position:normal;font-variant-caps:normal;font-variant-numeric:normal;font-variant-alternates:normal;font-feature-settings:normal;text-indent:0;text-align:start;text-decoration-line:none;text-decoration-style:solid;text-decoration-color:#000;text-transform:none;text-orientation:mixed;shape-padding:0;isolation:auto;mix-blend-mode:normal"/><path fill="#fbd18e" d="M-1262.543 1055.8164c.4204 0 .7539.3264.7539.7461h-1.5c0-.4199.3258-.7461.7461-.7461zM-1256.541 1055.8164c.4203 0 .7539.3264.7539.7461h-1.5c0-.4199.3258-.7461.7461-.7461z" color="#000" font-family="sans-serif" font-weight="400" overflow="visible" transform="matrix(.26458 0 0 .26458 43.71 -97.294)" white-space="normal" style="line-height:normal;font-variant-ligatures:normal;font-variant-position:normal;font-variant-caps:normal;font-variant-numeric:normal;font-variant-alternates:normal;font-feature-settings:normal;text-indent:0;text-align:start;text-decoration-line:none;text-decoration-style:solid;text-decoration-color:#000;text-transform:none;text-orientation:mixed;shape-padding:0;isolation:auto;mix-blend-mode:normal"/><path fill="#91a6b8" d="m -1251.2969,1057.5547 c -0.2192,5.4504 -3.4889,8.5078 -7.4961,8.5078 h -4 c -4.0073,0 -7.2574,-3.1627 -7.4961,-8.4961 z" color="#000" font-family="sans-serif" font-weight="400" overflow="visible" transform="matrix(.26458 0 0 .26458 43.71 -97.294)" white-space="normal" style="line-height:normal;font-variant-ligatures:normal;font-variant-position:normal;font-variant-caps:normal;font-variant-numeric:normal;font-variant-alternates:normal;font-feature-settings:normal;text-indent:0;text-align:start;text-decoration-line:none;text-decoration-style:solid;text-decoration-color:#000;text-transform:none;text-orientation:mixed;shape-padding:0;isolation:auto;mix-blend-mode:normal"/><path fill="#9ba3af" d="m -1257.2871,1066.9121 v 1.6445 h -7.0059 v -1.6425 c 0.4875,0.09 0.9873,0.1445 1.5,0.1445 h 4 c 0.5149,0 1.0164,-0.056 1.5059,-0.1465 z" color="#000" font-family="sans-serif" font-weight="400" overflow="visible" transform="matrix(.26458 0 0 .26458 43.71 -97.294)" white-space="normal" style="line-height:normal;font-variant-ligatures:normal;font-variant-position:normal;font-variant-caps:normal;font-variant-numeric:normal;font-variant-alternates:normal;font-feature-settings:normal;text-indent:0;text-align:start;text-decoration-line:none;text-decoration-style:solid;text-decoration-color:#000;text-transform:none;text-orientation:mixed;shape-padding:0;isolation:auto;mix-blend-mode:normal"/><path d="m -292.18939,178.94799 c -0.18097,0 -0.33013,0.15107 -0.33013,0.33199 v 0.0664 c 0,0.18092 0.14916,0.33004 0.33013,0.33004 h 5.42463 c 0.18096,0 0.33012,-0.14912 0.33012,-0.33004 v -0.0664 c 0,-0.18092 -0.14916,-0.33199 -0.33012,-0.33199 z" color="#000" font-family="sans-serif" font-weight="400" overflow="visible" white-space="normal" style="line-height:normal;font-variant-ligatures:normal;font-variant-position:normal;font-variant-caps:normal;font-variant-numeric:normal;font-variant-alternates:normal;font-feature-settings:normal;text-indent:0;text-align:start;text-decoration-line:none;text-decoration-style:solid;text-decoration-color:#000;text-transform:none;text-orientation:mixed;shape-padding:0;isolation:auto;mix-blend-mode:normal"/><path fill="#f3cca6" d="m -292.18939,179.21358 h 5.42463 c 0.0389,0 0.0664,0.0275 0.0664,0.0664 v 0.0664 c 0,0.0389 -0.0275,0.0645 -0.0664,0.0645 h -5.42463 c -0.0389,0 -0.0664,-0.0255 -0.0664,-0.0645 v -0.0664 c 0,-0.0389 0.0275,-0.0664 0.0664,-0.0664 z" color="#000" font-family="sans-serif" font-weight="400" overflow="visible" white-space="normal" style="line-height:normal;font-variant-ligatures:normal;font-variant-position:normal;font-variant-caps:normal;font-variant-numeric:normal;font-variant-alternates:normal;font-feature-settings:normal;text-indent:0;text-align:start;text-decoration-line:none;text-decoration-style:solid;text-decoration-color:#000;text-transform:none;text-orientation:mixed;shape-padding:0;isolation:auto;mix-blend-mode:normal"/><path style="line-height:normal;font-variant-ligatures:normal;font-variant-position:normal;font-variant-caps:normal;font-variant-numeric:normal;font-variant-alternates:normal;font-feature-settings:normal;text-indent:0;text-align:start;text-decoration-line:none;text-decoration-style:solid;text-decoration-color:#000;text-transform:none;text-orientation:mixed;shape-padding:0;isolation:auto;mix-blend-mode:normal" d="M-291.27911 178.81518a.13232442.1322908 0 0 0-.1172.13281v2.447a.13283.13279625 0 1 0 .26566 0v-2.447a.13232442.1322908 0 0 0-.14846-.13281zM-290.81615 178.81518a.13232442.1322908 0 0 0-.11525.13281v2.12281a.13232442.1322908 0 1 0 .26371 0v-2.12281a.13232442.1322908 0 0 0-.14846-.13281zM-290.35123 178.81518a.13232442.1322908 0 0 0-.11721.13281v1.16003a.13232442.1322908 0 1 0 .26371 0v-1.16003a.13232442.1322908 0 0 0-.1465-.13281zM-289.88827 178.81518a.13232442.1322908 0 0 0-.11721.13281v1.5467a.13232442.1322908 0 1 0 .26371 0v-1.5467a.13232442.1322908 0 0 0-.1465-.13281z" color="#000" font-family="sans-serif" font-weight="400" overflow="visible" white-space="normal"/></g></svg>