<?xml version="1.0" standalone="no"?>
 <!DOCTYPE svg PUBLIC "-//W3C//DTD SVG 1.1//EN" 
 "http://www.w3.org/Graphics/SVG/1.1/DTD/svg11.dtd"> 
<svg xmlns="http://www.w3.org/2000/svg" version="1.1" 
    width="29.7002cm" height="21.0007cm" viewBox="0 0 116930 82680 ">
<title>SVG Picture created as stag42-F_Mask.svg date 2021/07/30 18:52:46 </title>
  <desc>Picture generated by PCBNEW </desc>
<g style="fill:#000000; fill-opacity:1;stroke:#000000; stroke-opacity:1;
stroke-linecap:round; stroke-linejoin:round; "
 transform="translate(0 0) scale(1 1)">
</g>
<g style="fill:#000000; fill-opacity:0.0; 
stroke:#000000; stroke-width:-0.000393701; stroke-opacity:1; 
stroke-linecap:round; stroke-linejoin:round;">
</g>
<g style="fill:#000000; fill-opacity:1.0; 
stroke:#000000; stroke-width:0; stroke-opacity:1; 
stroke-linecap:round; stroke-linejoin:round;">
<path style="fill:#000000; fill-opacity:1.0; 
stroke:#000000; stroke-width:0; stroke-opacity:1; 
stroke-linecap:round; stroke-linejoin:round;fill-rule:evenodd;"
d="M 67618,45266
67678,45278
67725,45298
67791,45325
67791,45325
67892,45393
67979,45479
68024,45547
68047,45581
68093,45694
68117,45813
68117,45936
68093,46055
68047,46168
68047,46168
67979,46270
67892,46356
67824,46401
67791,46424
67725,46451
67678,46471
67618,46483
67558,46495
67436,46495
67376,46483
67316,46471
67269,46451
67203,46424
67170,46401
67102,46356
67015,46270
66947,46168
66947,46168
66901,46055
66877,45936
66877,45813
66901,45694
66947,45581
66970,45547
67015,45479
67102,45393
67203,45325
67203,45325
67269,45298
67316,45278
67376,45266
67436,45254
67558,45254
67618,45266
Z" /> 
<path style="fill:#000000; fill-opacity:1.0; 
stroke:#000000; stroke-width:0; stroke-opacity:1; 
stroke-linecap:round; stroke-linejoin:round;fill-rule:evenodd;"
d="M 28248,45266
28308,45278
28355,45298
28421,45325
28421,45325
28522,45393
28609,45479
28654,45547
28677,45581
28723,45694
28747,45813
28747,45936
28723,46055
28677,46168
28677,46168
28609,46270
28522,46356
28454,46401
28421,46424
28355,46451
28308,46471
28248,46483
28188,46495
28066,46495
28006,46483
27946,46471
27899,46451
27833,46424
27800,46401
27732,46356
27645,46270
27577,46168
27577,46168
27531,46055
27507,45936
27507,45813
27531,45694
27577,45581
27600,45547
27645,45479
27732,45393
27833,45325
27833,45325
27899,45298
27946,45278
28006,45266
28066,45254
28188,45254
28248,45266
Z" /> 
<path style="fill:#000000; fill-opacity:1.0; 
stroke:#000000; stroke-width:0; stroke-opacity:1; 
stroke-linecap:round; stroke-linejoin:round;fill-rule:evenodd;"
d="M 48047,42350
48133,42386
48193,42411
48325,42499
48437,42611
48525,42743
48538,42774
48586,42890
48617,43045
48617,43204
48586,43359
48566,43408
48525,43506
48437,43638
48325,43750
48193,43838
48133,43863
48047,43899
47891,43930
47733,43930
47577,43899
47491,43863
47431,43838
47299,43750
47187,43638
47099,43506
47058,43408
47038,43359
47007,43204
47007,43045
47038,42890
47086,42774
47099,42743
47187,42611
47299,42499
47431,42411
47491,42386
47577,42350
47733,42319
47891,42319
48047,42350
Z" /> 
<path style="fill:#000000; fill-opacity:1.0; 
stroke:#000000; stroke-width:0; stroke-opacity:1; 
stroke-linecap:round; stroke-linejoin:round;fill-rule:evenodd;"
d="M 49918,42774
49985,42801
50044,42841
50095,42892
50135,42952
50163,43018
50177,43089
50177,43160
50163,43231
50135,43297
50095,43357
50044,43408
49985,43448
49918,43475
49848,43489
49776,43489
49706,43475
49639,43448
49580,43408
49529,43357
49489,43297
49461,43231
49447,43160
49447,43089
49461,43018
49489,42952
49529,42892
49580,42841
49639,42801
49706,42774
49776,42760
49848,42760
49918,42774
Z" /> 
<path style="fill:#000000; fill-opacity:1.0; 
stroke:#000000; stroke-width:0; stroke-opacity:1; 
stroke-linecap:round; stroke-linejoin:round;fill-rule:evenodd;"
d="M 45918,42774
45985,42801
46044,42841
46095,42892
46135,42952
46163,43018
46177,43089
46177,43160
46163,43231
46135,43297
46095,43357
46044,43408
45985,43448
45918,43475
45848,43489
45776,43489
45706,43475
45639,43448
45580,43408
45529,43357
45489,43297
45461,43231
45447,43160
45447,43089
45461,43018
45489,42952
45529,42892
45580,42841
45639,42801
45706,42774
45776,42760
45848,42760
45918,42774
Z" /> 
<path style="fill:#000000; fill-opacity:1.0; 
stroke:#000000; stroke-width:0; stroke-opacity:1; 
stroke-linecap:round; stroke-linejoin:round;fill-rule:evenodd;"
d="M 67732,39100
67818,39136
67878,39161
68010,39249
68122,39361
68210,39493
68210,39493
68271,39640
68302,39795
68302,39954
68271,40109
68236,40195
68210,40256
68122,40388
68010,40500
67878,40588
67818,40613
67732,40649
67576,40680
67418,40680
67262,40649
67176,40613
67116,40588
66984,40500
66872,40388
66784,40256
66758,40195
66723,40109
66692,39954
66692,39795
66723,39640
66784,39493
66784,39493
66872,39361
66984,39249
67116,39161
67176,39136
67262,39100
67418,39069
67576,39069
67732,39100
Z" /> 
<path style="fill:#000000; fill-opacity:1.0; 
stroke:#000000; stroke-width:0; stroke-opacity:1; 
stroke-linecap:round; stroke-linejoin:round;fill-rule:evenodd;"
d="M 28362,39100
28448,39136
28508,39161
28640,39249
28752,39361
28840,39493
28840,39493
28901,39640
28932,39795
28932,39954
28901,40109
28866,40195
28840,40256
28752,40388
28640,40500
28508,40588
28448,40613
28362,40649
28206,40680
28048,40680
27892,40649
27806,40613
27746,40588
27614,40500
27502,40388
27414,40256
27388,40195
27353,40109
27322,39954
27322,39795
27353,39640
27414,39493
27414,39493
27502,39361
27614,39249
27746,39161
27806,39136
27892,39100
28048,39069
28206,39069
28362,39100
Z" /> 
<path style="fill:#000000; fill-opacity:1.0; 
stroke:#000000; stroke-width:0; stroke-opacity:1; 
stroke-linecap:round; stroke-linejoin:round;fill-rule:evenodd;"
d="M 48984,34850
49070,34886
49131,34911
49263,34999
49375,35111
49463,35243
49476,35274
49524,35390
49555,35545
49555,35704
49524,35859
49504,35908
49463,36006
49375,36138
49263,36250
49131,36338
49070,36363
48984,36399
48829,36430
48670,36430
48515,36399
48429,36363
48368,36338
48236,36250
48124,36138
48036,36006
47995,35908
47975,35859
47944,35704
47944,35545
47975,35390
48023,35274
48036,35243
48124,35111
48236,34999
48368,34911
48429,34886
48515,34850
48670,34819
48829,34819
48984,34850
Z" /> 
<path style="fill:#000000; fill-opacity:1.0; 
stroke:#000000; stroke-width:0; stroke-opacity:1; 
stroke-linecap:round; stroke-linejoin:round;fill-rule:evenodd;"
d="M 41484,34850
41570,34886
41631,34911
41763,34999
41875,35111
41963,35243
41976,35274
42024,35390
42055,35545
42055,35704
42024,35859
42004,35908
41963,36006
41875,36138
41763,36250
41631,36338
41570,36363
41484,36399
41329,36430
41170,36430
41015,36399
40929,36363
40868,36338
40736,36250
40624,36138
40536,36006
40495,35908
40475,35859
40444,35704
40444,35545
40475,35390
40523,35274
40536,35243
40624,35111
40736,34999
40868,34911
40929,34886
41015,34850
41170,34819
41329,34819
41484,34850
Z" /> 
<path style="fill:#000000; fill-opacity:1.0; 
stroke:#000000; stroke-width:0; stroke-opacity:1; 
stroke-linecap:round; stroke-linejoin:round;fill-rule:evenodd;"
d="M 33984,34850
34070,34886
34131,34911
34263,34999
34375,35111
34463,35243
34476,35274
34524,35390
34555,35545
34555,35704
34524,35859
34504,35908
34463,36006
34375,36138
34263,36250
34131,36338
34070,36363
33984,36399
33829,36430
33670,36430
33515,36399
33429,36363
33368,36338
33236,36250
33124,36138
33036,36006
32995,35908
32975,35859
32944,35704
32944,35545
32975,35390
33023,35274
33036,35243
33124,35111
33236,34999
33368,34911
33429,34886
33515,34850
33670,34819
33829,34819
33984,34850
Z" /> 
<path style="fill:#000000; fill-opacity:1.0; 
stroke:#000000; stroke-width:0; stroke-opacity:1; 
stroke-linecap:round; stroke-linejoin:round;fill-rule:evenodd;"
d="M 26484,34850
26570,34886
26631,34911
26763,34999
26875,35111
26963,35243
26976,35274
27024,35390
27055,35545
27055,35704
27024,35859
27004,35908
26963,36006
26875,36138
26763,36250
26631,36338
26570,36363
26484,36399
26329,36430
26170,36430
26015,36399
25929,36363
25868,36338
25736,36250
25624,36138
25536,36006
25495,35908
25475,35859
25444,35704
25444,35545
25475,35390
25523,35274
25536,35243
25624,35111
25736,34999
25868,34911
25929,34886
26015,34850
26170,34819
26329,34819
26484,34850
Z" /> 
<path style="fill:#000000; fill-opacity:1.0; 
stroke:#000000; stroke-width:0; stroke-opacity:1; 
stroke-linecap:round; stroke-linejoin:round;fill-rule:evenodd;"
d="M 18984,34850
19070,34886
19131,34911
19263,34999
19375,35111
19463,35243
19476,35274
19524,35390
19555,35545
19555,35704
19524,35859
19504,35908
19463,36006
19375,36138
19263,36250
19131,36338
19070,36363
18984,36399
18829,36430
18670,36430
18515,36399
18429,36363
18368,36338
18236,36250
18124,36138
18036,36006
17995,35908
17975,35859
17944,35704
17944,35545
17975,35390
18023,35274
18036,35243
18124,35111
18236,34999
18368,34911
18429,34886
18515,34850
18670,34819
18829,34819
18984,34850
Z" /> 
<path style="fill:#000000; fill-opacity:1.0; 
stroke:#000000; stroke-width:0; stroke-opacity:1; 
stroke-linecap:round; stroke-linejoin:round;fill-rule:evenodd;"
d="M 56484,34850
56570,34886
56631,34911
56763,34999
56875,35111
56963,35243
56976,35274
57024,35390
57055,35545
57055,35704
57024,35859
57004,35908
56963,36006
56875,36138
56763,36250
56631,36338
56570,36363
56484,36399
56329,36430
56170,36430
56015,36399
55929,36363
55868,36338
55736,36250
55624,36138
55536,36006
55495,35908
55475,35859
55444,35704
55444,35545
55475,35390
55523,35274
55536,35243
55624,35111
55736,34999
55868,34911
55929,34886
56015,34850
56170,34819
56329,34819
56484,34850
Z" /> 
<path style="fill:#000000; fill-opacity:1.0; 
stroke:#000000; stroke-width:0; stroke-opacity:1; 
stroke-linecap:round; stroke-linejoin:round;fill-rule:evenodd;"
d="M 63984,34850
64070,34886
64131,34911
64263,34999
64375,35111
64463,35243
64476,35274
64524,35390
64555,35545
64555,35704
64524,35859
64504,35908
64463,36006
64375,36138
64263,36250
64131,36338
64070,36363
63984,36399
63829,36430
63670,36430
63515,36399
63429,36363
63368,36338
63236,36250
63124,36138
63036,36006
62995,35908
62975,35859
62944,35704
62944,35545
62975,35390
63023,35274
63036,35243
63124,35111
63236,34999
63368,34911
63429,34886
63515,34850
63670,34819
63829,34819
63984,34850
Z" /> 
<path style="fill:#000000; fill-opacity:1.0; 
stroke:#000000; stroke-width:0; stroke-opacity:1; 
stroke-linecap:round; stroke-linejoin:round;fill-rule:evenodd;"
d="M 71484,34850
71570,34886
71631,34911
71763,34999
71875,35111
71963,35243
71976,35274
72024,35390
72055,35545
72055,35704
72024,35859
72004,35908
71963,36006
71875,36138
71763,36250
71631,36338
71570,36363
71484,36399
71329,36430
71170,36430
71015,36399
70929,36363
70868,36338
70736,36250
70624,36138
70536,36006
70495,35908
70475,35859
70444,35704
70444,35545
70475,35390
70523,35274
70536,35243
70624,35111
70736,34999
70868,34911
70929,34886
71015,34850
71170,34819
71329,34819
71484,34850
Z" /> 
<path style="fill:#000000; fill-opacity:1.0; 
stroke:#000000; stroke-width:0; stroke-opacity:1; 
stroke-linecap:round; stroke-linejoin:round;fill-rule:evenodd;"
d="M 78984,34850
79070,34886
79131,34911
79263,34999
79375,35111
79463,35243
79476,35274
79524,35390
79555,35545
79555,35704
79524,35859
79504,35908
79463,36006
79375,36138
79263,36250
79131,36338
79070,36363
78984,36399
78829,36430
78670,36430
78515,36399
78429,36363
78368,36338
78236,36250
78124,36138
78036,36006
77995,35908
77975,35859
77944,35704
77944,35545
77975,35390
78023,35274
78036,35243
78124,35111
78236,34999
78368,34911
78429,34886
78515,34850
78670,34819
78829,34819
78984,34850
Z" /> 
<path style="fill:#000000; fill-opacity:1.0; 
stroke:#000000; stroke-width:0; stroke-opacity:1; 
stroke-linecap:round; stroke-linejoin:round;fill-rule:evenodd;"
d="M 93984,34850
94070,34886
94131,34911
94263,34999
94375,35111
94463,35243
94476,35274
94524,35390
94555,35545
94555,35704
94524,35859
94504,35908
94463,36006
94375,36138
94263,36250
94131,36338
94070,36363
93984,36399
93829,36430
93670,36430
93515,36399
93429,36363
93368,36338
93236,36250
93124,36138
93036,36006
92995,35908
92975,35859
92944,35704
92944,35545
92975,35390
93023,35274
93036,35243
93124,35111
93236,34999
93368,34911
93429,34886
93515,34850
93670,34819
93829,34819
93984,34850
Z" /> 
<path style="fill:#000000; fill-opacity:1.0; 
stroke:#000000; stroke-width:0; stroke-opacity:1; 
stroke-linecap:round; stroke-linejoin:round;fill-rule:evenodd;"
d="M 101541,34850
101627,34886
101688,34911
101819,34999
101932,35111
102020,35243
102032,35274
102080,35390
102111,35545
102111,35704
102080,35859
102060,35908
102020,36006
101932,36138
101819,36250
101688,36338
101627,36363
101541,36399
101386,36430
101227,36430
101071,36399
100986,36363
100925,36338
100793,36250
100681,36138
100593,36006
100552,35908
100532,35859
100501,35704
100501,35545
100532,35390
100580,35274
100593,35243
100681,35111
100793,34999
100925,34911
100986,34886
101071,34850
101227,34819
101386,34819
101541,34850
Z" /> 
<path style="fill:#000000; fill-opacity:1.0; 
stroke:#000000; stroke-width:0; stroke-opacity:1; 
stroke-linecap:round; stroke-linejoin:round;fill-rule:evenodd;"
d="M 86484,34850
86570,34886
86631,34911
86763,34999
86875,35111
86963,35243
86976,35274
87024,35390
87055,35545
87055,35704
87024,35859
87004,35908
86963,36006
86875,36138
86763,36250
86631,36338
86570,36363
86484,36399
86329,36430
86170,36430
86015,36399
85929,36363
85868,36338
85736,36250
85624,36138
85536,36006
85495,35908
85475,35859
85444,35704
85444,35545
85475,35390
85523,35274
85536,35243
85624,35111
85736,34999
85868,34911
85929,34886
86015,34850
86170,34819
86329,34819
86484,34850
Z" /> 
<path style="fill:#000000; fill-opacity:1.0; 
stroke:#000000; stroke-width:0; stroke-opacity:1; 
stroke-linecap:round; stroke-linejoin:round;fill-rule:evenodd;"
d="M 31856,35274
31922,35301
31982,35341
32033,35392
32073,35452
32100,35518
32114,35589
32114,35660
32100,35731
32073,35797
32033,35857
31982,35908
31922,35948
31856,35975
31785,35989
31714,35989
31643,35975
31577,35948
31517,35908
31466,35857
31426,35797
31399,35731
31385,35660
31385,35589
31399,35518
31426,35452
31466,35392
31517,35341
31577,35301
31643,35274
31714,35260
31785,35260
31856,35274
Z" /> 
<path style="fill:#000000; fill-opacity:1.0; 
stroke:#000000; stroke-width:0; stroke-opacity:1; 
stroke-linecap:round; stroke-linejoin:round;fill-rule:evenodd;"
d="M 28356,35274
28422,35301
28482,35341
28533,35392
28573,35452
28600,35518
28614,35589
28614,35660
28600,35731
28573,35797
28533,35857
28482,35908
28422,35948
28356,35975
28285,35989
28214,35989
28143,35975
28077,35948
28017,35908
27966,35857
27926,35797
27899,35731
27885,35660
27885,35589
27899,35518
27926,35452
27966,35392
28017,35341
28077,35301
28143,35274
28214,35260
28285,35260
28356,35274
Z" /> 
<path style="fill:#000000; fill-opacity:1.0; 
stroke:#000000; stroke-width:0; stroke-opacity:1; 
stroke-linecap:round; stroke-linejoin:round;fill-rule:evenodd;"
d="M 24356,35274
24422,35301
24482,35341
24533,35392
24573,35452
24600,35518
24614,35589
24614,35660
24600,35731
24573,35797
24533,35857
24482,35908
24422,35948
24356,35975
24285,35989
24214,35989
24143,35975
24077,35948
24017,35908
23966,35857
23926,35797
23899,35731
23885,35660
23885,35589
23899,35518
23926,35452
23966,35392
24017,35341
24077,35301
24143,35274
24214,35260
24285,35260
24356,35274
Z" /> 
<path style="fill:#000000; fill-opacity:1.0; 
stroke:#000000; stroke-width:0; stroke-opacity:1; 
stroke-linecap:round; stroke-linejoin:round;fill-rule:evenodd;"
d="M 20856,35274
20922,35301
20982,35341
21033,35392
21073,35452
21100,35518
21114,35589
21114,35660
21100,35731
21073,35797
21033,35857
20982,35908
20922,35948
20856,35975
20785,35989
20714,35989
20643,35975
20577,35948
20517,35908
20466,35857
20426,35797
20399,35731
20385,35660
20385,35589
20399,35518
20426,35452
20466,35392
20517,35341
20577,35301
20643,35274
20714,35260
20785,35260
20856,35274
Z" /> 
<path style="fill:#000000; fill-opacity:1.0; 
stroke:#000000; stroke-width:0; stroke-opacity:1; 
stroke-linecap:round; stroke-linejoin:round;fill-rule:evenodd;"
d="M 16856,35274
16922,35301
16982,35341
17033,35392
17073,35452
17100,35518
17114,35589
17114,35660
17100,35731
17073,35797
17033,35857
16982,35908
16922,35948
16856,35975
16785,35989
16714,35989
16643,35975
16577,35948
16517,35908
16466,35857
16426,35797
16399,35731
16385,35660
16385,35589
16399,35518
16426,35452
16466,35392
16517,35341
16577,35301
16643,35274
16714,35260
16785,35260
16856,35274
Z" /> 
<path style="fill:#000000; fill-opacity:1.0; 
stroke:#000000; stroke-width:0; stroke-opacity:1; 
stroke-linecap:round; stroke-linejoin:round;fill-rule:evenodd;"
d="M 99413,35274
99479,35301
99539,35341
99589,35392
99629,35452
99657,35518
99671,35589
99671,35660
99657,35731
99629,35797
99589,35857
99539,35908
99479,35948
99413,35975
99342,35989
99270,35989
99200,35975
99134,35948
99074,35908
99023,35857
98983,35797
98956,35731
98942,35660
98942,35589
98956,35518
98983,35452
99023,35392
99074,35341
99134,35301
99200,35274
99270,35260
99342,35260
99413,35274
Z" /> 
<path style="fill:#000000; fill-opacity:1.0; 
stroke:#000000; stroke-width:0; stroke-opacity:1; 
stroke-linecap:round; stroke-linejoin:round;fill-rule:evenodd;"
d="M 103413,35274
103479,35301
103539,35341
103589,35392
103629,35452
103657,35518
103671,35589
103671,35660
103657,35731
103629,35797
103589,35857
103539,35908
103479,35948
103413,35975
103342,35989
103270,35989
103200,35975
103134,35948
103074,35908
103023,35857
102983,35797
102956,35731
102942,35660
102942,35589
102956,35518
102983,35452
103023,35392
103074,35341
103134,35301
103200,35274
103270,35260
103342,35260
103413,35274
Z" /> 
<path style="fill:#000000; fill-opacity:1.0; 
stroke:#000000; stroke-width:0; stroke-opacity:1; 
stroke-linecap:round; stroke-linejoin:round;fill-rule:evenodd;"
d="M 43356,35274
43422,35301
43482,35341
43533,35392
43573,35452
43600,35518
43614,35589
43614,35660
43600,35731
43573,35797
43533,35857
43482,35908
43422,35948
43356,35975
43285,35989
43214,35989
43143,35975
43077,35948
43017,35908
42966,35857
42926,35797
42899,35731
42885,35660
42885,35589
42899,35518
42926,35452
42966,35392
43017,35341
43077,35301
43143,35274
43214,35260
43285,35260
43356,35274
Z" /> 
<path style="fill:#000000; fill-opacity:1.0; 
stroke:#000000; stroke-width:0; stroke-opacity:1; 
stroke-linecap:round; stroke-linejoin:round;fill-rule:evenodd;"
d="M 39356,35274
39422,35301
39482,35341
39533,35392
39573,35452
39600,35518
39614,35589
39614,35660
39600,35731
39573,35797
39533,35857
39482,35908
39422,35948
39356,35975
39285,35989
39214,35989
39143,35975
39077,35948
39017,35908
38966,35857
38926,35797
38899,35731
38885,35660
38885,35589
38899,35518
38926,35452
38966,35392
39017,35341
39077,35301
39143,35274
39214,35260
39285,35260
39356,35274
Z" /> 
<path style="fill:#000000; fill-opacity:1.0; 
stroke:#000000; stroke-width:0; stroke-opacity:1; 
stroke-linecap:round; stroke-linejoin:round;fill-rule:evenodd;"
d="M 65856,35274
65922,35301
65982,35341
66033,35392
66073,35452
66100,35518
66114,35589
66114,35660
66100,35731
66073,35797
66033,35857
65982,35908
65922,35948
65856,35975
65785,35989
65714,35989
65643,35975
65577,35948
65517,35908
65466,35857
65426,35797
65399,35731
65385,35660
65385,35589
65399,35518
65426,35452
65466,35392
65517,35341
65577,35301
65643,35274
65714,35260
65785,35260
65856,35274
Z" /> 
<path style="fill:#000000; fill-opacity:1.0; 
stroke:#000000; stroke-width:0; stroke-opacity:1; 
stroke-linecap:round; stroke-linejoin:round;fill-rule:evenodd;"
d="M 88356,35274
88422,35301
88482,35341
88533,35392
88573,35452
88600,35518
88614,35589
88614,35660
88600,35731
88573,35797
88533,35857
88482,35908
88422,35948
88356,35975
88285,35989
88214,35989
88143,35975
88077,35948
88017,35908
87966,35857
87926,35797
87899,35731
87885,35660
87885,35589
87899,35518
87926,35452
87966,35392
88017,35341
88077,35301
88143,35274
88214,35260
88285,35260
88356,35274
Z" /> 
<path style="fill:#000000; fill-opacity:1.0; 
stroke:#000000; stroke-width:0; stroke-opacity:1; 
stroke-linecap:round; stroke-linejoin:round;fill-rule:evenodd;"
d="M 84356,35274
84422,35301
84482,35341
84533,35392
84573,35452
84600,35518
84614,35589
84614,35660
84600,35731
84573,35797
84533,35857
84482,35908
84422,35948
84356,35975
84285,35989
84214,35989
84143,35975
84077,35948
84017,35908
83966,35857
83926,35797
83899,35731
83885,35660
83885,35589
83899,35518
83926,35452
83966,35392
84017,35341
84077,35301
84143,35274
84214,35260
84285,35260
84356,35274
Z" /> 
<path style="fill:#000000; fill-opacity:1.0; 
stroke:#000000; stroke-width:0; stroke-opacity:1; 
stroke-linecap:round; stroke-linejoin:round;fill-rule:evenodd;"
d="M 61856,35274
61922,35301
61982,35341
62033,35392
62073,35452
62100,35518
62114,35589
62114,35660
62100,35731
62073,35797
62033,35857
61982,35908
61922,35948
61856,35975
61785,35989
61714,35989
61643,35975
61577,35948
61517,35908
61466,35857
61426,35797
61399,35731
61385,35660
61385,35589
61399,35518
61426,35452
61466,35392
61517,35341
61577,35301
61643,35274
61714,35260
61785,35260
61856,35274
Z" /> 
<path style="fill:#000000; fill-opacity:1.0; 
stroke:#000000; stroke-width:0; stroke-opacity:1; 
stroke-linecap:round; stroke-linejoin:round;fill-rule:evenodd;"
d="M 58356,35274
58422,35301
58482,35341
58533,35392
58573,35452
58600,35518
58614,35589
58614,35660
58600,35731
58573,35797
58533,35857
58482,35908
58422,35948
58356,35975
58285,35989
58214,35989
58143,35975
58077,35948
58017,35908
57966,35857
57926,35797
57899,35731
57885,35660
57885,35589
57899,35518
57926,35452
57966,35392
58017,35341
58077,35301
58143,35274
58214,35260
58285,35260
58356,35274
Z" /> 
<path style="fill:#000000; fill-opacity:1.0; 
stroke:#000000; stroke-width:0; stroke-opacity:1; 
stroke-linecap:round; stroke-linejoin:round;fill-rule:evenodd;"
d="M 54356,35274
54422,35301
54482,35341
54533,35392
54573,35452
54600,35518
54614,35589
54614,35660
54600,35731
54573,35797
54533,35857
54482,35908
54422,35948
54356,35975
54285,35989
54214,35989
54143,35975
54077,35948
54017,35908
53966,35857
53926,35797
53899,35731
53885,35660
53885,35589
53899,35518
53926,35452
53966,35392
54017,35341
54077,35301
54143,35274
54214,35260
54285,35260
54356,35274
Z" /> 
<path style="fill:#000000; fill-opacity:1.0; 
stroke:#000000; stroke-width:0; stroke-opacity:1; 
stroke-linecap:round; stroke-linejoin:round;fill-rule:evenodd;"
d="M 50856,35274
50922,35301
50982,35341
51033,35392
51073,35452
51100,35518
51114,35589
51114,35660
51100,35731
51073,35797
51033,35857
50982,35908
50922,35948
50856,35975
50785,35989
50714,35989
50643,35975
50577,35948
50517,35908
50466,35857
50426,35797
50399,35731
50385,35660
50385,35589
50399,35518
50426,35452
50466,35392
50517,35341
50577,35301
50643,35274
50714,35260
50785,35260
50856,35274
Z" /> 
<path style="fill:#000000; fill-opacity:1.0; 
stroke:#000000; stroke-width:0; stroke-opacity:1; 
stroke-linecap:round; stroke-linejoin:round;fill-rule:evenodd;"
d="M 46856,35274
46922,35301
46982,35341
47033,35392
47073,35452
47100,35518
47114,35589
47114,35660
47100,35731
47073,35797
47033,35857
46982,35908
46922,35948
46856,35975
46785,35989
46714,35989
46643,35975
46577,35948
46517,35908
46466,35857
46426,35797
46399,35731
46385,35660
46385,35589
46399,35518
46426,35452
46466,35392
46517,35341
46577,35301
46643,35274
46714,35260
46785,35260
46856,35274
Z" /> 
<path style="fill:#000000; fill-opacity:1.0; 
stroke:#000000; stroke-width:0; stroke-opacity:1; 
stroke-linecap:round; stroke-linejoin:round;fill-rule:evenodd;"
d="M 35856,35274
35922,35301
35982,35341
36033,35392
36073,35452
36100,35518
36114,35589
36114,35660
36100,35731
36073,35797
36033,35857
35982,35908
35922,35948
35856,35975
35785,35989
35714,35989
35643,35975
35577,35948
35517,35908
35466,35857
35426,35797
35399,35731
35385,35660
35385,35589
35399,35518
35426,35452
35466,35392
35517,35341
35577,35301
35643,35274
35714,35260
35785,35260
35856,35274
Z" /> 
<path style="fill:#000000; fill-opacity:1.0; 
stroke:#000000; stroke-width:0; stroke-opacity:1; 
stroke-linecap:round; stroke-linejoin:round;fill-rule:evenodd;"
d="M 73356,35274
73422,35301
73482,35341
73533,35392
73573,35452
73600,35518
73614,35589
73614,35660
73600,35731
73573,35797
73533,35857
73482,35908
73422,35948
73356,35975
73285,35989
73214,35989
73143,35975
73077,35948
73017,35908
72966,35857
72926,35797
72899,35731
72885,35660
72885,35589
72899,35518
72926,35452
72966,35392
73017,35341
73077,35301
73143,35274
73214,35260
73285,35260
73356,35274
Z" /> 
<path style="fill:#000000; fill-opacity:1.0; 
stroke:#000000; stroke-width:0; stroke-opacity:1; 
stroke-linecap:round; stroke-linejoin:round;fill-rule:evenodd;"
d="M 91856,35274
91922,35301
91982,35341
92033,35392
92073,35452
92100,35518
92114,35589
92114,35660
92100,35731
92073,35797
92033,35857
91982,35908
91922,35948
91856,35975
91785,35989
91714,35989
91643,35975
91577,35948
91517,35908
91466,35857
91426,35797
91399,35731
91385,35660
91385,35589
91399,35518
91426,35452
91466,35392
91517,35341
91577,35301
91643,35274
91714,35260
91785,35260
91856,35274
Z" /> 
<path style="fill:#000000; fill-opacity:1.0; 
stroke:#000000; stroke-width:0; stroke-opacity:1; 
stroke-linecap:round; stroke-linejoin:round;fill-rule:evenodd;"
d="M 95856,35274
95922,35301
95982,35341
96033,35392
96073,35452
96100,35518
96114,35589
96114,35660
96100,35731
96073,35797
96033,35857
95982,35908
95922,35948
95856,35975
95785,35989
95714,35989
95643,35975
95577,35948
95517,35908
95466,35857
95426,35797
95399,35731
95385,35660
95385,35589
95399,35518
95426,35452
95466,35392
95517,35341
95577,35301
95643,35274
95714,35260
95785,35260
95856,35274
Z" /> 
<path style="fill:#000000; fill-opacity:1.0; 
stroke:#000000; stroke-width:0; stroke-opacity:1; 
stroke-linecap:round; stroke-linejoin:round;fill-rule:evenodd;"
d="M 76856,35274
76922,35301
76982,35341
77033,35392
77073,35452
77100,35518
77114,35589
77114,35660
77100,35731
77073,35797
77033,35857
76982,35908
76922,35948
76856,35975
76785,35989
76714,35989
76643,35975
76577,35948
76517,35908
76466,35857
76426,35797
76399,35731
76385,35660
76385,35589
76399,35518
76426,35452
76466,35392
76517,35341
76577,35301
76643,35274
76714,35260
76785,35260
76856,35274
Z" /> 
<path style="fill:#000000; fill-opacity:1.0; 
stroke:#000000; stroke-width:0; stroke-opacity:1; 
stroke-linecap:round; stroke-linejoin:round;fill-rule:evenodd;"
d="M 80856,35274
80922,35301
80982,35341
81033,35392
81073,35452
81100,35518
81114,35589
81114,35660
81100,35731
81073,35797
81033,35857
80982,35908
80922,35948
80856,35975
80785,35989
80714,35989
80643,35975
80577,35948
80517,35908
80466,35857
80426,35797
80399,35731
80385,35660
80385,35589
80399,35518
80426,35452
80466,35392
80517,35341
80577,35301
80643,35274
80714,35260
80785,35260
80856,35274
Z" /> 
<path style="fill:#000000; fill-opacity:1.0; 
stroke:#000000; stroke-width:0; stroke-opacity:1; 
stroke-linecap:round; stroke-linejoin:round;fill-rule:evenodd;"
d="M 69356,35274
69422,35301
69482,35341
69533,35392
69573,35452
69600,35518
69614,35589
69614,35660
69600,35731
69573,35797
69533,35857
69482,35908
69422,35948
69356,35975
69285,35989
69214,35989
69143,35975
69077,35948
69017,35908
68966,35857
68926,35797
68899,35731
68885,35660
68885,35589
68899,35518
68926,35452
68966,35392
69017,35341
69077,35301
69143,35274
69214,35260
69285,35260
69356,35274
Z" /> 
<path style="fill:#000000; fill-opacity:1.0; 
stroke:#000000; stroke-width:0; stroke-opacity:1; 
stroke-linecap:round; stroke-linejoin:round;fill-rule:evenodd;"
d="M 99609,27350
99695,27386
99756,27411
99888,27499
100000,27611
100088,27743
100101,27774
100149,27890
100180,28045
100180,28204
100149,28359
100129,28408
100088,28506
100000,28638
99888,28750
99756,28838
99695,28863
99609,28899
99454,28930
99295,28930
99140,28899
99054,28863
98993,28838
98861,28750
98749,28638
98661,28506
98620,28408
98600,28359
98569,28204
98569,28045
98600,27890
98648,27774
98661,27743
98749,27611
98861,27499
98993,27411
99054,27386
99140,27350
99295,27319
99454,27319
99609,27350
Z" /> 
<path style="fill:#000000; fill-opacity:1.0; 
stroke:#000000; stroke-width:0; stroke-opacity:1; 
stroke-linecap:round; stroke-linejoin:round;fill-rule:evenodd;"
d="M 84609,27350
84695,27386
84756,27411
84888,27499
85000,27611
85088,27743
85101,27774
85149,27890
85180,28045
85180,28204
85149,28359
85129,28408
85088,28506
85000,28638
84888,28750
84756,28838
84695,28863
84609,28899
84454,28930
84295,28930
84140,28899
84054,28863
83993,28838
83861,28750
83749,28638
83661,28506
83620,28408
83600,28359
83569,28204
83569,28045
83600,27890
83648,27774
83661,27743
83749,27611
83861,27499
83993,27411
84054,27386
84140,27350
84295,27319
84454,27319
84609,27350
Z" /> 
<path style="fill:#000000; fill-opacity:1.0; 
stroke:#000000; stroke-width:0; stroke-opacity:1; 
stroke-linecap:round; stroke-linejoin:round;fill-rule:evenodd;"
d="M 92109,27350
92195,27386
92256,27411
92388,27499
92500,27611
92588,27743
92601,27774
92649,27890
92680,28045
92680,28204
92649,28359
92629,28408
92588,28506
92500,28638
92388,28750
92256,28838
92195,28863
92109,28899
91954,28930
91795,28930
91640,28899
91554,28863
91493,28838
91361,28750
91249,28638
91161,28506
91120,28408
91100,28359
91069,28204
91069,28045
91100,27890
91148,27774
91161,27743
91249,27611
91361,27499
91493,27411
91554,27386
91640,27350
91795,27319
91954,27319
92109,27350
Z" /> 
<path style="fill:#000000; fill-opacity:1.0; 
stroke:#000000; stroke-width:0; stroke-opacity:1; 
stroke-linecap:round; stroke-linejoin:round;fill-rule:evenodd;"
d="M 69609,27350
69695,27386
69756,27411
69888,27499
70000,27611
70088,27743
70101,27774
70149,27890
70180,28045
70180,28204
70149,28359
70129,28408
70088,28506
70000,28638
69888,28750
69756,28838
69695,28863
69609,28899
69454,28930
69295,28930
69140,28899
69054,28863
68993,28838
68861,28750
68749,28638
68661,28506
68620,28408
68600,28359
68569,28204
68569,28045
68600,27890
68648,27774
68661,27743
68749,27611
68861,27499
68993,27411
69054,27386
69140,27350
69295,27319
69454,27319
69609,27350
Z" /> 
<path style="fill:#000000; fill-opacity:1.0; 
stroke:#000000; stroke-width:0; stroke-opacity:1; 
stroke-linecap:round; stroke-linejoin:round;fill-rule:evenodd;"
d="M 17109,27350
17195,27386
17256,27411
17388,27499
17500,27611
17588,27743
17601,27774
17649,27890
17680,28045
17680,28204
17649,28359
17629,28408
17588,28506
17500,28638
17388,28750
17256,28838
17195,28863
17109,28899
16954,28930
16795,28930
16640,28899
16554,28863
16493,28838
16361,28750
16249,28638
16161,28506
16120,28408
16100,28359
16069,28204
16069,28045
16100,27890
16148,27774
16161,27743
16249,27611
16361,27499
16493,27411
16554,27386
16640,27350
16795,27319
16954,27319
17109,27350
Z" /> 
<path style="fill:#000000; fill-opacity:1.0; 
stroke:#000000; stroke-width:0; stroke-opacity:1; 
stroke-linecap:round; stroke-linejoin:round;fill-rule:evenodd;"
d="M 77109,27350
77195,27386
77256,27411
77388,27499
77500,27611
77588,27743
77601,27774
77649,27890
77680,28045
77680,28204
77649,28359
77629,28408
77588,28506
77500,28638
77388,28750
77256,28838
77195,28863
77109,28899
76954,28930
76795,28930
76640,28899
76554,28863
76493,28838
76361,28750
76249,28638
76161,28506
76120,28408
76100,28359
76069,28204
76069,28045
76100,27890
76148,27774
76161,27743
76249,27611
76361,27499
76493,27411
76554,27386
76640,27350
76795,27319
76954,27319
77109,27350
Z" /> 
<path style="fill:#000000; fill-opacity:1.0; 
stroke:#000000; stroke-width:0; stroke-opacity:1; 
stroke-linecap:round; stroke-linejoin:round;fill-rule:evenodd;"
d="M 24609,27350
24695,27386
24756,27411
24888,27499
25000,27611
25088,27743
25101,27774
25149,27890
25180,28045
25180,28204
25149,28359
25129,28408
25088,28506
25000,28638
24888,28750
24756,28838
24695,28863
24609,28899
24454,28930
24295,28930
24140,28899
24054,28863
23993,28838
23861,28750
23749,28638
23661,28506
23620,28408
23600,28359
23569,28204
23569,28045
23600,27890
23648,27774
23661,27743
23749,27611
23861,27499
23993,27411
24054,27386
24140,27350
24295,27319
24454,27319
24609,27350
Z" /> 
<path style="fill:#000000; fill-opacity:1.0; 
stroke:#000000; stroke-width:0; stroke-opacity:1; 
stroke-linecap:round; stroke-linejoin:round;fill-rule:evenodd;"
d="M 32109,27350
32195,27386
32256,27411
32388,27499
32500,27611
32588,27743
32601,27774
32649,27890
32680,28045
32680,28204
32649,28359
32629,28408
32588,28506
32500,28638
32388,28750
32256,28838
32195,28863
32109,28899
31954,28930
31795,28930
31640,28899
31554,28863
31493,28838
31361,28750
31249,28638
31161,28506
31120,28408
31100,28359
31069,28204
31069,28045
31100,27890
31148,27774
31161,27743
31249,27611
31361,27499
31493,27411
31554,27386
31640,27350
31795,27319
31954,27319
32109,27350
Z" /> 
<path style="fill:#000000; fill-opacity:1.0; 
stroke:#000000; stroke-width:0; stroke-opacity:1; 
stroke-linecap:round; stroke-linejoin:round;fill-rule:evenodd;"
d="M 62109,27350
62195,27386
62256,27411
62388,27499
62500,27611
62588,27743
62601,27774
62649,27890
62680,28045
62680,28204
62649,28359
62629,28408
62588,28506
62500,28638
62388,28750
62256,28838
62195,28863
62109,28899
61954,28930
61795,28930
61640,28899
61554,28863
61493,28838
61361,28750
61249,28638
61161,28506
61120,28408
61100,28359
61069,28204
61069,28045
61100,27890
61148,27774
61161,27743
61249,27611
61361,27499
61493,27411
61554,27386
61640,27350
61795,27319
61954,27319
62109,27350
Z" /> 
<path style="fill:#000000; fill-opacity:1.0; 
stroke:#000000; stroke-width:0; stroke-opacity:1; 
stroke-linecap:round; stroke-linejoin:round;fill-rule:evenodd;"
d="M 54609,27350
54695,27386
54756,27411
54888,27499
55000,27611
55088,27743
55101,27774
55149,27890
55180,28045
55180,28204
55149,28359
55129,28408
55088,28506
55000,28638
54888,28750
54756,28838
54695,28863
54609,28899
54454,28930
54295,28930
54140,28899
54054,28863
53993,28838
53861,28750
53749,28638
53661,28506
53620,28408
53600,28359
53569,28204
53569,28045
53600,27890
53648,27774
53661,27743
53749,27611
53861,27499
53993,27411
54054,27386
54140,27350
54295,27319
54454,27319
54609,27350
Z" /> 
<path style="fill:#000000; fill-opacity:1.0; 
stroke:#000000; stroke-width:0; stroke-opacity:1; 
stroke-linecap:round; stroke-linejoin:round;fill-rule:evenodd;"
d="M 39609,27350
39695,27386
39756,27411
39888,27499
40000,27611
40088,27743
40101,27774
40149,27890
40180,28045
40180,28204
40149,28359
40129,28408
40088,28506
40000,28638
39888,28750
39756,28838
39695,28863
39609,28899
39454,28930
39295,28930
39140,28899
39054,28863
38993,28838
38861,28750
38749,28638
38661,28506
38620,28408
38600,28359
38569,28204
38569,28045
38600,27890
38648,27774
38661,27743
38749,27611
38861,27499
38993,27411
39054,27386
39140,27350
39295,27319
39454,27319
39609,27350
Z" /> 
<path style="fill:#000000; fill-opacity:1.0; 
stroke:#000000; stroke-width:0; stroke-opacity:1; 
stroke-linecap:round; stroke-linejoin:round;fill-rule:evenodd;"
d="M 47109,27350
47195,27386
47256,27411
47388,27499
47500,27611
47588,27743
47601,27774
47649,27890
47680,28045
47680,28204
47649,28359
47629,28408
47588,28506
47500,28638
47388,28750
47256,28838
47195,28863
47109,28899
46954,28930
46795,28930
46640,28899
46554,28863
46493,28838
46361,28750
46249,28638
46161,28506
46120,28408
46100,28359
46069,28204
46069,28045
46100,27890
46148,27774
46161,27743
46249,27611
46361,27499
46493,27411
46554,27386
46640,27350
46795,27319
46954,27319
47109,27350
Z" /> 
<path style="fill:#000000; fill-opacity:1.0; 
stroke:#000000; stroke-width:0; stroke-opacity:1; 
stroke-linecap:round; stroke-linejoin:round;fill-rule:evenodd;"
d="M 18981,27774
19047,27801
19107,27841
19158,27892
19198,27952
19225,28018
19239,28089
19239,28160
19225,28231
19198,28297
19158,28357
19107,28408
19047,28448
18981,28475
18910,28489
18839,28489
18768,28475
18702,28448
18642,28408
18591,28357
18551,28297
18524,28231
18510,28160
18510,28089
18524,28018
18551,27952
18591,27892
18642,27841
18702,27801
18768,27774
18839,27760
18910,27760
18981,27774
Z" /> 
<path style="fill:#000000; fill-opacity:1.0; 
stroke:#000000; stroke-width:0; stroke-opacity:1; 
stroke-linecap:round; stroke-linejoin:round;fill-rule:evenodd;"
d="M 22481,27774
22547,27801
22607,27841
22658,27892
22698,27952
22725,28018
22739,28089
22739,28160
22725,28231
22698,28297
22658,28357
22607,28408
22547,28448
22481,28475
22410,28489
22339,28489
22268,28475
22202,28448
22142,28408
22091,28357
22051,28297
22024,28231
22010,28160
22010,28089
22024,28018
22051,27952
22091,27892
22142,27841
22202,27801
22268,27774
22339,27760
22410,27760
22481,27774
Z" /> 
<path style="fill:#000000; fill-opacity:1.0; 
stroke:#000000; stroke-width:0; stroke-opacity:1; 
stroke-linecap:round; stroke-linejoin:round;fill-rule:evenodd;"
d="M 26481,27774
26547,27801
26607,27841
26658,27892
26698,27952
26725,28018
26739,28089
26739,28160
26725,28231
26698,28297
26658,28357
26607,28408
26547,28448
26481,28475
26410,28489
26339,28489
26268,28475
26202,28448
26142,28408
26091,28357
26051,28297
26024,28231
26010,28160
26010,28089
26024,28018
26051,27952
26091,27892
26142,27841
26202,27801
26268,27774
26339,27760
26410,27760
26481,27774
Z" /> 
<path style="fill:#000000; fill-opacity:1.0; 
stroke:#000000; stroke-width:0; stroke-opacity:1; 
stroke-linecap:round; stroke-linejoin:round;fill-rule:evenodd;"
d="M 29981,27774
30047,27801
30107,27841
30158,27892
30198,27952
30225,28018
30239,28089
30239,28160
30225,28231
30198,28297
30158,28357
30107,28408
30047,28448
29981,28475
29910,28489
29839,28489
29768,28475
29702,28448
29642,28408
29591,28357
29551,28297
29524,28231
29510,28160
29510,28089
29524,28018
29551,27952
29591,27892
29642,27841
29702,27801
29768,27774
29839,27760
29910,27760
29981,27774
Z" /> 
<path style="fill:#000000; fill-opacity:1.0; 
stroke:#000000; stroke-width:0; stroke-opacity:1; 
stroke-linecap:round; stroke-linejoin:round;fill-rule:evenodd;"
d="M 33981,27774
34047,27801
34107,27841
34158,27892
34198,27952
34225,28018
34239,28089
34239,28160
34225,28231
34198,28297
34158,28357
34107,28408
34047,28448
33981,28475
33910,28489
33839,28489
33768,28475
33702,28448
33642,28408
33591,28357
33551,28297
33524,28231
33510,28160
33510,28089
33524,28018
33551,27952
33591,27892
33642,27841
33702,27801
33768,27774
33839,27760
33910,27760
33981,27774
Z" /> 
<path style="fill:#000000; fill-opacity:1.0; 
stroke:#000000; stroke-width:0; stroke-opacity:1; 
stroke-linecap:round; stroke-linejoin:round;fill-rule:evenodd;"
d="M 37481,27774
37547,27801
37607,27841
37658,27892
37698,27952
37725,28018
37739,28089
37739,28160
37725,28231
37698,28297
37658,28357
37607,28408
37547,28448
37481,28475
37410,28489
37339,28489
37268,28475
37202,28448
37142,28408
37091,28357
37051,28297
37024,28231
37010,28160
37010,28089
37024,28018
37051,27952
37091,27892
37142,27841
37202,27801
37268,27774
37339,27760
37410,27760
37481,27774
Z" /> 
<path style="fill:#000000; fill-opacity:1.0; 
stroke:#000000; stroke-width:0; stroke-opacity:1; 
stroke-linecap:round; stroke-linejoin:round;fill-rule:evenodd;"
d="M 41481,27774
41547,27801
41607,27841
41658,27892
41698,27952
41725,28018
41739,28089
41739,28160
41725,28231
41698,28297
41658,28357
41607,28408
41547,28448
41481,28475
41410,28489
41339,28489
41268,28475
41202,28448
41142,28408
41091,28357
41051,28297
41024,28231
41010,28160
41010,28089
41024,28018
41051,27952
41091,27892
41142,27841
41202,27801
41268,27774
41339,27760
41410,27760
41481,27774
Z" /> 
<path style="fill:#000000; fill-opacity:1.0; 
stroke:#000000; stroke-width:0; stroke-opacity:1; 
stroke-linecap:round; stroke-linejoin:round;fill-rule:evenodd;"
d="M 44981,27774
45047,27801
45107,27841
45158,27892
45198,27952
45225,28018
45239,28089
45239,28160
45225,28231
45198,28297
45158,28357
45107,28408
45047,28448
44981,28475
44910,28489
44839,28489
44768,28475
44702,28448
44642,28408
44591,28357
44551,28297
44524,28231
44510,28160
44510,28089
44524,28018
44551,27952
44591,27892
44642,27841
44702,27801
44768,27774
44839,27760
44910,27760
44981,27774
Z" /> 
<path style="fill:#000000; fill-opacity:1.0; 
stroke:#000000; stroke-width:0; stroke-opacity:1; 
stroke-linecap:round; stroke-linejoin:round;fill-rule:evenodd;"
d="M 48981,27774
49047,27801
49107,27841
49158,27892
49198,27952
49225,28018
49239,28089
49239,28160
49225,28231
49198,28297
49158,28357
49107,28408
49047,28448
48981,28475
48910,28489
48839,28489
48768,28475
48702,28448
48642,28408
48591,28357
48551,28297
48524,28231
48510,28160
48510,28089
48524,28018
48551,27952
48591,27892
48642,27841
48702,27801
48768,27774
48839,27760
48910,27760
48981,27774
Z" /> 
<path style="fill:#000000; fill-opacity:1.0; 
stroke:#000000; stroke-width:0; stroke-opacity:1; 
stroke-linecap:round; stroke-linejoin:round;fill-rule:evenodd;"
d="M 52481,27774
52547,27801
52607,27841
52658,27892
52698,27952
52725,28018
52739,28089
52739,28160
52725,28231
52698,28297
52658,28357
52607,28408
52547,28448
52481,28475
52410,28489
52339,28489
52268,28475
52202,28448
52142,28408
52091,28357
52051,28297
52024,28231
52010,28160
52010,28089
52024,28018
52051,27952
52091,27892
52142,27841
52202,27801
52268,27774
52339,27760
52410,27760
52481,27774
Z" /> 
<path style="fill:#000000; fill-opacity:1.0; 
stroke:#000000; stroke-width:0; stroke-opacity:1; 
stroke-linecap:round; stroke-linejoin:round;fill-rule:evenodd;"
d="M 56481,27774
56547,27801
56607,27841
56658,27892
56698,27952
56725,28018
56739,28089
56739,28160
56725,28231
56698,28297
56658,28357
56607,28408
56547,28448
56481,28475
56410,28489
56339,28489
56268,28475
56202,28448
56142,28408
56091,28357
56051,28297
56024,28231
56010,28160
56010,28089
56024,28018
56051,27952
56091,27892
56142,27841
56202,27801
56268,27774
56339,27760
56410,27760
56481,27774
Z" /> 
<path style="fill:#000000; fill-opacity:1.0; 
stroke:#000000; stroke-width:0; stroke-opacity:1; 
stroke-linecap:round; stroke-linejoin:round;fill-rule:evenodd;"
d="M 59981,27774
60047,27801
60107,27841
60158,27892
60198,27952
60225,28018
60239,28089
60239,28160
60225,28231
60198,28297
60158,28357
60107,28408
60047,28448
59981,28475
59910,28489
59839,28489
59768,28475
59702,28448
59642,28408
59591,28357
59551,28297
59524,28231
59510,28160
59510,28089
59524,28018
59551,27952
59591,27892
59642,27841
59702,27801
59768,27774
59839,27760
59910,27760
59981,27774
Z" /> 
<path style="fill:#000000; fill-opacity:1.0; 
stroke:#000000; stroke-width:0; stroke-opacity:1; 
stroke-linecap:round; stroke-linejoin:round;fill-rule:evenodd;"
d="M 63981,27774
64047,27801
64107,27841
64158,27892
64198,27952
64225,28018
64239,28089
64239,28160
64225,28231
64198,28297
64158,28357
64107,28408
64047,28448
63981,28475
63910,28489
63839,28489
63768,28475
63702,28448
63642,28408
63591,28357
63551,28297
63524,28231
63510,28160
63510,28089
63524,28018
63551,27952
63591,27892
63642,27841
63702,27801
63768,27774
63839,27760
63910,27760
63981,27774
Z" /> 
<path style="fill:#000000; fill-opacity:1.0; 
stroke:#000000; stroke-width:0; stroke-opacity:1; 
stroke-linecap:round; stroke-linejoin:round;fill-rule:evenodd;"
d="M 67481,27774
67547,27801
67607,27841
67658,27892
67698,27952
67725,28018
67739,28089
67739,28160
67725,28231
67698,28297
67658,28357
67607,28408
67547,28448
67481,28475
67410,28489
67339,28489
67268,28475
67202,28448
67142,28408
67091,28357
67051,28297
67024,28231
67010,28160
67010,28089
67024,28018
67051,27952
67091,27892
67142,27841
67202,27801
67268,27774
67339,27760
67410,27760
67481,27774
Z" /> 
<path style="fill:#000000; fill-opacity:1.0; 
stroke:#000000; stroke-width:0; stroke-opacity:1; 
stroke-linecap:round; stroke-linejoin:round;fill-rule:evenodd;"
d="M 71481,27774
71547,27801
71607,27841
71658,27892
71698,27952
71725,28018
71739,28089
71739,28160
71725,28231
71698,28297
71658,28357
71607,28408
71547,28448
71481,28475
71410,28489
71339,28489
71268,28475
71202,28448
71142,28408
71091,28357
71051,28297
71024,28231
71010,28160
71010,28089
71024,28018
71051,27952
71091,27892
71142,27841
71202,27801
71268,27774
71339,27760
71410,27760
71481,27774
Z" /> 
<path style="fill:#000000; fill-opacity:1.0; 
stroke:#000000; stroke-width:0; stroke-opacity:1; 
stroke-linecap:round; stroke-linejoin:round;fill-rule:evenodd;"
d="M 74981,27774
75047,27801
75107,27841
75158,27892
75198,27952
75225,28018
75239,28089
75239,28160
75225,28231
75198,28297
75158,28357
75107,28408
75047,28448
74981,28475
74910,28489
74839,28489
74768,28475
74702,28448
74642,28408
74591,28357
74551,28297
74524,28231
74510,28160
74510,28089
74524,28018
74551,27952
74591,27892
74642,27841
74702,27801
74768,27774
74839,27760
74910,27760
74981,27774
Z" /> 
<path style="fill:#000000; fill-opacity:1.0; 
stroke:#000000; stroke-width:0; stroke-opacity:1; 
stroke-linecap:round; stroke-linejoin:round;fill-rule:evenodd;"
d="M 78981,27774
79047,27801
79107,27841
79158,27892
79198,27952
79225,28018
79239,28089
79239,28160
79225,28231
79198,28297
79158,28357
79107,28408
79047,28448
78981,28475
78910,28489
78839,28489
78768,28475
78702,28448
78642,28408
78591,28357
78551,28297
78524,28231
78510,28160
78510,28089
78524,28018
78551,27952
78591,27892
78642,27841
78702,27801
78768,27774
78839,27760
78910,27760
78981,27774
Z" /> 
<path style="fill:#000000; fill-opacity:1.0; 
stroke:#000000; stroke-width:0; stroke-opacity:1; 
stroke-linecap:round; stroke-linejoin:round;fill-rule:evenodd;"
d="M 93981,27774
94047,27801
94107,27841
94158,27892
94198,27952
94225,28018
94239,28089
94239,28160
94225,28231
94198,28297
94158,28357
94107,28408
94047,28448
93981,28475
93910,28489
93839,28489
93768,28475
93702,28448
93642,28408
93591,28357
93551,28297
93524,28231
93510,28160
93510,28089
93524,28018
93551,27952
93591,27892
93642,27841
93702,27801
93768,27774
93839,27760
93910,27760
93981,27774
Z" /> 
<path style="fill:#000000; fill-opacity:1.0; 
stroke:#000000; stroke-width:0; stroke-opacity:1; 
stroke-linecap:round; stroke-linejoin:round;fill-rule:evenodd;"
d="M 89981,27774
90047,27801
90107,27841
90158,27892
90198,27952
90225,28018
90239,28089
90239,28160
90225,28231
90198,28297
90158,28357
90107,28408
90047,28448
89981,28475
89910,28489
89839,28489
89768,28475
89702,28448
89642,28408
89591,28357
89551,28297
89524,28231
89510,28160
89510,28089
89524,28018
89551,27952
89591,27892
89642,27841
89702,27801
89768,27774
89839,27760
89910,27760
89981,27774
Z" /> 
<path style="fill:#000000; fill-opacity:1.0; 
stroke:#000000; stroke-width:0; stroke-opacity:1; 
stroke-linecap:round; stroke-linejoin:round;fill-rule:evenodd;"
d="M 14981,27774
15047,27801
15107,27841
15158,27892
15198,27952
15225,28018
15239,28089
15239,28160
15225,28231
15198,28297
15158,28357
15107,28408
15047,28448
14981,28475
14910,28489
14839,28489
14768,28475
14702,28448
14642,28408
14591,28357
14551,28297
14524,28231
14510,28160
14510,28089
14524,28018
14551,27952
14591,27892
14642,27841
14702,27801
14768,27774
14839,27760
14910,27760
14981,27774
Z" /> 
<path style="fill:#000000; fill-opacity:1.0; 
stroke:#000000; stroke-width:0; stroke-opacity:1; 
stroke-linecap:round; stroke-linejoin:round;fill-rule:evenodd;"
d="M 101481,27774
101547,27801
101607,27841
101658,27892
101698,27952
101725,28018
101739,28089
101739,28160
101725,28231
101698,28297
101658,28357
101607,28408
101547,28448
101481,28475
101410,28489
101339,28489
101268,28475
101202,28448
101142,28408
101091,28357
101051,28297
101024,28231
101010,28160
101010,28089
101024,28018
101051,27952
101091,27892
101142,27841
101202,27801
101268,27774
101339,27760
101410,27760
101481,27774
Z" /> 
<path style="fill:#000000; fill-opacity:1.0; 
stroke:#000000; stroke-width:0; stroke-opacity:1; 
stroke-linecap:round; stroke-linejoin:round;fill-rule:evenodd;"
d="M 97481,27774
97547,27801
97607,27841
97658,27892
97698,27952
97725,28018
97739,28089
97739,28160
97725,28231
97698,28297
97658,28357
97607,28408
97547,28448
97481,28475
97410,28489
97339,28489
97268,28475
97202,28448
97142,28408
97091,28357
97051,28297
97024,28231
97010,28160
97010,28089
97024,28018
97051,27952
97091,27892
97142,27841
97202,27801
97268,27774
97339,27760
97410,27760
97481,27774
Z" /> 
<path style="fill:#000000; fill-opacity:1.0; 
stroke:#000000; stroke-width:0; stroke-opacity:1; 
stroke-linecap:round; stroke-linejoin:round;fill-rule:evenodd;"
d="M 82481,27774
82547,27801
82607,27841
82658,27892
82698,27952
82725,28018
82739,28089
82739,28160
82725,28231
82698,28297
82658,28357
82607,28408
82547,28448
82481,28475
82410,28489
82339,28489
82268,28475
82202,28448
82142,28408
82091,28357
82051,28297
82024,28231
82010,28160
82010,28089
82024,28018
82051,27952
82091,27892
82142,27841
82202,27801
82268,27774
82339,27760
82410,27760
82481,27774
Z" /> 
<path style="fill:#000000; fill-opacity:1.0; 
stroke:#000000; stroke-width:0; stroke-opacity:1; 
stroke-linecap:round; stroke-linejoin:round;fill-rule:evenodd;"
d="M 86481,27774
86547,27801
86607,27841
86658,27892
86698,27952
86725,28018
86739,28089
86739,28160
86725,28231
86698,28297
86658,28357
86607,28408
86547,28448
86481,28475
86410,28489
86339,28489
86268,28475
86202,28448
86142,28408
86091,28357
86051,28297
86024,28231
86010,28160
86010,28089
86024,28018
86051,27952
86091,27892
86142,27841
86202,27801
86268,27774
86339,27760
86410,27760
86481,27774
Z" /> 
<path style="fill:#000000; fill-opacity:1.0; 
stroke:#000000; stroke-width:0; stroke-opacity:1; 
stroke-linecap:round; stroke-linejoin:round;fill-rule:evenodd;"
d="M 37734,19850
37820,19886
37881,19911
38013,19999
38125,20111
38213,20243
38226,20274
38274,20390
38305,20545
38305,20704
38274,20859
38254,20908
38213,21006
38125,21138
38013,21250
37881,21338
37820,21363
37734,21399
37579,21430
37420,21430
37265,21399
37179,21363
37118,21338
36986,21250
36874,21138
36786,21006
36745,20908
36725,20859
36694,20704
36694,20545
36725,20390
36773,20274
36786,20243
36874,20111
36986,19999
37118,19911
37179,19886
37265,19850
37420,19819
37579,19819
37734,19850
Z" /> 
<path style="fill:#000000; fill-opacity:1.0; 
stroke:#000000; stroke-width:0; stroke-opacity:1; 
stroke-linecap:round; stroke-linejoin:round;fill-rule:evenodd;"
d="M 52734,19850
52820,19886
52881,19911
53013,19999
53125,20111
53213,20243
53226,20274
53274,20390
53305,20545
53305,20704
53274,20859
53254,20908
53213,21006
53125,21138
53013,21250
52881,21338
52820,21363
52734,21399
52579,21430
52420,21430
52265,21399
52179,21363
52118,21338
51986,21250
51874,21138
51786,21006
51745,20908
51725,20859
51694,20704
51694,20545
51725,20390
51773,20274
51786,20243
51874,20111
51986,19999
52118,19911
52179,19886
52265,19850
52420,19819
52579,19819
52734,19850
Z" /> 
<path style="fill:#000000; fill-opacity:1.0; 
stroke:#000000; stroke-width:0; stroke-opacity:1; 
stroke-linecap:round; stroke-linejoin:round;fill-rule:evenodd;"
d="M 60234,19850
60320,19886
60381,19911
60513,19999
60625,20111
60713,20243
60726,20274
60774,20390
60805,20545
60805,20704
60774,20859
60754,20908
60713,21006
60625,21138
60513,21250
60381,21338
60320,21363
60234,21399
60079,21430
59920,21430
59765,21399
59679,21363
59618,21338
59486,21250
59374,21138
59286,21006
59245,20908
59225,20859
59194,20704
59194,20545
59225,20390
59273,20274
59286,20243
59374,20111
59486,19999
59618,19911
59679,19886
59765,19850
59920,19819
60079,19819
60234,19850
Z" /> 
<path style="fill:#000000; fill-opacity:1.0; 
stroke:#000000; stroke-width:0; stroke-opacity:1; 
stroke-linecap:round; stroke-linejoin:round;fill-rule:evenodd;"
d="M 67734,19850
67820,19886
67881,19911
68013,19999
68125,20111
68213,20243
68226,20274
68274,20390
68305,20545
68305,20704
68274,20859
68254,20908
68213,21006
68125,21138
68013,21250
67881,21338
67820,21363
67734,21399
67579,21430
67420,21430
67265,21399
67179,21363
67118,21338
66986,21250
66874,21138
66786,21006
66745,20908
66725,20859
66694,20704
66694,20545
66725,20390
66773,20274
66786,20243
66874,20111
66986,19999
67118,19911
67179,19886
67265,19850
67420,19819
67579,19819
67734,19850
Z" /> 
<path style="fill:#000000; fill-opacity:1.0; 
stroke:#000000; stroke-width:0; stroke-opacity:1; 
stroke-linecap:round; stroke-linejoin:round;fill-rule:evenodd;"
d="M 75234,19850
75320,19886
75381,19911
75513,19999
75625,20111
75713,20243
75726,20274
75774,20390
75805,20545
75805,20704
75774,20859
75754,20908
75713,21006
75625,21138
75513,21250
75381,21338
75320,21363
75234,21399
75079,21430
74920,21430
74765,21399
74679,21363
74618,21338
74486,21250
74374,21138
74286,21006
74245,20908
74225,20859
74194,20704
74194,20545
74225,20390
74273,20274
74286,20243
74374,20111
74486,19999
74618,19911
74679,19886
74765,19850
74920,19819
75079,19819
75234,19850
Z" /> 
<path style="fill:#000000; fill-opacity:1.0; 
stroke:#000000; stroke-width:0; stroke-opacity:1; 
stroke-linecap:round; stroke-linejoin:round;fill-rule:evenodd;"
d="M 82734,19850
82820,19886
82881,19911
83013,19999
83125,20111
83213,20243
83226,20274
83274,20390
83305,20545
83305,20704
83274,20859
83254,20908
83213,21006
83125,21138
83013,21250
82881,21338
82820,21363
82734,21399
82579,21430
82420,21430
82265,21399
82179,21363
82118,21338
81986,21250
81874,21138
81786,21006
81745,20908
81725,20859
81694,20704
81694,20545
81725,20390
81773,20274
81786,20243
81874,20111
81986,19999
82118,19911
82179,19886
82265,19850
82420,19819
82579,19819
82734,19850
Z" /> 
<path style="fill:#000000; fill-opacity:1.0; 
stroke:#000000; stroke-width:0; stroke-opacity:1; 
stroke-linecap:round; stroke-linejoin:round;fill-rule:evenodd;"
d="M 15234,19850
15320,19886
15381,19911
15513,19999
15625,20111
15713,20243
15726,20274
15774,20390
15805,20545
15805,20704
15774,20859
15754,20908
15713,21006
15625,21138
15513,21250
15381,21338
15320,21363
15234,21399
15079,21430
14920,21430
14765,21399
14679,21363
14618,21338
14486,21250
14374,21138
14286,21006
14245,20908
14225,20859
14194,20704
14194,20545
14225,20390
14273,20274
14286,20243
14374,20111
14486,19999
14618,19911
14679,19886
14765,19850
14920,19819
15079,19819
15234,19850
Z" /> 
<path style="fill:#000000; fill-opacity:1.0; 
stroke:#000000; stroke-width:0; stroke-opacity:1; 
stroke-linecap:round; stroke-linejoin:round;fill-rule:evenodd;"
d="M 22734,19850
22820,19886
22881,19911
23013,19999
23125,20111
23213,20243
23226,20274
23274,20390
23305,20545
23305,20704
23274,20859
23254,20908
23213,21006
23125,21138
23013,21250
22881,21338
22820,21363
22734,21399
22579,21430
22420,21430
22265,21399
22179,21363
22118,21338
21986,21250
21874,21138
21786,21006
21745,20908
21725,20859
21694,20704
21694,20545
21725,20390
21773,20274
21786,20243
21874,20111
21986,19999
22118,19911
22179,19886
22265,19850
22420,19819
22579,19819
22734,19850
Z" /> 
<path style="fill:#000000; fill-opacity:1.0; 
stroke:#000000; stroke-width:0; stroke-opacity:1; 
stroke-linecap:round; stroke-linejoin:round;fill-rule:evenodd;"
d="M 45234,19850
45320,19886
45381,19911
45513,19999
45625,20111
45713,20243
45726,20274
45774,20390
45805,20545
45805,20704
45774,20859
45754,20908
45713,21006
45625,21138
45513,21250
45381,21338
45320,21363
45234,21399
45079,21430
44920,21430
44765,21399
44679,21363
44618,21338
44486,21250
44374,21138
44286,21006
44245,20908
44225,20859
44194,20704
44194,20545
44225,20390
44273,20274
44286,20243
44374,20111
44486,19999
44618,19911
44679,19886
44765,19850
44920,19819
45079,19819
45234,19850
Z" /> 
<path style="fill:#000000; fill-opacity:1.0; 
stroke:#000000; stroke-width:0; stroke-opacity:1; 
stroke-linecap:round; stroke-linejoin:round;fill-rule:evenodd;"
d="M 30234,19850
30320,19886
30381,19911
30513,19999
30625,20111
30713,20243
30726,20274
30774,20390
30805,20545
30805,20704
30774,20859
30754,20908
30713,21006
30625,21138
30513,21250
30381,21338
30320,21363
30234,21399
30079,21430
29920,21430
29765,21399
29679,21363
29618,21338
29486,21250
29374,21138
29286,21006
29245,20908
29225,20859
29194,20704
29194,20545
29225,20390
29273,20274
29286,20243
29374,20111
29486,19999
29618,19911
29679,19886
29765,19850
29920,19819
30079,19819
30234,19850
Z" /> 
<path style="fill:#000000; fill-opacity:1.0; 
stroke:#000000; stroke-width:0; stroke-opacity:1; 
stroke-linecap:round; stroke-linejoin:round;fill-rule:evenodd;"
d="M 97734,19850
97820,19886
97881,19911
98013,19999
98125,20111
98213,20243
98226,20274
98274,20390
98305,20545
98305,20704
98274,20859
98254,20908
98213,21006
98125,21138
98013,21250
97881,21338
97820,21363
97734,21399
97579,21430
97420,21430
97265,21399
97179,21363
97118,21338
96986,21250
96874,21138
96786,21006
96745,20908
96725,20859
96694,20704
96694,20545
96725,20390
96773,20274
96786,20243
96874,20111
96986,19999
97118,19911
97179,19886
97265,19850
97420,19819
97579,19819
97734,19850
Z" /> 
<path style="fill:#000000; fill-opacity:1.0; 
stroke:#000000; stroke-width:0; stroke-opacity:1; 
stroke-linecap:round; stroke-linejoin:round;fill-rule:evenodd;"
d="M 90234,19850
90320,19886
90381,19911
90513,19999
90625,20111
90713,20243
90726,20274
90774,20390
90805,20545
90805,20704
90774,20859
90754,20908
90713,21006
90625,21138
90513,21250
90381,21338
90320,21363
90234,21399
90079,21430
89920,21430
89765,21399
89679,21363
89618,21338
89486,21250
89374,21138
89286,21006
89245,20908
89225,20859
89194,20704
89194,20545
89225,20390
89273,20274
89286,20243
89374,20111
89486,19999
89618,19911
89679,19886
89765,19850
89920,19819
90079,19819
90234,19850
Z" /> 
<path style="fill:#000000; fill-opacity:1.0; 
stroke:#000000; stroke-width:0; stroke-opacity:1; 
stroke-linecap:round; stroke-linejoin:round;fill-rule:evenodd;"
d="M 92106,20274
92172,20301
92232,20341
92283,20392
92323,20452
92350,20518
92364,20589
92364,20660
92350,20731
92323,20797
92283,20857
92232,20908
92172,20948
92106,20975
92035,20989
91964,20989
91893,20975
91827,20948
91767,20908
91716,20857
91676,20797
91649,20731
91635,20660
91635,20589
91649,20518
91676,20452
91716,20392
91767,20341
91827,20301
91893,20274
91964,20260
92035,20260
92106,20274
Z" /> 
<path style="fill:#000000; fill-opacity:1.0; 
stroke:#000000; stroke-width:0; stroke-opacity:1; 
stroke-linecap:round; stroke-linejoin:round;fill-rule:evenodd;"
d="M 95606,20274
95672,20301
95732,20341
95783,20392
95823,20452
95850,20518
95864,20589
95864,20660
95850,20731
95823,20797
95783,20857
95732,20908
95672,20948
95606,20975
95535,20989
95464,20989
95393,20975
95327,20948
95267,20908
95216,20857
95176,20797
95149,20731
95135,20660
95135,20589
95149,20518
95176,20452
95216,20392
95267,20341
95327,20301
95393,20274
95464,20260
95535,20260
95606,20274
Z" /> 
<path style="fill:#000000; fill-opacity:1.0; 
stroke:#000000; stroke-width:0; stroke-opacity:1; 
stroke-linecap:round; stroke-linejoin:round;fill-rule:evenodd;"
d="M 80606,20274
80672,20301
80732,20341
80783,20392
80823,20452
80850,20518
80864,20589
80864,20660
80850,20731
80823,20797
80783,20857
80732,20908
80672,20948
80606,20975
80535,20989
80464,20989
80393,20975
80327,20948
80267,20908
80216,20857
80176,20797
80149,20731
80135,20660
80135,20589
80149,20518
80176,20452
80216,20392
80267,20341
80327,20301
80393,20274
80464,20260
80535,20260
80606,20274
Z" /> 
<path style="fill:#000000; fill-opacity:1.0; 
stroke:#000000; stroke-width:0; stroke-opacity:1; 
stroke-linecap:round; stroke-linejoin:round;fill-rule:evenodd;"
d="M 17106,20274
17172,20301
17232,20341
17283,20392
17323,20452
17350,20518
17364,20589
17364,20660
17350,20731
17323,20797
17283,20857
17232,20908
17172,20948
17106,20975
17035,20989
16964,20989
16893,20975
16827,20948
16767,20908
16716,20857
16676,20797
16649,20731
16635,20660
16635,20589
16649,20518
16676,20452
16716,20392
16767,20341
16827,20301
16893,20274
16964,20260
17035,20260
17106,20274
Z" /> 
<path style="fill:#000000; fill-opacity:1.0; 
stroke:#000000; stroke-width:0; stroke-opacity:1; 
stroke-linecap:round; stroke-linejoin:round;fill-rule:evenodd;"
d="M 54606,20274
54672,20301
54732,20341
54783,20392
54823,20452
54850,20518
54864,20589
54864,20660
54850,20731
54823,20797
54783,20857
54732,20908
54672,20948
54606,20975
54535,20989
54464,20989
54393,20975
54327,20948
54267,20908
54216,20857
54176,20797
54149,20731
54135,20660
54135,20589
54149,20518
54176,20452
54216,20392
54267,20341
54327,20301
54393,20274
54464,20260
54535,20260
54606,20274
Z" /> 
<path style="fill:#000000; fill-opacity:1.0; 
stroke:#000000; stroke-width:0; stroke-opacity:1; 
stroke-linecap:round; stroke-linejoin:round;fill-rule:evenodd;"
d="M 50606,20274
50672,20301
50732,20341
50783,20392
50823,20452
50850,20518
50864,20589
50864,20660
50850,20731
50823,20797
50783,20857
50732,20908
50672,20948
50606,20975
50535,20989
50464,20989
50393,20975
50327,20948
50267,20908
50216,20857
50176,20797
50149,20731
50135,20660
50135,20589
50149,20518
50176,20452
50216,20392
50267,20341
50327,20301
50393,20274
50464,20260
50535,20260
50606,20274
Z" /> 
<path style="fill:#000000; fill-opacity:1.0; 
stroke:#000000; stroke-width:0; stroke-opacity:1; 
stroke-linecap:round; stroke-linejoin:round;fill-rule:evenodd;"
d="M 35606,20274
35672,20301
35732,20341
35783,20392
35823,20452
35850,20518
35864,20589
35864,20660
35850,20731
35823,20797
35783,20857
35732,20908
35672,20948
35606,20975
35535,20989
35464,20989
35393,20975
35327,20948
35267,20908
35216,20857
35176,20797
35149,20731
35135,20660
35135,20589
35149,20518
35176,20452
35216,20392
35267,20341
35327,20301
35393,20274
35464,20260
35535,20260
35606,20274
Z" /> 
<path style="fill:#000000; fill-opacity:1.0; 
stroke:#000000; stroke-width:0; stroke-opacity:1; 
stroke-linecap:round; stroke-linejoin:round;fill-rule:evenodd;"
d="M 13106,20274
13172,20301
13232,20341
13283,20392
13323,20452
13350,20518
13364,20589
13364,20660
13350,20731
13323,20797
13283,20857
13232,20908
13172,20948
13106,20975
13035,20989
12964,20989
12893,20975
12827,20948
12767,20908
12716,20857
12676,20797
12649,20731
12635,20660
12635,20589
12649,20518
12676,20452
12716,20392
12767,20341
12827,20301
12893,20274
12964,20260
13035,20260
13106,20274
Z" /> 
<path style="fill:#000000; fill-opacity:1.0; 
stroke:#000000; stroke-width:0; stroke-opacity:1; 
stroke-linecap:round; stroke-linejoin:round;fill-rule:evenodd;"
d="M 47106,20274
47172,20301
47232,20341
47283,20392
47323,20452
47350,20518
47364,20589
47364,20660
47350,20731
47323,20797
47283,20857
47232,20908
47172,20948
47106,20975
47035,20989
46964,20989
46893,20975
46827,20948
46767,20908
46716,20857
46676,20797
46649,20731
46635,20660
46635,20589
46649,20518
46676,20452
46716,20392
46767,20341
46827,20301
46893,20274
46964,20260
47035,20260
47106,20274
Z" /> 
<path style="fill:#000000; fill-opacity:1.0; 
stroke:#000000; stroke-width:0; stroke-opacity:1; 
stroke-linecap:round; stroke-linejoin:round;fill-rule:evenodd;"
d="M 24606,20274
24672,20301
24732,20341
24783,20392
24823,20452
24850,20518
24864,20589
24864,20660
24850,20731
24823,20797
24783,20857
24732,20908
24672,20948
24606,20975
24535,20989
24464,20989
24393,20975
24327,20948
24267,20908
24216,20857
24176,20797
24149,20731
24135,20660
24135,20589
24149,20518
24176,20452
24216,20392
24267,20341
24327,20301
24393,20274
24464,20260
24535,20260
24606,20274
Z" /> 
<path style="fill:#000000; fill-opacity:1.0; 
stroke:#000000; stroke-width:0; stroke-opacity:1; 
stroke-linecap:round; stroke-linejoin:round;fill-rule:evenodd;"
d="M 20606,20274
20672,20301
20732,20341
20783,20392
20823,20452
20850,20518
20864,20589
20864,20660
20850,20731
20823,20797
20783,20857
20732,20908
20672,20948
20606,20975
20535,20989
20464,20989
20393,20975
20327,20948
20267,20908
20216,20857
20176,20797
20149,20731
20135,20660
20135,20589
20149,20518
20176,20452
20216,20392
20267,20341
20327,20301
20393,20274
20464,20260
20535,20260
20606,20274
Z" /> 
<path style="fill:#000000; fill-opacity:1.0; 
stroke:#000000; stroke-width:0; stroke-opacity:1; 
stroke-linecap:round; stroke-linejoin:round;fill-rule:evenodd;"
d="M 43106,20274
43172,20301
43232,20341
43283,20392
43323,20452
43350,20518
43364,20589
43364,20660
43350,20731
43323,20797
43283,20857
43232,20908
43172,20948
43106,20975
43035,20989
42964,20989
42893,20975
42827,20948
42767,20908
42716,20857
42676,20797
42649,20731
42635,20660
42635,20589
42649,20518
42676,20452
42716,20392
42767,20341
42827,20301
42893,20274
42964,20260
43035,20260
43106,20274
Z" /> 
<path style="fill:#000000; fill-opacity:1.0; 
stroke:#000000; stroke-width:0; stroke-opacity:1; 
stroke-linecap:round; stroke-linejoin:round;fill-rule:evenodd;"
d="M 28106,20274
28172,20301
28232,20341
28283,20392
28323,20452
28350,20518
28364,20589
28364,20660
28350,20731
28323,20797
28283,20857
28232,20908
28172,20948
28106,20975
28035,20989
27964,20989
27893,20975
27827,20948
27767,20908
27716,20857
27676,20797
27649,20731
27635,20660
27635,20589
27649,20518
27676,20452
27716,20392
27767,20341
27827,20301
27893,20274
27964,20260
28035,20260
28106,20274
Z" /> 
<path style="fill:#000000; fill-opacity:1.0; 
stroke:#000000; stroke-width:0; stroke-opacity:1; 
stroke-linecap:round; stroke-linejoin:round;fill-rule:evenodd;"
d="M 32106,20274
32172,20301
32232,20341
32283,20392
32323,20452
32350,20518
32364,20589
32364,20660
32350,20731
32323,20797
32283,20857
32232,20908
32172,20948
32106,20975
32035,20989
31964,20989
31893,20975
31827,20948
31767,20908
31716,20857
31676,20797
31649,20731
31635,20660
31635,20589
31649,20518
31676,20452
31716,20392
31767,20341
31827,20301
31893,20274
31964,20260
32035,20260
32106,20274
Z" /> 
<path style="fill:#000000; fill-opacity:1.0; 
stroke:#000000; stroke-width:0; stroke-opacity:1; 
stroke-linecap:round; stroke-linejoin:round;fill-rule:evenodd;"
d="M 39606,20274
39672,20301
39732,20341
39783,20392
39823,20452
39850,20518
39864,20589
39864,20660
39850,20731
39823,20797
39783,20857
39732,20908
39672,20948
39606,20975
39535,20989
39464,20989
39393,20975
39327,20948
39267,20908
39216,20857
39176,20797
39149,20731
39135,20660
39135,20589
39149,20518
39176,20452
39216,20392
39267,20341
39327,20301
39393,20274
39464,20260
39535,20260
39606,20274
Z" /> 
<path style="fill:#000000; fill-opacity:1.0; 
stroke:#000000; stroke-width:0; stroke-opacity:1; 
stroke-linecap:round; stroke-linejoin:round;fill-rule:evenodd;"
d="M 58106,20274
58172,20301
58232,20341
58283,20392
58323,20452
58350,20518
58364,20589
58364,20660
58350,20731
58323,20797
58283,20857
58232,20908
58172,20948
58106,20975
58035,20989
57964,20989
57893,20975
57827,20948
57767,20908
57716,20857
57676,20797
57649,20731
57635,20660
57635,20589
57649,20518
57676,20452
57716,20392
57767,20341
57827,20301
57893,20274
57964,20260
58035,20260
58106,20274
Z" /> 
<path style="fill:#000000; fill-opacity:1.0; 
stroke:#000000; stroke-width:0; stroke-opacity:1; 
stroke-linecap:round; stroke-linejoin:round;fill-rule:evenodd;"
d="M 62106,20274
62172,20301
62232,20341
62283,20392
62323,20452
62350,20518
62364,20589
62364,20660
62350,20731
62323,20797
62283,20857
62232,20908
62172,20948
62106,20975
62035,20989
61964,20989
61893,20975
61827,20948
61767,20908
61716,20857
61676,20797
61649,20731
61635,20660
61635,20589
61649,20518
61676,20452
61716,20392
61767,20341
61827,20301
61893,20274
61964,20260
62035,20260
62106,20274
Z" /> 
<path style="fill:#000000; fill-opacity:1.0; 
stroke:#000000; stroke-width:0; stroke-opacity:1; 
stroke-linecap:round; stroke-linejoin:round;fill-rule:evenodd;"
d="M 65606,20274
65672,20301
65732,20341
65783,20392
65823,20452
65850,20518
65864,20589
65864,20660
65850,20731
65823,20797
65783,20857
65732,20908
65672,20948
65606,20975
65535,20989
65464,20989
65393,20975
65327,20948
65267,20908
65216,20857
65176,20797
65149,20731
65135,20660
65135,20589
65149,20518
65176,20452
65216,20392
65267,20341
65327,20301
65393,20274
65464,20260
65535,20260
65606,20274
Z" /> 
<path style="fill:#000000; fill-opacity:1.0; 
stroke:#000000; stroke-width:0; stroke-opacity:1; 
stroke-linecap:round; stroke-linejoin:round;fill-rule:evenodd;"
d="M 69606,20274
69672,20301
69732,20341
69783,20392
69823,20452
69850,20518
69864,20589
69864,20660
69850,20731
69823,20797
69783,20857
69732,20908
69672,20948
69606,20975
69535,20989
69464,20989
69393,20975
69327,20948
69267,20908
69216,20857
69176,20797
69149,20731
69135,20660
69135,20589
69149,20518
69176,20452
69216,20392
69267,20341
69327,20301
69393,20274
69464,20260
69535,20260
69606,20274
Z" /> 
<path style="fill:#000000; fill-opacity:1.0; 
stroke:#000000; stroke-width:0; stroke-opacity:1; 
stroke-linecap:round; stroke-linejoin:round;fill-rule:evenodd;"
d="M 73106,20274
73172,20301
73232,20341
73283,20392
73323,20452
73350,20518
73364,20589
73364,20660
73350,20731
73323,20797
73283,20857
73232,20908
73172,20948
73106,20975
73035,20989
72964,20989
72893,20975
72827,20948
72767,20908
72716,20857
72676,20797
72649,20731
72635,20660
72635,20589
72649,20518
72676,20452
72716,20392
72767,20341
72827,20301
72893,20274
72964,20260
73035,20260
73106,20274
Z" /> 
<path style="fill:#000000; fill-opacity:1.0; 
stroke:#000000; stroke-width:0; stroke-opacity:1; 
stroke-linecap:round; stroke-linejoin:round;fill-rule:evenodd;"
d="M 77106,20274
77172,20301
77232,20341
77283,20392
77323,20452
77350,20518
77364,20589
77364,20660
77350,20731
77323,20797
77283,20857
77232,20908
77172,20948
77106,20975
77035,20989
76964,20989
76893,20975
76827,20948
76767,20908
76716,20857
76676,20797
76649,20731
76635,20660
76635,20589
76649,20518
76676,20452
76716,20392
76767,20341
76827,20301
76893,20274
76964,20260
77035,20260
77106,20274
Z" /> 
<path style="fill:#000000; fill-opacity:1.0; 
stroke:#000000; stroke-width:0; stroke-opacity:1; 
stroke-linecap:round; stroke-linejoin:round;fill-rule:evenodd;"
d="M 84606,20274
84672,20301
84732,20341
84783,20392
84823,20452
84850,20518
84864,20589
84864,20660
84850,20731
84823,20797
84783,20857
84732,20908
84672,20948
84606,20975
84535,20989
84464,20989
84393,20975
84327,20948
84267,20908
84216,20857
84176,20797
84149,20731
84135,20660
84135,20589
84149,20518
84176,20452
84216,20392
84267,20341
84327,20301
84393,20274
84464,20260
84535,20260
84606,20274
Z" /> 
<path style="fill:#000000; fill-opacity:1.0; 
stroke:#000000; stroke-width:0; stroke-opacity:1; 
stroke-linecap:round; stroke-linejoin:round;fill-rule:evenodd;"
d="M 88106,20274
88172,20301
88232,20341
88283,20392
88323,20452
88350,20518
88364,20589
88364,20660
88350,20731
88323,20797
88283,20857
88232,20908
88172,20948
88106,20975
88035,20989
87964,20989
87893,20975
87827,20948
87767,20908
87716,20857
87676,20797
87649,20731
87635,20660
87635,20589
87649,20518
87676,20452
87716,20392
87767,20341
87827,20301
87893,20274
87964,20260
88035,20260
88106,20274
Z" /> 
<path style="fill:#000000; fill-opacity:1.0; 
stroke:#000000; stroke-width:0; stroke-opacity:1; 
stroke-linecap:round; stroke-linejoin:round;fill-rule:evenodd;"
d="M 99606,20274
99672,20301
99732,20341
99783,20392
99823,20452
99850,20518
99864,20589
99864,20660
99850,20731
99823,20797
99783,20857
99732,20908
99672,20948
99606,20975
99535,20989
99464,20989
99393,20975
99327,20948
99267,20908
99216,20857
99176,20797
99149,20731
99135,20660
99135,20589
99149,20518
99176,20452
99216,20392
99267,20341
99327,20301
99393,20274
99464,20260
99535,20260
99606,20274
Z" /> 
<path style="fill:#000000; fill-opacity:1.0; 
stroke:#000000; stroke-width:0; stroke-opacity:1; 
stroke-linecap:round; stroke-linejoin:round;fill-rule:evenodd;"
d="M 20859,12350
20945,12386
21006,12411
21138,12499
21250,12611
21338,12743
21351,12774
21399,12890
21430,13045
21430,13204
21399,13359
21379,13408
21338,13506
21250,13638
21138,13750
21006,13838
20945,13863
20859,13899
20704,13930
20545,13930
20390,13899
20304,13863
20243,13838
20111,13750
19999,13638
19911,13506
19870,13408
19850,13359
19819,13204
19819,13045
19850,12890
19898,12774
19911,12743
19999,12611
20111,12499
20243,12411
20304,12386
20390,12350
20545,12319
20704,12319
20859,12350
Z" /> 
<path style="fill:#000000; fill-opacity:1.0; 
stroke:#000000; stroke-width:0; stroke-opacity:1; 
stroke-linecap:round; stroke-linejoin:round;fill-rule:evenodd;"
d="M 13359,12350
13445,12386
13506,12411
13638,12499
13750,12611
13838,12743
13851,12774
13899,12890
13930,13045
13930,13204
13899,13359
13879,13408
13838,13506
13750,13638
13638,13750
13506,13838
13445,13863
13359,13899
13204,13930
13045,13930
12890,13899
12804,13863
12743,13838
12611,13750
12499,13638
12411,13506
12370,13408
12350,13359
12319,13204
12319,13045
12350,12890
12398,12774
12411,12743
12499,12611
12611,12499
12743,12411
12804,12386
12890,12350
13045,12319
13204,12319
13359,12350
Z" /> 
<path style="fill:#000000; fill-opacity:1.0; 
stroke:#000000; stroke-width:0; stroke-opacity:1; 
stroke-linecap:round; stroke-linejoin:round;fill-rule:evenodd;"
d="M 43359,12350
43445,12386
43506,12411
43638,12499
43750,12611
43838,12743
43851,12774
43899,12890
43930,13045
43930,13204
43899,13359
43879,13408
43838,13506
43750,13638
43638,13750
43506,13838
43445,13863
43359,13899
43204,13930
43045,13930
42890,13899
42804,13863
42743,13838
42611,13750
42499,13638
42411,13506
42370,13408
42350,13359
42319,13204
42319,13045
42350,12890
42398,12774
42411,12743
42499,12611
42611,12499
42743,12411
42804,12386
42890,12350
43045,12319
43204,12319
43359,12350
Z" /> 
<path style="fill:#000000; fill-opacity:1.0; 
stroke:#000000; stroke-width:0; stroke-opacity:1; 
stroke-linecap:round; stroke-linejoin:round;fill-rule:evenodd;"
d="M 35859,12350
35945,12386
36006,12411
36138,12499
36250,12611
36338,12743
36351,12774
36399,12890
36430,13045
36430,13204
36399,13359
36379,13408
36338,13506
36250,13638
36138,13750
36006,13838
35945,13863
35859,13899
35704,13930
35545,13930
35390,13899
35304,13863
35243,13838
35111,13750
34999,13638
34911,13506
34870,13408
34850,13359
34819,13204
34819,13045
34850,12890
34898,12774
34911,12743
34999,12611
35111,12499
35243,12411
35304,12386
35390,12350
35545,12319
35704,12319
35859,12350
Z" /> 
<path style="fill:#000000; fill-opacity:1.0; 
stroke:#000000; stroke-width:0; stroke-opacity:1; 
stroke-linecap:round; stroke-linejoin:round;fill-rule:evenodd;"
d="M 28359,12350
28445,12386
28506,12411
28638,12499
28750,12611
28838,12743
28851,12774
28899,12890
28930,13045
28930,13204
28899,13359
28879,13408
28838,13506
28750,13638
28638,13750
28506,13838
28445,13863
28359,13899
28204,13930
28045,13930
27890,13899
27804,13863
27743,13838
27611,13750
27499,13638
27411,13506
27370,13408
27350,13359
27319,13204
27319,13045
27350,12890
27398,12774
27411,12743
27499,12611
27611,12499
27743,12411
27804,12386
27890,12350
28045,12319
28204,12319
28359,12350
Z" /> 
<path style="fill:#000000; fill-opacity:1.0; 
stroke:#000000; stroke-width:0; stroke-opacity:1; 
stroke-linecap:round; stroke-linejoin:round;fill-rule:evenodd;"
d="M 41231,12774
41297,12801
41357,12841
41408,12892
41448,12952
41475,13018
41489,13089
41489,13160
41475,13231
41448,13297
41408,13357
41357,13408
41297,13448
41231,13475
41160,13489
41089,13489
41018,13475
40952,13448
40892,13408
40841,13357
40801,13297
40774,13231
40760,13160
40760,13089
40774,13018
40801,12952
40841,12892
40892,12841
40952,12801
41018,12774
41089,12760
41160,12760
41231,12774
Z" /> 
<path style="fill:#000000; fill-opacity:1.0; 
stroke:#000000; stroke-width:0; stroke-opacity:1; 
stroke-linecap:round; stroke-linejoin:round;fill-rule:evenodd;"
d="M 18731,12774
18797,12801
18857,12841
18908,12892
18948,12952
18975,13018
18989,13089
18989,13160
18975,13231
18948,13297
18908,13357
18857,13408
18797,13448
18731,13475
18660,13489
18589,13489
18518,13475
18452,13448
18392,13408
18341,13357
18301,13297
18274,13231
18260,13160
18260,13089
18274,13018
18301,12952
18341,12892
18392,12841
18452,12801
18518,12774
18589,12760
18660,12760
18731,12774
Z" /> 
<path style="fill:#000000; fill-opacity:1.0; 
stroke:#000000; stroke-width:0; stroke-opacity:1; 
stroke-linecap:round; stroke-linejoin:round;fill-rule:evenodd;"
d="M 45231,12774
45297,12801
45357,12841
45408,12892
45448,12952
45475,13018
45489,13089
45489,13160
45475,13231
45448,13297
45408,13357
45357,13408
45297,13448
45231,13475
45160,13489
45089,13489
45018,13475
44952,13448
44892,13408
44841,13357
44801,13297
44774,13231
44760,13160
44760,13089
44774,13018
44801,12952
44841,12892
44892,12841
44952,12801
45018,12774
45089,12760
45160,12760
45231,12774
Z" /> 
<path style="fill:#000000; fill-opacity:1.0; 
stroke:#000000; stroke-width:0; stroke-opacity:1; 
stroke-linecap:round; stroke-linejoin:round;fill-rule:evenodd;"
d="M 22731,12774
22797,12801
22857,12841
22908,12892
22948,12952
22975,13018
22989,13089
22989,13160
22975,13231
22948,13297
22908,13357
22857,13408
22797,13448
22731,13475
22660,13489
22589,13489
22518,13475
22452,13448
22392,13408
22341,13357
22301,13297
22274,13231
22260,13160
22260,13089
22274,13018
22301,12952
22341,12892
22392,12841
22452,12801
22518,12774
22589,12760
22660,12760
22731,12774
Z" /> 
<path style="fill:#000000; fill-opacity:1.0; 
stroke:#000000; stroke-width:0; stroke-opacity:1; 
stroke-linecap:round; stroke-linejoin:round;fill-rule:evenodd;"
d="M 11231,12774
11297,12801
11357,12841
11408,12892
11448,12952
11475,13018
11489,13089
11489,13160
11475,13231
11448,13297
11408,13357
11357,13408
11297,13448
11231,13475
11160,13489
11089,13489
11018,13475
10952,13448
10892,13408
10841,13357
10801,13297
10774,13231
10760,13160
10760,13089
10774,13018
10801,12952
10841,12892
10892,12841
10952,12801
11018,12774
11089,12760
11160,12760
11231,12774
Z" /> 
<path style="fill:#000000; fill-opacity:1.0; 
stroke:#000000; stroke-width:0; stroke-opacity:1; 
stroke-linecap:round; stroke-linejoin:round;fill-rule:evenodd;"
d="M 15231,12774
15297,12801
15357,12841
15408,12892
15448,12952
15475,13018
15489,13089
15489,13160
15475,13231
15448,13297
15408,13357
15357,13408
15297,13448
15231,13475
15160,13489
15089,13489
15018,13475
14952,13448
14892,13408
14841,13357
14801,13297
14774,13231
14760,13160
14760,13089
14774,13018
14801,12952
14841,12892
14892,12841
14952,12801
15018,12774
15089,12760
15160,12760
15231,12774
Z" /> 
<path style="fill:#000000; fill-opacity:1.0; 
stroke:#000000; stroke-width:0; stroke-opacity:1; 
stroke-linecap:round; stroke-linejoin:round;fill-rule:evenodd;"
d="M 26231,12774
26297,12801
26357,12841
26408,12892
26448,12952
26475,13018
26489,13089
26489,13160
26475,13231
26448,13297
26408,13357
26357,13408
26297,13448
26231,13475
26160,13489
26089,13489
26018,13475
25952,13448
25892,13408
25841,13357
25801,13297
25774,13231
25760,13160
25760,13089
25774,13018
25801,12952
25841,12892
25892,12841
25952,12801
26018,12774
26089,12760
26160,12760
26231,12774
Z" /> 
<path style="fill:#000000; fill-opacity:1.0; 
stroke:#000000; stroke-width:0; stroke-opacity:1; 
stroke-linecap:round; stroke-linejoin:round;fill-rule:evenodd;"
d="M 37731,12774
37797,12801
37857,12841
37908,12892
37948,12952
37975,13018
37989,13089
37989,13160
37975,13231
37948,13297
37908,13357
37857,13408
37797,13448
37731,13475
37660,13489
37589,13489
37518,13475
37452,13448
37392,13408
37341,13357
37301,13297
37274,13231
37260,13160
37260,13089
37274,13018
37301,12952
37341,12892
37392,12841
37452,12801
37518,12774
37589,12760
37660,12760
37731,12774
Z" /> 
<path style="fill:#000000; fill-opacity:1.0; 
stroke:#000000; stroke-width:0; stroke-opacity:1; 
stroke-linecap:round; stroke-linejoin:round;fill-rule:evenodd;"
d="M 33731,12774
33797,12801
33857,12841
33908,12892
33948,12952
33975,13018
33989,13089
33989,13160
33975,13231
33948,13297
33908,13357
33857,13408
33797,13448
33731,13475
33660,13489
33589,13489
33518,13475
33452,13448
33392,13408
33341,13357
33301,13297
33274,13231
33260,13160
33260,13089
33274,13018
33301,12952
33341,12892
33392,12841
33452,12801
33518,12774
33589,12760
33660,12760
33731,12774
Z" /> 
<path style="fill:#000000; fill-opacity:1.0; 
stroke:#000000; stroke-width:0; stroke-opacity:1; 
stroke-linecap:round; stroke-linejoin:round;fill-rule:evenodd;"
d="M 30231,12774
30297,12801
30357,12841
30408,12892
30448,12952
30475,13018
30489,13089
30489,13160
30475,13231
30448,13297
30408,13357
30357,13408
30297,13448
30231,13475
30160,13489
30089,13489
30018,13475
29952,13448
29892,13408
29841,13357
29801,13297
29774,13231
29760,13160
29760,13089
29774,13018
29801,12952
29841,12892
29892,12841
29952,12801
30018,12774
30089,12760
30160,12760
30231,12774
Z" /> 
<path style="fill:#000000; fill-opacity:1.0; 
stroke:#000000; stroke-width:0; stroke-opacity:1; 
stroke-linecap:round; stroke-linejoin:round;fill-rule:evenodd;"
d="M 42389,11259
42433,11273
42475,11295
42475,11295
42475,11295
42511,11324
42531,11350
42540,11360
42562,11401
42576,11446
42579,11481
42579,11937
42576,11972
42562,12016
42540,12058
42511,12094
42475,12123
42433,12145
42389,12159
42342,12163
42296,12159
42251,12145
42210,12123
42174,12094
42145,12058
42123,12016
42109,11972
42106,11937
42106,11481
42109,11446
42123,11401
42145,11360
42158,11344
42174,11324
42210,11295
42210,11295
42210,11295
42251,11273
42296,11259
42342,11255
42389,11259
Z" /> 
<path style="fill:#000000; fill-opacity:1.0; 
stroke:#000000; stroke-width:0; stroke-opacity:1; 
stroke-linecap:round; stroke-linejoin:round;fill-rule:evenodd;"
d="M 39003,11259
39048,11273
39089,11295
39089,11295
39089,11295
39125,11324
39146,11350
39154,11360
39176,11401
39190,11446
39193,11481
39193,11937
39190,11972
39176,12016
39154,12058
39125,12094
39089,12123
39048,12145
39003,12159
38957,12163
38910,12159
38866,12145
38824,12123
38788,12094
38759,12058
38737,12016
38723,11972
38720,11937
38720,11481
38723,11446
38737,11401
38759,11360
38772,11344
38788,11324
38824,11295
38824,11295
38824,11295
38866,11273
38910,11259
38957,11255
39003,11259
Z" /> 
<path style="fill:#000000; fill-opacity:1.0; 
stroke:#000000; stroke-width:0; stroke-opacity:1; 
stroke-linecap:round; stroke-linejoin:round;fill-rule:evenodd;"
d="M 39555,11350
39555,11350
39555,11350
39582,11361
39606,11377
39627,11398
39643,11422
39654,11449
39660,11477
39660,11507
39654,11535
39643,11562
39627,11586
39606,11607
39582,11623
39555,11634
39555,11634
39555,11634
39526,11640
39497,11640
39469,11634
39469,11634
39469,11634
39442,11623
39417,11607
39397,11586
39381,11562
39369,11535
39364,11507
39364,11477
39369,11449
39381,11422
39397,11398
39417,11377
39442,11361
39469,11350
39469,11350
39469,11350
39497,11344
39526,11344
39555,11350
Z" /> 
<path style="fill:#000000; fill-opacity:1.0; 
stroke:#000000; stroke-width:0; stroke-opacity:1; 
stroke-linecap:round; stroke-linejoin:round;fill-rule:evenodd;"
d="M 41830,11350
41830,11350
41830,11350
41857,11361
41882,11377
41902,11398
41918,11422
41930,11449
41935,11477
41935,11507
41930,11535
41918,11562
41902,11586
41882,11607
41857,11623
41830,11634
41830,11634
41830,11634
41802,11640
41773,11640
41744,11634
41744,11634
41744,11634
41717,11623
41693,11607
41672,11586
41656,11562
41645,11535
41639,11507
41639,11477
41645,11449
41656,11422
41672,11398
41693,11377
41717,11361
41744,11350
41744,11350
41744,11350
41773,11344
41802,11344
41830,11350
Z" /> 
<path style="fill:#000000; fill-opacity:1.0; 
stroke:#000000; stroke-width:0; stroke-opacity:1; 
stroke-linecap:round; stroke-linejoin:round;fill-rule:evenodd;"
d="M 39011,9665
39063,9681
39063,9681
39111,9707
39111,9707
39111,9707
39153,9741
39182,9777
39187,9783
39213,9831
39213,9831
39229,9883
39233,9924
39233,10187
39229,10228
39213,10280
39213,10280
39187,10328
39153,10370
39111,10404
39063,10430
39063,10430
39011,10446
38957,10451
38902,10446
38850,10430
38850,10430
38803,10404
38760,10370
38726,10328
38700,10280
38700,10280
38685,10228
38681,10187
38681,9924
38685,9883
38700,9831
38726,9783
38760,9741
38803,9707
38803,9707
38803,9707
38850,9681
38850,9681
38902,9665
38957,9660
39011,9665
Z" /> 
<path style="fill:#000000; fill-opacity:1.0; 
stroke:#000000; stroke-width:0; stroke-opacity:1; 
stroke-linecap:round; stroke-linejoin:round;fill-rule:evenodd;"
d="M 42397,9665
42449,9681
42449,9681
42496,9707
42496,9707
42496,9707
42539,9741
42568,9777
42573,9783
42599,9831
42599,9831
42614,9883
42618,9924
42618,10187
42614,10228
42599,10280
42599,10280
42573,10328
42539,10370
42496,10404
42449,10430
42449,10430
42397,10446
42342,10451
42288,10446
42236,10430
42236,10430
42188,10404
42146,10370
42112,10328
42086,10280
42086,10280
42070,10228
42066,10187
42066,9924
42070,9883
42086,9831
42112,9783
42146,9741
42188,9707
42188,9707
42188,9707
42236,9681
42236,9681
42288,9665
42342,9660
42397,9665
Z" /> 
</g> 
</svg>
