<?xml version="1.0" standalone="no"?>
 <!DOCTYPE svg PUBLIC "-//W3C//DTD SVG 1.1//EN" 
 "http://www.w3.org/Graphics/SVG/1.1/DTD/svg11.dtd"> 
<svg xmlns="http://www.w3.org/2000/svg" version="1.1" 
    width="29.7002cm" height="21.0007cm" viewBox="0 0 116930 82680 ">
<title>SVG Picture created as stag42-B_Paste.svg date 2021/07/30 18:52:46 </title>
  <desc>Picture generated by PCBNEW </desc>
<g style="fill:#000000; fill-opacity:1;stroke:#000000; stroke-opacity:1;
stroke-linecap:round; stroke-linejoin:round; "
 transform="translate(0 0) scale(1 1)">
</g>
<g style="fill:#000000; fill-opacity:0.0; 
stroke:#000000; stroke-width:-0.000393701; stroke-opacity:1; 
stroke-linecap:round; stroke-linejoin:round;">
<g >
</g>
<g style="fill:#000000; fill-opacity:0.0; 
stroke:#000000; stroke-width:0; stroke-opacity:1; 
stroke-linecap:round; stroke-linejoin:round;">
</g>
<g style="fill:#000000; fill-opacity:1.0; 
stroke:#000000; stroke-width:0; stroke-opacity:1; 
stroke-linecap:round; stroke-linejoin:round;">
<path style="fill:#000000; fill-opacity:1.0; 
stroke:#000000; stroke-width:0; stroke-opacity:1; 
stroke-linecap:round; stroke-linejoin:round;fill-rule:evenodd;"
d="M 30729,42166
31201,42166
31201,42717
30729,42717
30729,42166
Z" /> 
<path style="fill:#000000; fill-opacity:1.0; 
stroke:#000000; stroke-width:0; stroke-opacity:1; 
stroke-linecap:round; stroke-linejoin:round;fill-rule:evenodd;"
d="M 30729,43032
31201,43032
31201,43583
30729,43583
30729,43032
Z" /> 
<path style="fill:#000000; fill-opacity:1.0; 
stroke:#000000; stroke-width:0; stroke-opacity:1; 
stroke-linecap:round; stroke-linejoin:round;fill-rule:evenodd;"
d="M 31398,43032
31870,43032
31870,43583
31398,43583
31398,43032
Z" /> 
<path style="fill:#000000; fill-opacity:1.0; 
stroke:#000000; stroke-width:0; stroke-opacity:1; 
stroke-linecap:round; stroke-linejoin:round;fill-rule:evenodd;"
d="M 31398,42166
31870,42166
31870,42717
31398,42717
31398,42166
Z" /> 
</g>
<g >
</g>
<g >
</g>
<g >
</g>
<g >
</g>
<g >
</g>
<g >
</g>
<g >
</g>
<g >
</g>
<g >
</g>
<g >
</g>
<g >
</g>
<g >
</g>
<g >
</g>
<g >
</g>
<g >
</g>
<g >
</g>
<g >
</g>
<g >
</g>
<g >
</g>
<g >
</g>
<g >
</g>
<g >
</g>
<g >
</g>
<g >
</g>
<g >
</g>
<g >
</g>
<g >
</g>
<g >
</g>
<g >
</g>
<g >
</g>
<g >
</g>
<g >
</g>
<g >
</g>
<g >
</g>
<g >
</g>
<g >
</g>
<g >
</g>
<g >
</g>
<g >
</g>
<g >
</g>
<g >
</g>
<g >
</g>
<g >
</g>
<g >
</g>
<g >
</g>
<g style="fill:#000000; fill-opacity:1.0; 
stroke:#000000; stroke-width:0; stroke-opacity:1; 
stroke-linecap:round; stroke-linejoin:round;">
<path style="fill:#000000; fill-opacity:1.0; 
stroke:#000000; stroke-width:0; stroke-opacity:1; 
stroke-linecap:round; stroke-linejoin:round;fill-rule:evenodd;"
d="M 43556,15705
43565,15707
43575,15709
43584,15713
43592,15717
43601,15722
43608,15727
43616,15734
43622,15741
43628,15749
43633,15757
43637,15766
43640,15775
43642,15784
43644,15794
43644,15803
43644,16296
43644,16305
43642,16315
43640,16324
43637,16333
43633,16342
43628,16350
43622,16358
43616,16365
43608,16372
43601,16377
43592,16382
43584,16386
43575,16390
43565,16392
43556,16394
43546,16394
43251,16394
43241,16394
43231,16392
43222,16390
43213,16386
43204,16382
43196,16377
43188,16372
43181,16365
43175,16358
43169,16350
43164,16342
43160,16333
43156,16324
43154,16315
43153,16305
43152,16296
43152,15803
43153,15794
43154,15784
43156,15775
43160,15766
43164,15757
43169,15749
43175,15741
43181,15734
43188,15727
43196,15722
43204,15717
43213,15713
43222,15709
43231,15707
43241,15705
43251,15705
43546,15705
43556,15705
Z" /> 
<path style="fill:#000000; fill-opacity:1.0; 
stroke:#000000; stroke-width:0; stroke-opacity:1; 
stroke-linecap:round; stroke-linejoin:round;fill-rule:evenodd;"
d="M 44658,15705
44668,15707
44677,15709
44686,15713
44695,15717
44703,15722
44711,15727
44718,15734
44724,15741
44730,15749
44735,15757
44739,15766
44743,15775
44745,15784
44746,15794
44747,15803
44747,16296
44746,16305
44745,16315
44743,16324
44739,16333
44735,16342
44730,16350
44724,16358
44718,16365
44711,16372
44703,16377
44695,16382
44686,16386
44677,16390
44668,16392
44658,16394
44648,16394
44353,16394
44343,16394
44334,16392
44324,16390
44315,16386
44307,16382
44298,16377
44291,16372
44283,16365
44277,16358
44271,16350
44266,16342
44262,16333
44259,16324
44257,16315
44255,16305
44255,16296
44255,15803
44255,15794
44257,15784
44259,15775
44262,15766
44266,15757
44271,15749
44277,15741
44283,15734
44291,15727
44298,15722
44307,15717
44315,15713
44324,15709
44334,15707
44343,15705
44353,15705
44648,15705
44658,15705
Z" /> 
</g>
<g >
</g>
<g style="fill:#000000; fill-opacity:1.0; 
stroke:#000000; stroke-width:0; stroke-opacity:1; 
stroke-linecap:round; stroke-linejoin:round;">
<path style="fill:#000000; fill-opacity:1.0; 
stroke:#000000; stroke-width:0; stroke-opacity:1; 
stroke-linecap:round; stroke-linejoin:round;fill-rule:evenodd;"
d="M 41224,13824
41233,13826
41242,13828
41251,13831
41260,13835
41268,13840
41275,13846
41282,13852
41289,13859
41294,13867
41299,13875
41303,13883
41306,13892
41309,13901
41310,13910
41311,13920
41311,14279
41310,14289
41309,14298
41306,14307
41303,14316
41299,14324
41294,14332
41289,14340
41282,14347
41275,14353
41268,14359
41260,14364
41251,14368
41242,14371
41233,14373
41224,14375
41215,14375
41023,14375
41013,14375
41004,14373
40995,14371
40986,14368
40977,14364
40969,14359
40962,14353
40955,14347
40948,14340
40943,14332
40938,14324
40934,14316
40931,14307
40929,14298
40927,14289
40927,14279
40927,13920
40927,13910
40929,13901
40931,13892
40934,13883
40938,13875
40943,13867
40948,13859
40955,13852
40962,13846
40969,13840
40977,13835
40986,13831
40995,13828
41004,13826
41013,13824
41023,13824
41215,13824
41224,13824
Z" /> 
<path style="fill:#000000; fill-opacity:1.0; 
stroke:#000000; stroke-width:0; stroke-opacity:1; 
stroke-linecap:round; stroke-linejoin:round;fill-rule:evenodd;"
d="M 40486,13824
40495,13826
40504,13828
40513,13831
40522,13835
40530,13840
40537,13846
40544,13852
40551,13859
40556,13867
40561,13875
40565,13883
40568,13892
40570,13901
40572,13910
40572,13920
40572,14279
40572,14289
40570,14298
40568,14307
40565,14316
40561,14324
40556,14332
40551,14340
40544,14347
40537,14353
40530,14359
40522,14364
40513,14368
40504,14371
40495,14373
40486,14375
40476,14375
40284,14375
40275,14375
40266,14373
40257,14371
40248,14368
40239,14364
40231,14359
40224,14353
40217,14347
40210,14340
40205,14332
40200,14324
40196,14316
40193,14307
40190,14298
40189,14289
40188,14279
40188,13920
40189,13910
40190,13901
40193,13892
40196,13883
40200,13875
40205,13867
40210,13859
40217,13852
40224,13846
40231,13840
40239,13835
40248,13831
40257,13828
40266,13826
40275,13824
40284,13824
40476,13824
40486,13824
Z" /> 
</g>
<g >
</g>
<g style="fill:#000000; fill-opacity:1.0; 
stroke:#000000; stroke-width:0; stroke-opacity:1; 
stroke-linecap:round; stroke-linejoin:round;">
<path style="fill:#000000; fill-opacity:1.0; 
stroke:#000000; stroke-width:0; stroke-opacity:1; 
stroke-linecap:round; stroke-linejoin:round;fill-rule:evenodd;"
d="M 38374,11974
38383,11976
38392,11978
38401,11981
38410,11985
38418,11990
38425,11996
38432,12002
38439,12009
38444,12017
38449,12025
38453,12033
38456,12042
38459,12051
38460,12060
38461,12070
38461,12429
38460,12439
38459,12448
38456,12457
38453,12466
38449,12474
38444,12482
38439,12490
38432,12497
38425,12503
38418,12509
38410,12514
38401,12518
38392,12521
38383,12523
38374,12525
38365,12525
38173,12525
38163,12525
38154,12523
38145,12521
38136,12518
38127,12514
38119,12509
38112,12503
38105,12497
38098,12490
38093,12482
38088,12474
38084,12466
38081,12457
38079,12448
38077,12439
38077,12429
38077,12070
38077,12060
38079,12051
38081,12042
38084,12033
38088,12025
38093,12017
38098,12009
38105,12002
38112,11996
38119,11990
38127,11985
38136,11981
38145,11978
38154,11976
38163,11974
38173,11974
38365,11974
38374,11974
Z" /> 
<path style="fill:#000000; fill-opacity:1.0; 
stroke:#000000; stroke-width:0; stroke-opacity:1; 
stroke-linecap:round; stroke-linejoin:round;fill-rule:evenodd;"
d="M 37636,11974
37645,11976
37654,11978
37663,11981
37672,11985
37680,11990
37687,11996
37694,12002
37701,12009
37706,12017
37711,12025
37715,12033
37718,12042
37720,12051
37722,12060
37722,12070
37722,12429
37722,12439
37720,12448
37718,12457
37715,12466
37711,12474
37706,12482
37701,12490
37694,12497
37687,12503
37680,12509
37672,12514
37663,12518
37654,12521
37645,12523
37636,12525
37626,12525
37434,12525
37425,12525
37416,12523
37407,12521
37398,12518
37389,12514
37381,12509
37374,12503
37367,12497
37360,12490
37355,12482
37350,12474
37346,12466
37343,12457
37340,12448
37339,12439
37338,12429
37338,12070
37339,12060
37340,12051
37343,12042
37346,12033
37350,12025
37355,12017
37360,12009
37367,12002
37374,11996
37381,11990
37389,11985
37398,11981
37407,11978
37416,11976
37425,11974
37434,11974
37626,11974
37636,11974
Z" /> 
</g>
<g >
</g>
<g style="fill:#000000; fill-opacity:1.0; 
stroke:#000000; stroke-width:0; stroke-opacity:1; 
stroke-linecap:round; stroke-linejoin:round;">
<path style="fill:#000000; fill-opacity:1.0; 
stroke:#000000; stroke-width:0; stroke-opacity:1; 
stroke-linecap:round; stroke-linejoin:round;fill-rule:evenodd;"
d="M 41679,11729
41685,11730
41690,11731
41696,11733
41701,11736
41706,11739
41711,11742
41715,11746
41719,11750
41722,11755
41725,11760
41728,11765
41730,11771
41731,11776
41732,11782
41732,11788
41732,12240
41732,12246
41731,12252
41730,12258
41728,12263
41725,12268
41722,12273
41719,12278
41715,12282
41711,12286
41706,12290
41701,12293
41696,12295
41690,12297
41685,12298
41679,12299
41673,12300
41555,12300
41549,12299
41543,12298
41538,12297
41532,12295
41527,12293
41522,12290
41518,12286
41513,12282
41509,12278
41506,12273
41503,12268
41500,12263
41498,12258
41497,12252
41496,12246
41496,12240
41496,11788
41496,11782
41497,11776
41498,11771
41500,11765
41503,11760
41506,11755
41509,11750
41513,11746
41518,11742
41522,11739
41527,11736
41532,11733
41538,11731
41543,11730
41549,11729
41555,11729
41673,11729
41679,11729
Z" /> 
<path style="fill:#000000; fill-opacity:1.0; 
stroke:#000000; stroke-width:0; stroke-opacity:1; 
stroke-linecap:round; stroke-linejoin:round;fill-rule:evenodd;"
d="M 41994,11729
42000,11730
42005,11731
42011,11733
42016,11736
42021,11739
42026,11742
42030,11746
42034,11750
42037,11755
42040,11760
42043,11765
42045,11771
42046,11776
42047,11782
42047,11788
42047,12240
42047,12246
42046,12252
42045,12258
42043,12263
42040,12268
42037,12273
42034,12278
42030,12282
42026,12286
42021,12290
42016,12293
42011,12295
42005,12297
42000,12298
41994,12299
41988,12300
41870,12300
41864,12299
41858,12298
41853,12297
41847,12295
41842,12293
41837,12290
41833,12286
41828,12282
41824,12278
41821,12273
41818,12268
41815,12263
41813,12258
41812,12252
41811,12246
41811,12240
41811,11788
41811,11782
41812,11776
41813,11771
41815,11765
41818,11760
41821,11755
41824,11750
41828,11746
41833,11742
41837,11739
41842,11736
41847,11733
41853,11731
41858,11730
41864,11729
41870,11729
41988,11729
41994,11729
Z" /> 
<path style="fill:#000000; fill-opacity:1.0; 
stroke:#000000; stroke-width:0; stroke-opacity:1; 
stroke-linecap:round; stroke-linejoin:round;fill-rule:evenodd;"
d="M 39750,11729
39756,11730
39761,11731
39767,11733
39772,11736
39777,11739
39781,11742
39786,11746
39790,11750
39793,11755
39796,11760
39799,11765
39801,11771
39802,11776
39803,11782
39803,11788
39803,12240
39803,12246
39802,12252
39801,12258
39799,12263
39796,12268
39793,12273
39790,12278
39786,12282
39781,12286
39777,12290
39772,12293
39767,12295
39761,12297
39756,12298
39750,12299
39744,12300
39626,12300
39620,12299
39614,12298
39609,12297
39603,12295
39598,12293
39593,12290
39588,12286
39584,12282
39580,12278
39577,12273
39574,12268
39571,12263
39569,12258
39568,12252
39567,12246
39567,12240
39567,11788
39567,11782
39568,11776
39569,11771
39571,11765
39574,11760
39577,11755
39580,11750
39584,11746
39588,11742
39593,11739
39598,11736
39603,11733
39609,11731
39614,11730
39620,11729
39626,11729
39744,11729
39750,11729
Z" /> 
<path style="fill:#000000; fill-opacity:1.0; 
stroke:#000000; stroke-width:0; stroke-opacity:1; 
stroke-linecap:round; stroke-linejoin:round;fill-rule:evenodd;"
d="M 40780,11729
40783,11729
40786,11730
40789,11731
40791,11732
40794,11734
40796,11735
40798,11737
40800,11739
40802,11742
40803,11744
40805,11747
40806,11750
40806,11752
40807,11755
40807,11758
40807,12270
40807,12273
40806,12276
40806,12279
40805,12281
40803,12284
40802,12286
40800,12289
40798,12291
40796,12293
40794,12295
40791,12296
40789,12297
40786,12298
40783,12299
40780,12299
40777,12300
40718,12300
40716,12299
40713,12299
40710,12298
40707,12297
40704,12296
40702,12295
40700,12293
40698,12291
40696,12289
40694,12286
40692,12284
40691,12281
40690,12279
40689,12276
40689,12273
40689,12270
40689,11758
40689,11755
40689,11752
40690,11750
40691,11747
40692,11744
40694,11742
40696,11739
40698,11737
40700,11735
40702,11734
40704,11732
40707,11731
40710,11730
40713,11729
40716,11729
40718,11729
40777,11729
40780,11729
Z" /> 
<path style="fill:#000000; fill-opacity:1.0; 
stroke:#000000; stroke-width:0; stroke-opacity:1; 
stroke-linecap:round; stroke-linejoin:round;fill-rule:evenodd;"
d="M 40977,11729
40980,11729
40983,11730
40986,11731
40988,11732
40991,11734
40993,11735
40995,11737
40997,11739
40999,11742
41000,11744
41002,11747
41003,11750
41003,11752
41004,11755
41004,11758
41004,12270
41004,12273
41003,12276
41003,12279
41002,12281
41000,12284
40999,12286
40997,12289
40995,12291
40993,12293
40991,12295
40988,12296
40986,12297
40983,12298
40980,12299
40977,12299
40974,12300
40915,12300
40912,12299
40909,12299
40907,12298
40904,12297
40901,12296
40899,12295
40897,12293
40894,12291
40892,12289
40891,12286
40889,12284
40888,12281
40887,12279
40886,12276
40886,12273
40886,12270
40886,11758
40886,11755
40886,11752
40887,11750
40888,11747
40889,11744
40891,11742
40892,11739
40894,11737
40897,11735
40899,11734
40901,11732
40904,11731
40907,11730
40909,11729
40912,11729
40915,11729
40974,11729
40977,11729
Z" /> 
<path style="fill:#000000; fill-opacity:1.0; 
stroke:#000000; stroke-width:0; stroke-opacity:1; 
stroke-linecap:round; stroke-linejoin:round;fill-rule:evenodd;"
d="M 41174,11729
41177,11729
41180,11730
41182,11731
41185,11732
41188,11734
41190,11735
41192,11737
41194,11739
41196,11742
41197,11744
41198,11747
41199,11750
41200,11752
41201,11755
41201,11758
41201,12270
41201,12273
41200,12276
41199,12279
41198,12281
41197,12284
41196,12286
41194,12289
41192,12291
41190,12293
41188,12295
41185,12296
41182,12297
41180,12298
41177,12299
41174,12299
41171,12300
41112,12300
41109,12299
41106,12299
41104,12298
41101,12297
41098,12296
41096,12295
41093,12293
41091,12291
41089,12289
41088,12286
41086,12284
41085,12281
41084,12279
41083,12276
41083,12273
41083,12270
41083,11758
41083,11755
41083,11752
41084,11750
41085,11747
41086,11744
41088,11742
41089,11739
41091,11737
41093,11735
41096,11734
41098,11732
41101,11731
41104,11730
41106,11729
41109,11729
41112,11729
41171,11729
41174,11729
Z" /> 
<path style="fill:#000000; fill-opacity:1.0; 
stroke:#000000; stroke-width:0; stroke-opacity:1; 
stroke-linecap:round; stroke-linejoin:round;fill-rule:evenodd;"
d="M 41371,11729
41374,11729
41377,11730
41379,11731
41382,11732
41384,11734
41387,11735
41389,11737
41391,11739
41393,11742
41394,11744
41395,11747
41396,11750
41397,11752
41397,11755
41398,11758
41398,12270
41397,12273
41397,12276
41396,12279
41395,12281
41394,12284
41393,12286
41391,12289
41389,12291
41387,12293
41384,12295
41382,12296
41379,12297
41377,12298
41374,12299
41371,12299
41368,12300
41309,12300
41306,12299
41303,12299
41300,12298
41298,12297
41295,12296
41293,12295
41290,12293
41288,12291
41286,12289
41284,12286
41283,12284
41282,12281
41281,12279
41280,12276
41280,12273
41279,12270
41279,11758
41280,11755
41280,11752
41281,11750
41282,11747
41283,11744
41284,11742
41286,11739
41288,11737
41290,11735
41293,11734
41295,11732
41298,11731
41300,11730
41303,11729
41306,11729
41309,11729
41368,11729
41371,11729
Z" /> 
<path style="fill:#000000; fill-opacity:1.0; 
stroke:#000000; stroke-width:0; stroke-opacity:1; 
stroke-linecap:round; stroke-linejoin:round;fill-rule:evenodd;"
d="M 40582,11729
40585,11729
40588,11730
40590,11731
40593,11732
40595,11734
40598,11735
40600,11737
40602,11739
40604,11742
40605,11744
40606,11747
40607,11750
40608,11752
40608,11755
40609,11758
40609,12270
40608,12273
40608,12276
40607,12279
40606,12281
40605,12284
40604,12286
40602,12289
40600,12291
40598,12293
40595,12295
40593,12296
40590,12297
40588,12298
40585,12299
40582,12299
40579,12300
40520,12300
40517,12299
40514,12299
40511,12298
40509,12297
40506,12296
40504,12295
40501,12293
40499,12291
40497,12289
40495,12286
40494,12284
40493,12281
40492,12279
40491,12276
40491,12273
40490,12270
40490,11758
40491,11755
40491,11752
40492,11750
40493,11747
40494,11744
40495,11742
40497,11739
40499,11737
40501,11735
40504,11734
40506,11732
40509,11731
40511,11730
40514,11729
40517,11729
40520,11729
40579,11729
40582,11729
Z" /> 
<path style="fill:#000000; fill-opacity:1.0; 
stroke:#000000; stroke-width:0; stroke-opacity:1; 
stroke-linecap:round; stroke-linejoin:round;fill-rule:evenodd;"
d="M 40387,11729
40390,11729
40392,11730
40395,11731
40398,11732
40400,11734
40402,11735
40405,11737
40407,11739
40408,11742
40410,11744
40411,11747
40412,11750
40413,11752
40413,11755
40413,11758
40413,12270
40413,12273
40413,12276
40412,12279
40411,12281
40410,12284
40408,12286
40407,12289
40405,12291
40402,12293
40400,12295
40398,12296
40395,12297
40392,12298
40390,12299
40387,12299
40384,12300
40325,12300
40322,12299
40319,12299
40316,12298
40313,12297
40311,12296
40308,12295
40306,12293
40304,12291
40302,12289
40300,12286
40299,12284
40297,12281
40296,12279
40296,12276
40295,12273
40295,12270
40295,11758
40295,11755
40296,11752
40296,11750
40297,11747
40299,11744
40300,11742
40302,11739
40304,11737
40306,11735
40308,11734
40311,11732
40313,11731
40316,11730
40319,11729
40322,11729
40325,11729
40384,11729
40387,11729
Z" /> 
<path style="fill:#000000; fill-opacity:1.0; 
stroke:#000000; stroke-width:0; stroke-opacity:1; 
stroke-linecap:round; stroke-linejoin:round;fill-rule:evenodd;"
d="M 40190,11729
40193,11729
40195,11730
40198,11731
40201,11732
40203,11734
40206,11735
40208,11737
40210,11739
40211,11742
40213,11744
40214,11747
40215,11750
40216,11752
40216,11755
40216,11758
40216,12270
40216,12273
40216,12276
40215,12279
40214,12281
40213,12284
40211,12286
40210,12289
40208,12291
40206,12293
40203,12295
40201,12296
40198,12297
40195,12298
40193,12299
40190,12299
40187,12300
40128,12300
40125,12299
40122,12299
40119,12298
40117,12297
40114,12296
40111,12295
40109,12293
40107,12291
40105,12289
40103,12286
40102,12284
40101,12281
40100,12279
40099,12276
40098,12273
40098,12270
40098,11758
40098,11755
40099,11752
40100,11750
40101,11747
40102,11744
40103,11742
40105,11739
40107,11737
40109,11735
40111,11734
40114,11732
40117,11731
40119,11730
40122,11729
40125,11729
40128,11729
40187,11729
40190,11729
Z" /> 
<path style="fill:#000000; fill-opacity:1.0; 
stroke:#000000; stroke-width:0; stroke-opacity:1; 
stroke-linecap:round; stroke-linejoin:round;fill-rule:evenodd;"
d="M 39993,11729
39996,11729
39999,11730
40001,11731
40004,11732
40006,11734
40009,11735
40011,11737
40013,11739
40015,11742
40016,11744
40017,11747
40018,11750
40019,11752
40019,11755
40020,11758
40020,12270
40019,12273
40019,12276
40018,12279
40017,12281
40016,12284
40015,12286
40013,12289
40011,12291
40009,12293
40006,12295
40004,12296
40001,12297
39999,12298
39996,12299
39993,12299
39990,12300
39931,12300
39928,12299
39925,12299
39922,12298
39920,12297
39917,12296
39915,12295
39912,12293
39910,12291
39908,12289
39906,12286
39905,12284
39904,12281
39903,12279
39902,12276
39902,12273
39901,12270
39901,11758
39902,11755
39902,11752
39903,11750
39904,11747
39905,11744
39906,11742
39908,11739
39910,11737
39912,11735
39915,11734
39917,11732
39920,11731
39922,11730
39925,11729
39928,11729
39931,11729
39990,11729
39993,11729
Z" /> 
<path style="fill:#000000; fill-opacity:1.0; 
stroke:#000000; stroke-width:0; stroke-opacity:1; 
stroke-linecap:round; stroke-linejoin:round;fill-rule:evenodd;"
d="M 39435,11729
39441,11730
39446,11731
39452,11733
39457,11736
39462,11739
39466,11742
39471,11746
39475,11750
39478,11755
39481,11760
39484,11765
39486,11771
39487,11776
39488,11782
39488,11788
39488,12240
39488,12246
39487,12252
39486,12258
39484,12263
39481,12268
39478,12273
39475,12278
39471,12282
39466,12286
39462,12290
39457,12293
39452,12295
39446,12297
39441,12298
39435,12299
39429,12300
39311,12300
39305,12299
39299,12298
39294,12297
39288,12295
39283,12293
39278,12290
39273,12286
39269,12282
39265,12278
39262,12273
39259,12268
39256,12263
39254,12258
39253,12252
39252,12246
39252,12240
39252,11788
39252,11782
39253,11776
39254,11771
39256,11765
39259,11760
39262,11755
39265,11750
39269,11746
39273,11742
39278,11739
39283,11736
39288,11733
39294,11731
39299,11730
39305,11729
39311,11729
39429,11729
39435,11729
Z" /> 
</g>
<g >
</g>
<g style="fill:#000000; fill-opacity:1.0; 
stroke:#000000; stroke-width:0; stroke-opacity:1; 
stroke-linecap:round; stroke-linejoin:round;">
<path style="fill:#000000; fill-opacity:1.0; 
stroke:#000000; stroke-width:0; stroke-opacity:1; 
stroke-linecap:round; stroke-linejoin:round;fill-rule:evenodd;"
d="M 37267,15826
36795,15826
36795,15472
37267,15472
37267,15826
Z" /> 
<path style="fill:#000000; fill-opacity:1.0; 
stroke:#000000; stroke-width:0; stroke-opacity:1; 
stroke-linecap:round; stroke-linejoin:round;fill-rule:evenodd;"
d="M 37267,14527
36795,14527
36795,14173
37267,14173
37267,14527
Z" /> 
</g>
<g >
</g>
<g style="fill:#000000; fill-opacity:1.0; 
stroke:#000000; stroke-width:0; stroke-opacity:1; 
stroke-linecap:round; stroke-linejoin:round;">
<path style="fill:#000000; fill-opacity:1.0; 
stroke:#000000; stroke-width:0; stroke-opacity:1; 
stroke-linecap:round; stroke-linejoin:round;fill-rule:evenodd;"
d="M 39548,44708
39548,44491
40139,44491
40139,44708
39548,44708
Z" /> 
<path style="fill:#000000; fill-opacity:1.0; 
stroke:#000000; stroke-width:0; stroke-opacity:1; 
stroke-linecap:round; stroke-linejoin:round;fill-rule:evenodd;"
d="M 39548,44393
39548,44176
40139,44176
40139,44393
39548,44393
Z" /> 
<path style="fill:#000000; fill-opacity:1.0; 
stroke:#000000; stroke-width:0; stroke-opacity:1; 
stroke-linecap:round; stroke-linejoin:round;fill-rule:evenodd;"
d="M 39548,44078
39548,43861
40139,43861
40139,44078
39548,44078
Z" /> 
<path style="fill:#000000; fill-opacity:1.0; 
stroke:#000000; stroke-width:0; stroke-opacity:1; 
stroke-linecap:round; stroke-linejoin:round;fill-rule:evenodd;"
d="M 39548,43763
39548,43546
40139,43546
40139,43763
39548,43763
Z" /> 
<path style="fill:#000000; fill-opacity:1.0; 
stroke:#000000; stroke-width:0; stroke-opacity:1; 
stroke-linecap:round; stroke-linejoin:round;fill-rule:evenodd;"
d="M 39548,43448
39548,43231
40139,43231
40139,43448
39548,43448
Z" /> 
<path style="fill:#000000; fill-opacity:1.0; 
stroke:#000000; stroke-width:0; stroke-opacity:1; 
stroke-linecap:round; stroke-linejoin:round;fill-rule:evenodd;"
d="M 39548,43133
39548,42916
40139,42916
40139,43133
39548,43133
Z" /> 
<path style="fill:#000000; fill-opacity:1.0; 
stroke:#000000; stroke-width:0; stroke-opacity:1; 
stroke-linecap:round; stroke-linejoin:round;fill-rule:evenodd;"
d="M 39548,42818
39548,42601
40139,42601
40139,42818
39548,42818
Z" /> 
<path style="fill:#000000; fill-opacity:1.0; 
stroke:#000000; stroke-width:0; stroke-opacity:1; 
stroke-linecap:round; stroke-linejoin:round;fill-rule:evenodd;"
d="M 39548,42503
39548,42286
40139,42286
40139,42503
39548,42503
Z" /> 
<path style="fill:#000000; fill-opacity:1.0; 
stroke:#000000; stroke-width:0; stroke-opacity:1; 
stroke-linecap:round; stroke-linejoin:round;fill-rule:evenodd;"
d="M 39548,42188
39548,41971
40139,41971
40139,42188
39548,42188
Z" /> 
<path style="fill:#000000; fill-opacity:1.0; 
stroke:#000000; stroke-width:0; stroke-opacity:1; 
stroke-linecap:round; stroke-linejoin:round;fill-rule:evenodd;"
d="M 39548,41873
39548,41656
40139,41656
40139,41873
39548,41873
Z" /> 
<path style="fill:#000000; fill-opacity:1.0; 
stroke:#000000; stroke-width:0; stroke-opacity:1; 
stroke-linecap:round; stroke-linejoin:round;fill-rule:evenodd;"
d="M 39548,41558
39548,41341
40139,41341
40139,41558
39548,41558
Z" /> 
<path style="fill:#000000; fill-opacity:1.0; 
stroke:#000000; stroke-width:0; stroke-opacity:1; 
stroke-linecap:round; stroke-linejoin:round;fill-rule:evenodd;"
d="M 39283,41076
39066,41076
39066,40485
39283,40485
39283,41076
Z" /> 
<path style="fill:#000000; fill-opacity:1.0; 
stroke:#000000; stroke-width:0; stroke-opacity:1; 
stroke-linecap:round; stroke-linejoin:round;fill-rule:evenodd;"
d="M 38968,41076
38751,41076
38751,40485
38968,40485
38968,41076
Z" /> 
<path style="fill:#000000; fill-opacity:1.0; 
stroke:#000000; stroke-width:0; stroke-opacity:1; 
stroke-linecap:round; stroke-linejoin:round;fill-rule:evenodd;"
d="M 38653,41076
38436,41076
38436,40485
38653,40485
38653,41076
Z" /> 
<path style="fill:#000000; fill-opacity:1.0; 
stroke:#000000; stroke-width:0; stroke-opacity:1; 
stroke-linecap:round; stroke-linejoin:round;fill-rule:evenodd;"
d="M 38338,41076
38121,41076
38121,40485
38338,40485
38338,41076
Z" /> 
<path style="fill:#000000; fill-opacity:1.0; 
stroke:#000000; stroke-width:0; stroke-opacity:1; 
stroke-linecap:round; stroke-linejoin:round;fill-rule:evenodd;"
d="M 38023,41076
37806,41076
37806,40485
38023,40485
38023,41076
Z" /> 
<path style="fill:#000000; fill-opacity:1.0; 
stroke:#000000; stroke-width:0; stroke-opacity:1; 
stroke-linecap:round; stroke-linejoin:round;fill-rule:evenodd;"
d="M 37708,41076
37491,41076
37491,40485
37708,40485
37708,41076
Z" /> 
<path style="fill:#000000; fill-opacity:1.0; 
stroke:#000000; stroke-width:0; stroke-opacity:1; 
stroke-linecap:round; stroke-linejoin:round;fill-rule:evenodd;"
d="M 37393,41076
37176,41076
37176,40485
37393,40485
37393,41076
Z" /> 
<path style="fill:#000000; fill-opacity:1.0; 
stroke:#000000; stroke-width:0; stroke-opacity:1; 
stroke-linecap:round; stroke-linejoin:round;fill-rule:evenodd;"
d="M 37078,41076
36861,41076
36861,40485
37078,40485
37078,41076
Z" /> 
<path style="fill:#000000; fill-opacity:1.0; 
stroke:#000000; stroke-width:0; stroke-opacity:1; 
stroke-linecap:round; stroke-linejoin:round;fill-rule:evenodd;"
d="M 36763,41076
36546,41076
36546,40485
36763,40485
36763,41076
Z" /> 
<path style="fill:#000000; fill-opacity:1.0; 
stroke:#000000; stroke-width:0; stroke-opacity:1; 
stroke-linecap:round; stroke-linejoin:round;fill-rule:evenodd;"
d="M 36448,41076
36231,41076
36231,40485
36448,40485
36448,41076
Z" /> 
<path style="fill:#000000; fill-opacity:1.0; 
stroke:#000000; stroke-width:0; stroke-opacity:1; 
stroke-linecap:round; stroke-linejoin:round;fill-rule:evenodd;"
d="M 36133,41076
35916,41076
35916,40485
36133,40485
36133,41076
Z" /> 
<path style="fill:#000000; fill-opacity:1.0; 
stroke:#000000; stroke-width:0; stroke-opacity:1; 
stroke-linecap:round; stroke-linejoin:round;fill-rule:evenodd;"
d="M 35060,41558
35060,41341
35651,41341
35651,41558
35060,41558
Z" /> 
<path style="fill:#000000; fill-opacity:1.0; 
stroke:#000000; stroke-width:0; stroke-opacity:1; 
stroke-linecap:round; stroke-linejoin:round;fill-rule:evenodd;"
d="M 35060,41873
35060,41656
35651,41656
35651,41873
35060,41873
Z" /> 
<path style="fill:#000000; fill-opacity:1.0; 
stroke:#000000; stroke-width:0; stroke-opacity:1; 
stroke-linecap:round; stroke-linejoin:round;fill-rule:evenodd;"
d="M 35060,42188
35060,41971
35651,41971
35651,42188
35060,42188
Z" /> 
<path style="fill:#000000; fill-opacity:1.0; 
stroke:#000000; stroke-width:0; stroke-opacity:1; 
stroke-linecap:round; stroke-linejoin:round;fill-rule:evenodd;"
d="M 35060,42503
35060,42286
35651,42286
35651,42503
35060,42503
Z" /> 
<path style="fill:#000000; fill-opacity:1.0; 
stroke:#000000; stroke-width:0; stroke-opacity:1; 
stroke-linecap:round; stroke-linejoin:round;fill-rule:evenodd;"
d="M 35060,42818
35060,42601
35651,42601
35651,42818
35060,42818
Z" /> 
<path style="fill:#000000; fill-opacity:1.0; 
stroke:#000000; stroke-width:0; stroke-opacity:1; 
stroke-linecap:round; stroke-linejoin:round;fill-rule:evenodd;"
d="M 35060,43133
35060,42916
35651,42916
35651,43133
35060,43133
Z" /> 
<path style="fill:#000000; fill-opacity:1.0; 
stroke:#000000; stroke-width:0; stroke-opacity:1; 
stroke-linecap:round; stroke-linejoin:round;fill-rule:evenodd;"
d="M 35060,43448
35060,43231
35651,43231
35651,43448
35060,43448
Z" /> 
<path style="fill:#000000; fill-opacity:1.0; 
stroke:#000000; stroke-width:0; stroke-opacity:1; 
stroke-linecap:round; stroke-linejoin:round;fill-rule:evenodd;"
d="M 35060,43763
35060,43546
35651,43546
35651,43763
35060,43763
Z" /> 
<path style="fill:#000000; fill-opacity:1.0; 
stroke:#000000; stroke-width:0; stroke-opacity:1; 
stroke-linecap:round; stroke-linejoin:round;fill-rule:evenodd;"
d="M 35060,44078
35060,43861
35651,43861
35651,44078
35060,44078
Z" /> 
<path style="fill:#000000; fill-opacity:1.0; 
stroke:#000000; stroke-width:0; stroke-opacity:1; 
stroke-linecap:round; stroke-linejoin:round;fill-rule:evenodd;"
d="M 35060,44393
35060,44176
35651,44176
35651,44393
35060,44393
Z" /> 
<path style="fill:#000000; fill-opacity:1.0; 
stroke:#000000; stroke-width:0; stroke-opacity:1; 
stroke-linecap:round; stroke-linejoin:round;fill-rule:evenodd;"
d="M 35060,44708
35060,44491
35651,44491
35651,44708
35060,44708
Z" /> 
<path style="fill:#000000; fill-opacity:1.0; 
stroke:#000000; stroke-width:0; stroke-opacity:1; 
stroke-linecap:round; stroke-linejoin:round;fill-rule:evenodd;"
d="M 36133,45564
35916,45564
35916,44973
36133,44973
36133,45564
Z" /> 
<path style="fill:#000000; fill-opacity:1.0; 
stroke:#000000; stroke-width:0; stroke-opacity:1; 
stroke-linecap:round; stroke-linejoin:round;fill-rule:evenodd;"
d="M 36448,45564
36231,45564
36231,44973
36448,44973
36448,45564
Z" /> 
<path style="fill:#000000; fill-opacity:1.0; 
stroke:#000000; stroke-width:0; stroke-opacity:1; 
stroke-linecap:round; stroke-linejoin:round;fill-rule:evenodd;"
d="M 36763,45564
36546,45564
36546,44973
36763,44973
36763,45564
Z" /> 
<path style="fill:#000000; fill-opacity:1.0; 
stroke:#000000; stroke-width:0; stroke-opacity:1; 
stroke-linecap:round; stroke-linejoin:round;fill-rule:evenodd;"
d="M 37078,45564
36861,45564
36861,44973
37078,44973
37078,45564
Z" /> 
<path style="fill:#000000; fill-opacity:1.0; 
stroke:#000000; stroke-width:0; stroke-opacity:1; 
stroke-linecap:round; stroke-linejoin:round;fill-rule:evenodd;"
d="M 37393,45564
37176,45564
37176,44973
37393,44973
37393,45564
Z" /> 
<path style="fill:#000000; fill-opacity:1.0; 
stroke:#000000; stroke-width:0; stroke-opacity:1; 
stroke-linecap:round; stroke-linejoin:round;fill-rule:evenodd;"
d="M 37708,45564
37491,45564
37491,44973
37708,44973
37708,45564
Z" /> 
<path style="fill:#000000; fill-opacity:1.0; 
stroke:#000000; stroke-width:0; stroke-opacity:1; 
stroke-linecap:round; stroke-linejoin:round;fill-rule:evenodd;"
d="M 38023,45564
37806,45564
37806,44973
38023,44973
38023,45564
Z" /> 
<path style="fill:#000000; fill-opacity:1.0; 
stroke:#000000; stroke-width:0; stroke-opacity:1; 
stroke-linecap:round; stroke-linejoin:round;fill-rule:evenodd;"
d="M 38338,45564
38121,45564
38121,44973
38338,44973
38338,45564
Z" /> 
<path style="fill:#000000; fill-opacity:1.0; 
stroke:#000000; stroke-width:0; stroke-opacity:1; 
stroke-linecap:round; stroke-linejoin:round;fill-rule:evenodd;"
d="M 38653,45564
38436,45564
38436,44973
38653,44973
38653,45564
Z" /> 
<path style="fill:#000000; fill-opacity:1.0; 
stroke:#000000; stroke-width:0; stroke-opacity:1; 
stroke-linecap:round; stroke-linejoin:round;fill-rule:evenodd;"
d="M 38968,45564
38751,45564
38751,44973
38968,44973
38968,45564
Z" /> 
<path style="fill:#000000; fill-opacity:1.0; 
stroke:#000000; stroke-width:0; stroke-opacity:1; 
stroke-linecap:round; stroke-linejoin:round;fill-rule:evenodd;"
d="M 39283,45564
39066,45564
39066,44973
39283,44973
39283,45564
Z" /> 
</g>
<g >
</g>
<g style="fill:#000000; fill-opacity:1.0; 
stroke:#000000; stroke-width:0; stroke-opacity:1; 
stroke-linecap:round; stroke-linejoin:round;">
<path style="fill:#000000; fill-opacity:1.0; 
stroke:#000000; stroke-width:0; stroke-opacity:1; 
stroke-linecap:round; stroke-linejoin:round;fill-rule:evenodd;"
d="M 25838,44474
25405,44474
25405,43766
25838,43766
25838,44474
Z" /> 
<path style="fill:#000000; fill-opacity:1.0; 
stroke:#000000; stroke-width:0; stroke-opacity:1; 
stroke-linecap:round; stroke-linejoin:round;fill-rule:evenodd;"
d="M 27294,42033
26861,42033
26861,41325
27294,41325
27294,42033
Z" /> 
<path style="fill:#000000; fill-opacity:1.0; 
stroke:#000000; stroke-width:0; stroke-opacity:1; 
stroke-linecap:round; stroke-linejoin:round;fill-rule:evenodd;"
d="M 27294,44474
26861,44474
26861,43766
27294,43766
27294,44474
Z" /> 
<path style="fill:#000000; fill-opacity:1.0; 
stroke:#000000; stroke-width:0; stroke-opacity:1; 
stroke-linecap:round; stroke-linejoin:round;fill-rule:evenodd;"
d="M 25838,42033
25405,42033
25405,41325
25838,41325
25838,42033
Z" /> 
</g>
<g >
</g>
<g style="fill:#000000; fill-opacity:1.0; 
stroke:#000000; stroke-width:0; stroke-opacity:1; 
stroke-linecap:round; stroke-linejoin:round;">
<path style="fill:#000000; fill-opacity:1.0; 
stroke:#000000; stroke-width:0; stroke-opacity:1; 
stroke-linecap:round; stroke-linejoin:round;fill-rule:evenodd;"
d="M 40986,39824
40995,39826
41004,39828
41013,39831
41022,39835
41030,39840
41037,39846
41044,39852
41051,39859
41056,39867
41061,39875
41065,39883
41068,39892
41070,39901
41072,39910
41072,39920
41072,40279
41072,40289
41070,40298
41068,40307
41065,40316
41061,40324
41056,40332
41051,40340
41044,40347
41037,40353
41030,40359
41022,40364
41013,40368
41004,40371
40995,40373
40986,40375
40976,40375
40784,40375
40775,40375
40766,40373
40757,40371
40748,40368
40739,40364
40731,40359
40724,40353
40717,40347
40710,40340
40705,40332
40700,40324
40696,40316
40693,40307
40690,40298
40689,40289
40688,40279
40688,39920
40689,39910
40690,39901
40693,39892
40696,39883
40700,39875
40705,39867
40710,39859
40717,39852
40724,39846
40731,39840
40739,39835
40748,39831
40757,39828
40766,39826
40775,39824
40784,39824
40976,39824
40986,39824
Z" /> 
<path style="fill:#000000; fill-opacity:1.0; 
stroke:#000000; stroke-width:0; stroke-opacity:1; 
stroke-linecap:round; stroke-linejoin:round;fill-rule:evenodd;"
d="M 41724,39824
41733,39826
41742,39828
41751,39831
41760,39835
41768,39840
41775,39846
41782,39852
41789,39859
41794,39867
41799,39875
41803,39883
41806,39892
41809,39901
41810,39910
41811,39920
41811,40279
41810,40289
41809,40298
41806,40307
41803,40316
41799,40324
41794,40332
41789,40340
41782,40347
41775,40353
41768,40359
41760,40364
41751,40368
41742,40371
41733,40373
41724,40375
41715,40375
41523,40375
41513,40375
41504,40373
41495,40371
41486,40368
41477,40364
41469,40359
41462,40353
41455,40347
41448,40340
41443,40332
41438,40324
41434,40316
41431,40307
41429,40298
41427,40289
41427,40279
41427,39920
41427,39910
41429,39901
41431,39892
41434,39883
41438,39875
41443,39867
41448,39859
41455,39852
41462,39846
41469,39840
41477,39835
41486,39831
41495,39828
41504,39826
41513,39824
41523,39824
41715,39824
41724,39824
Z" /> 
</g>
<g >
</g>
<g style="fill:#000000; fill-opacity:1.0; 
stroke:#000000; stroke-width:0; stroke-opacity:1; 
stroke-linecap:round; stroke-linejoin:round;">
<path style="fill:#000000; fill-opacity:1.0; 
stroke:#000000; stroke-width:0; stroke-opacity:1; 
stroke-linecap:round; stroke-linejoin:round;fill-rule:evenodd;"
d="M 39264,14289
39273,14290
39282,14293
39291,14296
39299,14300
39307,14305
39315,14310
39322,14317
39328,14324
39334,14331
39339,14339
39343,14348
39346,14357
39348,14366
39350,14375
39350,14384
39350,14576
39350,14586
39348,14595
39346,14604
39343,14613
39339,14622
39334,14630
39328,14637
39322,14644
39315,14651
39307,14656
39299,14661
39291,14665
39282,14668
39273,14670
39264,14672
39254,14672
38895,14672
38885,14672
38876,14670
38867,14668
38858,14665
38850,14661
38842,14656
38834,14651
38827,14644
38821,14637
38815,14630
38810,14622
38806,14613
38803,14604
38801,14595
38799,14586
38799,14576
38799,14384
38799,14375
38801,14366
38803,14357
38806,14348
38810,14339
38815,14331
38821,14324
38827,14317
38834,14310
38842,14305
38850,14300
38858,14296
38867,14293
38876,14290
38885,14289
38895,14288
39254,14288
39264,14289
Z" /> 
<path style="fill:#000000; fill-opacity:1.0; 
stroke:#000000; stroke-width:0; stroke-opacity:1; 
stroke-linecap:round; stroke-linejoin:round;fill-rule:evenodd;"
d="M 39264,15027
39273,15029
39282,15031
39291,15034
39299,15038
39307,15043
39315,15048
39322,15055
39328,15062
39334,15069
39339,15077
39343,15086
39346,15095
39348,15104
39350,15113
39350,15123
39350,15315
39350,15324
39348,15333
39346,15342
39343,15351
39339,15360
39334,15368
39328,15375
39322,15382
39315,15389
39307,15394
39299,15399
39291,15403
39282,15406
39273,15409
39264,15410
39254,15411
38895,15411
38885,15410
38876,15409
38867,15406
38858,15403
38850,15399
38842,15394
38834,15389
38827,15382
38821,15375
38815,15368
38810,15360
38806,15351
38803,15342
38801,15333
38799,15324
38799,15315
38799,15123
38799,15113
38801,15104
38803,15095
38806,15086
38810,15077
38815,15069
38821,15062
38827,15055
38834,15048
38842,15043
38850,15038
38858,15034
38867,15031
38876,15029
38885,15027
38895,15027
39254,15027
39264,15027
Z" /> 
</g>
<g >
</g>
<g style="fill:#000000; fill-opacity:1.0; 
stroke:#000000; stroke-width:0; stroke-opacity:1; 
stroke-linecap:round; stroke-linejoin:round;">
<path style="fill:#000000; fill-opacity:1.0; 
stroke:#000000; stroke-width:0; stroke-opacity:1; 
stroke-linecap:round; stroke-linejoin:round;fill-rule:evenodd;"
d="M 38439,14289
38448,14290
38457,14293
38466,14296
38474,14300
38482,14305
38490,14310
38497,14317
38503,14324
38509,14331
38514,14339
38518,14348
38521,14357
38523,14366
38525,14375
38525,14384
38525,14576
38525,14586
38523,14595
38521,14604
38518,14613
38514,14622
38509,14630
38503,14637
38497,14644
38490,14651
38482,14656
38474,14661
38466,14665
38457,14668
38448,14670
38439,14672
38429,14672
38070,14672
38060,14672
38051,14670
38042,14668
38033,14665
38025,14661
38017,14656
38009,14651
38002,14644
37996,14637
37990,14630
37985,14622
37981,14613
37978,14604
37976,14595
37974,14586
37974,14576
37974,14384
37974,14375
37976,14366
37978,14357
37981,14348
37985,14339
37990,14331
37996,14324
38002,14317
38009,14310
38017,14305
38025,14300
38033,14296
38042,14293
38051,14290
38060,14289
38070,14288
38429,14288
38439,14289
Z" /> 
<path style="fill:#000000; fill-opacity:1.0; 
stroke:#000000; stroke-width:0; stroke-opacity:1; 
stroke-linecap:round; stroke-linejoin:round;fill-rule:evenodd;"
d="M 38439,15027
38448,15029
38457,15031
38466,15034
38474,15038
38482,15043
38490,15048
38497,15055
38503,15062
38509,15069
38514,15077
38518,15086
38521,15095
38523,15104
38525,15113
38525,15123
38525,15315
38525,15324
38523,15333
38521,15342
38518,15351
38514,15360
38509,15368
38503,15375
38497,15382
38490,15389
38482,15394
38474,15399
38466,15403
38457,15406
38448,15409
38439,15410
38429,15411
38070,15411
38060,15410
38051,15409
38042,15406
38033,15403
38025,15399
38017,15394
38009,15389
38002,15382
37996,15375
37990,15368
37985,15360
37981,15351
37978,15342
37976,15333
37974,15324
37974,15315
37974,15123
37974,15113
37976,15104
37978,15095
37981,15086
37985,15077
37990,15069
37996,15062
38002,15055
38009,15048
38017,15043
38025,15038
38033,15034
38042,15031
38051,15029
38060,15027
38070,15027
38429,15027
38439,15027
Z" /> 
</g>
<g >
</g>
<g style="fill:#000000; fill-opacity:1.0; 
stroke:#000000; stroke-width:0; stroke-opacity:1; 
stroke-linecap:round; stroke-linejoin:round;">
<path style="fill:#000000; fill-opacity:1.0; 
stroke:#000000; stroke-width:0; stroke-opacity:1; 
stroke-linecap:round; stroke-linejoin:round;fill-rule:evenodd;"
d="M 28086,43874
28095,43876
28104,43878
28113,43881
28122,43885
28130,43890
28137,43896
28144,43902
28151,43909
28156,43917
28161,43925
28165,43933
28168,43942
28170,43951
28172,43960
28172,43970
28172,44329
28172,44339
28170,44348
28168,44357
28165,44366
28161,44374
28156,44382
28151,44390
28144,44397
28137,44403
28130,44409
28122,44414
28113,44418
28104,44421
28095,44423
28086,44425
28076,44425
27884,44425
27875,44425
27866,44423
27857,44421
27848,44418
27839,44414
27831,44409
27824,44403
27817,44397
27810,44390
27805,44382
27800,44374
27796,44366
27793,44357
27790,44348
27789,44339
27788,44329
27788,43970
27789,43960
27790,43951
27793,43942
27796,43933
27800,43925
27805,43917
27810,43909
27817,43902
27824,43896
27831,43890
27839,43885
27848,43881
27857,43878
27866,43876
27875,43874
27884,43874
28076,43874
28086,43874
Z" /> 
<path style="fill:#000000; fill-opacity:1.0; 
stroke:#000000; stroke-width:0; stroke-opacity:1; 
stroke-linecap:round; stroke-linejoin:round;fill-rule:evenodd;"
d="M 28824,43874
28833,43876
28842,43878
28851,43881
28860,43885
28868,43890
28875,43896
28882,43902
28889,43909
28894,43917
28899,43925
28903,43933
28906,43942
28909,43951
28910,43960
28911,43970
28911,44329
28910,44339
28909,44348
28906,44357
28903,44366
28899,44374
28894,44382
28889,44390
28882,44397
28875,44403
28868,44409
28860,44414
28851,44418
28842,44421
28833,44423
28824,44425
28815,44425
28623,44425
28613,44425
28604,44423
28595,44421
28586,44418
28577,44414
28569,44409
28562,44403
28555,44397
28548,44390
28543,44382
28538,44374
28534,44366
28531,44357
28529,44348
28527,44339
28527,44329
28527,43970
28527,43960
28529,43951
28531,43942
28534,43933
28538,43925
28543,43917
28548,43909
28555,43902
28562,43896
28569,43890
28577,43885
28586,43881
28595,43878
28604,43876
28613,43874
28623,43874
28815,43874
28824,43874
Z" /> 
</g>
<g >
</g>
<g style="fill:#000000; fill-opacity:1.0; 
stroke:#000000; stroke-width:0; stroke-opacity:1; 
stroke-linecap:round; stroke-linejoin:round;">
<path style="fill:#000000; fill-opacity:1.0; 
stroke:#000000; stroke-width:0; stroke-opacity:1; 
stroke-linecap:round; stroke-linejoin:round;fill-rule:evenodd;"
d="M 102892,38326
102420,38326
102420,37972
102892,37972
102892,38326
Z" /> 
<path style="fill:#000000; fill-opacity:1.0; 
stroke:#000000; stroke-width:0; stroke-opacity:1; 
stroke-linecap:round; stroke-linejoin:round;fill-rule:evenodd;"
d="M 102892,37027
102420,37027
102420,36673
102892,36673
102892,37027
Z" /> 
</g>
<g >
</g>
<g style="fill:#000000; fill-opacity:1.0; 
stroke:#000000; stroke-width:0; stroke-opacity:1; 
stroke-linecap:round; stroke-linejoin:round;">
<path style="fill:#000000; fill-opacity:1.0; 
stroke:#000000; stroke-width:0; stroke-opacity:1; 
stroke-linecap:round; stroke-linejoin:round;fill-rule:evenodd;"
d="M 95392,38326
94920,38326
94920,37972
95392,37972
95392,38326
Z" /> 
<path style="fill:#000000; fill-opacity:1.0; 
stroke:#000000; stroke-width:0; stroke-opacity:1; 
stroke-linecap:round; stroke-linejoin:round;fill-rule:evenodd;"
d="M 95392,37027
94920,37027
94920,36673
95392,36673
95392,37027
Z" /> 
</g>
<g >
</g>
<g style="fill:#000000; fill-opacity:1.0; 
stroke:#000000; stroke-width:0; stroke-opacity:1; 
stroke-linecap:round; stroke-linejoin:round;">
<path style="fill:#000000; fill-opacity:1.0; 
stroke:#000000; stroke-width:0; stroke-opacity:1; 
stroke-linecap:round; stroke-linejoin:round;fill-rule:evenodd;"
d="M 87892,38326
87420,38326
87420,37972
87892,37972
87892,38326
Z" /> 
<path style="fill:#000000; fill-opacity:1.0; 
stroke:#000000; stroke-width:0; stroke-opacity:1; 
stroke-linecap:round; stroke-linejoin:round;fill-rule:evenodd;"
d="M 87892,37027
87420,37027
87420,36673
87892,36673
87892,37027
Z" /> 
</g>
<g >
</g>
<g style="fill:#000000; fill-opacity:1.0; 
stroke:#000000; stroke-width:0; stroke-opacity:1; 
stroke-linecap:round; stroke-linejoin:round;">
<path style="fill:#000000; fill-opacity:1.0; 
stroke:#000000; stroke-width:0; stroke-opacity:1; 
stroke-linecap:round; stroke-linejoin:round;fill-rule:evenodd;"
d="M 80392,38326
79920,38326
79920,37972
80392,37972
80392,38326
Z" /> 
<path style="fill:#000000; fill-opacity:1.0; 
stroke:#000000; stroke-width:0; stroke-opacity:1; 
stroke-linecap:round; stroke-linejoin:round;fill-rule:evenodd;"
d="M 80392,37027
79920,37027
79920,36673
80392,36673
80392,37027
Z" /> 
</g>
<g >
</g>
<g style="fill:#000000; fill-opacity:1.0; 
stroke:#000000; stroke-width:0; stroke-opacity:1; 
stroke-linecap:round; stroke-linejoin:round;">
<path style="fill:#000000; fill-opacity:1.0; 
stroke:#000000; stroke-width:0; stroke-opacity:1; 
stroke-linecap:round; stroke-linejoin:round;fill-rule:evenodd;"
d="M 72892,38326
72420,38326
72420,37972
72892,37972
72892,38326
Z" /> 
<path style="fill:#000000; fill-opacity:1.0; 
stroke:#000000; stroke-width:0; stroke-opacity:1; 
stroke-linecap:round; stroke-linejoin:round;fill-rule:evenodd;"
d="M 72892,37027
72420,37027
72420,36673
72892,36673
72892,37027
Z" /> 
</g>
<g >
</g>
<g style="fill:#000000; fill-opacity:1.0; 
stroke:#000000; stroke-width:0; stroke-opacity:1; 
stroke-linecap:round; stroke-linejoin:round;">
<path style="fill:#000000; fill-opacity:1.0; 
stroke:#000000; stroke-width:0; stroke-opacity:1; 
stroke-linecap:round; stroke-linejoin:round;fill-rule:evenodd;"
d="M 101017,30826
100545,30826
100545,30472
101017,30472
101017,30826
Z" /> 
<path style="fill:#000000; fill-opacity:1.0; 
stroke:#000000; stroke-width:0; stroke-opacity:1; 
stroke-linecap:round; stroke-linejoin:round;fill-rule:evenodd;"
d="M 101017,29527
100545,29527
100545,29173
101017,29173
101017,29527
Z" /> 
</g>
<g >
</g>
<g style="fill:#000000; fill-opacity:1.0; 
stroke:#000000; stroke-width:0; stroke-opacity:1; 
stroke-linecap:round; stroke-linejoin:round;">
<path style="fill:#000000; fill-opacity:1.0; 
stroke:#000000; stroke-width:0; stroke-opacity:1; 
stroke-linecap:round; stroke-linejoin:round;fill-rule:evenodd;"
d="M 93517,30826
93045,30826
93045,30472
93517,30472
93517,30826
Z" /> 
<path style="fill:#000000; fill-opacity:1.0; 
stroke:#000000; stroke-width:0; stroke-opacity:1; 
stroke-linecap:round; stroke-linejoin:round;fill-rule:evenodd;"
d="M 93517,29527
93045,29527
93045,29173
93517,29173
93517,29527
Z" /> 
</g>
<g >
</g>
<g style="fill:#000000; fill-opacity:1.0; 
stroke:#000000; stroke-width:0; stroke-opacity:1; 
stroke-linecap:round; stroke-linejoin:round;">
<path style="fill:#000000; fill-opacity:1.0; 
stroke:#000000; stroke-width:0; stroke-opacity:1; 
stroke-linecap:round; stroke-linejoin:round;fill-rule:evenodd;"
d="M 86017,30826
85545,30826
85545,30472
86017,30472
86017,30826
Z" /> 
<path style="fill:#000000; fill-opacity:1.0; 
stroke:#000000; stroke-width:0; stroke-opacity:1; 
stroke-linecap:round; stroke-linejoin:round;fill-rule:evenodd;"
d="M 86017,29527
85545,29527
85545,29173
86017,29173
86017,29527
Z" /> 
</g>
<g >
</g>
<g style="fill:#000000; fill-opacity:1.0; 
stroke:#000000; stroke-width:0; stroke-opacity:1; 
stroke-linecap:round; stroke-linejoin:round;">
<path style="fill:#000000; fill-opacity:1.0; 
stroke:#000000; stroke-width:0; stroke-opacity:1; 
stroke-linecap:round; stroke-linejoin:round;fill-rule:evenodd;"
d="M 78517,30826
78045,30826
78045,30472
78517,30472
78517,30826
Z" /> 
<path style="fill:#000000; fill-opacity:1.0; 
stroke:#000000; stroke-width:0; stroke-opacity:1; 
stroke-linecap:round; stroke-linejoin:round;fill-rule:evenodd;"
d="M 78517,29527
78045,29527
78045,29173
78517,29173
78517,29527
Z" /> 
</g>
<g >
</g>
<g style="fill:#000000; fill-opacity:1.0; 
stroke:#000000; stroke-width:0; stroke-opacity:1; 
stroke-linecap:round; stroke-linejoin:round;">
<path style="fill:#000000; fill-opacity:1.0; 
stroke:#000000; stroke-width:0; stroke-opacity:1; 
stroke-linecap:round; stroke-linejoin:round;fill-rule:evenodd;"
d="M 71017,30826
70545,30826
70545,30472
71017,30472
71017,30826
Z" /> 
<path style="fill:#000000; fill-opacity:1.0; 
stroke:#000000; stroke-width:0; stroke-opacity:1; 
stroke-linecap:round; stroke-linejoin:round;fill-rule:evenodd;"
d="M 71017,29527
70545,29527
70545,29173
71017,29173
71017,29527
Z" /> 
</g>
<g >
</g>
<g style="fill:#000000; fill-opacity:1.0; 
stroke:#000000; stroke-width:0; stroke-opacity:1; 
stroke-linecap:round; stroke-linejoin:round;">
<path style="fill:#000000; fill-opacity:1.0; 
stroke:#000000; stroke-width:0; stroke-opacity:1; 
stroke-linecap:round; stroke-linejoin:round;fill-rule:evenodd;"
d="M 99142,23326
98670,23326
98670,22972
99142,22972
99142,23326
Z" /> 
<path style="fill:#000000; fill-opacity:1.0; 
stroke:#000000; stroke-width:0; stroke-opacity:1; 
stroke-linecap:round; stroke-linejoin:round;fill-rule:evenodd;"
d="M 99142,22027
98670,22027
98670,21673
99142,21673
99142,22027
Z" /> 
</g>
<g >
</g>
<g style="fill:#000000; fill-opacity:1.0; 
stroke:#000000; stroke-width:0; stroke-opacity:1; 
stroke-linecap:round; stroke-linejoin:round;">
<path style="fill:#000000; fill-opacity:1.0; 
stroke:#000000; stroke-width:0; stroke-opacity:1; 
stroke-linecap:round; stroke-linejoin:round;fill-rule:evenodd;"
d="M 91642,23326
91170,23326
91170,22972
91642,22972
91642,23326
Z" /> 
<path style="fill:#000000; fill-opacity:1.0; 
stroke:#000000; stroke-width:0; stroke-opacity:1; 
stroke-linecap:round; stroke-linejoin:round;fill-rule:evenodd;"
d="M 91642,22027
91170,22027
91170,21673
91642,21673
91642,22027
Z" /> 
</g>
<g >
</g>
<g style="fill:#000000; fill-opacity:1.0; 
stroke:#000000; stroke-width:0; stroke-opacity:1; 
stroke-linecap:round; stroke-linejoin:round;">
<path style="fill:#000000; fill-opacity:1.0; 
stroke:#000000; stroke-width:0; stroke-opacity:1; 
stroke-linecap:round; stroke-linejoin:round;fill-rule:evenodd;"
d="M 84142,23326
83670,23326
83670,22972
84142,22972
84142,23326
Z" /> 
<path style="fill:#000000; fill-opacity:1.0; 
stroke:#000000; stroke-width:0; stroke-opacity:1; 
stroke-linecap:round; stroke-linejoin:round;fill-rule:evenodd;"
d="M 84142,22027
83670,22027
83670,21673
84142,21673
84142,22027
Z" /> 
</g>
<g >
</g>
<g style="fill:#000000; fill-opacity:1.0; 
stroke:#000000; stroke-width:0; stroke-opacity:1; 
stroke-linecap:round; stroke-linejoin:round;">
<path style="fill:#000000; fill-opacity:1.0; 
stroke:#000000; stroke-width:0; stroke-opacity:1; 
stroke-linecap:round; stroke-linejoin:round;fill-rule:evenodd;"
d="M 76642,23326
76170,23326
76170,22972
76642,22972
76642,23326
Z" /> 
<path style="fill:#000000; fill-opacity:1.0; 
stroke:#000000; stroke-width:0; stroke-opacity:1; 
stroke-linecap:round; stroke-linejoin:round;fill-rule:evenodd;"
d="M 76642,22027
76170,22027
76170,21673
76642,21673
76642,22027
Z" /> 
</g>
<g >
</g>
<g style="fill:#000000; fill-opacity:1.0; 
stroke:#000000; stroke-width:0; stroke-opacity:1; 
stroke-linecap:round; stroke-linejoin:round;">
<path style="fill:#000000; fill-opacity:1.0; 
stroke:#000000; stroke-width:0; stroke-opacity:1; 
stroke-linecap:round; stroke-linejoin:round;fill-rule:evenodd;"
d="M 69142,23326
68670,23326
68670,22972
69142,22972
69142,23326
Z" /> 
<path style="fill:#000000; fill-opacity:1.0; 
stroke:#000000; stroke-width:0; stroke-opacity:1; 
stroke-linecap:round; stroke-linejoin:round;fill-rule:evenodd;"
d="M 69142,22027
68670,22027
68670,21673
69142,21673
69142,22027
Z" /> 
</g>
<g >
</g>
<g style="fill:#000000; fill-opacity:1.0; 
stroke:#000000; stroke-width:0; stroke-opacity:1; 
stroke-linecap:round; stroke-linejoin:round;">
<path style="fill:#000000; fill-opacity:1.0; 
stroke:#000000; stroke-width:0; stroke-opacity:1; 
stroke-linecap:round; stroke-linejoin:round;fill-rule:evenodd;"
d="M 50514,39373
50514,39845
50160,39845
50160,39373
50514,39373
Z" /> 
<path style="fill:#000000; fill-opacity:1.0; 
stroke:#000000; stroke-width:0; stroke-opacity:1; 
stroke-linecap:round; stroke-linejoin:round;fill-rule:evenodd;"
d="M 49215,39373
49215,39845
48860,39845
48860,39373
49215,39373
Z" /> 
</g>
<g >
</g>
<g style="fill:#000000; fill-opacity:1.0; 
stroke:#000000; stroke-width:0; stroke-opacity:1; 
stroke-linecap:round; stroke-linejoin:round;">
<path style="fill:#000000; fill-opacity:1.0; 
stroke:#000000; stroke-width:0; stroke-opacity:1; 
stroke-linecap:round; stroke-linejoin:round;fill-rule:evenodd;"
d="M 50392,38326
49920,38326
49920,37972
50392,37972
50392,38326
Z" /> 
<path style="fill:#000000; fill-opacity:1.0; 
stroke:#000000; stroke-width:0; stroke-opacity:1; 
stroke-linecap:round; stroke-linejoin:round;fill-rule:evenodd;"
d="M 50392,37027
49920,37027
49920,36673
50392,36673
50392,37027
Z" /> 
</g>
<g >
</g>
<g style="fill:#000000; fill-opacity:1.0; 
stroke:#000000; stroke-width:0; stroke-opacity:1; 
stroke-linecap:round; stroke-linejoin:round;">
<path style="fill:#000000; fill-opacity:1.0; 
stroke:#000000; stroke-width:0; stroke-opacity:1; 
stroke-linecap:round; stroke-linejoin:round;fill-rule:evenodd;"
d="M 42892,38326
42420,38326
42420,37972
42892,37972
42892,38326
Z" /> 
<path style="fill:#000000; fill-opacity:1.0; 
stroke:#000000; stroke-width:0; stroke-opacity:1; 
stroke-linecap:round; stroke-linejoin:round;fill-rule:evenodd;"
d="M 42892,37027
42420,37027
42420,36673
42892,36673
42892,37027
Z" /> 
</g>
<g >
</g>
<g style="fill:#000000; fill-opacity:1.0; 
stroke:#000000; stroke-width:0; stroke-opacity:1; 
stroke-linecap:round; stroke-linejoin:round;">
<path style="fill:#000000; fill-opacity:1.0; 
stroke:#000000; stroke-width:0; stroke-opacity:1; 
stroke-linecap:round; stroke-linejoin:round;fill-rule:evenodd;"
d="M 35392,38326
34920,38326
34920,37972
35392,37972
35392,38326
Z" /> 
<path style="fill:#000000; fill-opacity:1.0; 
stroke:#000000; stroke-width:0; stroke-opacity:1; 
stroke-linecap:round; stroke-linejoin:round;fill-rule:evenodd;"
d="M 35392,37027
34920,37027
34920,36673
35392,36673
35392,37027
Z" /> 
</g>
<g >
</g>
<g style="fill:#000000; fill-opacity:1.0; 
stroke:#000000; stroke-width:0; stroke-opacity:1; 
stroke-linecap:round; stroke-linejoin:round;">
<path style="fill:#000000; fill-opacity:1.0; 
stroke:#000000; stroke-width:0; stroke-opacity:1; 
stroke-linecap:round; stroke-linejoin:round;fill-rule:evenodd;"
d="M 27892,38326
27420,38326
27420,37972
27892,37972
27892,38326
Z" /> 
<path style="fill:#000000; fill-opacity:1.0; 
stroke:#000000; stroke-width:0; stroke-opacity:1; 
stroke-linecap:round; stroke-linejoin:round;fill-rule:evenodd;"
d="M 27892,37027
27420,37027
27420,36673
27892,36673
27892,37027
Z" /> 
</g>
<g >
</g>
<g style="fill:#000000; fill-opacity:1.0; 
stroke:#000000; stroke-width:0; stroke-opacity:1; 
stroke-linecap:round; stroke-linejoin:round;">
<path style="fill:#000000; fill-opacity:1.0; 
stroke:#000000; stroke-width:0; stroke-opacity:1; 
stroke-linecap:round; stroke-linejoin:round;fill-rule:evenodd;"
d="M 20392,38326
19920,38326
19920,37972
20392,37972
20392,38326
Z" /> 
<path style="fill:#000000; fill-opacity:1.0; 
stroke:#000000; stroke-width:0; stroke-opacity:1; 
stroke-linecap:round; stroke-linejoin:round;fill-rule:evenodd;"
d="M 20392,37027
19920,37027
19920,36673
20392,36673
20392,37027
Z" /> 
</g>
<g >
</g>
<g style="fill:#000000; fill-opacity:1.0; 
stroke:#000000; stroke-width:0; stroke-opacity:1; 
stroke-linecap:round; stroke-linejoin:round;">
<path style="fill:#000000; fill-opacity:1.0; 
stroke:#000000; stroke-width:0; stroke-opacity:1; 
stroke-linecap:round; stroke-linejoin:round;fill-rule:evenodd;"
d="M 65392,38326
64920,38326
64920,37972
65392,37972
65392,38326
Z" /> 
<path style="fill:#000000; fill-opacity:1.0; 
stroke:#000000; stroke-width:0; stroke-opacity:1; 
stroke-linecap:round; stroke-linejoin:round;fill-rule:evenodd;"
d="M 65392,37027
64920,37027
64920,36673
65392,36673
65392,37027
Z" /> 
</g>
<g >
</g>
<g style="fill:#000000; fill-opacity:1.0; 
stroke:#000000; stroke-width:0; stroke-opacity:1; 
stroke-linecap:round; stroke-linejoin:round;">
<path style="fill:#000000; fill-opacity:1.0; 
stroke:#000000; stroke-width:0; stroke-opacity:1; 
stroke-linecap:round; stroke-linejoin:round;fill-rule:evenodd;"
d="M 57892,38326
57420,38326
57420,37972
57892,37972
57892,38326
Z" /> 
<path style="fill:#000000; fill-opacity:1.0; 
stroke:#000000; stroke-width:0; stroke-opacity:1; 
stroke-linecap:round; stroke-linejoin:round;fill-rule:evenodd;"
d="M 57892,37027
57420,37027
57420,36673
57892,36673
57892,37027
Z" /> 
</g>
<g >
</g>
<g style="fill:#000000; fill-opacity:1.0; 
stroke:#000000; stroke-width:0; stroke-opacity:1; 
stroke-linecap:round; stroke-linejoin:round;">
<path style="fill:#000000; fill-opacity:1.0; 
stroke:#000000; stroke-width:0; stroke-opacity:1; 
stroke-linecap:round; stroke-linejoin:round;fill-rule:evenodd;"
d="M 48517,30826
48045,30826
48045,30472
48517,30472
48517,30826
Z" /> 
<path style="fill:#000000; fill-opacity:1.0; 
stroke:#000000; stroke-width:0; stroke-opacity:1; 
stroke-linecap:round; stroke-linejoin:round;fill-rule:evenodd;"
d="M 48517,29527
48045,29527
48045,29173
48517,29173
48517,29527
Z" /> 
</g>
<g >
</g>
<g style="fill:#000000; fill-opacity:1.0; 
stroke:#000000; stroke-width:0; stroke-opacity:1; 
stroke-linecap:round; stroke-linejoin:round;">
<path style="fill:#000000; fill-opacity:1.0; 
stroke:#000000; stroke-width:0; stroke-opacity:1; 
stroke-linecap:round; stroke-linejoin:round;fill-rule:evenodd;"
d="M 41017,30826
40545,30826
40545,30472
41017,30472
41017,30826
Z" /> 
<path style="fill:#000000; fill-opacity:1.0; 
stroke:#000000; stroke-width:0; stroke-opacity:1; 
stroke-linecap:round; stroke-linejoin:round;fill-rule:evenodd;"
d="M 41017,29527
40545,29527
40545,29173
41017,29173
41017,29527
Z" /> 
</g>
<g >
</g>
<g style="fill:#000000; fill-opacity:1.0; 
stroke:#000000; stroke-width:0; stroke-opacity:1; 
stroke-linecap:round; stroke-linejoin:round;">
<path style="fill:#000000; fill-opacity:1.0; 
stroke:#000000; stroke-width:0; stroke-opacity:1; 
stroke-linecap:round; stroke-linejoin:round;fill-rule:evenodd;"
d="M 33517,30826
33045,30826
33045,30472
33517,30472
33517,30826
Z" /> 
<path style="fill:#000000; fill-opacity:1.0; 
stroke:#000000; stroke-width:0; stroke-opacity:1; 
stroke-linecap:round; stroke-linejoin:round;fill-rule:evenodd;"
d="M 33517,29527
33045,29527
33045,29173
33517,29173
33517,29527
Z" /> 
</g>
<g >
</g>
<g style="fill:#000000; fill-opacity:1.0; 
stroke:#000000; stroke-width:0; stroke-opacity:1; 
stroke-linecap:round; stroke-linejoin:round;">
<path style="fill:#000000; fill-opacity:1.0; 
stroke:#000000; stroke-width:0; stroke-opacity:1; 
stroke-linecap:round; stroke-linejoin:round;fill-rule:evenodd;"
d="M 26017,30826
25545,30826
25545,30472
26017,30472
26017,30826
Z" /> 
<path style="fill:#000000; fill-opacity:1.0; 
stroke:#000000; stroke-width:0; stroke-opacity:1; 
stroke-linecap:round; stroke-linejoin:round;fill-rule:evenodd;"
d="M 26017,29527
25545,29527
25545,29173
26017,29173
26017,29527
Z" /> 
</g>
<g >
</g>
<g style="fill:#000000; fill-opacity:1.0; 
stroke:#000000; stroke-width:0; stroke-opacity:1; 
stroke-linecap:round; stroke-linejoin:round;">
<path style="fill:#000000; fill-opacity:1.0; 
stroke:#000000; stroke-width:0; stroke-opacity:1; 
stroke-linecap:round; stroke-linejoin:round;fill-rule:evenodd;"
d="M 18517,30826
18045,30826
18045,30472
18517,30472
18517,30826
Z" /> 
<path style="fill:#000000; fill-opacity:1.0; 
stroke:#000000; stroke-width:0; stroke-opacity:1; 
stroke-linecap:round; stroke-linejoin:round;fill-rule:evenodd;"
d="M 18517,29527
18045,29527
18045,29173
18517,29173
18517,29527
Z" /> 
</g>
<g >
</g>
<g style="fill:#000000; fill-opacity:1.0; 
stroke:#000000; stroke-width:0; stroke-opacity:1; 
stroke-linecap:round; stroke-linejoin:round;">
<path style="fill:#000000; fill-opacity:1.0; 
stroke:#000000; stroke-width:0; stroke-opacity:1; 
stroke-linecap:round; stroke-linejoin:round;fill-rule:evenodd;"
d="M 63517,30826
63045,30826
63045,30472
63517,30472
63517,30826
Z" /> 
<path style="fill:#000000; fill-opacity:1.0; 
stroke:#000000; stroke-width:0; stroke-opacity:1; 
stroke-linecap:round; stroke-linejoin:round;fill-rule:evenodd;"
d="M 63517,29527
63045,29527
63045,29173
63517,29173
63517,29527
Z" /> 
</g>
<g >
</g>
<g style="fill:#000000; fill-opacity:1.0; 
stroke:#000000; stroke-width:0; stroke-opacity:1; 
stroke-linecap:round; stroke-linejoin:round;">
<path style="fill:#000000; fill-opacity:1.0; 
stroke:#000000; stroke-width:0; stroke-opacity:1; 
stroke-linecap:round; stroke-linejoin:round;fill-rule:evenodd;"
d="M 56017,30826
55545,30826
55545,30472
56017,30472
56017,30826
Z" /> 
<path style="fill:#000000; fill-opacity:1.0; 
stroke:#000000; stroke-width:0; stroke-opacity:1; 
stroke-linecap:round; stroke-linejoin:round;fill-rule:evenodd;"
d="M 56017,29527
55545,29527
55545,29173
56017,29173
56017,29527
Z" /> 
</g>
<g >
</g>
<g style="fill:#000000; fill-opacity:1.0; 
stroke:#000000; stroke-width:0; stroke-opacity:1; 
stroke-linecap:round; stroke-linejoin:round;">
<path style="fill:#000000; fill-opacity:1.0; 
stroke:#000000; stroke-width:0; stroke-opacity:1; 
stroke-linecap:round; stroke-linejoin:round;fill-rule:evenodd;"
d="M 46642,23326
46170,23326
46170,22972
46642,22972
46642,23326
Z" /> 
<path style="fill:#000000; fill-opacity:1.0; 
stroke:#000000; stroke-width:0; stroke-opacity:1; 
stroke-linecap:round; stroke-linejoin:round;fill-rule:evenodd;"
d="M 46642,22027
46170,22027
46170,21673
46642,21673
46642,22027
Z" /> 
</g>
<g >
</g>
<g style="fill:#000000; fill-opacity:1.0; 
stroke:#000000; stroke-width:0; stroke-opacity:1; 
stroke-linecap:round; stroke-linejoin:round;">
<path style="fill:#000000; fill-opacity:1.0; 
stroke:#000000; stroke-width:0; stroke-opacity:1; 
stroke-linecap:round; stroke-linejoin:round;fill-rule:evenodd;"
d="M 39142,23326
38670,23326
38670,22972
39142,22972
39142,23326
Z" /> 
<path style="fill:#000000; fill-opacity:1.0; 
stroke:#000000; stroke-width:0; stroke-opacity:1; 
stroke-linecap:round; stroke-linejoin:round;fill-rule:evenodd;"
d="M 39142,22027
38670,22027
38670,21673
39142,21673
39142,22027
Z" /> 
</g>
<g >
</g>
<g style="fill:#000000; fill-opacity:1.0; 
stroke:#000000; stroke-width:0; stroke-opacity:1; 
stroke-linecap:round; stroke-linejoin:round;">
<path style="fill:#000000; fill-opacity:1.0; 
stroke:#000000; stroke-width:0; stroke-opacity:1; 
stroke-linecap:round; stroke-linejoin:round;fill-rule:evenodd;"
d="M 31642,23326
31170,23326
31170,22972
31642,22972
31642,23326
Z" /> 
<path style="fill:#000000; fill-opacity:1.0; 
stroke:#000000; stroke-width:0; stroke-opacity:1; 
stroke-linecap:round; stroke-linejoin:round;fill-rule:evenodd;"
d="M 31642,22027
31170,22027
31170,21673
31642,21673
31642,22027
Z" /> 
</g>
<g >
</g>
<g style="fill:#000000; fill-opacity:1.0; 
stroke:#000000; stroke-width:0; stroke-opacity:1; 
stroke-linecap:round; stroke-linejoin:round;">
<path style="fill:#000000; fill-opacity:1.0; 
stroke:#000000; stroke-width:0; stroke-opacity:1; 
stroke-linecap:round; stroke-linejoin:round;fill-rule:evenodd;"
d="M 24142,23326
23670,23326
23670,22972
24142,22972
24142,23326
Z" /> 
<path style="fill:#000000; fill-opacity:1.0; 
stroke:#000000; stroke-width:0; stroke-opacity:1; 
stroke-linecap:round; stroke-linejoin:round;fill-rule:evenodd;"
d="M 24142,22027
23670,22027
23670,21673
24142,21673
24142,22027
Z" /> 
</g>
<g >
</g>
<g style="fill:#000000; fill-opacity:1.0; 
stroke:#000000; stroke-width:0; stroke-opacity:1; 
stroke-linecap:round; stroke-linejoin:round;">
<path style="fill:#000000; fill-opacity:1.0; 
stroke:#000000; stroke-width:0; stroke-opacity:1; 
stroke-linecap:round; stroke-linejoin:round;fill-rule:evenodd;"
d="M 16642,23326
16170,23326
16170,22972
16642,22972
16642,23326
Z" /> 
<path style="fill:#000000; fill-opacity:1.0; 
stroke:#000000; stroke-width:0; stroke-opacity:1; 
stroke-linecap:round; stroke-linejoin:round;fill-rule:evenodd;"
d="M 16642,22027
16170,22027
16170,21673
16642,21673
16642,22027
Z" /> 
</g>
<g >
</g>
<g style="fill:#000000; fill-opacity:1.0; 
stroke:#000000; stroke-width:0; stroke-opacity:1; 
stroke-linecap:round; stroke-linejoin:round;">
<path style="fill:#000000; fill-opacity:1.0; 
stroke:#000000; stroke-width:0; stroke-opacity:1; 
stroke-linecap:round; stroke-linejoin:round;fill-rule:evenodd;"
d="M 61642,23326
61170,23326
61170,22972
61642,22972
61642,23326
Z" /> 
<path style="fill:#000000; fill-opacity:1.0; 
stroke:#000000; stroke-width:0; stroke-opacity:1; 
stroke-linecap:round; stroke-linejoin:round;fill-rule:evenodd;"
d="M 61642,22027
61170,22027
61170,21673
61642,21673
61642,22027
Z" /> 
</g>
<g >
</g>
<g style="fill:#000000; fill-opacity:1.0; 
stroke:#000000; stroke-width:0; stroke-opacity:1; 
stroke-linecap:round; stroke-linejoin:round;">
<path style="fill:#000000; fill-opacity:1.0; 
stroke:#000000; stroke-width:0; stroke-opacity:1; 
stroke-linecap:round; stroke-linejoin:round;fill-rule:evenodd;"
d="M 54142,23326
53670,23326
53670,22972
54142,22972
54142,23326
Z" /> 
<path style="fill:#000000; fill-opacity:1.0; 
stroke:#000000; stroke-width:0; stroke-opacity:1; 
stroke-linecap:round; stroke-linejoin:round;fill-rule:evenodd;"
d="M 54142,22027
53670,22027
53670,21673
54142,21673
54142,22027
Z" /> 
</g>
<g >
</g>
<g style="fill:#000000; fill-opacity:1.0; 
stroke:#000000; stroke-width:0; stroke-opacity:1; 
stroke-linecap:round; stroke-linejoin:round;">
<path style="fill:#000000; fill-opacity:1.0; 
stroke:#000000; stroke-width:0; stroke-opacity:1; 
stroke-linecap:round; stroke-linejoin:round;fill-rule:evenodd;"
d="M 39523,17486
39523,17013
39877,17013
39877,17486
39523,17486
Z" /> 
<path style="fill:#000000; fill-opacity:1.0; 
stroke:#000000; stroke-width:0; stroke-opacity:1; 
stroke-linecap:round; stroke-linejoin:round;fill-rule:evenodd;"
d="M 40822,17486
40822,17013
41176,17013
41176,17486
40822,17486
Z" /> 
</g>
<g >
</g>
<g style="fill:#000000; fill-opacity:1.0; 
stroke:#000000; stroke-width:0; stroke-opacity:1; 
stroke-linecap:round; stroke-linejoin:round;">
<path style="fill:#000000; fill-opacity:1.0; 
stroke:#000000; stroke-width:0; stroke-opacity:1; 
stroke-linecap:round; stroke-linejoin:round;fill-rule:evenodd;"
d="M 29767,15826
29295,15826
29295,15472
29767,15472
29767,15826
Z" /> 
<path style="fill:#000000; fill-opacity:1.0; 
stroke:#000000; stroke-width:0; stroke-opacity:1; 
stroke-linecap:round; stroke-linejoin:round;fill-rule:evenodd;"
d="M 29767,14527
29295,14527
29295,14173
29767,14173
29767,14527
Z" /> 
</g>
<g >
</g>
<g style="fill:#000000; fill-opacity:1.0; 
stroke:#000000; stroke-width:0; stroke-opacity:1; 
stroke-linecap:round; stroke-linejoin:round;">
<path style="fill:#000000; fill-opacity:1.0; 
stroke:#000000; stroke-width:0; stroke-opacity:1; 
stroke-linecap:round; stroke-linejoin:round;fill-rule:evenodd;"
d="M 22267,15826
21795,15826
21795,15472
22267,15472
22267,15826
Z" /> 
<path style="fill:#000000; fill-opacity:1.0; 
stroke:#000000; stroke-width:0; stroke-opacity:1; 
stroke-linecap:round; stroke-linejoin:round;fill-rule:evenodd;"
d="M 22267,14527
21795,14527
21795,14173
22267,14173
22267,14527
Z" /> 
</g>
<g >
</g>
<g style="fill:#000000; fill-opacity:1.0; 
stroke:#000000; stroke-width:0; stroke-opacity:1; 
stroke-linecap:round; stroke-linejoin:round;">
<path style="fill:#000000; fill-opacity:1.0; 
stroke:#000000; stroke-width:0; stroke-opacity:1; 
stroke-linecap:round; stroke-linejoin:round;fill-rule:evenodd;"
d="M 14767,15826
14295,15826
14295,15472
14767,15472
14767,15826
Z" /> 
<path style="fill:#000000; fill-opacity:1.0; 
stroke:#000000; stroke-width:0; stroke-opacity:1; 
stroke-linecap:round; stroke-linejoin:round;fill-rule:evenodd;"
d="M 14767,14527
14295,14527
14295,14173
14767,14173
14767,14527
Z" /> 
</g>
<g >
</g>
<g style="fill:#000000; fill-opacity:1.0; 
stroke:#000000; stroke-width:0; stroke-opacity:1; 
stroke-linecap:round; stroke-linejoin:round;">
<path style="fill:#000000; fill-opacity:1.0; 
stroke:#000000; stroke-width:0; stroke-opacity:1; 
stroke-linecap:round; stroke-linejoin:round;fill-rule:evenodd;"
d="M 41139,44239
41148,44240
41157,44243
41166,44246
41174,44250
41182,44255
41190,44260
41197,44267
41203,44274
41209,44281
41214,44289
41218,44298
41221,44307
41223,44316
41225,44325
41225,44334
41225,44526
41225,44536
41223,44545
41221,44554
41218,44563
41214,44572
41209,44580
41203,44587
41197,44594
41190,44601
41182,44606
41174,44611
41166,44615
41157,44618
41148,44620
41139,44622
41129,44622
40770,44622
40760,44622
40751,44620
40742,44618
40733,44615
40725,44611
40717,44606
40709,44601
40702,44594
40696,44587
40690,44580
40685,44572
40681,44563
40678,44554
40676,44545
40674,44536
40674,44526
40674,44334
40674,44325
40676,44316
40678,44307
40681,44298
40685,44289
40690,44281
40696,44274
40702,44267
40709,44260
40717,44255
40725,44250
40733,44246
40742,44243
40751,44240
40760,44239
40770,44238
41129,44238
41139,44239
Z" /> 
<path style="fill:#000000; fill-opacity:1.0; 
stroke:#000000; stroke-width:0; stroke-opacity:1; 
stroke-linecap:round; stroke-linejoin:round;fill-rule:evenodd;"
d="M 41139,44977
41148,44979
41157,44981
41166,44984
41174,44988
41182,44993
41190,44998
41197,45005
41203,45012
41209,45019
41214,45027
41218,45036
41221,45045
41223,45054
41225,45063
41225,45073
41225,45265
41225,45274
41223,45283
41221,45292
41218,45301
41214,45310
41209,45318
41203,45325
41197,45332
41190,45339
41182,45344
41174,45349
41166,45353
41157,45356
41148,45359
41139,45360
41129,45361
40770,45361
40760,45360
40751,45359
40742,45356
40733,45353
40725,45349
40717,45344
40709,45339
40702,45332
40696,45325
40690,45318
40685,45310
40681,45301
40678,45292
40676,45283
40674,45274
40674,45265
40674,45073
40674,45063
40676,45054
40678,45045
40681,45036
40685,45027
40690,45019
40696,45012
40702,45005
40709,44998
40717,44993
40725,44988
40733,44984
40742,44981
40751,44979
40760,44977
40770,44977
41129,44977
41139,44977
Z" /> 
</g>
<g >
</g>
<g style="fill:#000000; fill-opacity:1.0; 
stroke:#000000; stroke-width:0; stroke-opacity:1; 
stroke-linecap:round; stroke-linejoin:round;">
<path style="fill:#000000; fill-opacity:1.0; 
stroke:#000000; stroke-width:0; stroke-opacity:1; 
stroke-linecap:round; stroke-linejoin:round;fill-rule:evenodd;"
d="M 35361,39334
35370,39335
35379,39338
35388,39341
35397,39345
35405,39350
35412,39355
35419,39362
35426,39369
35431,39376
35436,39384
35440,39393
35443,39402
35446,39411
35447,39420
35447,39429
35447,39789
35447,39798
35446,39807
35443,39817
35440,39825
35436,39834
35431,39842
35426,39850
35419,39857
35412,39863
35405,39868
35397,39873
35388,39877
35379,39880
35370,39883
35361,39884
35352,39885
35160,39885
35150,39884
35141,39883
35132,39880
35123,39877
35114,39873
35106,39868
35099,39863
35092,39857
35085,39850
35080,39842
35075,39834
35071,39825
35068,39817
35065,39807
35064,39798
35064,39789
35064,39429
35064,39420
35065,39411
35068,39402
35071,39393
35075,39384
35080,39376
35085,39369
35092,39362
35099,39355
35106,39350
35114,39345
35123,39341
35132,39338
35141,39335
35150,39334
35160,39333
35352,39333
35361,39334
Z" /> 
<path style="fill:#000000; fill-opacity:1.0; 
stroke:#000000; stroke-width:0; stroke-opacity:1; 
stroke-linecap:round; stroke-linejoin:round;fill-rule:evenodd;"
d="M 36099,39334
36108,39335
36118,39338
36126,39341
36135,39345
36143,39350
36151,39355
36158,39362
36164,39369
36170,39376
36174,39384
36178,39393
36182,39402
36184,39411
36185,39420
36186,39429
36186,39789
36185,39798
36184,39807
36182,39817
36178,39825
36174,39834
36170,39842
36164,39850
36158,39857
36151,39863
36143,39868
36135,39873
36126,39877
36118,39880
36108,39883
36099,39884
36090,39885
35898,39885
35888,39884
35879,39883
35870,39880
35861,39877
35853,39873
35844,39868
35837,39863
35830,39857
35824,39850
35818,39842
35813,39834
35809,39825
35806,39817
35804,39807
35802,39798
35802,39789
35802,39429
35802,39420
35804,39411
35806,39402
35809,39393
35813,39384
35818,39376
35824,39369
35830,39362
35837,39355
35844,39350
35853,39345
35861,39341
35870,39338
35879,39335
35888,39334
35898,39333
36090,39333
36099,39334
Z" /> 
</g>
<g >
</g>
<g style="fill:#000000; fill-opacity:1.0; 
stroke:#000000; stroke-width:0; stroke-opacity:1; 
stroke-linecap:round; stroke-linejoin:round;">
<path style="fill:#000000; fill-opacity:1.0; 
stroke:#000000; stroke-width:0; stroke-opacity:1; 
stroke-linecap:round; stroke-linejoin:round;fill-rule:evenodd;"
d="M 34739,43539
34748,43540
34757,43543
34766,43546
34774,43550
34782,43555
34790,43560
34797,43567
34803,43574
34809,43581
34814,43589
34818,43598
34821,43607
34823,43616
34825,43625
34825,43634
34825,43826
34825,43836
34823,43845
34821,43854
34818,43863
34814,43872
34809,43880
34803,43887
34797,43894
34790,43901
34782,43906
34774,43911
34766,43915
34757,43918
34748,43920
34739,43922
34729,43922
34370,43922
34360,43922
34351,43920
34342,43918
34333,43915
34325,43911
34317,43906
34309,43901
34302,43894
34296,43887
34290,43880
34285,43872
34281,43863
34278,43854
34276,43845
34274,43836
34274,43826
34274,43634
34274,43625
34276,43616
34278,43607
34281,43598
34285,43589
34290,43581
34296,43574
34302,43567
34309,43560
34317,43555
34325,43550
34333,43546
34342,43543
34351,43540
34360,43539
34370,43538
34729,43538
34739,43539
Z" /> 
<path style="fill:#000000; fill-opacity:1.0; 
stroke:#000000; stroke-width:0; stroke-opacity:1; 
stroke-linecap:round; stroke-linejoin:round;fill-rule:evenodd;"
d="M 34739,44277
34748,44279
34757,44281
34766,44284
34774,44288
34782,44293
34790,44298
34797,44305
34803,44312
34809,44319
34814,44327
34818,44336
34821,44345
34823,44354
34825,44363
34825,44373
34825,44565
34825,44574
34823,44583
34821,44592
34818,44601
34814,44610
34809,44618
34803,44625
34797,44632
34790,44639
34782,44644
34774,44649
34766,44653
34757,44656
34748,44659
34739,44660
34729,44661
34370,44661
34360,44660
34351,44659
34342,44656
34333,44653
34325,44649
34317,44644
34309,44639
34302,44632
34296,44625
34290,44618
34285,44610
34281,44601
34278,44592
34276,44583
34274,44574
34274,44565
34274,44373
34274,44363
34276,44354
34278,44345
34281,44336
34285,44327
34290,44319
34296,44312
34302,44305
34309,44298
34317,44293
34325,44288
34333,44284
34342,44281
34351,44279
34360,44277
34370,44277
34729,44277
34739,44277
Z" /> 
</g>
<g >
</g>
<g style="fill:#000000; fill-opacity:1.0; 
stroke:#000000; stroke-width:0; stroke-opacity:1; 
stroke-linecap:round; stroke-linejoin:round;">
<path style="fill:#000000; fill-opacity:1.0; 
stroke:#000000; stroke-width:0; stroke-opacity:1; 
stroke-linecap:round; stroke-linejoin:round;fill-rule:evenodd;"
d="M 41339,41427
41348,41429
41357,41431
41366,41434
41374,41438
41382,41443
41390,41448
41397,41455
41403,41462
41409,41469
41414,41477
41418,41486
41421,41495
41423,41504
41425,41513
41425,41523
41425,41715
41425,41724
41423,41733
41421,41742
41418,41751
41414,41760
41409,41768
41403,41775
41397,41782
41390,41789
41382,41794
41374,41799
41366,41803
41357,41806
41348,41809
41339,41810
41329,41811
40970,41811
40960,41810
40951,41809
40942,41806
40933,41803
40925,41799
40917,41794
40909,41789
40902,41782
40896,41775
40890,41768
40885,41760
40881,41751
40878,41742
40876,41733
40874,41724
40874,41715
40874,41523
40874,41513
40876,41504
40878,41495
40881,41486
40885,41477
40890,41469
40896,41462
40902,41455
40909,41448
40917,41443
40925,41438
40933,41434
40942,41431
40951,41429
40960,41427
40970,41427
41329,41427
41339,41427
Z" /> 
<path style="fill:#000000; fill-opacity:1.0; 
stroke:#000000; stroke-width:0; stroke-opacity:1; 
stroke-linecap:round; stroke-linejoin:round;fill-rule:evenodd;"
d="M 41339,40689
41348,40690
41357,40693
41366,40696
41374,40700
41382,40705
41390,40710
41397,40717
41403,40724
41409,40731
41414,40739
41418,40748
41421,40757
41423,40766
41425,40775
41425,40784
41425,40976
41425,40986
41423,40995
41421,41004
41418,41013
41414,41022
41409,41030
41403,41037
41397,41044
41390,41051
41382,41056
41374,41061
41366,41065
41357,41068
41348,41070
41339,41072
41329,41072
40970,41072
40960,41072
40951,41070
40942,41068
40933,41065
40925,41061
40917,41056
40909,41051
40902,41044
40896,41037
40890,41030
40885,41022
40881,41013
40878,41004
40876,40995
40874,40986
40874,40976
40874,40784
40874,40775
40876,40766
40878,40757
40881,40748
40885,40739
40890,40731
40896,40724
40902,40717
40909,40710
40917,40705
40925,40700
40933,40696
40942,40693
40951,40690
40960,40689
40970,40688
41329,40688
41339,40689
Z" /> 
</g>
<g >
</g>
<g style="fill:#000000; fill-opacity:1.0; 
stroke:#000000; stroke-width:0; stroke-opacity:1; 
stroke-linecap:round; stroke-linejoin:round;">
<path style="fill:#000000; fill-opacity:1.0; 
stroke:#000000; stroke-width:0; stroke-opacity:1; 
stroke-linecap:round; stroke-linejoin:round;fill-rule:evenodd;"
d="M 38274,45924
38283,45926
38292,45928
38301,45931
38310,45935
38318,45940
38325,45946
38332,45952
38339,45959
38344,45967
38349,45975
38353,45983
38356,45992
38359,46001
38360,46010
38361,46020
38361,46379
38360,46389
38359,46398
38356,46407
38353,46416
38349,46424
38344,46432
38339,46440
38332,46447
38325,46453
38318,46459
38310,46464
38301,46468
38292,46471
38283,46473
38274,46475
38265,46475
38073,46475
38063,46475
38054,46473
38045,46471
38036,46468
38027,46464
38019,46459
38012,46453
38005,46447
37998,46440
37993,46432
37988,46424
37984,46416
37981,46407
37979,46398
37977,46389
37977,46379
37977,46020
37977,46010
37979,46001
37981,45992
37984,45983
37988,45975
37993,45967
37998,45959
38005,45952
38012,45946
38019,45940
38027,45935
38036,45931
38045,45928
38054,45926
38063,45924
38073,45924
38265,45924
38274,45924
Z" /> 
<path style="fill:#000000; fill-opacity:1.0; 
stroke:#000000; stroke-width:0; stroke-opacity:1; 
stroke-linecap:round; stroke-linejoin:round;fill-rule:evenodd;"
d="M 37536,45924
37545,45926
37554,45928
37563,45931
37572,45935
37580,45940
37587,45946
37594,45952
37601,45959
37606,45967
37611,45975
37615,45983
37618,45992
37620,46001
37622,46010
37622,46020
37622,46379
37622,46389
37620,46398
37618,46407
37615,46416
37611,46424
37606,46432
37601,46440
37594,46447
37587,46453
37580,46459
37572,46464
37563,46468
37554,46471
37545,46473
37536,46475
37526,46475
37334,46475
37325,46475
37316,46473
37307,46471
37298,46468
37289,46464
37281,46459
37274,46453
37267,46447
37260,46440
37255,46432
37250,46424
37246,46416
37243,46407
37240,46398
37239,46389
37238,46379
37238,46020
37239,46010
37240,46001
37243,45992
37246,45983
37250,45975
37255,45967
37260,45959
37267,45952
37274,45946
37281,45940
37289,45935
37298,45931
37307,45928
37316,45926
37325,45924
37334,45924
37526,45924
37536,45924
Z" /> 
</g>
<g >
</g>
<g style="fill:#000000; fill-opacity:1.0; 
stroke:#000000; stroke-width:0; stroke-opacity:1; 
stroke-linecap:round; stroke-linejoin:round;">
<path style="fill:#000000; fill-opacity:1.0; 
stroke:#000000; stroke-width:0; stroke-opacity:1; 
stroke-linecap:round; stroke-linejoin:round;fill-rule:evenodd;"
d="M 31774,43924
31783,43926
31792,43928
31801,43931
31810,43935
31818,43940
31825,43946
31832,43952
31839,43959
31844,43967
31849,43975
31853,43983
31856,43992
31859,44001
31860,44010
31861,44020
31861,44379
31860,44389
31859,44398
31856,44407
31853,44416
31849,44424
31844,44432
31839,44440
31832,44447
31825,44453
31818,44459
31810,44464
31801,44468
31792,44471
31783,44473
31774,44475
31765,44475
31573,44475
31563,44475
31554,44473
31545,44471
31536,44468
31527,44464
31519,44459
31512,44453
31505,44447
31498,44440
31493,44432
31488,44424
31484,44416
31481,44407
31479,44398
31477,44389
31477,44379
31477,44020
31477,44010
31479,44001
31481,43992
31484,43983
31488,43975
31493,43967
31498,43959
31505,43952
31512,43946
31519,43940
31527,43935
31536,43931
31545,43928
31554,43926
31563,43924
31573,43924
31765,43924
31774,43924
Z" /> 
<path style="fill:#000000; fill-opacity:1.0; 
stroke:#000000; stroke-width:0; stroke-opacity:1; 
stroke-linecap:round; stroke-linejoin:round;fill-rule:evenodd;"
d="M 31036,43924
31045,43926
31054,43928
31063,43931
31072,43935
31080,43940
31087,43946
31094,43952
31101,43959
31106,43967
31111,43975
31115,43983
31118,43992
31120,44001
31122,44010
31122,44020
31122,44379
31122,44389
31120,44398
31118,44407
31115,44416
31111,44424
31106,44432
31101,44440
31094,44447
31087,44453
31080,44459
31072,44464
31063,44468
31054,44471
31045,44473
31036,44475
31026,44475
30834,44475
30825,44475
30816,44473
30807,44471
30798,44468
30789,44464
30781,44459
30774,44453
30767,44447
30760,44440
30755,44432
30750,44424
30746,44416
30743,44407
30740,44398
30739,44389
30738,44379
30738,44020
30739,44010
30740,44001
30743,43992
30746,43983
30750,43975
30755,43967
30760,43959
30767,43952
30774,43946
30781,43940
30789,43935
30798,43931
30807,43928
30816,43926
30825,43924
30834,43924
31026,43924
31036,43924
Z" /> 
</g>
<g >
</g>
<g style="fill:#000000; fill-opacity:1.0; 
stroke:#000000; stroke-width:0; stroke-opacity:1; 
stroke-linecap:round; stroke-linejoin:round;">
<path style="fill:#000000; fill-opacity:1.0; 
stroke:#000000; stroke-width:0; stroke-opacity:1; 
stroke-linecap:round; stroke-linejoin:round;fill-rule:evenodd;"
d="M 31036,41324
31045,41326
31054,41328
31063,41331
31072,41335
31080,41340
31087,41346
31094,41352
31101,41359
31106,41367
31111,41375
31115,41383
31118,41392
31120,41401
31122,41410
31122,41420
31122,41779
31122,41789
31120,41798
31118,41807
31115,41816
31111,41824
31106,41832
31101,41840
31094,41847
31087,41853
31080,41859
31072,41864
31063,41868
31054,41871
31045,41873
31036,41875
31026,41875
30834,41875
30825,41875
30816,41873
30807,41871
30798,41868
30789,41864
30781,41859
30774,41853
30767,41847
30760,41840
30755,41832
30750,41824
30746,41816
30743,41807
30740,41798
30739,41789
30738,41779
30738,41420
30739,41410
30740,41401
30743,41392
30746,41383
30750,41375
30755,41367
30760,41359
30767,41352
30774,41346
30781,41340
30789,41335
30798,41331
30807,41328
30816,41326
30825,41324
30834,41324
31026,41324
31036,41324
Z" /> 
<path style="fill:#000000; fill-opacity:1.0; 
stroke:#000000; stroke-width:0; stroke-opacity:1; 
stroke-linecap:round; stroke-linejoin:round;fill-rule:evenodd;"
d="M 31774,41324
31783,41326
31792,41328
31801,41331
31810,41335
31818,41340
31825,41346
31832,41352
31839,41359
31844,41367
31849,41375
31853,41383
31856,41392
31859,41401
31860,41410
31861,41420
31861,41779
31860,41789
31859,41798
31856,41807
31853,41816
31849,41824
31844,41832
31839,41840
31832,41847
31825,41853
31818,41859
31810,41864
31801,41868
31792,41871
31783,41873
31774,41875
31765,41875
31573,41875
31563,41875
31554,41873
31545,41871
31536,41868
31527,41864
31519,41859
31512,41853
31505,41847
31498,41840
31493,41832
31488,41824
31484,41816
31481,41807
31479,41798
31477,41789
31477,41779
31477,41420
31477,41410
31479,41401
31481,41392
31484,41383
31488,41375
31493,41367
31498,41359
31505,41352
31512,41346
31519,41340
31527,41335
31536,41331
31545,41328
31554,41326
31563,41324
31573,41324
31765,41324
31774,41324
Z" /> 
</g>
<g >
</g>
<g >
</g>
<g >
</g>
</g> 
</svg>
