<?xml version="1.0" standalone="no"?>
 <!DOCTYPE svg PUBLIC "-//W3C//DTD SVG 1.1//EN" 
 "http://www.w3.org/Graphics/SVG/1.1/DTD/svg11.dtd"> 
<svg xmlns="http://www.w3.org/2000/svg" version="1.1" 
    width="29.7002cm" height="21.0007cm" viewBox="0 0 116930 82680 ">
<title>SVG Picture created as stag42-B_SilkS.svg date 2021/07/30 18:52:46 </title>
  <desc>Picture generated by PCBNEW </desc>
<g style="fill:#000000; fill-opacity:1;stroke:#000000; stroke-opacity:1;
stroke-linecap:round; stroke-linejoin:round; "
 transform="translate(0 0) scale(1 1)">
</g>
<g style="fill:#000000; fill-opacity:0.0; 
stroke:#000000; stroke-width:-0.000393701; stroke-opacity:1; 
stroke-linecap:round; stroke-linejoin:round;">
</g>
<g style="fill:#000000; fill-opacity:0.0; 
stroke:#000000; stroke-width:47.2441; stroke-opacity:1; 
stroke-linecap:round; stroke-linejoin:round;">
<path d="M31949 42087
L31949 43662
" />
<path d="M30650 42087
L31949 42087
" />
</g>
<g style="fill:#000000; fill-opacity:1.0; 
stroke:#000000; stroke-width:3.93701; stroke-opacity:1; 
stroke-linecap:round; stroke-linejoin:round;">
<path style="fill:#000000; fill-opacity:1.0; 
stroke:#000000; stroke-width:3.93701; stroke-opacity:1; 
stroke-linecap:round; stroke-linejoin:round;fill-rule:evenodd;"
d="M 17718,26177
17621,26184
17539,26194
17475,26208
17445,26218
17351,26265
17269,26328
17242,26355
17185,26420
17141,26487
17110,26558
17091,26637
17083,26725
17085,26826
17097,26943
17102,26972
17110,27028
17119,27078
17126,27116
17131,27139
17133,27143
17142,27137
17164,27117
17199,27085
17244,27041
17300,26986
17364,26923
17435,26852
17512,26774
17594,26692
17621,26664
18101,26177
17950,26174
17828,26174
17718,26177
Z" /> 
<path style="fill:#000000; fill-opacity:1.0; 
stroke:#000000; stroke-width:3.93701; stroke-opacity:1; 
stroke-linecap:round; stroke-linejoin:round;fill-rule:evenodd;"
d="M 27750,4829
27064,4858
26368,4909
25674,4980
24985,5072
24299,5185
23618,5318
22943,5472
22272,5646
21608,5841
20950,6055
20298,6289
19653,6543
19016,6817
18387,7110
17766,7423
17208,7725
16603,8076
16009,8444
15427,8830
14857,9233
14300,9653
13756,10091
13224,10545
12706,11015
12201,11502
11710,12005
11233,12524
11186,12576
10742,13093
10312,13625
9897,14170
9498,14728
9116,15299
8751,15880
8403,16472
8072,17074
7761,17684
7468,18301
7195,18926
6942,19556
6878,19725
6643,20384
6428,21048
6234,21717
6061,22391
5908,23070
5776,23752
5664,24438
5574,25128
5504,25820
5455,26515
5427,27212
5420,27911
5434,28611
5469,29313
5525,30015
5533,30097
5612,30784
5711,31468
5831,32149
5972,32826
6133,33498
6314,34165
6515,34827
6736,35482
6977,36130
7237,36770
7516,37402
7814,38025
8131,38638
8253,38862
8593,39457
8951,40044
9327,40620
9720,41185
10128,41737
10551,42275
10989,42798
11218,43060
11456,43322
11708,43591
11971,43863
12241,44134
12514,44400
12786,44658
13054,44903
13176,45013
13705,45467
14247,45905
14801,46325
15367,46728
15944,47114
16532,47481
17131,47831
17740,48162
18358,48474
18986,48768
19622,49043
20267,49298
20920,49534
21580,49750
22247,49947
22267,49952
22931,50125
23599,50278
24273,50410
24952,50522
25637,50614
26328,50686
27025,50738
27650,50767
27750,50770
27868,50773
28000,50774
28142,50776
28291,50776
28444,50776
28597,50776
28745,50775
28886,50773
29016,50771
29131,50769
29203,50766
29902,50731
30599,50676
31291,50599
31980,50502
32664,50384
33344,50245
34019,50087
34688,49908
35351,49709
36007,49489
36657,49250
37300,48991
37935,48713
38563,48415
39182,48097
39591,47874
40196,47524
40789,47156
41371,46770
41940,46367
42497,45947
43041,45510
43573,45056
44091,44586
44596,44099
45087,43596
45564,43078
45613,43023
46057,42506
46487,41975
46902,41429
47300,40871
47683,40301
48048,39719
48396,39127
48726,38526
49038,37916
49331,37298
49604,36674
49857,36043
49921,35874
50156,35216
50370,34553
50564,33884
50737,33211
50890,32532
51022,31850
51134,31164
51225,30475
51295,29783
51344,29089
51372,28393
51379,27695
51366,26997
51331,26297
51275,25598
51266,25502
51186,24809
51086,24120
50965,23436
50824,22757
50662,22083
50480,21414
50278,20752
50055,20096
49813,19448
49552,18806
49270,18172
48970,17546
48843,17302
43692,17302
43692,17420
43692,17427
43692,17564
43691,17682
43690,17784
43688,17872
43685,17950
43680,18019
43675,18083
43668,18144
43660,18205
43650,18267
43637,18335
43632,18363
43570,18633
43488,18897
43386,19155
43265,19404
43126,19643
42970,19872
42855,20019
42801,20081
42735,20153
42662,20229
42585,20305
42508,20379
42436,20446
42372,20502
42351,20518
42206,20630
42066,20729
41924,20818
41774,20902
41665,20958
41481,21044
41299,21118
41114,21181
40923,21234
40720,21279
40502,21316
40495,21317
40484,21319
40471,21320
40456,21322
40438,21323
40416,21324
40390,21326
40360,21327
40323,21328
40281,21329
40233,21330
40176,21330
40112,21331
40040,21332
39958,21333
39866,21333
39763,21334
39650,21335
39525,21335
39387,21336
39237,21336
39073,21337
38894,21337
38701,21338
38492,21338
38267,21339
38025,21339
37765,21340
37488,21340
37191,21341
36876,21341
36540,21342
36184,21342
36160,21342
35802,21343
35464,21343
35146,21344
34847,21344
34568,21345
34306,21345
34062,21346
33834,21346
33623,21346
33427,21347
33246,21347
33080,21348
32927,21349
32787,21349
32659,21350
32543,21351
32439,21352
32344,21353
32259,21354
32184,21356
32117,21357
32058,21359
32006,21360
31961,21362
31922,21365
31888,21367
31858,21369
31833,21372
31811,21375
31792,21378
31775,21381
31760,21385
31745,21389
31731,21393
31716,21397
31700,21402
31683,21407
31673,21410
31497,21467
31328,21544
31168,21639
31018,21750
30879,21875
30754,22014
30644,22165
30550,22327
30473,22498
30447,22569
30425,22638
30407,22700
30393,22757
30382,22814
30374,22875
30368,22944
30364,23023
30361,23117
30360,23201
30355,23511
31650,23518
32314,23771
32428,23814
32536,23855
32636,23892
32728,23926
32808,23956
32877,23980
32931,24000
32970,24013
32992,24019
32995,24020
33006,24014
33033,23997
33077,23969
33135,23932
33208,23885
33295,23830
33394,23767
33504,23696
33626,23618
33757,23533
33897,23443
34046,23348
34201,23248
34363,23144
34530,23036
34665,22948
34837,22838
35004,22730
35166,22626
35321,22526
35470,22431
35610,22341
35742,22257
35864,22179
35975,22109
36074,22046
36161,21991
36234,21945
36293,21908
36336,21882
36364,21865
36373,21861
36470,21834
36568,21827
36664,21839
36755,21868
36839,21915
36913,21977
36974,22054
37001,22102
37020,22147
37036,22202
37052,22271
37065,22353
37078,22451
37090,22566
37101,22700
37111,22853
37113,22882
37117,22964
37119,23061
37121,23169
37121,23287
37121,23408
37119,23531
37116,23651
37113,23764
37108,23868
37103,23957
37097,24030
37097,24034
37059,24335
37010,24619
36948,24887
36875,25137
36789,25371
36691,25589
36581,25791
36459,25977
36389,26075
36573,26259
36828,26529
37073,26817
37308,27123
37532,27448
37746,27792
37809,27900
38021,28291
38217,28696
38397,29113
38560,29544
38707,29987
38837,30442
38951,30909
39048,31388
39129,31878
39193,32378
39239,32890
39269,33411
39282,33942
39278,34483
39257,35033
39245,35246
39197,35839
39131,36441
39047,37051
38944,37671
38822,38299
38682,38936
38523,39582
38345,40238
38149,40902
37934,41577
37700,42261
37448,42955
37333,43257
37289,43371
37252,43467
37221,43546
37194,43612
37171,43665
37151,43708
37134,43743
37117,43770
37101,43793
37084,43814
37066,43833
37058,43841
36978,43907
36889,43954
36794,43981
36694,43989
36611,43980
36515,43951
36428,43905
36352,43841
36289,43763
36241,43673
36229,43640
36217,43600
36211,43563
36209,43521
36210,43470
36212,43437
36215,43409
36219,43381
36227,43351
36238,43316
36254,43271
36276,43213
36304,43140
36308,43129
36571,42438
36815,41757
37040,41087
37246,40426
37434,39775
37603,39134
37753,38504
37885,37883
37997,37272
38091,36672
38166,36081
38222,35501
38260,34930
38279,34370
38279,33820
38260,33279
38223,32749
38207,32581
38151,32114
38079,31655
37991,31207
37887,30770
37768,30345
37634,29931
37484,29530
37319,29143
37140,28770
36946,28411
36738,28067
36682,27980
36541,27774
36395,27576
36246,27387
36095,27209
35945,27045
35944,27045
30756,27045
30747,27143
30732,27209
30689,27313
30630,27406
30556,27487
30469,27553
30372,27603
30267,27635
30247,27639
30225,27641
30184,27642
30125,27644
30052,27645
29965,27646
29867,27647
29761,27648
29647,27649
29529,27649
29407,27649
29285,27649
29165,27649
29047,27649
28935,27648
28830,27647
28735,27646
28651,27645
28581,27644
28527,27642
28490,27641
28475,27639
28364,27612
28265,27569
28175,27507
28116,27452
28052,27370
28003,27276
27969,27175
27953,27069
27956,26963
27969,26890
28006,26787
28061,26692
28131,26608
28215,26537
28309,26482
28411,26444
28415,26443
28439,26440
28481,26437
28541,26435
28617,26432
28705,26430
28805,26429
28914,26427
29031,26426
29152,26426
29277,26425
29403,26425
29528,26426
29650,26426
29768,26427
29879,26428
29981,26430
30072,26432
30150,26434
30214,26437
30260,26439
30288,26443
30291,26443
30392,26478
30487,26531
30571,26600
30642,26682
30699,26776
30730,26853
30750,26945
30756,27045
35944,27045
35797,26898
35653,26768
35634,26752
35591,26716
35524,26746
35401,26796
35262,26841
35112,26881
34957,26913
34897,26924
34856,26930
34812,26934
34764,26938
34708,26940
34639,26942
34557,26942
34463,26942
34341,26942
34237,26939
34150,26935
34077,26929
34015,26921
33961,26909
33915,26895
33872,26878
33860,26873
33780,26823
33709,26757
33651,26678
33609,26590
33597,26549
33582,26452
33587,26356
33609,26264
33649,26179
33703,26101
33770,26035
33849,25983
33939,25946
33985,25935
34018,25931
34059,25929
34112,25930
34181,25934
34233,25938
34432,25947
34615,25943
34782,25926
34932,25896
35011,25873
35159,25813
35296,25734
35424,25637
35541,25522
35647,25388
35744,25236
35830,25066
35905,24878
35969,24673
36023,24450
36027,24427
36063,24222
36091,24005
36110,23783
36120,23565
36121,23387
36118,23204
34384,24322
34208,24435
34037,24546
33871,24653
33711,24755
33558,24853
33414,24946
33278,25034
33151,25114
33035,25188
32931,25255
32839,25313
32761,25363
32696,25404
32647,25435
32614,25455
32597,25465
32596,25465
32506,25496
32410,25507
32313,25499
32219,25473
32129,25429
32117,25421
32051,25369
31998,25308
31952,25231
31945,25216
31913,25127
31899,25031
31904,24934
31927,24840
31959,24769
31973,24741
31981,24723
31982,24719
31971,24714
31944,24703
31901,24687
31847,24666
31783,24641
31712,24614
31710,24614
31441,24512
28650,24518
28564,24548
28494,24574
28416,24608
28329,24649
28231,24699
28122,24757
28001,24824
27866,24902
27717,24989
27553,25088
27373,25198
27352,25211
27206,25300
27076,25379
26960,25449
26857,25510
26764,25565
26680,25613
26603,25657
26530,25697
26461,25734
26392,25769
26323,25803
26309,25810
26148,25886
26000,25948
25863,25998
25733,26037
25609,26064
25487,26082
25437,26087
25414,26088
25371,26089
25308,26090
25227,26092
25129,26094
25014,26095
24884,26097
24738,26099
24580,26102
24408,26104
24225,26106
24030,26108
23826,26111
23613,26113
23392,26116
23164,26118
22930,26121
22690,26123
22559,26124
22317,26127
22080,26129
21848,26131
21622,26134
21404,26136
21195,26138
20995,26140
20805,26143
20626,26145
20459,26146
20306,26148
20166,26150
20042,26151
19934,26153
19842,26154
19769,26155
19714,26156
19680,26157
19670,26157
19519,26163
18733,26962
18618,27079
18502,27197
18386,27315
18272,27431
18161,27544
18055,27652
17955,27753
17864,27845
17782,27928
17712,28000
17654,28059
17636,28077
17324,28394
17395,28849
17466,29305
17523,29420
17621,29593
17735,29752
17864,29897
18006,30027
18162,30141
18330,30238
18509,30318
18698,30380
18889,30423
18917,30428
18964,30439
19027,30455
19105,30474
19194,30497
19293,30522
19400,30550
19512,30580
19623,30610
19740,30641
19854,30671
19964,30699
20067,30726
20161,30750
20243,30770
20311,30786
20363,30798
20394,30805
20525,30833
20662,30869
20795,30911
20873,30939
20893,30947
20931,30966
20986,30992
21055,31027
21139,31069
21236,31118
21345,31173
21464,31234
21594,31300
21731,31370
21876,31444
22026,31522
22182,31602
22279,31652
22471,31751
22645,31841
22803,31923
22946,31996
23074,32062
23190,32120
23294,32173
23387,32219
23471,32261
23547,32297
23616,32330
23680,32359
23739,32385
23795,32408
23849,32430
23901,32450
23955,32470
24010,32489
24067,32509
24129,32529
24196,32551
24224,32561
24651,32691
25079,32802
25512,32894
25857,32953
25885,32957
25933,32963
26000,32972
26085,32983
26186,32997
26303,33012
26435,33029
26580,33047
26737,33067
26905,33089
27083,33111
27271,33135
27466,33160
27668,33186
27875,33212
28087,33238
28165,33248
30298,33517
30591,33517
30682,33517
30755,33516
30815,33515
30865,33513
30908,33509
30948,33504
30989,33498
31020,33493
31247,33442
31468,33374
31682,33289
31884,33189
32008,33115
32182,32994
32350,32855
32509,32702
32654,32538
32784,32365
32865,32241
32978,32031
33073,31815
33147,31593
33202,31366
33236,31135
33249,30903
33247,30776
33240,30651
33228,30533
33211,30416
33186,30296
33155,30169
33115,30029
33091,29949
33071,29886
33054,29825
33040,29772
33030,29730
33027,29712
33024,29616
33040,29522
33074,29433
33123,29352
33187,29281
33264,29223
33350,29181
33395,29167
33493,29152
33591,29156
33685,29179
33773,29219
33851,29275
33917,29345
33960,29412
33979,29454
34002,29513
34027,29586
34054,29670
34081,29760
34108,29854
34133,29948
34156,30038
34175,30122
34181,30151
34199,30249
34214,30337
34226,30421
34234,30505
34239,30593
34243,30691
34244,30804
34244,30863
34242,31035
34234,31192
34221,31338
34201,31479
34173,31621
34138,31769
34107,31880
34021,32141
33917,32393
33794,32635
33655,32866
33499,33085
33329,33292
33143,33486
32944,33666
32733,33832
32509,33981
32275,34115
32030,34231
31776,34329
31513,34408
31400,34436
31226,34472
31056,34498
30885,34515
30710,34524
30529,34524
30337,34516
30132,34498
29932,34475
29856,34466
29787,34457
29728,34450
29682,34445
29651,34442
29639,34441
29639,34441
29636,34451
29630,34479
29622,34518
29613,34560
29578,34717
29536,34886
29487,35060
29434,35236
29378,35408
29321,35570
29264,35718
29248,35757
29132,36017
29010,36259
28879,36488
28738,36706
28584,36918
28528,36989
28475,37052
28410,37125
28336,37203
28257,37283
28178,37360
28101,37432
28032,37493
27997,37522
27781,37683
27557,37823
27325,37944
27083,38046
26833,38129
26573,38193
26458,38215
26333,38233
26224,38243
26131,38244
26056,38236
26032,38231
25943,38196
25861,38143
25790,38076
25733,37997
25691,37909
25675,37851
25666,37768
25672,37680
25692,37593
25725,37514
25752,37470
25769,37444
25779,37427
25781,37422
25770,37419
25740,37410
25692,37395
25626,37375
25543,37350
25444,37321
25330,37286
25203,37248
25061,37205
24908,37159
24743,37110
24568,37057
24383,37001
24190,36943
23988,36883
23780,36820
23566,36756
23415,36711
21054,36001
20543,36001
20344,36001
20125,36000
19888,35998
19634,35995
19365,35992
19082,35987
18786,35983
18480,35977
18165,35971
17842,35965
17512,35957
17178,35950
16841,35942
16501,35933
16162,35924
15823,35915
15487,35905
15156,35895
14830,35885
14825,35884
14630,35878
14455,35872
14299,35867
14161,35862
14040,35858
13934,35854
13843,35850
13765,35847
13699,35844
13644,35841
13600,35838
13564,35835
13536,35833
13514,35830
13498,35827
13491,35825
13399,35792
13317,35742
13247,35678
13189,35602
13147,35517
13122,35426
13115,35330
13121,35266
13148,35165
13194,35075
13255,34997
13331,34932
13420,34883
13496,34857
13527,34850
13559,34846
13597,34844
13645,34843
13708,34845
13745,34846
13922,34853
14117,34859
14328,34867
14553,34874
14788,34881
15033,34889
15283,34897
15537,34904
15791,34912
16044,34919
16292,34926
16534,34932
16766,34938
16953,34943
17481,34955
17992,34966
18485,34976
18960,34984
19417,34990
19856,34995
20276,34999
20678,35001
21061,35002
21424,35001
21769,34999
22095,34996
22401,34991
22687,34984
22953,34976
23199,34967
23426,34956
23631,34944
23817,34930
23981,34915
24125,34899
24229,34884
24402,34846
24567,34789
24721,34713
24866,34619
25000,34507
25123,34377
25235,34230
25334,34066
25366,34005
25420,33897
25365,33886
25327,33879
25278,33869
25227,33859
25219,33858
25003,33813
24775,33759
24538,33698
24297,33630
24057,33557
23821,33481
23595,33402
23382,33322
23240,33265
23217,33255
23176,33235
23119,33207
23047,33170
22961,33127
22861,33077
22750,33020
22629,32958
22499,32892
22360,32821
22215,32746
22064,32668
21909,32588
21836,32550
21647,32453
21476,32364
21321,32285
21183,32213
21059,32150
20948,32093
20850,32044
20764,32001
20687,31963
20620,31931
20562,31904
20510,31881
20465,31862
20424,31846
20387,31832
20353,31822
20321,31813
20290,31805
20258,31798
20225,31792
20190,31785
20182,31784
20146,31776
20091,31764
20021,31747
19937,31726
19842,31702
19739,31675
19629,31647
19515,31617
19425,31593
19309,31562
19194,31532
19084,31503
18980,31476
18884,31452
18801,31431
18731,31414
18677,31402
18650,31396
18403,31337
18167,31259
17941,31162
17726,31048
17523,30917
17332,30768
17153,30602
16988,30420
16836,30222
16795,30161
16752,30094
16707,30016
16661,29932
16617,29847
16578,29764
16544,29689
16519,29626
16513,29607
16507,29586
16500,29552
16490,29504
16479,29443
16466,29367
16450,29276
16433,29168
16412,29043
16389,28901
16364,28741
16336,28561
16304,28361
16287,28252
16262,28088
16237,27928
16213,27774
16191,27627
16170,27489
16150,27361
16133,27244
16117,27140
16104,27050
16093,26977
16086,26920
16081,26882
16079,26869
16074,26711
16088,26548
16121,26385
16170,26223
16236,26066
16316,25917
16375,25829
16428,25761
16494,25688
16567,25614
16641,25546
16711,25489
16727,25477
16847,25400
16981,25331
17120,25273
17260,25228
17389,25199
17436,25193
17498,25187
17568,25182
17638,25178
17665,25177
17689,25177
17734,25176
17798,25175
17881,25174
17982,25173
18100,25171
18234,25170
18384,25168
18549,25166
18728,25164
18920,25162
19125,25160
19341,25157
19567,25155
19804,25152
20050,25150
20304,25147
20566,25144
20834,25142
21108,25139
21387,25136
21559,25134
21840,25132
22116,25129
22386,25126
22650,25123
22906,25120
23154,25118
23393,25115
23622,25112
23841,25110
24049,25107
24244,25105
24426,25103
24595,25100
24750,25098
24889,25096
25012,25095
25118,25093
25207,25091
25277,25090
25328,25089
25359,25088
25369,25088
25437,25077
25511,25059
25593,25032
25685,24996
25786,24951
25899,24896
26024,24830
26164,24753
26318,24664
26418,24606
26495,24559
26554,24522
26596,24494
26620,24475
26625,24466
26624,24454
26623,24422
26621,24372
26620,24306
26618,24225
26617,24132
26615,24027
26614,23914
26612,23792
26611,23672
26610,23524
26609,23395
26608,23285
26607,23191
26606,23111
26605,23045
26603,22990
26601,22945
26599,22909
26597,22879
26594,22854
26591,22832
26587,22812
26583,22792
26582,22787
26528,22592
26457,22409
26368,22236
26263,22077
26141,21930
26004,21798
25986,21782
25855,21679
25725,21592
25594,21520
25456,21461
25306,21413
25142,21373
25107,21366
25098,21364
25087,21363
25071,21362
25052,21360
25028,21359
24998,21358
24963,21357
24920,21356
24871,21355
24813,21354
24747,21354
24672,21353
24588,21352
24493,21351
24387,21351
24269,21350
24139,21349
23996,21349
23840,21348
23670,21348
23485,21347
23285,21347
23069,21346
22836,21346
22587,21345
22319,21345
22033,21344
21728,21344
21404,21343
21059,21343
20814,21342
20457,21342
20120,21341
19803,21341
19506,21340
19227,21340
18967,21339
18724,21339
18498,21338
18288,21338
18093,21337
17914,21337
17749,21336
17598,21336
17460,21335
17334,21335
17220,21334
17117,21333
17025,21333
16943,21332
16870,21331
16806,21331
16750,21330
16701,21329
16659,21328
16624,21327
16594,21326
16568,21324
16547,21323
16530,21322
16516,21321
16504,21319
16495,21318
16249,21270
16018,21211
15800,21138
15593,21050
15392,20947
15197,20826
15032,20710
14973,20663
14904,20603
14829,20534
14751,20460
14674,20383
14602,20309
14539,20240
14487,20181
14480,20172
14331,19966
14199,19748
14085,19521
13989,19285
13913,19043
13857,18797
13847,18739
13839,18688
13832,18637
13826,18584
13821,18527
13817,18465
13813,18397
13811,18320
13808,18233
13807,18134
13806,18022
13805,17895
13805,17752
13805,17591
13806,17411
13809,16560
13839,16473
13886,16364
13950,16267
14028,16183
14118,16115
14219,16063
14328,16028
14444,16013
14474,16012
14591,16022
14702,16052
14804,16099
14896,16162
14976,16240
15043,16331
15093,16433
15127,16546
15133,16577
15135,16602
15137,16647
15139,16712
15140,16796
15142,16898
15143,17018
15143,17154
15144,17307
15144,17475
15144,17512
15144,17679
15145,17826
15145,17955
15146,18068
15147,18165
15148,18250
15150,18322
15153,18384
15156,18438
15160,18485
15165,18526
15171,18564
15178,18599
15186,18633
15195,18669
15204,18703
15264,18883
15342,19055
15437,19216
15549,19366
15675,19503
15814,19626
15966,19734
16128,19826
16301,19900
16474,19953
16516,19964
16555,19973
16593,19981
16631,19987
16671,19992
16716,19997
16767,20000
16827,20002
16896,20004
16978,20006
17073,20006
17185,20007
17315,20007
17415,20007
18075,20007
18081,19103
18082,18941
18082,18799
18083,18675
18084,18568
18085,18476
18087,18398
18089,18333
18091,18278
18094,18234
18098,18197
18103,18166
18108,18141
18115,18119
18122,18099
18131,18080
18142,18060
18153,18038
18157,18031
18219,17934
18296,17850
18388,17781
18490,17729
18603,17694
18660,17683
18776,17677
18889,17692
18996,17727
19098,17782
19192,17857
19214,17878
19279,17951
19328,18022
19364,18099
19389,18178
19393,18194
19396,18210
19399,18228
19401,18249
19404,18276
19405,18309
19407,18349
19408,18400
19409,18461
19409,18534
19410,18622
19410,18725
19410,18844
19410,18982
19410,19136
19410,20012
21410,20012
21410,18816
21410,18625
21410,18454
21410,18302
21410,18167
21409,18049
21409,17945
21408,17855
21406,17778
21404,17712
21402,17656
21399,17608
21396,17568
21392,17534
21387,17505
21382,17480
21376,17457
21369,17435
21361,17413
21352,17390
21347,17378
21290,17259
21215,17150
21123,17052
21015,16968
20893,16898
20887,16895
20853,16879
20822,16865
20791,16853
20760,16843
20725,16835
20686,16828
20640,16823
20587,16819
20523,16816
20448,16813
20360,16812
20256,16811
20135,16810
19996,16810
19925,16810
19761,16810
19617,16809
19490,16808
19379,16806
19281,16803
19195,16799
19120,16794
19052,16788
18990,16779
18932,16769
18877,16757
18822,16743
18766,16726
18706,16707
18676,16697
18478,16621
18292,16526
18117,16415
17955,16288
17806,16147
17671,15991
17552,15823
17448,15643
17362,15452
17293,15251
17243,15041
17238,15018
17233,14987
17228,14959
17225,14931
17222,14902
17219,14868
17217,14829
17216,14782
17215,14725
17214,14655
17214,14572
17213,14473
17213,14355
17213,14284
17213,13688
17242,13603
17290,13494
17352,13399
17428,13318
17516,13251
17612,13199
17715,13164
17823,13147
17934,13147
18045,13167
18156,13206
18176,13216
18274,13276
18360,13353
18433,13446
18490,13552
18517,13624
18523,13641
18527,13658
18531,13676
18534,13698
18537,13725
18539,13759
18541,13803
18542,13858
18544,13926
18545,14010
18546,14110
18548,14229
18548,14262
18550,14386
18551,14491
18552,14578
18554,14650
18555,14708
18557,14754
18559,14791
18561,14820
18564,14843
18568,14862
18572,14878
18578,14895
18579,14901
18611,14984
18647,15057
18693,15129
18715,15158
18798,15251
18893,15328
19001,15390
19031,15405
19058,15418
19084,15429
19109,15439
19136,15447
19167,15454
19202,15460
19244,15464
19294,15468
19353,15471
19425,15473
19509,15475
19608,15476
19723,15477
19857,15479
20010,15480
20011,15480
20163,15482
20295,15483
20410,15484
20508,15486
20593,15487
20665,15489
20726,15492
20778,15495
20824,15499
20864,15503
20900,15509
20935,15515
20970,15522
21006,15531
21047,15541
21060,15545
21240,15599
21419,15671
21594,15758
21759,15858
21910,15967
21924,15979
21977,16025
22039,16083
22104,16147
22167,16212
22222,16273
22263,16321
22371,16471
22469,16636
22555,16812
22627,16994
22681,17178
22702,17268
22709,17305
22716,17341
22721,17378
22726,17417
22731,17459
22735,17505
22738,17558
22741,17617
22743,17685
22745,17763
22747,17852
22748,17953
22749,18068
22750,18197
22750,18344
22750,18508
22751,18690
22751,18844
22751,20012
23410,20012
23410,18020
23410,17784
23411,17558
23411,17343
23411,17139
23412,16947
23412,16769
23413,16604
23414,16455
23415,16321
23416,16204
23417,16103
23418,16021
23419,15958
23420,15915
23421,15895
23449,15668
23497,15448
23565,15236
23652,15031
23758,14836
23883,14651
24026,14476
24122,14374
24290,14222
24468,14088
24658,13972
24858,13875
25058,13799
25198,13757
25332,13725
25467,13702
25610,13686
25751,13677
25853,13671
25938,13661
26012,13647
26079,13627
26143,13601
26150,13598
26264,13533
26364,13454
26448,13359
26518,13249
26532,13220
26552,13178
26568,13139
26581,13102
26592,13063
26599,13019
26605,12969
26609,12909
26611,12837
26612,12749
26613,12644
26613,12606
26613,12490
26614,12393
26616,12312
26620,12244
26625,12188
26631,12141
26641,12100
26652,12062
26667,12026
26684,11989
26687,11983
26749,11881
26827,11793
26919,11720
27024,11664
27069,11646
27115,11631
27153,11622
27192,11617
27240,11614
27277,11614
27393,11621
27497,11644
27592,11685
27682,11745
27744,11799
27824,11890
27886,11992
27922,12081
27929,12102
27934,12122
27938,12144
27941,12170
27944,12203
27946,12246
27947,12300
27948,12369
27949,12454
27950,12538
27951,12672
27951,12787
27949,12886
27946,12974
27941,13051
27934,13122
27925,13190
27914,13256
27905,13305
27854,13506
27783,13700
27694,13885
27588,14060
27466,14224
27329,14376
27178,14515
27014,14639
26838,14747
26651,14838
26505,14894
26397,14928
26292,14955
26185,14977
26072,14993
25946,15004
25830,15011
25726,15018
25637,15028
25561,15042
25491,15060
25423,15085
25371,15108
25237,15182
25115,15273
25008,15380
24961,15438
24919,15500
24876,15576
24836,15658
24803,15739
24781,15805
24756,15890
24750,20012
24872,20012
25023,20017
25184,20032
25341,20055
25394,20065
25455,20077
25521,20092
25585,20106
25644,20121
25693,20133
25726,20144
25731,20145
25742,20146
25748,20135
25753,20109
25756,20090
25785,19886
25826,19697
25880,19519
25916,19425
26008,19227
26117,19040
26243,18866
26383,18706
26538,18559
26706,18428
26886,18313
27077,18215
27277,18135
27453,18083
27527,18065
27596,18050
27664,18038
27734,18029
27809,18022
27892,18017
27988,18014
28098,18013
28217,18012
28315,18012
28394,18012
28456,18011
28504,18010
28540,18008
28566,18006
28585,18003
28599,17998
28611,17993
28612,17993
28652,17960
28677,17912
28687,17850
28687,17842
28692,17780
28708,17709
28731,17636
28760,17569
28764,17560
28790,17519
28828,17471
28873,17421
28883,17410
28929,17365
28969,17332
29010,17306
29058,17281
29059,17281
29134,17249
29201,17228
29271,17217
29352,17214
29433,17218
29502,17228
29570,17249
29644,17281
29693,17306
29733,17332
29773,17365
29820,17409
29820,17410
29895,17496
29950,17585
29988,17680
30010,17785
30016,17900
30006,18065
29975,18229
29926,18387
29858,18539
29774,18683
29675,18817
29561,18939
29434,19047
29294,19140
29205,19187
29117,19228
29039,19259
28960,19285
28873,19309
28857,19312
28832,19318
28806,19322
28777,19326
28741,19329
28697,19332
28643,19334
28576,19336
28493,19338
28394,19340
28320,19342
28209,19344
28117,19346
28042,19347
27981,19349
27933,19352
27894,19354
27863,19358
27837,19361
27814,19366
27792,19372
27788,19373
27656,19419
27533,19483
27421,19564
27322,19659
27238,19767
27171,19887
27156,19921
27140,19961
27126,19997
27115,20032
27107,20068
27100,20108
27095,20154
27091,20210
27088,20276
27086,20357
27084,20455
27083,20557
27079,20968
27173,21078
27329,21273
27466,21470
27584,21671
27685,21880
27771,22099
27843,22331
27861,22402
27885,22504
27905,22607
27921,22713
27933,22826
27942,22947
27948,23081
27952,23231
27953,23381
27953,23463
27953,23537
27954,23602
27954,23654
27955,23692
27956,23712
27957,23714
27968,23710
27993,23700
28023,23686
28094,23657
28177,23626
28266,23595
28353,23568
28426,23547
28464,23538
28500,23531
28537,23526
28579,23522
28631,23519
28697,23517
28773,23515
29014,23510
29020,23189
29024,23041
29030,22909
29039,22791
29052,22682
29068,22578
29089,22475
29115,22369
29145,22261
29227,22019
29327,21785
29446,21562
29582,21350
29735,21150
29903,20962
30086,20789
30284,20629
30495,20486
30718,20359
30764,20335
30889,20273
30889,18618
30889,18369
30889,18140
30888,17932
30888,17745
30887,17577
30887,17428
30886,17299
30885,17188
30884,17096
30882,17022
30881,16965
30879,16926
30878,16903
30877,16900
30850,16810
30803,16728
30764,16681
30692,16619
30611,16575
30520,16550
30440,16544
30286,16536
30125,16511
29964,16472
29808,16420
29664,16357
29531,16284
29410,16203
29296,16110
29182,16001
29168,15986
29044,15841
28937,15685
28848,15517
28777,15336
28722,15142
28717,15124
28712,15101
28708,15079
28705,15056
28702,15031
28699,15000
28697,14963
28695,14918
28694,14862
28693,14794
28692,14712
28691,14615
28690,14499
28690,14371
28689,14232
28688,14111
28688,14009
28688,13922
28689,13849
28691,13789
28693,13739
28697,13697
28702,13662
28708,13633
28716,13606
28726,13581
28737,13555
28750,13527
28754,13518
28811,13421
28885,13335
28974,13263
29073,13205
29147,13176
29249,13153
29357,13145
29464,13154
29555,13175
29665,13222
29763,13286
29847,13366
29918,13462
29975,13575
29987,13605
29992,13619
29996,13633
30000,13649
30003,13669
30005,13695
30008,13728
30009,13771
30011,13825
30012,13891
30013,13973
30014,14071
30016,14188
30016,14268
30018,14396
30019,14505
30020,14596
30021,14671
30022,14732
30024,14781
30026,14820
30028,14849
30031,14872
30034,14890
30037,14904
30042,14917
30046,14927
30084,15001
30136,15069
30195,15123
30200,15127
30240,15153
30283,15173
30330,15189
30387,15200
30457,15208
30537,15214
30733,15235
30919,15274
31095,15331
31263,15407
31426,15503
31438,15511
31592,15626
31730,15756
31854,15901
31961,16058
32052,16228
32125,16409
32181,16601
32189,16635
32192,16649
32195,16663
32197,16678
32200,16695
32202,16714
32204,16737
32205,16765
32207,16800
32208,16841
32209,16890
32210,16949
32211,17018
32212,17098
32212,17190
32213,17296
32213,17417
32214,17552
32214,17705
32215,17875
32215,18063
32216,18272
32216,18377
32219,20013
32652,20010
33086,20007
33092,18145
33098,16284
33121,16161
33165,15961
33219,15776
33284,15601
33361,15433
33451,15270
33577,15078
33719,14899
33877,14733
34048,14582
34232,14447
34426,14328
34630,14227
34843,14145
35038,14088
35102,14072
35159,14059
35214,14049
35267,14040
35323,14033
35385,14027
35454,14023
35534,14019
35628,14017
35738,14014
35820,14012
35941,14010
36042,14007
36127,14005
36196,14002
36252,13998
36298,13994
36334,13990
36352,13987
36527,13944
36694,13883
36851,13804
36998,13709
37132,13599
37253,13474
37359,13336
37449,13186
37521,13026
37547,12952
37573,12866
37592,12782
37606,12693
37617,12592
37622,12512
37633,12400
37650,12304
37675,12221
37710,12147
37757,12078
37817,12010
37826,12001
37915,11927
38013,11871
38119,11833
38230,11814
38344,11814
38458,11833
38570,11872
38589,11880
38659,11923
38730,11980
38796,12047
38851,12118
38880,12167
38912,12236
38935,12305
38950,12378
38957,12459
38958,12553
38953,12643
38930,12874
38891,13092
38837,13302
38766,13507
38677,13711
38648,13770
38530,13981
38395,14180
38244,14366
38079,14539
37900,14698
37710,14841
37508,14968
37296,15078
37076,15169
36849,15242
36727,15272
36661,15286
36602,15298
36546,15308
36490,15316
36433,15322
36370,15328
36299,15332
36217,15335
36121,15338
36008,15341
35937,15342
35824,15344
35730,15347
35654,15349
35591,15351
35540,15354
35499,15357
35466,15360
35438,15364
35412,15369
35400,15372
35240,15420
35091,15486
34955,15568
34831,15667
34721,15781
34626,15908
34547,16050
34484,16203
34449,16321
34447,16332
34444,16344
34442,16357
34439,16372
34438,16390
34436,16411
34434,16438
34433,16471
34432,16510
34431,16558
34430,16615
34429,16681
34428,16759
34427,16848
34427,16950
34426,17067
34426,17198
34425,17345
34425,17509
34425,17690
34424,17891
34424,18112
34424,18212
34420,20012
35356,20012
35362,17539
35391,17461
35441,17353
35506,17258
35585,17176
35675,17110
35775,17060
35882,17027
35994,17013
36109,17017
36191,17033
36292,17068
36383,17117
36468,17184
36479,17195
36549,17269
36603,17349
36648,17442
36654,17457
36681,17528
36687,18768
36692,20007
37157,20010
37623,20012
37623,18997
37623,18816
37623,18655
37623,18513
37624,18387
37625,18277
37626,18181
37627,18098
37629,18026
37632,17963
37635,17909
37639,17862
37643,17821
37649,17783
37655,17749
37662,17715
37670,17681
37679,17645
37681,17637
37738,17458
37815,17287
37908,17127
38019,16978
38145,16841
38285,16717
38439,16609
38605,16516
38732,16460
38839,16422
38950,16392
39067,16369
39197,16353
39336,16342
39420,16337
39486,16330
39539,16321
39583,16311
39586,16310
39708,16261
39819,16195
39918,16112
40002,16014
40072,15901
40075,15895
40103,15835
40123,15778
40138,15717
40148,15646
40155,15572
40162,15497
40169,15437
40178,15388
40191,15344
40208,15300
40231,15249
40231,15248
40287,15154
40361,15070
40448,14997
40547,14939
40650,14899
40698,14888
40757,14882
40830,14881
40942,14888
41043,14912
41135,14952
41223,15011
41285,15064
41365,15153
41426,15253
41465,15353
41475,15387
41482,15418
41486,15452
41488,15494
41489,15548
41489,15597
41476,15800
41444,15999
41392,16193
41322,16381
41234,16562
41129,16733
41009,16895
40873,17045
40724,17182
40561,17305
40386,17413
40200,17503
40059,17558
39919,17602
39775,17635
39622,17658
39455,17672
39449,17673
39371,17678
39310,17684
39264,17691
39228,17700
39212,17705
39156,17734
39099,17778
39048,17831
39007,17887
38998,17904
38969,17964
38963,20014
39609,20009
39752,20008
39876,20007
39982,20006
40073,20004
40151,20002
40219,19999
40277,19996
40328,19991
40374,19986
40417,19980
40460,19972
40504,19963
40551,19952
40573,19947
40780,19888
40979,19810
41169,19714
41349,19601
41519,19472
41676,19328
41819,19171
41948,19002
42062,18821
42158,18631
42237,18431
42292,18246
42304,18195
42315,18149
42323,18106
42331,18064
42337,18020
42342,17971
42345,17916
42348,17853
42351,17778
42353,17689
42355,17584
42357,17461
42357,17432
42359,17305
42360,17198
42362,17107
42365,17032
42368,16969
42371,16918
42376,16875
42382,16840
42390,16810
42400,16782
42411,16756
42425,16728
42440,16700
42486,16626
42547,16553
42615,16489
42663,16452
42734,16413
42817,16381
42905,16357
42982,16346
43071,16346
43165,16359
43256,16384
43298,16400
43397,16455
43485,16527
43561,16614
43623,16712
43667,16819
43667,16821
43673,16839
43678,16857
43681,16875
43685,16897
43687,16923
43689,16957
43690,17000
43691,17054
43692,17121
43692,17203
43692,17302
48843,17302
48650,16929
48311,16321
47953,15722
47774,15438
47433,14920
47073,14405
46697,13898
46308,13401
45909,12918
45693,12667
45430,12372
45151,12073
44862,11771
44564,11472
44263,11178
43962,10894
43665,10624
43532,10506
43003,10057
42460,9623
41905,9206
41337,8807
40758,8424
40168,8059
39568,7713
38957,7384
38338,7075
37709,6784
37073,6513
36611,6331
35958,6092
35298,5874
34632,5676
33961,5498
33285,5341
32604,5204
31920,5088
31231,4993
30540,4919
29845,4865
29149,4832
28450,4820
27750,4829
Z" /> 
</g>
<g style="fill:#000000; fill-opacity:1.0; 
stroke:#000000; stroke-width:47.2441; stroke-opacity:1; 
stroke-linecap:round; stroke-linejoin:round;">
</g>
<g style="fill:#000000; fill-opacity:0.0; 
stroke:#000000; stroke-width:47.2441; stroke-opacity:1; 
stroke-linecap:round; stroke-linejoin:round;">
<path d="M44187 16408
L43712 16408
" />
<path d="M44187 15691
L43712 15691
" />
<path d="M40648 13820
L40851 13820
" />
<path d="M40648 14379
L40851 14379
" />
<path d="M37798 11970
L38001 11970
" />
<path d="M37798 12529
L38001 12529
" />
<path d="M37424 15885
L36637 15885
" />
<path d="M36637 15885
L36637 14350
" />
<path d="M37424 15885
L37424 14350
" />
</g>
<g style="fill:#000000; fill-opacity:0.0; 
stroke:#000000; stroke-width:59.0551; stroke-opacity:1; 
stroke-linecap:round; stroke-linejoin:round;">
<path d="M39411 45062
L39411 45564
" />
<path d="M39637 40987
L39637 41253
" />
<path d="M35562 40987
L35562 41253
" />
<path d="M35562 45062
L35562 44796
" />
<path d="M39637 45062
L39637 44796
" />
<path d="M35562 45062
L35828 45062
" />
<path d="M35562 40987
L35828 40987
" />
<path d="M39637 40987
L39371 40987
" />
<path d="M39637 45062
L39411 45062
" />
<path d="M27373 43923
L27373 41876
" />
<path d="M27373 41876
L25326 41876
" />
<path d="M25326 41876
L25326 43923
" />
<path d="M25326 43923
L27373 43923
" />
<circle cx="26350" cy="42900" r="393.701" /> 
</g>
<g style="fill:#000000; fill-opacity:0.0; 
stroke:#000000; stroke-width:47.2441; stroke-opacity:1; 
stroke-linecap:round; stroke-linejoin:round;">
<path d="M41351 40379
L41148 40379
" />
<path d="M41351 39820
L41148 39820
" />
<path d="M38795 14951
L38795 14748
" />
<path d="M39354 14951
L39354 14748
" />
<path d="M37970 14951
L37970 14748
" />
<path d="M38529 14951
L38529 14748
" />
<path d="M28451 44429
L28248 44429
" />
<path d="M28451 43870
L28248 43870
" />
<path d="M103049 38385
L102262 38385
" />
<path d="M102262 38385
L102262 36850
" />
<path d="M103049 38385
L103049 36850
" />
<path d="M95549 38385
L94762 38385
" />
<path d="M94762 38385
L94762 36850
" />
<path d="M95549 38385
L95549 36850
" />
<path d="M88049 38385
L87262 38385
" />
<path d="M87262 38385
L87262 36850
" />
<path d="M88049 38385
L88049 36850
" />
<path d="M80549 38385
L79762 38385
" />
<path d="M79762 38385
L79762 36850
" />
<path d="M80549 38385
L80549 36850
" />
<path d="M73049 38385
L72262 38385
" />
<path d="M72262 38385
L72262 36850
" />
<path d="M73049 38385
L73049 36850
" />
<path d="M101174 30885
L100387 30885
" />
<path d="M100387 30885
L100387 29350
" />
<path d="M101174 30885
L101174 29350
" />
<path d="M93674 30885
L92887 30885
" />
<path d="M92887 30885
L92887 29350
" />
<path d="M93674 30885
L93674 29350
" />
<path d="M86174 30885
L85387 30885
" />
<path d="M85387 30885
L85387 29350
" />
<path d="M86174 30885
L86174 29350
" />
<path d="M78674 30885
L77887 30885
" />
<path d="M77887 30885
L77887 29350
" />
<path d="M78674 30885
L78674 29350
" />
<path d="M71174 30885
L70387 30885
" />
<path d="M70387 30885
L70387 29350
" />
<path d="M71174 30885
L71174 29350
" />
<path d="M99299 23385
L98512 23385
" />
<path d="M98512 23385
L98512 21850
" />
<path d="M99299 23385
L99299 21850
" />
<path d="M91799 23385
L91012 23385
" />
<path d="M91012 23385
L91012 21850
" />
<path d="M91799 23385
L91799 21850
" />
<path d="M84299 23385
L83512 23385
" />
<path d="M83512 23385
L83512 21850
" />
<path d="M84299 23385
L84299 21850
" />
<path d="M76799 23385
L76012 23385
" />
<path d="M76012 23385
L76012 21850
" />
<path d="M76799 23385
L76799 21850
" />
<path d="M69299 23385
L68512 23385
" />
<path d="M68512 23385
L68512 21850
" />
<path d="M69299 23385
L69299 21850
" />
<path d="M50573 39215
L50573 40003
" />
<path d="M50573 40003
L49038 40003
" />
<path d="M50573 39215
L49038 39215
" />
<path d="M50549 38385
L49762 38385
" />
<path d="M49762 38385
L49762 36850
" />
<path d="M50549 38385
L50549 36850
" />
<path d="M43049 38385
L42262 38385
" />
<path d="M42262 38385
L42262 36850
" />
<path d="M43049 38385
L43049 36850
" />
<path d="M35549 38385
L34762 38385
" />
<path d="M34762 38385
L34762 36850
" />
<path d="M35549 38385
L35549 36850
" />
<path d="M28049 38385
L27262 38385
" />
<path d="M27262 38385
L27262 36850
" />
<path d="M28049 38385
L28049 36850
" />
<path d="M20549 38385
L19762 38385
" />
<path d="M19762 38385
L19762 36850
" />
<path d="M20549 38385
L20549 36850
" />
<path d="M65549 38385
L64762 38385
" />
<path d="M64762 38385
L64762 36850
" />
<path d="M65549 38385
L65549 36850
" />
<path d="M58049 38385
L57262 38385
" />
<path d="M57262 38385
L57262 36850
" />
<path d="M58049 38385
L58049 36850
" />
<path d="M48674 30885
L47887 30885
" />
<path d="M47887 30885
L47887 29350
" />
<path d="M48674 30885
L48674 29350
" />
<path d="M41174 30885
L40387 30885
" />
<path d="M40387 30885
L40387 29350
" />
<path d="M41174 30885
L41174 29350
" />
<path d="M33674 30885
L32887 30885
" />
<path d="M32887 30885
L32887 29350
" />
<path d="M33674 30885
L33674 29350
" />
<path d="M26174 30885
L25387 30885
" />
<path d="M25387 30885
L25387 29350
" />
<path d="M26174 30885
L26174 29350
" />
<path d="M18674 30885
L17887 30885
" />
<path d="M17887 30885
L17887 29350
" />
<path d="M18674 30885
L18674 29350
" />
<path d="M63674 30885
L62887 30885
" />
<path d="M62887 30885
L62887 29350
" />
<path d="M63674 30885
L63674 29350
" />
<path d="M56174 30885
L55387 30885
" />
<path d="M55387 30885
L55387 29350
" />
<path d="M56174 30885
L56174 29350
" />
<path d="M46799 23385
L46012 23385
" />
<path d="M46012 23385
L46012 21850
" />
<path d="M46799 23385
L46799 21850
" />
<path d="M39299 23385
L38512 23385
" />
<path d="M38512 23385
L38512 21850
" />
<path d="M39299 23385
L39299 21850
" />
<path d="M31799 23385
L31012 23385
" />
<path d="M31012 23385
L31012 21850
" />
<path d="M31799 23385
L31799 21850
" />
<path d="M24299 23385
L23512 23385
" />
<path d="M23512 23385
L23512 21850
" />
<path d="M24299 23385
L24299 21850
" />
<path d="M16799 23385
L16012 23385
" />
<path d="M16012 23385
L16012 21850
" />
<path d="M16799 23385
L16799 21850
" />
<path d="M61799 23385
L61012 23385
" />
<path d="M61012 23385
L61012 21850
" />
<path d="M61799 23385
L61799 21850
" />
<path d="M54299 23385
L53512 23385
" />
<path d="M53512 23385
L53512 21850
" />
<path d="M54299 23385
L54299 21850
" />
<path d="M39464 17643
L39464 16856
" />
<path d="M39464 16856
L40999 16856
" />
<path d="M39464 17643
L40999 17643
" />
<path d="M29924 15885
L29137 15885
" />
<path d="M29137 15885
L29137 14350
" />
<path d="M29924 15885
L29924 14350
" />
<path d="M22424 15885
L21637 15885
" />
<path d="M21637 15885
L21637 14350
" />
<path d="M22424 15885
L22424 14350
" />
<path d="M14924 15885
L14137 15885
" />
<path d="M14137 15885
L14137 14350
" />
<path d="M14924 15885
L14924 14350
" />
<path d="M40670 44901
L40670 44698
" />
<path d="M41229 44901
L41229 44698
" />
<path d="M35726 39889
L35523 39889
" />
<path d="M35726 39330
L35523 39330
" />
<path d="M34270 44201
L34270 43998
" />
<path d="M34829 44201
L34829 43998
" />
<path d="M41429 41148
L41429 41351
" />
<path d="M40870 41148
L40870 41351
" />
<path d="M37698 45920
L37901 45920
" />
<path d="M37698 46479
L37901 46479
" />
<path d="M31198 43920
L31401 43920
" />
<path d="M31198 44479
L31401 44479
" />
<path d="M31401 41879
L31198 41879
" />
<path d="M31401 41320
L31198 41320
" />
</g>
<g style="fill:#000000; fill-opacity:0.0; 
stroke:#000000; stroke-width:59.0551; stroke-opacity:1; 
stroke-linecap:round; stroke-linejoin:round;">
<path d="M30326 42687
L30513 42687
" />
<path d="M30119 42556
L30326 42687
L30119 42818
" />
<path d="M30513 43156
L30513 42931
" />
<path d="M30513 43043
L30119 43043
L30176 43006
L30213 42968
L30232 42931
" />
<path d="M44081 15305
L44212 15305
" />
<path d="M44212 15511
L44212 15117
L44024 15117
" />
<path d="M43668 15511
L43893 15511
" />
<path d="M43781 15511
L43781 15117
L43818 15174
L43856 15211
L43893 15230
" />
<path d="M40815 14927
L40946 14740
" />
<path d="M41040 14927
L41040 14534
L40890 14534
L40853 14552
L40834 14571
L40815 14608
L40815 14665
L40834 14702
L40853 14721
L40890 14740
L41040 14740
" />
<path d="M40478 14534
L40553 14534
L40590 14552
L40609 14571
L40646 14627
L40665 14702
L40665 14852
L40646 14890
L40628 14908
L40590 14927
L40515 14927
L40478 14908
L40459 14890
L40440 14852
L40440 14758
L40459 14721
L40478 14702
L40515 14683
L40590 14683
L40628 14702
L40646 14721
L40665 14758
" />
<path d="M37965 13077
L38096 12890
" />
<path d="M38190 13077
L38190 12684
L38040 12684
L38003 12702
L37984 12721
L37965 12758
L37965 12815
L37984 12852
L38003 12871
L38040 12890
L38190 12890
" />
<path d="M37609 12684
L37796 12684
L37815 12871
L37796 12852
L37759 12833
L37665 12833
L37628 12852
L37609 12871
L37590 12908
L37590 13002
L37609 13040
L37628 13058
L37665 13077
L37759 13077
L37796 13058
L37815 13040
" />
<path d="M40781 10115
L40781 10397
L40799 10453
L40837 10490
L40893 10509
L40931 10509
" />
<path d="M40387 10509
L40612 10509
" />
<path d="M40500 10509
L40500 10115
L40537 10172
L40575 10209
L40612 10228
" />
<path d="M37996 14709
L37603 14709
L37603 14803
L37621 14859
L37659 14896
L37696 14915
L37771 14934
L37828 14934
L37903 14915
L37940 14896
L37978 14859
L37996 14803
L37996 14709
" />
<path d="M37734 15271
L37996 15271
" />
<path d="M37584 15178
L37865 15084
L37865 15328
" />
<path d="M40317 42725
L40636 42725
L40673 42743
L40692 42762
L40711 42800
L40711 42875
L40692 42912
L40673 42931
L40636 42950
L40317 42950
" />
<path d="M40711 43343
L40711 43118
" />
<path d="M40711 43231
L40317 43231
L40373 43193
L40411 43156
L40429 43118
" />
<path d="M24909 42375
L24928 42431
L24928 42525
L24909 42562
L24890 42581
L24853 42600
L24815 42600
L24778 42581
L24759 42562
L24740 42525
L24721 42450
L24703 42412
L24684 42393
L24646 42375
L24609 42375
L24571 42393
L24553 42412
L24534 42450
L24534 42543
L24553 42600
" />
<path d="M24534 42731
L24928 42825
L24646 42900
L24928 42974
L24534 43068
" />
<path d="M24928 43424
L24928 43199
" />
<path d="M24928 43312
L24534 43312
L24590 43274
L24628 43237
L24646 43199
" />
<path d="M41315 39628
L41446 39441
" />
<path d="M41540 39628
L41540 39234
L41390 39234
L41353 39253
L41334 39272
L41315 39309
L41315 39366
L41334 39403
L41353 39422
L41390 39441
L41540 39441
" />
<path d="M40978 39366
L40978 39628
" />
<path d="M41071 39216
L41165 39497
L40921 39497
" />
<path d="M39902 14784
L39715 14653
" />
<path d="M39902 14559
L39509 14559
L39509 14709
L39527 14746
L39546 14765
L39583 14784
L39640 14784
L39677 14765
L39696 14746
L39715 14709
L39715 14559
" />
<path d="M39509 14915
L39509 15159
L39658 15028
L39658 15084
L39677 15121
L39696 15140
L39733 15159
L39827 15159
L39865 15140
L39883 15121
L39902 15084
L39902 14971
L39883 14934
L39865 14915
" />
<path d="M39077 14784
L38890 14653
" />
<path d="M39077 14559
L38684 14559
L38684 14709
L38702 14746
L38721 14765
L38758 14784
L38815 14784
L38852 14765
L38871 14746
L38890 14709
L38890 14559
" />
<path d="M38721 14934
L38702 14953
L38684 14990
L38684 15084
L38702 15121
L38721 15140
L38758 15159
L38796 15159
L38852 15140
L39077 14915
L39077 15159
" />
<path d="M28415 43678
L28546 43491
" />
<path d="M28640 43678
L28640 43284
L28490 43284
L28453 43303
L28434 43322
L28415 43359
L28415 43416
L28434 43453
L28453 43472
L28490 43491
L28640 43491
" />
<path d="M28040 43678
L28265 43678
" />
<path d="M28153 43678
L28153 43284
L28190 43341
L28228 43378
L28265 43397
" />
<path d="M103621 37021
L103228 37021
L103228 37115
L103246 37171
L103284 37209
L103321 37228
L103396 37246
L103453 37246
L103528 37228
L103565 37209
L103603 37171
L103621 37115
L103621 37021
" />
<path d="M103359 37584
L103621 37584
" />
<path d="M103209 37490
L103490 37396
L103490 37640
" />
<path d="M103265 37771
L103246 37790
L103228 37828
L103228 37921
L103246 37959
L103265 37978
L103303 37996
L103340 37996
L103396 37978
L103621 37753
L103621 37996
" />
<path d="M96121 37021
L95728 37021
L95728 37115
L95746 37171
L95784 37209
L95821 37228
L95896 37246
L95953 37246
L96028 37228
L96065 37209
L96103 37171
L96121 37115
L96121 37021
" />
<path d="M95859 37584
L96121 37584
" />
<path d="M95709 37490
L95990 37396
L95990 37640
" />
<path d="M96121 37996
L96121 37771
" />
<path d="M96121 37884
L95728 37884
L95784 37846
L95821 37809
L95840 37771
" />
<path d="M88621 37021
L88228 37021
L88228 37115
L88246 37171
L88284 37209
L88321 37228
L88396 37246
L88453 37246
L88528 37228
L88565 37209
L88603 37171
L88621 37115
L88621 37021
" />
<path d="M88359 37584
L88621 37584
" />
<path d="M88209 37490
L88490 37396
L88490 37640
" />
<path d="M88228 37865
L88228 37903
L88246 37940
L88265 37959
L88303 37978
L88378 37996
L88471 37996
L88546 37978
L88584 37959
L88603 37940
L88621 37903
L88621 37865
L88603 37828
L88584 37809
L88546 37790
L88471 37771
L88378 37771
L88303 37790
L88265 37809
L88246 37828
L88228 37865
" />
<path d="M81121 37021
L80728 37021
L80728 37115
L80746 37171
L80784 37209
L80821 37228
L80896 37246
L80953 37246
L81028 37228
L81065 37209
L81103 37171
L81121 37115
L81121 37021
" />
<path d="M80728 37378
L80728 37621
L80878 37490
L80878 37546
L80896 37584
L80915 37603
L80953 37621
L81046 37621
L81084 37603
L81103 37584
L81121 37546
L81121 37434
L81103 37396
L81084 37378
" />
<path d="M81121 37809
L81121 37884
L81103 37921
L81084 37940
L81028 37978
L80953 37996
L80803 37996
L80765 37978
L80746 37959
L80728 37921
L80728 37846
L80746 37809
L80765 37790
L80803 37771
L80896 37771
L80934 37790
L80953 37809
L80971 37846
L80971 37921
L80953 37959
L80934 37978
L80896 37996
" />
<path d="M73621 37021
L73228 37021
L73228 37115
L73246 37171
L73284 37209
L73321 37228
L73396 37246
L73453 37246
L73528 37228
L73565 37209
L73603 37171
L73621 37115
L73621 37021
" />
<path d="M73228 37378
L73228 37621
L73378 37490
L73378 37546
L73396 37584
L73415 37603
L73453 37621
L73546 37621
L73584 37603
L73603 37584
L73621 37546
L73621 37434
L73603 37396
L73584 37378
" />
<path d="M73396 37846
L73378 37809
L73359 37790
L73321 37771
L73303 37771
L73265 37790
L73246 37809
L73228 37846
L73228 37921
L73246 37959
L73265 37978
L73303 37996
L73321 37996
L73359 37978
L73378 37959
L73396 37921
L73396 37846
L73415 37809
L73434 37790
L73471 37771
L73546 37771
L73584 37790
L73603 37809
L73621 37846
L73621 37921
L73603 37959
L73584 37978
L73546 37996
L73471 37996
L73434 37978
L73415 37959
L73396 37921
" />
<path d="M101746 29521
L101353 29521
L101353 29615
L101371 29671
L101409 29709
L101446 29728
L101521 29746
L101578 29746
L101653 29728
L101690 29709
L101728 29671
L101746 29615
L101746 29521
" />
<path d="M101353 29878
L101353 30121
L101503 29990
L101503 30046
L101521 30084
L101540 30103
L101578 30121
L101671 30121
L101709 30103
L101728 30084
L101746 30046
L101746 29934
L101728 29896
L101709 29878
" />
<path d="M101353 30253
L101353 30515
L101746 30346
" />
<path d="M94246 29521
L93853 29521
L93853 29615
L93871 29671
L93909 29709
L93946 29728
L94021 29746
L94078 29746
L94153 29728
L94190 29709
L94228 29671
L94246 29615
L94246 29521
" />
<path d="M93853 29878
L93853 30121
L94003 29990
L94003 30046
L94021 30084
L94040 30103
L94078 30121
L94171 30121
L94209 30103
L94228 30084
L94246 30046
L94246 29934
L94228 29896
L94209 29878
" />
<path d="M93853 30459
L93853 30384
L93871 30346
L93890 30328
L93946 30290
L94021 30271
L94171 30271
L94209 30290
L94228 30309
L94246 30346
L94246 30421
L94228 30459
L94209 30478
L94171 30496
L94078 30496
L94040 30478
L94021 30459
L94003 30421
L94003 30346
L94021 30309
L94040 30290
L94078 30271
" />
<path d="M86746 29521
L86353 29521
L86353 29615
L86371 29671
L86409 29709
L86446 29728
L86521 29746
L86578 29746
L86653 29728
L86690 29709
L86728 29671
L86746 29615
L86746 29521
" />
<path d="M86353 29878
L86353 30121
L86503 29990
L86503 30046
L86521 30084
L86540 30103
L86578 30121
L86671 30121
L86709 30103
L86728 30084
L86746 30046
L86746 29934
L86728 29896
L86709 29878
" />
<path d="M86353 30478
L86353 30290
L86540 30271
L86521 30290
L86503 30328
L86503 30421
L86521 30459
L86540 30478
L86578 30496
L86671 30496
L86709 30478
L86728 30459
L86746 30421
L86746 30328
L86728 30290
L86709 30271
" />
<path d="M79246 29521
L78853 29521
L78853 29615
L78871 29671
L78909 29709
L78946 29728
L79021 29746
L79078 29746
L79153 29728
L79190 29709
L79228 29671
L79246 29615
L79246 29521
" />
<path d="M78853 29878
L78853 30121
L79003 29990
L79003 30046
L79021 30084
L79040 30103
L79078 30121
L79171 30121
L79209 30103
L79228 30084
L79246 30046
L79246 29934
L79228 29896
L79209 29878
" />
<path d="M78984 30459
L79246 30459
" />
<path d="M78834 30365
L79115 30271
L79115 30515
" />
<path d="M71746 29521
L71353 29521
L71353 29615
L71371 29671
L71409 29709
L71446 29728
L71521 29746
L71578 29746
L71653 29728
L71690 29709
L71728 29671
L71746 29615
L71746 29521
" />
<path d="M71353 29878
L71353 30121
L71503 29990
L71503 30046
L71521 30084
L71540 30103
L71578 30121
L71671 30121
L71709 30103
L71728 30084
L71746 30046
L71746 29934
L71728 29896
L71709 29878
" />
<path d="M71353 30253
L71353 30496
L71503 30365
L71503 30421
L71521 30459
L71540 30478
L71578 30496
L71671 30496
L71709 30478
L71728 30459
L71746 30421
L71746 30309
L71728 30271
L71709 30253
" />
<path d="M99871 22021
L99478 22021
L99478 22115
L99496 22171
L99534 22209
L99571 22228
L99646 22246
L99703 22246
L99778 22228
L99815 22209
L99853 22171
L99871 22115
L99871 22021
" />
<path d="M99478 22378
L99478 22621
L99628 22490
L99628 22546
L99646 22584
L99665 22603
L99703 22621
L99796 22621
L99834 22603
L99853 22584
L99871 22546
L99871 22434
L99853 22396
L99834 22378
" />
<path d="M99515 22771
L99496 22790
L99478 22828
L99478 22921
L99496 22959
L99515 22978
L99553 22996
L99590 22996
L99646 22978
L99871 22753
L99871 22996
" />
<path d="M92371 22021
L91978 22021
L91978 22115
L91996 22171
L92034 22209
L92071 22228
L92146 22246
L92203 22246
L92278 22228
L92315 22209
L92353 22171
L92371 22115
L92371 22021
" />
<path d="M91978 22378
L91978 22621
L92128 22490
L92128 22546
L92146 22584
L92165 22603
L92203 22621
L92296 22621
L92334 22603
L92353 22584
L92371 22546
L92371 22434
L92353 22396
L92334 22378
" />
<path d="M92371 22996
L92371 22771
" />
<path d="M92371 22884
L91978 22884
L92034 22846
L92071 22809
L92090 22771
" />
<path d="M84871 22021
L84478 22021
L84478 22115
L84496 22171
L84534 22209
L84571 22228
L84646 22246
L84703 22246
L84778 22228
L84815 22209
L84853 22171
L84871 22115
L84871 22021
" />
<path d="M84478 22378
L84478 22621
L84628 22490
L84628 22546
L84646 22584
L84665 22603
L84703 22621
L84796 22621
L84834 22603
L84853 22584
L84871 22546
L84871 22434
L84853 22396
L84834 22378
" />
<path d="M84478 22865
L84478 22903
L84496 22940
L84515 22959
L84553 22978
L84628 22996
L84721 22996
L84796 22978
L84834 22959
L84853 22940
L84871 22903
L84871 22865
L84853 22828
L84834 22809
L84796 22790
L84721 22771
L84628 22771
L84553 22790
L84515 22809
L84496 22828
L84478 22865
" />
<path d="M77371 22021
L76978 22021
L76978 22115
L76996 22171
L77034 22209
L77071 22228
L77146 22246
L77203 22246
L77278 22228
L77315 22209
L77353 22171
L77371 22115
L77371 22021
" />
<path d="M77015 22396
L76996 22415
L76978 22453
L76978 22546
L76996 22584
L77015 22603
L77053 22621
L77090 22621
L77146 22603
L77371 22378
L77371 22621
" />
<path d="M77371 22809
L77371 22884
L77353 22921
L77334 22940
L77278 22978
L77203 22996
L77053 22996
L77015 22978
L76996 22959
L76978 22921
L76978 22846
L76996 22809
L77015 22790
L77053 22771
L77146 22771
L77184 22790
L77203 22809
L77221 22846
L77221 22921
L77203 22959
L77184 22978
L77146 22996
" />
<path d="M69871 22021
L69478 22021
L69478 22115
L69496 22171
L69534 22209
L69571 22228
L69646 22246
L69703 22246
L69778 22228
L69815 22209
L69853 22171
L69871 22115
L69871 22021
" />
<path d="M69515 22396
L69496 22415
L69478 22453
L69478 22546
L69496 22584
L69515 22603
L69553 22621
L69590 22621
L69646 22603
L69871 22378
L69871 22621
" />
<path d="M69646 22846
L69628 22809
L69609 22790
L69571 22771
L69553 22771
L69515 22790
L69496 22809
L69478 22846
L69478 22921
L69496 22959
L69515 22978
L69553 22996
L69571 22996
L69609 22978
L69628 22959
L69646 22921
L69646 22846
L69665 22809
L69684 22790
L69721 22771
L69796 22771
L69834 22790
L69853 22809
L69871 22846
L69871 22921
L69853 22959
L69834 22978
L69796 22996
L69721 22996
L69684 22978
L69665 22959
L69646 22921
" />
<path d="M50165 39000
L50165 38606
L50072 38606
L50015 38625
L49978 38662
L49959 38700
L49940 38775
L49940 38831
L49959 38906
L49978 38943
L50015 38981
L50072 39000
L50165 39000
" />
<path d="M49790 38644
L49772 38625
L49734 38606
L49640 38606
L49603 38625
L49584 38644
L49565 38681
L49565 38719
L49584 38775
L49809 39000
L49565 39000
" />
<path d="M49434 38606
L49172 38606
L49340 39000
" />
<path d="M51121 37021
L50728 37021
L50728 37115
L50746 37171
L50784 37209
L50821 37228
L50896 37246
L50953 37246
L51028 37228
L51065 37209
L51103 37171
L51121 37115
L51121 37021
" />
<path d="M50765 37396
L50746 37415
L50728 37453
L50728 37546
L50746 37584
L50765 37603
L50803 37621
L50840 37621
L50896 37603
L51121 37378
L51121 37621
" />
<path d="M50728 37959
L50728 37884
L50746 37846
L50765 37828
L50821 37790
L50896 37771
L51046 37771
L51084 37790
L51103 37809
L51121 37846
L51121 37921
L51103 37959
L51084 37978
L51046 37996
L50953 37996
L50915 37978
L50896 37959
L50878 37921
L50878 37846
L50896 37809
L50915 37790
L50953 37771
" />
<path d="M43621 37021
L43228 37021
L43228 37115
L43246 37171
L43284 37209
L43321 37228
L43396 37246
L43453 37246
L43528 37228
L43565 37209
L43603 37171
L43621 37115
L43621 37021
" />
<path d="M43265 37396
L43246 37415
L43228 37453
L43228 37546
L43246 37584
L43265 37603
L43303 37621
L43340 37621
L43396 37603
L43621 37378
L43621 37621
" />
<path d="M43228 37978
L43228 37790
L43415 37771
L43396 37790
L43378 37828
L43378 37921
L43396 37959
L43415 37978
L43453 37996
L43546 37996
L43584 37978
L43603 37959
L43621 37921
L43621 37828
L43603 37790
L43584 37771
" />
<path d="M36121 37021
L35728 37021
L35728 37115
L35746 37171
L35784 37209
L35821 37228
L35896 37246
L35953 37246
L36028 37228
L36065 37209
L36103 37171
L36121 37115
L36121 37021
" />
<path d="M35765 37396
L35746 37415
L35728 37453
L35728 37546
L35746 37584
L35765 37603
L35803 37621
L35840 37621
L35896 37603
L36121 37378
L36121 37621
" />
<path d="M35859 37959
L36121 37959
" />
<path d="M35709 37865
L35990 37771
L35990 38015
" />
<path d="M28621 37021
L28228 37021
L28228 37115
L28246 37171
L28284 37209
L28321 37228
L28396 37246
L28453 37246
L28528 37228
L28565 37209
L28603 37171
L28621 37115
L28621 37021
" />
<path d="M28265 37396
L28246 37415
L28228 37453
L28228 37546
L28246 37584
L28265 37603
L28303 37621
L28340 37621
L28396 37603
L28621 37378
L28621 37621
" />
<path d="M28228 37753
L28228 37996
L28378 37865
L28378 37921
L28396 37959
L28415 37978
L28453 37996
L28546 37996
L28584 37978
L28603 37959
L28621 37921
L28621 37809
L28603 37771
L28584 37753
" />
<path d="M21121 37021
L20728 37021
L20728 37115
L20746 37171
L20784 37209
L20821 37228
L20896 37246
L20953 37246
L21028 37228
L21065 37209
L21103 37171
L21121 37115
L21121 37021
" />
<path d="M20765 37396
L20746 37415
L20728 37453
L20728 37546
L20746 37584
L20765 37603
L20803 37621
L20840 37621
L20896 37603
L21121 37378
L21121 37621
" />
<path d="M20765 37771
L20746 37790
L20728 37828
L20728 37921
L20746 37959
L20765 37978
L20803 37996
L20840 37996
L20896 37978
L21121 37753
L21121 37996
" />
<path d="M66121 37021
L65728 37021
L65728 37115
L65746 37171
L65784 37209
L65821 37228
L65896 37246
L65953 37246
L66028 37228
L66065 37209
L66103 37171
L66121 37115
L66121 37021
" />
<path d="M65765 37396
L65746 37415
L65728 37453
L65728 37546
L65746 37584
L65765 37603
L65803 37621
L65840 37621
L65896 37603
L66121 37378
L66121 37621
" />
<path d="M66121 37996
L66121 37771
" />
<path d="M66121 37884
L65728 37884
L65784 37846
L65821 37809
L65840 37771
" />
<path d="M58621 37021
L58228 37021
L58228 37115
L58246 37171
L58284 37209
L58321 37228
L58396 37246
L58453 37246
L58528 37228
L58565 37209
L58603 37171
L58621 37115
L58621 37021
" />
<path d="M58265 37396
L58246 37415
L58228 37453
L58228 37546
L58246 37584
L58265 37603
L58303 37621
L58340 37621
L58396 37603
L58621 37378
L58621 37621
" />
<path d="M58228 37865
L58228 37903
L58246 37940
L58265 37959
L58303 37978
L58378 37996
L58471 37996
L58546 37978
L58584 37959
L58603 37940
L58621 37903
L58621 37865
L58603 37828
L58584 37809
L58546 37790
L58471 37771
L58378 37771
L58303 37790
L58265 37809
L58246 37828
L58228 37865
" />
<path d="M49246 29521
L48853 29521
L48853 29615
L48871 29671
L48909 29709
L48946 29728
L49021 29746
L49078 29746
L49153 29728
L49190 29709
L49228 29671
L49246 29615
L49246 29521
" />
<path d="M49246 30121
L49246 29896
" />
<path d="M49246 30009
L48853 30009
L48909 29971
L48946 29934
L48965 29896
" />
<path d="M49246 30309
L49246 30384
L49228 30421
L49209 30440
L49153 30478
L49078 30496
L48928 30496
L48890 30478
L48871 30459
L48853 30421
L48853 30346
L48871 30309
L48890 30290
L48928 30271
L49021 30271
L49059 30290
L49078 30309
L49096 30346
L49096 30421
L49078 30459
L49059 30478
L49021 30496
" />
<path d="M41746 29521
L41353 29521
L41353 29615
L41371 29671
L41409 29709
L41446 29728
L41521 29746
L41578 29746
L41653 29728
L41690 29709
L41728 29671
L41746 29615
L41746 29521
" />
<path d="M41746 30121
L41746 29896
" />
<path d="M41746 30009
L41353 30009
L41409 29971
L41446 29934
L41465 29896
" />
<path d="M41521 30346
L41503 30309
L41484 30290
L41446 30271
L41428 30271
L41390 30290
L41371 30309
L41353 30346
L41353 30421
L41371 30459
L41390 30478
L41428 30496
L41446 30496
L41484 30478
L41503 30459
L41521 30421
L41521 30346
L41540 30309
L41559 30290
L41596 30271
L41671 30271
L41709 30290
L41728 30309
L41746 30346
L41746 30421
L41728 30459
L41709 30478
L41671 30496
L41596 30496
L41559 30478
L41540 30459
L41521 30421
" />
<path d="M34246 29521
L33853 29521
L33853 29615
L33871 29671
L33909 29709
L33946 29728
L34021 29746
L34078 29746
L34153 29728
L34190 29709
L34228 29671
L34246 29615
L34246 29521
" />
<path d="M34246 30121
L34246 29896
" />
<path d="M34246 30009
L33853 30009
L33909 29971
L33946 29934
L33965 29896
" />
<path d="M33853 30253
L33853 30515
L34246 30346
" />
<path d="M26746 29521
L26353 29521
L26353 29615
L26371 29671
L26409 29709
L26446 29728
L26521 29746
L26578 29746
L26653 29728
L26690 29709
L26728 29671
L26746 29615
L26746 29521
" />
<path d="M26746 30121
L26746 29896
" />
<path d="M26746 30009
L26353 30009
L26409 29971
L26446 29934
L26465 29896
" />
<path d="M26353 30459
L26353 30384
L26371 30346
L26390 30328
L26446 30290
L26521 30271
L26671 30271
L26709 30290
L26728 30309
L26746 30346
L26746 30421
L26728 30459
L26709 30478
L26671 30496
L26578 30496
L26540 30478
L26521 30459
L26503 30421
L26503 30346
L26521 30309
L26540 30290
L26578 30271
" />
<path d="M19246 29521
L18853 29521
L18853 29615
L18871 29671
L18909 29709
L18946 29728
L19021 29746
L19078 29746
L19153 29728
L19190 29709
L19228 29671
L19246 29615
L19246 29521
" />
<path d="M19246 30121
L19246 29896
" />
<path d="M19246 30009
L18853 30009
L18909 29971
L18946 29934
L18965 29896
" />
<path d="M18853 30478
L18853 30290
L19040 30271
L19021 30290
L19003 30328
L19003 30421
L19021 30459
L19040 30478
L19078 30496
L19171 30496
L19209 30478
L19228 30459
L19246 30421
L19246 30328
L19228 30290
L19209 30271
" />
<path d="M64246 29521
L63853 29521
L63853 29615
L63871 29671
L63909 29709
L63946 29728
L64021 29746
L64078 29746
L64153 29728
L64190 29709
L64228 29671
L64246 29615
L64246 29521
" />
<path d="M64246 30121
L64246 29896
" />
<path d="M64246 30009
L63853 30009
L63909 29971
L63946 29934
L63965 29896
" />
<path d="M63984 30459
L64246 30459
" />
<path d="M63834 30365
L64115 30271
L64115 30515
" />
<path d="M56746 29521
L56353 29521
L56353 29615
L56371 29671
L56409 29709
L56446 29728
L56521 29746
L56578 29746
L56653 29728
L56690 29709
L56728 29671
L56746 29615
L56746 29521
" />
<path d="M56746 30121
L56746 29896
" />
<path d="M56746 30009
L56353 30009
L56409 29971
L56446 29934
L56465 29896
" />
<path d="M56353 30253
L56353 30496
L56503 30365
L56503 30421
L56521 30459
L56540 30478
L56578 30496
L56671 30496
L56709 30478
L56728 30459
L56746 30421
L56746 30309
L56728 30271
L56709 30253
" />
<path d="M47371 22021
L46978 22021
L46978 22115
L46996 22171
L47034 22209
L47071 22228
L47146 22246
L47203 22246
L47278 22228
L47315 22209
L47353 22171
L47371 22115
L47371 22021
" />
<path d="M47371 22621
L47371 22396
" />
<path d="M47371 22509
L46978 22509
L47034 22471
L47071 22434
L47090 22396
" />
<path d="M47015 22771
L46996 22790
L46978 22828
L46978 22921
L46996 22959
L47015 22978
L47053 22996
L47090 22996
L47146 22978
L47371 22753
L47371 22996
" />
<path d="M39871 22021
L39478 22021
L39478 22115
L39496 22171
L39534 22209
L39571 22228
L39646 22246
L39703 22246
L39778 22228
L39815 22209
L39853 22171
L39871 22115
L39871 22021
" />
<path d="M39871 22621
L39871 22396
" />
<path d="M39871 22509
L39478 22509
L39534 22471
L39571 22434
L39590 22396
" />
<path d="M39871 22996
L39871 22771
" />
<path d="M39871 22884
L39478 22884
L39534 22846
L39571 22809
L39590 22771
" />
<path d="M32371 22021
L31978 22021
L31978 22115
L31996 22171
L32034 22209
L32071 22228
L32146 22246
L32203 22246
L32278 22228
L32315 22209
L32353 22171
L32371 22115
L32371 22021
" />
<path d="M32371 22621
L32371 22396
" />
<path d="M32371 22509
L31978 22509
L32034 22471
L32071 22434
L32090 22396
" />
<path d="M31978 22865
L31978 22903
L31996 22940
L32015 22959
L32053 22978
L32128 22996
L32221 22996
L32296 22978
L32334 22959
L32353 22940
L32371 22903
L32371 22865
L32353 22828
L32334 22809
L32296 22790
L32221 22771
L32128 22771
L32053 22790
L32015 22809
L31996 22828
L31978 22865
" />
<path d="M24871 22209
L24478 22209
L24478 22303
L24496 22359
L24534 22396
L24571 22415
L24646 22434
L24703 22434
L24778 22415
L24815 22396
L24853 22359
L24871 22303
L24871 22209
" />
<path d="M24871 22621
L24871 22696
L24853 22734
L24834 22753
L24778 22790
L24703 22809
L24553 22809
L24515 22790
L24496 22771
L24478 22734
L24478 22659
L24496 22621
L24515 22603
L24553 22584
L24646 22584
L24684 22603
L24703 22621
L24721 22659
L24721 22734
L24703 22771
L24684 22790
L24646 22809
" />
<path d="M17371 22209
L16978 22209
L16978 22303
L16996 22359
L17034 22396
L17071 22415
L17146 22434
L17203 22434
L17278 22415
L17315 22396
L17353 22359
L17371 22303
L17371 22209
" />
<path d="M17146 22659
L17128 22621
L17109 22603
L17071 22584
L17053 22584
L17015 22603
L16996 22621
L16978 22659
L16978 22734
L16996 22771
L17015 22790
L17053 22809
L17071 22809
L17109 22790
L17128 22771
L17146 22734
L17146 22659
L17165 22621
L17184 22603
L17221 22584
L17296 22584
L17334 22603
L17353 22621
L17371 22659
L17371 22734
L17353 22771
L17334 22790
L17296 22809
L17221 22809
L17184 22790
L17165 22771
L17146 22734
" />
<path d="M62371 22209
L61978 22209
L61978 22303
L61996 22359
L62034 22396
L62071 22415
L62146 22434
L62203 22434
L62278 22415
L62315 22396
L62353 22359
L62371 22303
L62371 22209
" />
<path d="M61978 22565
L61978 22828
L62371 22659
" />
<path d="M54871 22209
L54478 22209
L54478 22303
L54496 22359
L54534 22396
L54571 22415
L54646 22434
L54703 22434
L54778 22415
L54815 22396
L54853 22359
L54871 22303
L54871 22209
" />
<path d="M54478 22771
L54478 22696
L54496 22659
L54515 22640
L54571 22603
L54646 22584
L54796 22584
L54834 22603
L54853 22621
L54871 22659
L54871 22734
L54853 22771
L54834 22790
L54796 22809
L54703 22809
L54665 22790
L54646 22771
L54628 22734
L54628 22659
L54646 22621
L54665 22603
L54703 22584
" />
<path d="M40640 18215
L40640 17821
L40546 17821
L40490 17840
L40453 17878
L40434 17915
L40415 17990
L40415 18046
L40434 18121
L40453 18159
L40490 18196
L40546 18215
L40640 18215
" />
<path d="M40059 17821
L40246 17821
L40265 18009
L40246 17990
L40209 17971
L40115 17971
L40078 17990
L40059 18009
L40040 18046
L40040 18140
L40059 18178
L40078 18196
L40115 18215
L40209 18215
L40246 18196
L40265 18178
" />
<path d="M30496 14709
L30103 14709
L30103 14803
L30121 14859
L30159 14896
L30196 14915
L30271 14934
L30328 14934
L30403 14915
L30440 14896
L30478 14859
L30496 14803
L30496 14709
" />
<path d="M30103 15065
L30103 15309
L30253 15178
L30253 15234
L30271 15271
L30290 15290
L30328 15309
L30421 15309
L30459 15290
L30478 15271
L30496 15234
L30496 15121
L30478 15084
L30459 15065
" />
<path d="M22996 14709
L22603 14709
L22603 14803
L22621 14859
L22659 14896
L22696 14915
L22771 14934
L22828 14934
L22903 14915
L22940 14896
L22978 14859
L22996 14803
L22996 14709
" />
<path d="M22640 15084
L22621 15103
L22603 15140
L22603 15234
L22621 15271
L22640 15290
L22678 15309
L22715 15309
L22771 15290
L22996 15065
L22996 15309
" />
<path d="M15496 14709
L15103 14709
L15103 14803
L15121 14859
L15159 14896
L15196 14915
L15271 14934
L15328 14934
L15403 14915
L15440 14896
L15478 14859
L15496 14803
L15496 14709
" />
<path d="M15496 15309
L15496 15084
" />
<path d="M15496 15196
L15103 15196
L15159 15159
L15196 15121
L15215 15084
" />
<path d="M41740 44734
L41758 44715
L41777 44659
L41777 44621
L41758 44565
L41721 44528
L41683 44509
L41608 44490
L41552 44490
L41477 44509
L41440 44528
L41402 44565
L41384 44621
L41384 44659
L41402 44715
L41421 44734
" />
<path d="M41384 44865
L41384 45128
L41777 44959
" />
<path d="M35690 39100
L35709 39119
L35765 39138
L35803 39138
L35859 39119
L35896 39081
L35915 39044
L35934 38969
L35934 38913
L35915 38838
L35896 38800
L35859 38763
L35803 38744
L35765 38744
L35709 38763
L35690 38781
" />
<path d="M35353 38744
L35428 38744
L35465 38763
L35484 38781
L35522 38838
L35540 38913
L35540 39063
L35522 39100
L35503 39119
L35465 39138
L35390 39138
L35353 39119
L35334 39100
L35315 39063
L35315 38969
L35334 38931
L35353 38913
L35390 38894
L35465 38894
L35503 38913
L35522 38931
L35540 38969
" />
<path d="M35340 44034
L35358 44015
L35377 43959
L35377 43921
L35358 43865
L35321 43828
L35283 43809
L35208 43790
L35152 43790
L35077 43809
L35040 43828
L35002 43865
L34984 43921
L34984 43959
L35002 44015
L35021 44034
" />
<path d="M34984 44390
L34984 44203
L35171 44184
L35152 44203
L35133 44240
L35133 44334
L35152 44371
L35171 44390
L35208 44409
L35302 44409
L35340 44390
L35358 44371
L35377 44334
L35377 44240
L35358 44203
L35340 44184
" />
<path d="M40641 41184
L40659 41165
L40678 41109
L40678 41071
L40659 41015
L40622 40978
L40584 40959
L40509 40940
L40453 40940
L40378 40959
L40341 40978
L40303 41015
L40284 41071
L40284 41109
L40303 41165
L40322 41184
" />
<path d="M40416 41521
L40678 41521
" />
<path d="M40266 41428
L40547 41334
L40547 41578
" />
<path d="M37865 46990
L37884 47008
L37940 47027
L37978 47027
L38034 47008
L38071 46971
L38090 46933
L38109 46858
L38109 46802
L38090 46727
L38071 46690
L38034 46652
L37978 46634
L37940 46634
L37884 46652
L37865 46671
" />
<path d="M37734 46634
L37490 46634
L37621 46783
L37565 46783
L37528 46802
L37509 46821
L37490 46858
L37490 46952
L37509 46990
L37528 47008
L37565 47027
L37678 47027
L37715 47008
L37734 46990
" />
<path d="M31365 44990
L31384 45008
L31440 45027
L31478 45027
L31534 45008
L31571 44971
L31590 44933
L31609 44858
L31609 44802
L31590 44727
L31571 44690
L31534 44652
L31478 44634
L31440 44634
L31384 44652
L31365 44671
" />
<path d="M31215 44671
L31196 44652
L31159 44634
L31065 44634
L31028 44652
L31009 44671
L30990 44708
L30990 44746
L31009 44802
L31234 45027
L30990 45027
" />
<path d="M31365 41091
L31384 41109
L31440 41128
L31478 41128
L31534 41109
L31571 41072
L31590 41034
L31609 40959
L31609 40903
L31590 40828
L31571 40791
L31534 40753
L31478 40734
L31440 40734
L31384 40753
L31365 40772
" />
<path d="M30990 41128
L31215 41128
" />
<path d="M31103 41128
L31103 40734
L31140 40791
L31178 40828
L31215 40847
" />
<g >
</g>
</g> 
</svg>
