<?xml version="1.0" standalone="no"?>
 <!DOCTYPE svg PUBLIC "-//W3C//DTD SVG 1.1//EN" 
 "http://www.w3.org/Graphics/SVG/1.1/DTD/svg11.dtd"> 
<svg xmlns="http://www.w3.org/2000/svg" version="1.1" 
    width="29.7002cm" height="21.0007cm" viewBox="0 0 116930 82680 ">
<title>SVG Picture created as stag42-F_SilkS.svg date 2021/07/30 18:52:46 </title>
  <desc>Picture generated by PCBNEW </desc>
<g style="fill:#000000; fill-opacity:1;stroke:#000000; stroke-opacity:1;
stroke-linecap:round; stroke-linejoin:round; "
 transform="translate(0 0) scale(1 1)">
</g>
<g style="fill:#000000; fill-opacity:0.0; 
stroke:#000000; stroke-width:-0.000393701; stroke-opacity:1; 
stroke-linecap:round; stroke-linejoin:round;">
</g>
<g style="fill:#000000; fill-opacity:0.0; 
stroke:#000000; stroke-width:47.2441; stroke-opacity:1; 
stroke-linecap:round; stroke-linejoin:round;">
<path d="M46640.8 10546.9 A937.5 937.5 0.0 0 0 45703.5 9609.42 " />
<path d="M10546.9 9609.42 A937.5 937.5 0.0 0 0 9609.42 10546.9 " />
<path d="M9609.42 15703.2 A937.5 937.5 0.0 0 0 10546.9 16640.7 " />
<path d="M11484.4 17578.2 A937.5 937.5 0.0 0 0 10546.9 16640.7 " />
<path d="M11484.4 23203.1 A937.5 937.5 0.0 0 0 12421.9 24140.6 " />
<path d="M13359.4 25078.1 A937.5 937.5 0.0 0 0 12421.9 24140.6 " />
<path d="M13359.4 30703.3 A937.5 937.5 0.0 0 0 14296.9 31640.8 " />
<path d="M15234.4 32578.3 A937.5 937.5 0.0 0 0 14296.9 31640.8 " />
<path d="M15234.4 38203.3 A937.5 937.5 0.0 0 0 16171.9 39140.8 " />
<path d="M24609.5 40078.3 A937.5 937.5 0.0 0 0 23672 39140.8 " />
<path d="M24609.5 45703.3 A937.5 937.5 0.0 0 0 25547 46640.8 " />
<path d="M70078.4 46640.8 A937.5 937.5 0.0 0 0 71015.9 45703.3 " />
<path d="M71953.4 39140.8 A937.5 937.5 0.0 0 0 71015.9 40078.3 " />
<path d="M103829 39140.8 A937.5 937.5 0.0 0 0 104766 38203.3 " />
<path d="M104766 33047 A937.5 937.5 0.0 0 0 103829 32109.5 " />
<path d="M102891 31172 A937.5 937.5 0.0 0 0 103829 32109.5 " />
<path d="M102891 25547 A937.5 937.5 0.0 0 0 101954 24609.5 " />
<path d="M101016 23672 A937.5 937.5 0.0 0 0 101954 24609.5 " />
<path d="M101016 18047 A937.5 937.5 0.0 0 0 100079 17109.5 " />
<path d="M46640.8 16171.9 A937.5 937.5 0.0 0 0 47578.3 17109.4 " />
<path d="M45703 9609
L10546 9609
" />
<path d="M9609 10546
L9609 15703
" />
<path d="M11484 17578
L11484 23203
" />
<path d="M13359 25078
L13359 30703
" />
<path d="M15234 32578
L15234 38203
" />
<path d="M16171 39140
L23671 39140
" />
<path d="M24609 40078
L24609 45703
" />
<path d="M25546 46640
L70078 46640
" />
<path d="M71953 39140
L103828 39140
" />
<path d="M104766 38203
L104766 33047
" />
<path d="M102891 31172
L102891 25546
" />
<path d="M101016 23671
L101016 18046
" />
<path d="M100078 17109
L47578 17109
" />
<path d="M46640 16171
L46640 10546
" />
<path d="M71015 40078
L71015 45703
" />
<path d="M9609.42 15703.2 A937.5 937.5 0.0 0 0 10546.9 16640.7 " />
<path d="M71015 40078
L71015 45703
" />
<path d="M46640 16171
L46640 10546
" />
<path d="M100078 17109
L47578 17109
" />
<path d="M101016 23671
L101016 18046
" />
<path d="M102891 31172
L102891 25546
" />
<path d="M104766 38203
L104766 33047
" />
<path d="M71953 39140
L103828 39140
" />
<path d="M25546 46640
L70078 46640
" />
<path d="M24609 40078
L24609 45703
" />
<path d="M16171 39140
L23671 39140
" />
<path d="M15234 32578
L15234 38203
" />
<path d="M13359 25078
L13359 30703
" />
<path d="M11484 17578
L11484 23203
" />
<path d="M9609 10546
L9609 15703
" />
<path d="M45703 9609
L10546 9609
" />
<path d="M46640.8 16171.9 A937.5 937.5 0.0 0 0 47578.3 17109.4 " />
<path d="M101016 18047 A937.5 937.5 0.0 0 0 100079 17109.5 " />
<path d="M101016 23672 A937.5 937.5 0.0 0 0 101954 24609.5 " />
<path d="M102891 25547 A937.5 937.5 0.0 0 0 101954 24609.5 " />
<path d="M102891 31172 A937.5 937.5 0.0 0 0 103829 32109.5 " />
<path d="M104766 33047 A937.5 937.5 0.0 0 0 103829 32109.5 " />
<path d="M103829 39140.8 A937.5 937.5 0.0 0 0 104766 38203.3 " />
<path d="M71953.4 39140.8 A937.5 937.5 0.0 0 0 71015.9 40078.3 " />
<path d="M70078.4 46640.8 A937.5 937.5 0.0 0 0 71015.9 45703.3 " />
<path d="M24609.5 45703.3 A937.5 937.5 0.0 0 0 25547 46640.8 " />
<path d="M24609.5 40078.3 A937.5 937.5 0.0 0 0 23672 39140.8 " />
<path d="M15234.4 38203.3 A937.5 937.5 0.0 0 0 16171.9 39140.8 " />
<path d="M15234.4 32578.3 A937.5 937.5 0.0 0 0 14296.9 31640.8 " />
<path d="M13359.4 30703.3 A937.5 937.5 0.0 0 0 14296.9 31640.8 " />
<path d="M13359.4 25078.1 A937.5 937.5 0.0 0 0 12421.9 24140.6 " />
<path d="M11484.4 23203.1 A937.5 937.5 0.0 0 0 12421.9 24140.6 " />
<path d="M11484.4 17578.2 A937.5 937.5 0.0 0 0 10546.9 16640.7 " />
<path d="M10546.9 9609.42 A937.5 937.5 0.0 0 0 9609.42 10546.9 " />
<path d="M46640.8 10546.9 A937.5 937.5 0.0 0 0 45703.5 9609.42 " />
</g>
<g style="fill:#000000; fill-opacity:1.0; 
stroke:#000000; stroke-width:3.93701; stroke-opacity:1; 
stroke-linecap:round; stroke-linejoin:round;">
<path style="fill:#000000; fill-opacity:1.0; 
stroke:#000000; stroke-width:3.93701; stroke-opacity:1; 
stroke-linecap:round; stroke-linejoin:round;fill-rule:evenodd;"
d="M 17950,26174
18101,26177
17618,26667
17509,26777
17414,26872
17334,26952
17267,27018
17214,27070
17174,27107
17147,27130
17132,27140
17130,27140
17126,27124
17120,27091
17113,27046
17104,26992
17101,26970
17086,26848
17082,26743
17089,26651
17107,26569
17137,26495
17181,26426
17238,26359
17242,26355
17321,26285
17410,26233
17445,26218
17497,26202
17568,26190
17656,26181
17758,26175
17873,26173
17950,26174
Z" /> 
<path style="fill:#000000; fill-opacity:1.0; 
stroke:#000000; stroke-width:3.93701; stroke-opacity:1; 
stroke-linecap:round; stroke-linejoin:round;fill-rule:evenodd;"
d="M 29185,4833
29735,4858
30432,4909
31126,4980
31816,5072
32501,5185
33182,5319
33858,5473
34528,5647
35192,5841
35850,6055
36501,6289
37145,6543
37782,6817
38411,7110
39031,7423
39643,7754
40246,8105
40761,8425
41279,8766
41794,9126
42301,9502
42798,9891
43281,10290
43532,10506
43827,10769
44126,11048
44428,11337
44727,11635
45021,11936
45305,12237
45575,12534
45693,12667
46142,13196
46576,13739
46993,14294
47392,14862
47775,15441
48140,16031
48486,16631
48815,17242
49124,17861
49415,18490
49686,19126
49868,19588
50107,20241
50325,20901
50523,21566
50700,22236
50857,22912
50994,23592
51110,24276
51205,24963
51280,25654
51334,26347
51367,27042
51379,27739
51371,28437
51341,29136
51290,29836
51266,30097
51187,30784
51088,31468
50968,32149
50827,32826
50666,33498
50485,34166
50284,34827
50063,35482
49822,36129
49562,36769
49283,37401
48986,38023
48706,38565
48374,39167
48024,39760
47656,40342
47271,40913
46871,41471
46454,42016
46024,42546
45613,43023
45295,43373
44964,43724
44625,44070
44281,44407
43937,44730
43767,44885
43241,45344
42701,45787
42149,46213
41584,46622
41007,47014
40419,47388
39820,47744
39209,48082
38589,48402
37958,48702
37410,48945
36771,49207
36125,49449
35471,49671
34810,49873
34143,50055
33469,50217
32791,50359
32107,50481
31419,50582
30727,50662
30032,50722
29735,50741
29507,50752
29263,50762
29009,50769
28749,50774
28489,50777
28231,50777
27982,50775
27746,50771
27596,50766
26896,50731
26199,50676
25506,50599
24817,50502
24133,50384
23454,50246
22780,50087
22112,49908
21451,49710
20795,49491
20147,49252
19505,48994
18871,48716
18245,48419
17628,48102
17019,47766
16419,47411
15828,47037
15660,46926
15269,46660
14889,46390
14517,46114
14152,45830
13788,45536
13424,45228
13056,44906
12798,44672
12692,44573
12573,44460
12445,44336
12310,44202
12169,44062
12027,43917
11883,43770
11742,43623
11604,43479
11474,43340
11351,43207
11240,43084
11218,43060
10764,42534
10327,41995
9906,41444
9504,40881
9118,40307
8751,39722
8401,39126
8070,38520
7757,37905
7462,37281
7187,36649
6930,36008
6694,35362
13115,35362
13128,35456
13159,35546
13207,35628
13269,35700
13343,35760
13429,35805
13491,35825
13517,35830
13563,35834
13629,35839
13713,35843
13814,35849
13932,35854
14066,35860
14214,35865
14375,35871
14549,35877
14735,35884
14931,35890
15137,35896
15352,35902
15575,35909
15805,35915
16040,35921
16280,35928
16525,35934
16772,35940
17021,35946
17272,35951
17522,35957
17772,35962
18020,35967
18265,35972
18506,35977
18742,35981
18973,35985
19197,35988
19414,35991
19622,35994
19821,35997
20009,35999
20185,36000
20350,36001
20500,36001
20543,36001
21054,36001
23415,36711
23633,36776
23846,36840
24052,36902
24251,36962
24442,37019
24624,37074
24796,37126
24957,37174
25107,37219
25244,37260
25368,37298
25477,37330
25571,37359
25648,37382
25709,37401
25752,37414
25776,37421
25781,37422
25777,37432
25764,37453
25752,37470
25712,37540
25684,37623
25668,37711
25667,37798
25675,37851
25705,37943
25753,38028
25816,38103
25891,38165
25976,38211
26032,38231
26101,38242
26186,38245
26285,38239
26395,38226
26516,38206
26642,38179
26773,38145
26906,38106
27038,38062
27167,38014
27256,37976
27468,37873
27669,37757
27862,37625
28049,37476
28232,37308
28272,37268
28451,37077
28617,36874
28773,36656
28919,36423
29055,36173
29183,35905
29248,35757
29304,35614
29362,35455
29418,35286
29472,35111
29522,34935
29567,34764
29604,34604
29613,34560
29623,34513
29631,34475
29637,34449
29639,34441
29649,34441
29678,34444
29723,34450
29780,34456
29848,34465
29924,34474
29932,34475
30021,34486
30115,34496
30208,34506
30295,34514
30370,34519
30411,34522
30686,34525
30959,34508
31227,34471
31490,34414
31747,34339
31997,34245
32239,34133
32473,34004
32696,33858
32909,33697
33110,33519
33298,33327
33472,33121
33632,32900
33776,32666
33868,32493
33977,32252
34068,32005
34141,31750
34198,31484
34226,31304
34233,31231
34239,31142
34243,31041
34245,30932
34245,30821
34243,30711
34240,30607
34235,30515
34228,30437
34226,30422
34211,30324
34194,30221
34174,30118
34154,30023
34134,29943
34132,29938
34110,29857
34085,29774
34060,29692
34034,29613
34010,29542
33989,29482
33971,29436
33960,29412
33905,29330
33836,29262
33756,29209
33666,29173
33571,29153
33473,29153
33395,29167
33304,29201
33222,29252
33152,29317
33095,29394
33054,29479
33029,29571
33023,29666
33027,29712
33033,29743
33045,29790
33060,29846
33078,29908
33091,29949
33135,30096
33171,30229
33199,30352
33219,30470
33234,30588
33244,30709
33247,30776
33245,31002
33223,31229
33182,31454
33122,31676
33044,31891
32968,32057
32858,32252
32730,32440
32586,32618
32428,32784
32258,32935
32078,33070
32008,33115
31815,33226
31608,33321
31391,33400
31168,33462
31020,33493
30976,33500
30935,33506
30895,33510
30850,33513
30798,33515
30734,33516
30655,33517
30591,33517
30298,33517
28165,33248
27952,33221
27743,33195
27539,33169
27341,33144
27151,33120
26969,33097
26797,33075
26636,33054
26486,33035
26350,33018
26227,33002
26120,32988
26029,32976
25955,32966
25900,32959
25865,32954
25857,32953
25417,32875
24985,32780
24558,32665
24224,32561
24155,32538
24091,32517
24032,32497
23976,32477
23923,32458
23870,32438
23816,32417
23762,32394
23704,32369
23642,32342
23575,32311
23502,32276
23422,32236
23332,32192
23232,32142
23122,32086
22999,32023
22862,31953
22710,31875
22543,31788
22358,31693
22279,31652
22121,31571
21967,31492
21819,31415
21677,31343
21543,31274
21417,31210
21302,31151
21197,31098
21105,31052
21027,31013
20963,30981
20915,30958
20884,30943
20873,30939
20748,30895
20612,30855
20476,30822
20394,30805
20359,30798
20305,30785
20235,30768
20152,30747
20057,30723
19954,30697
19843,30668
19728,30638
19623,30610
19507,30579
19395,30549
19289,30521
19190,30496
19101,30473
19025,30454
18962,30439
18916,30428
18889,30423
18691,30378
18502,30316
18324,30235
18157,30137
18001,30023
17859,29893
17731,29747
17618,29588
17523,29420
17466,29305
17395,28849
17324,28394
17636,28077
17688,28024
17754,27958
17831,27879
17919,27790
18015,27692
18119,27586
18228,27476
18341,27361
18457,27243
18573,27125
18664,27033
27953,27033
27963,27147
27992,27253
28039,27351
28102,27437
28180,27511
28271,27571
28374,27616
28471,27640
28489,27641
28527,27642
28583,27643
28655,27644
28742,27645
28841,27646
28951,27646
29071,27647
29198,27647
29331,27647
29389,27647
29545,27646
29681,27646
29799,27646
29900,27645
29985,27645
30057,27644
30116,27643
30164,27642
30203,27641
30234,27639
30258,27637
30277,27634
30292,27631
30305,27628
30317,27624
30325,27621
30430,27575
30522,27515
30600,27442
30663,27359
30711,27267
30742,27169
30756,27067
30753,26964
30730,26860
30689,26759
30652,26696
30583,26611
30499,26539
30405,26484
30303,26446
30291,26443
30266,26440
30222,26437
30161,26435
30085,26432
29996,26430
29896,26429
29786,26427
29670,26426
29548,26426
29423,26425
29297,26425
29172,26426
29050,26426
28933,26427
28822,26429
28721,26430
28630,26432
28553,26434
28490,26437
28444,26440
28417,26443
28415,26443
28320,26476
28233,26524
28152,26590
28133,26608
28059,26696
28004,26789
27969,26889
27954,26996
27953,27033
18664,27033
18689,27007
18733,26962
19519,26163
19670,26157
19693,26157
19738,26156
19801,26155
19883,26154
19982,26152
20098,26151
20230,26149
20376,26147
20536,26146
20708,26144
20892,26142
21087,26139
21292,26137
21506,26135
21727,26133
21956,26130
22190,26128
22430,26126
22559,26124
22801,26122
23038,26119
23270,26117
23495,26115
23712,26112
23921,26110
24121,26107
24310,26105
24488,26103
24654,26101
24807,26098
24945,26096
25069,26095
25176,26093
25267,26091
25339,26090
25393,26088
25427,26087
25437,26087
25559,26073
25682,26049
25809,26015
25943,25970
26086,25913
26241,25843
26309,25810
26379,25776
26447,25741
26517,25704
26589,25665
26665,25622
26748,25575
26839,25521
26940,25461
27053,25393
27179,25316
27322,25229
27352,25211
27534,25099
27700,25000
27851,24911
27987,24832
28109,24764
28220,24705
28318,24654
28407,24612
28486,24578
28557,24550
28564,24548
28650,24518
31441,24512
31710,24614
31781,24641
31845,24665
31900,24686
31943,24703
31971,24714
31982,24719
31982,24719
31979,24729
31968,24752
31959,24769
31925,24846
31906,24926
31901,25016
31902,25040
31906,25093
31912,25133
31924,25169
31942,25211
31945,25216
31990,25296
32042,25360
32105,25413
32117,25421
32205,25468
32300,25496
32396,25507
32492,25498
32584,25471
32596,25465
32611,25457
32642,25438
32689,25409
32751,25369
32828,25320
32918,25263
33021,25198
33135,25125
33260,25045
33395,24958
33539,24866
33691,24768
33850,24666
34015,24560
34185,24450
34360,24337
34384,24322
36118,23204
36121,23387
36119,23597
36108,23817
36087,24039
36058,24254
36027,24427
35975,24652
35911,24859
35837,25048
35753,25220
35657,25374
35552,25509
35435,25627
35309,25725
35173,25806
35026,25868
35011,25873
34870,25910
34712,25935
34538,25946
34348,25944
34233,25938
34153,25932
34091,25930
34043,25930
34005,25932
33985,25935
33892,25963
33807,26008
33734,26068
33673,26140
33626,26222
33595,26311
33582,26405
33587,26502
33597,26549
33631,26640
33682,26724
33747,26796
33824,26854
33860,26873
33903,26891
33948,26906
34000,26918
34059,26927
34129,26934
34212,26938
34311,26941
34428,26942
34463,26942
34563,26942
34645,26942
34712,26940
34768,26938
34815,26934
34859,26929
34897,26924
35053,26894
35205,26857
35349,26814
35479,26765
35524,26746
35591,26716
35634,26752
35779,26881
35928,27028
36079,27192
36231,27369
36381,27559
36529,27758
36673,27966
36810,28179
36905,28337
36955,28424
37011,28527
37071,28640
37133,28758
37193,28878
37250,28994
37301,29101
37331,29167
37498,29565
37650,29977
37786,30402
37905,30839
38008,31289
38095,31751
38165,32225
38219,32709
38256,33204
38277,33710
38281,34225
38268,34750
38245,35193
38199,35764
38134,36345
38052,36934
37951,37532
37832,38140
37695,38757
37539,39384
37366,40020
37173,40666
36963,41323
36734,41989
36486,42665
36308,43129
36279,43205
36256,43264
36240,43311
36228,43347
36220,43378
36215,43405
36212,43433
36211,43465
36210,43470
36209,43524
36211,43566
36218,43603
36229,43640
36271,43734
36328,43815
36398,43882
36479,43935
36568,43970
36663,43988
36762,43986
36806,43979
36896,43951
36980,43904
37055,43844
37117,43772
37151,43713
37163,43685
37182,43640
37207,43579
37237,43504
37270,43420
37306,43326
37345,43227
37384,43123
37424,43018
37463,42914
37501,42813
37537,42717
37569,42629
37575,42613
37791,42002
37992,41401
38177,40811
38299,40401
38480,39742
38644,39094
38788,38457
38914,37829
39022,37211
39111,36602
39182,36004
39234,35414
39267,34835
39282,34264
39279,33703
39257,33150
39245,32959
39202,32461
39143,31972
39067,31492
38976,31022
38868,30563
38745,30116
38607,29680
38453,29256
38284,28845
38100,28448
37901,28065
37688,27696
37461,27342
37347,27179
37201,26980
37059,26798
36915,26626
36767,26460
36609,26296
36573,26259
36389,26075
36459,25977
36579,25793
36689,25592
36786,25375
36872,25142
36946,24896
37007,24637
37056,24366
37059,24344
37074,24236
37086,24135
37096,24036
37104,23936
37110,23830
37115,23714
37118,23584
37120,23478
37121,23195
37114,22931
37100,22687
37079,22462
37054,22273
37028,22170
36986,22078
36930,21998
36862,21932
36784,21881
36698,21846
36606,21827
36509,21828
36411,21848
36373,21861
36359,21868
36327,21887
36280,21916
36217,21955
36141,22004
36051,22060
35949,22125
35835,22198
35711,22277
35577,22363
35434,22454
35284,22550
35127,22651
34964,22756
34795,22865
34665,22948
34495,23059
34329,23166
34168,23269
34014,23368
33867,23463
33729,23551
33600,23635
33481,23711
33372,23780
33276,23842
33192,23896
33122,23940
33066,23976
33026,24001
33002,24016
32995,24020
32983,24017
32952,24007
32905,23990
32843,23968
32768,23941
32681,23909
32585,23873
32480,23834
32369,23792
32314,23771
31650,23518
31002,23515
30355,23511
30360,23201
30362,23093
30365,23003
30369,22927
30376,22860
30384,22801
30396,22744
30411,22685
30430,22623
30447,22569
30516,22395
30603,22230
30707,22074
30827,21930
30960,21799
31106,21682
31262,21581
31428,21496
31601,21431
31673,21410
31692,21405
31709,21400
31724,21395
31738,21391
31753,21387
31768,21383
31784,21380
31802,21376
31822,21373
31845,21371
31873,21368
31904,21366
31941,21363
31983,21361
32032,21360
32087,21358
32150,21356
32221,21355
32301,21354
32391,21353
32490,21351
32601,21351
32723,21350
32856,21349
33003,21348
33163,21348
33336,21347
33525,21347
33728,21346
33948,21346
34183,21345
34436,21345
34707,21344
34996,21344
35305,21344
35633,21343
35981,21343
36160,21342
36519,21342
36857,21341
37176,21341
37475,21340
37755,21340
38018,21340
38262,21339
38491,21339
38703,21338
38899,21338
39081,21337
39249,21337
39403,21336
39545,21335
39674,21335
39792,21334
39899,21333
39995,21331
40082,21330
40160,21329
40230,21327
40292,21325
40347,21324
40396,21321
40439,21319
40477,21317
40510,21314
40540,21311
40567,21308
40591,21305
40613,21301
40635,21297
40655,21293
40676,21288
40698,21283
40721,21278
40746,21273
40772,21268
41029,21206
41284,21123
41534,21022
41776,20902
42009,20766
42155,20667
42324,20539
42490,20396
42650,20242
42800,20082
42935,19919
43008,19819
43165,19580
43302,19334
43418,19081
43515,18820
43591,18553
43632,18363
43645,18293
43656,18229
43665,18168
43673,18107
43679,18045
43683,17978
43687,17904
43689,17820
43691,17723
43691,17612
43692,17483
43692,17427
43692,17308
43692,17208
43692,17125
43691,17057
43690,17002
43689,16959
43687,16925
43685,16898
43682,16876
43678,16858
43673,16840
43668,16822
43667,16821
43624,16713
43563,16615
43487,16528
43399,16456
43300,16401
43298,16400
43214,16371
43120,16352
43027,16344
42982,16346
42898,16359
42811,16383
42728,16416
42663,16452
42594,16507
42528,16574
42471,16648
42440,16700
42424,16730
42410,16758
42399,16785
42389,16813
42382,16843
42376,16879
42371,16922
42367,16975
42364,17038
42362,17115
42360,17207
42359,17317
42357,17432
42355,17560
42353,17668
42351,17760
42349,17838
42346,17904
42342,17960
42338,18010
42332,18055
42325,18097
42317,18140
42306,18185
42294,18235
42292,18246
42230,18453
42149,18652
42050,18841
41935,19021
41804,19189
41659,19344
41501,19486
41330,19614
41149,19725
40958,19819
40758,19895
40573,19947
40524,19958
40479,19968
40436,19976
40393,19983
40349,19989
40300,19994
40245,19998
40183,20001
40110,20003
40024,20005
39925,20007
39809,20008
39675,20009
39609,20009
38963,20014
38969,17964
38998,17904
39034,17848
39083,17794
39138,17746
39195,17712
39212,17705
39243,17696
39284,17688
39336,17681
39405,17676
39449,17673
39568,17664
39672,17652
39768,17637
39861,17616
39953,17592
40148,17525
40336,17439
40514,17335
40682,17214
40838,17078
40981,16928
41108,16764
41219,16589
41269,16495
41354,16304
41418,16106
41462,15905
41485,15702
41489,15597
41489,15531
41488,15481
41485,15442
41480,15409
41472,15377
41465,15353
41420,15243
41357,15144
41285,15064
41225,15011
41169,14972
41109,14940
41037,14912
41031,14910
40987,14896
40948,14887
40906,14883
40853,14881
40830,14881
40756,14882
40697,14888
40650,14899
40542,14942
40443,15000
40357,15073
40284,15158
40231,15248
40208,15298
40191,15343
40179,15387
40169,15436
40162,15495
40156,15570
40155,15572
40147,15656
40136,15725
40121,15786
40100,15843
40075,15895
40006,16009
39922,16108
39825,16191
39714,16258
39592,16308
39586,16310
39543,16321
39490,16329
39425,16336
39342,16342
39336,16342
39190,16353
39062,16370
38944,16393
38834,16424
38732,16460
38558,16540
38395,16637
38245,16750
38109,16877
37987,17018
37881,17170
37792,17334
37721,17506
37681,17637
37672,17673
37664,17707
37656,17741
37650,17775
37645,17812
37640,17852
37636,17898
37633,17950
37630,18011
37628,18080
37626,18161
37625,18254
37624,18360
37623,18482
37623,18621
37623,18778
37623,18954
37623,18997
37623,20012
37157,20010
36692,20007
36687,18768
36681,17528
36654,17457
36610,17362
36557,17280
36490,17205
36479,17195
36394,17125
36305,17073
36205,17037
36191,17033
36075,17014
35960,17015
35850,17035
35745,17073
35648,17128
35561,17199
35486,17284
35424,17383
35391,17461
35362,17539
35356,20012
34420,20012
34424,18212
34424,17982
34424,17773
34425,17584
34425,17412
34426,17258
34426,17121
34427,16998
34427,16890
34428,16795
34428,16713
34429,16642
34430,16581
34431,16530
34432,16487
34434,16451
34435,16422
34437,16398
34439,16379
34441,16363
34443,16349
34445,16337
34448,16326
34449,16321
34500,16159
34568,16009
34652,15871
34751,15747
34865,15638
34992,15543
35132,15465
35284,15405
35400,15372
35424,15367
35451,15362
35481,15358
35518,15355
35563,15352
35620,15350
35689,15348
35774,15345
35876,15343
35937,15342
36066,15339
36175,15336
36267,15333
36343,15330
36405,15326
36455,15321
36495,15316
36495,15316
36747,15266
36988,15198
37218,15112
37438,15007
37647,14884
37845,14742
38033,14582
38077,14541
38245,14365
38395,14181
38527,13986
38643,13779
38648,13770
38742,13565
38818,13361
38877,13153
38920,12938
38948,12711
38953,12643
38958,12536
38957,12444
38948,12365
38932,12293
38908,12224
38880,12167
38835,12095
38776,12025
38708,11960
38637,11907
38589,11880
38478,11838
38364,11816
38250,11813
38138,11829
38031,11863
37931,11916
37841,11987
37826,12001
37764,12069
37716,12138
37679,12211
37652,12292
37634,12387
37623,12497
37622,12512
37614,12624
37603,12720
37587,12807
37566,12891
37547,12952
37483,13117
37400,13272
37301,13415
37187,13545
37058,13662
36917,13764
36765,13850
36602,13919
36430,13970
36352,13987
36320,13992
36280,13996
36230,14000
36169,14003
36093,14006
36002,14009
35892,14011
35820,14012
35697,14015
35593,14018
35504,14021
35428,14024
35362,14029
35303,14035
35248,14043
35195,14052
35140,14064
35080,14077
35038,14088
34819,14153
34607,14238
34403,14341
34210,14461
34028,14599
33858,14751
33703,14918
33562,15099
33451,15270
33360,15437
33282,15605
33218,15779
33164,15965
33121,16161
33098,16284
33092,18145
33086,20007
32652,20010
32219,20013
32216,18377
32215,18159
32215,17961
32214,17782
32214,17622
32214,17478
32213,17351
32212,17238
32212,17140
32211,17054
32210,16980
32210,16917
32208,16863
32207,16818
32206,16781
32204,16750
32203,16724
32201,16703
32199,16686
32196,16670
32193,16656
32191,16642
32189,16635
32136,16441
32066,16258
31978,16087
31874,15928
31754,15782
31619,15650
31470,15533
31308,15432
31132,15347
31059,15318
30900,15268
30728,15234
30543,15214
30537,15214
30451,15208
30382,15199
30326,15188
30279,15172
30237,15151
30200,15127
30140,15074
30088,15007
30048,14933
30046,14927
30041,14914
30037,14901
30033,14886
30030,14867
30027,14843
30025,14811
30024,14771
30022,14719
30021,14655
30020,14576
30018,14481
30017,14367
30016,14268
30015,14139
30014,14030
30013,13939
30011,13863
30010,13802
30009,13753
30007,13714
30005,13684
30002,13661
29999,13642
29995,13627
29990,13613
29987,13605
29934,13489
29866,13389
29785,13304
29691,13236
29583,13186
29555,13175
29454,13152
29346,13145
29238,13154
29147,13176
29041,13221
28945,13283
28861,13360
28792,13450
28754,13518
28741,13547
28729,13573
28719,13598
28711,13624
28704,13653
28699,13686
28695,13725
28692,13772
28690,13829
28688,13898
28688,13980
28688,14077
28688,14192
28689,14325
28690,14371
28690,14512
28691,14634
28693,14738
28694,14827
28696,14903
28699,14968
28703,15023
28708,15072
28714,15115
28722,15155
28732,15194
28743,15233
28757,15276
28772,15324
28778,15341
28845,15510
28932,15673
29035,15828
29154,15972
29287,16103
29431,16219
29509,16271
29655,16353
29813,16422
29980,16477
30150,16516
30318,16539
30440,16544
30538,16554
30628,16582
30707,16630
30764,16681
30824,16759
30863,16845
30877,16900
30879,16918
30881,16953
30882,17006
30883,17075
30885,17163
30886,17269
30886,17394
30887,17537
30888,17700
30888,17883
30889,18086
30889,18309
30889,18553
30889,18618
30889,20273
30764,20335
30538,20459
30324,20600
30124,20756
29938,20927
29767,21112
29611,21310
29472,21520
29349,21741
29245,21972
29160,22212
29145,22261
29114,22373
29088,22478
29067,22581
29051,22685
29039,22794
29030,22913
29024,23045
29020,23189
29014,23510
28773,23515
28691,23517
28627,23519
28576,23522
28534,23526
28497,23532
28461,23539
28426,23547
28350,23569
28263,23596
28174,23627
28091,23658
28023,23686
27990,23701
27966,23711
27957,23714
27956,23704
27955,23675
27954,23630
27953,23571
27953,23501
27953,23423
27953,23381
27952,23291
27951,23200
27950,23113
27948,23035
27945,22968
27942,22918
27942,22910
27911,22649
27860,22395
27789,22149
27698,21910
27588,21680
27457,21457
27428,21411
27380,21341
27334,21278
27286,21215
27232,21148
27173,21078
27079,20968
27083,20557
27085,20443
27086,20347
27088,20268
27091,20203
27095,20149
27101,20103
27108,20064
27116,20028
27128,19993
27141,19957
27156,19921
27218,19799
27298,19687
27392,19588
27501,19504
27621,19435
27751,19383
27788,19373
27810,19367
27833,19362
27858,19358
27888,19355
27926,19352
27972,19350
28031,19348
28103,19346
28192,19344
28300,19342
28320,19342
28432,19340
28525,19338
28602,19336
28664,19333
28714,19331
28755,19328
28788,19325
28816,19321
28841,19316
28857,19312
28947,19289
29026,19264
29104,19234
29189,19195
29205,19187
29351,19105
29485,19006
29607,18892
29716,18765
29809,18627
29887,18480
29948,18325
29990,18165
30013,18000
30016,17900
30009,17782
29987,17677
29949,17582
29893,17493
29820,17410
29774,17365
29734,17332
29693,17306
29645,17281
29644,17281
29570,17249
29502,17228
29432,17217
29352,17214
29271,17218
29201,17228
29133,17249
29059,17281
29011,17306
28970,17332
28930,17365
28884,17409
28883,17410
28837,17460
28798,17509
28769,17552
28764,17560
28735,17626
28711,17699
28694,17771
28687,17834
28687,17842
28679,17905
28656,17955
28617,17990
28612,17993
28600,17998
28586,18002
28568,18006
28542,18008
28507,18010
28460,18011
28399,18012
28321,18012
28225,18012
28217,18012
28090,18013
27981,18014
27887,18018
27804,18022
27730,18029
27660,18039
27592,18051
27522,18066
27453,18083
27245,18147
27046,18229
26857,18330
26679,18447
26513,18581
26360,18730
26222,18893
26099,19069
25992,19257
25916,19425
25854,19597
25806,19779
25770,19975
25756,20090
25751,20125
25745,20143
25737,20147
25731,20145
25702,20136
25656,20124
25599,20110
25535,20095
25470,20080
25407,20067
25352,20057
25341,20055
25168,20030
25008,20016
24872,20012
24750,20012
24756,15890
24781,15805
24806,15730
24841,15648
24881,15566
24924,15492
24961,15438
25061,15323
25176,15225
25303,15142
25371,15108
25440,15078
25508,15055
25579,15038
25658,15025
25750,15016
25830,15011
25969,15003
26092,14990
26204,14973
26310,14951
26415,14923
26505,14894
26699,14816
26883,14721
27056,14609
27217,14481
27365,14339
27498,14184
27616,14017
27718,13839
27802,13652
27868,13456
27905,13305
27918,13237
27928,13171
27936,13103
27943,13030
27947,12950
27950,12860
27951,12756
27951,12636
27950,12538
27949,12437
27948,12355
27947,12289
27945,12237
27943,12197
27941,12165
27937,12140
27933,12118
27927,12098
27922,12081
27875,11971
27809,11871
27744,11799
27656,11725
27564,11671
27467,11636
27360,11617
27277,11614
27220,11615
27177,11618
27139,11625
27099,11636
27069,11646
26959,11696
26862,11762
26778,11844
26710,11940
26687,11983
26669,12021
26654,12057
26642,12094
26633,12135
26625,12181
26620,12235
26617,12301
26614,12380
26613,12474
26613,12587
26613,12606
26612,12717
26611,12810
26609,12887
26606,12951
26601,13004
26594,13049
26585,13089
26573,13127
26558,13165
26539,13206
26532,13220
26467,13333
26386,13432
26290,13515
26179,13583
26150,13598
26085,13625
26019,13645
25947,13660
25862,13670
25762,13677
25751,13677
25595,13687
25453,13704
25319,13728
25184,13761
25058,13799
24847,13879
24648,13978
24459,14094
24281,14229
24122,14374
23968,14542
23832,14721
23714,14911
23616,15109
23536,15317
23476,15532
23436,15755
23421,15895
23420,15922
23419,15969
23417,16035
23416,16121
23415,16224
23415,16345
23414,16482
23413,16634
23412,16801
23412,16982
23411,17176
23411,17382
23411,17600
23410,17828
23410,18020
23410,20012
22751,20012
22751,18844
22751,18645
22750,18467
22750,18308
22750,18165
22749,18039
22748,17928
22747,17830
22745,17744
22743,17668
22740,17603
22737,17545
22734,17494
22730,17449
22725,17408
22720,17369
22714,17333
22707,17296
22702,17268
22656,17085
22592,16901
22513,16722
22421,16551
22317,16392
22263,16321
22217,16267
22160,16206
22097,16140
22033,16077
21972,16020
21924,15979
21775,15868
21611,15768
21437,15679
21258,15606
21078,15549
21060,15545
21019,15534
20981,15525
20946,15517
20912,15511
20876,15505
20837,15500
20794,15496
20744,15493
20685,15490
20617,15488
20537,15486
20443,15485
20333,15483
20207,15482
20062,15481
20011,15480
19858,15479
19724,15477
19609,15476
19510,15475
19425,15473
19354,15471
19294,15468
19244,15464
19202,15460
19167,15454
19136,15447
19109,15439
19084,15429
19058,15418
19031,15405
19001,15390
19001,15390
18886,15323
18787,15241
18703,15143
18634,15032
18581,14906
18579,14901
18574,14884
18569,14867
18566,14849
18562,14828
18560,14801
18557,14768
18556,14725
18554,14671
18553,14603
18551,14522
18550,14423
18549,14305
18548,14262
18547,14138
18545,14033
18544,13946
18543,13874
18541,13816
18540,13770
18537,13733
18535,13704
18532,13681
18528,13662
18524,13645
18519,13628
18517,13624
18470,13510
18407,13409
18330,13322
18239,13251
18176,13216
18064,13172
17950,13148
17837,13144
17725,13161
17617,13196
17516,13252
17425,13324
17344,13413
17281,13511
17242,13603
17213,13688
17213,14284
17213,14412
17213,14521
17214,14612
17214,14689
17215,14752
17216,14805
17218,14848
17220,14884
17223,14916
17226,14944
17230,14972
17235,15001
17238,15018
17287,15228
17354,15430
17438,15623
17540,15804
17658,15974
17790,16131
17938,16274
18099,16402
18272,16515
18458,16611
18654,16690
18676,16697
18738,16718
18796,16735
18851,16751
18906,16764
18962,16775
19022,16784
19086,16791
19158,16797
19239,16802
19331,16805
19435,16807
19554,16809
19690,16810
19844,16810
19925,16810
20062,16810
20180,16811
20280,16811
20365,16811
20435,16812
20493,16813
20540,16815
20579,16816
20611,16819
20637,16821
20661,16824
20682,16828
20697,16831
20825,16868
20945,16924
21056,16996
21154,17083
21239,17184
21309,17296
21362,17418
21395,17542
21397,17557
21400,17579
21402,17606
21403,17642
21405,17687
21406,17741
21407,17807
21408,17886
21409,17978
21409,18085
21410,18207
21410,18347
21410,18505
21410,18682
21410,18816
21410,20012
19410,20012
19410,19136
19410,18979
19410,18841
19410,18722
19410,18620
19409,18533
19409,18459
19408,18398
19407,18348
19405,18308
19403,18275
19401,18249
19399,18227
19396,18209
19393,18193
19389,18178
19362,18092
19325,18017
19275,17945
19214,17878
19122,17799
19022,17739
18916,17699
18805,17679
18689,17680
18660,17683
18544,17709
18436,17754
18339,17815
18255,17892
18185,17982
18157,18031
18145,18054
18134,18075
18125,18094
18117,18113
18110,18134
18104,18159
18099,18187
18095,18222
18092,18265
18089,18316
18087,18378
18086,18452
18085,18540
18084,18643
18083,18761
18082,18898
18081,19054
18081,19103
18075,20007
17415,20007
17272,20007
17148,20007
17042,20006
16951,20005
16873,20004
16807,20002
16750,19999
16702,19995
16658,19991
16619,19985
16581,19978
16543,19970
16503,19961
16474,19953
16293,19897
16121,19823
15959,19730
15808,19622
15669,19498
15544,19360
15433,19210
15338,19048
15261,18876
15204,18703
15194,18665
15185,18630
15177,18595
15170,18560
15165,18522
15160,18480
15156,18433
15153,18378
15150,18315
15148,18241
15147,18156
15146,18056
15145,17942
15145,17811
15144,17662
15144,17512
15144,17341
15144,17185
15143,17045
15142,16922
15141,16816
15139,16728
15137,16659
15136,16609
15133,16580
15133,16577
15106,16465
15064,16365
15003,16273
14939,16202
14851,16129
14751,16072
14642,16034
14528,16014
14474,16012
14357,16022
14246,16052
14143,16100
14050,16164
13969,16244
13901,16338
13849,16444
13839,16473
13809,16560
13806,17411
13805,17592
13805,17753
13805,17896
13806,18023
13807,18135
13808,18233
13811,18320
13813,18397
13817,18466
13821,18527
13827,18584
13833,18637
13839,18688
13847,18739
13898,18986
13970,19230
14061,19467
14171,19696
14299,19916
14444,20125
14480,20172
14529,20230
14591,20297
14661,20371
14738,20447
14816,20522
14892,20592
14962,20653
15023,20703
15032,20710
15226,20845
15422,20963
15623,21064
15832,21149
16051,21220
16284,21278
16495,21318
16506,21319
16518,21321
16533,21322
16551,21323
16573,21325
16599,21326
16630,21327
16667,21328
16710,21329
16760,21330
16818,21331
16884,21331
16958,21332
17042,21333
17137,21334
17241,21334
17358,21335
17486,21335
17626,21336
17780,21337
17948,21337
18130,21338
18327,21338
18540,21338
18770,21339
19016,21339
19280,21340
19563,21340
19864,21341
20184,21341
20525,21342
20814,21342
21173,21343
21511,21343
21829,21344
22128,21344
22408,21345
22670,21345
22914,21346
23141,21346
23352,21347
23547,21347
23727,21348
23892,21349
24044,21349
24183,21350
24308,21350
24422,21351
24525,21352
24616,21352
24698,21353
24770,21354
24833,21355
24888,21355
24935,21356
24975,21357
25008,21358
25036,21360
25059,21361
25077,21362
25091,21363
25101,21365
25107,21366
25299,21411
25474,21470
25635,21541
25781,21626
25821,21653
25983,21778
26127,21915
26253,22064
26361,22225
26452,22397
26525,22582
26580,22778
26582,22787
26586,22807
26590,22827
26594,22848
26596,22872
26599,22901
26601,22936
26603,22979
26604,23031
26606,23095
26607,23171
26608,23261
26609,23368
26610,23492
26611,23635
26611,23672
26613,23799
26614,23920
26615,24034
26617,24137
26618,24230
26620,24310
26621,24375
26623,24424
26624,24455
26625,24466
26620,24475
26597,24494
26559,24520
26509,24552
26449,24589
26380,24630
26304,24674
26224,24720
26142,24766
26059,24811
25978,24854
25901,24893
25833,24927
25719,24980
25620,25022
25531,25053
25452,25074
25378,25086
25369,25088
25351,25088
25313,25089
25256,25091
25179,25092
25084,25093
24972,25095
24844,25097
24699,25099
24540,25101
24366,25103
24179,25106
23980,25108
23768,25111
23546,25113
23313,25116
23071,25118
22820,25121
22562,25124
22296,25127
22023,25130
21746,25132
21559,25134
21277,25137
21000,25140
20728,25143
20462,25146
20203,25148
19952,25151
19710,25153
19477,25156
19255,25158
19043,25161
18843,25163
18656,25165
18483,25167
18324,25169
18180,25170
18051,25172
17940,25173
17846,25174
17770,25175
17714,25176
17678,25177
17665,25177
17597,25180
17526,25185
17460,25191
17406,25197
17389,25199
17254,25230
17113,25275
16974,25334
16841,25403
16727,25477
16659,25530
16586,25596
16512,25669
16444,25743
16387,25813
16375,25829
16285,25971
16209,26123
16150,26282
16107,26445
16081,26609
16074,26770
16079,26869
16082,26894
16088,26939
16097,27003
16109,27083
16123,27178
16139,27287
16158,27408
16178,27540
16199,27682
16222,27832
16246,27988
16271,28149
16287,28252
16320,28462
16350,28652
16377,28822
16401,28974
16423,29107
16442,29223
16458,29323
16473,29406
16485,29475
16495,29529
16504,29570
16510,29598
16513,29607
16534,29666
16565,29737
16603,29818
16646,29903
16691,29987
16737,30068
16781,30139
16795,30161
16940,30361
17101,30547
17276,30718
17464,30873
17664,31010
17876,31131
17937,31161
18117,31241
18300,31307
18491,31361
18650,31396
18689,31405
18748,31418
18821,31436
18908,31458
19006,31483
19112,31510
19224,31539
19339,31570
19425,31593
19541,31624
19654,31653
19763,31682
19865,31708
19958,31731
20038,31751
20105,31767
20156,31779
20182,31784
20219,31791
20252,31797
20284,31804
20315,31811
20347,31820
20381,31830
20417,31843
20456,31858
20501,31877
20551,31899
20608,31925
20674,31957
20748,31993
20833,32035
20928,32083
21036,32138
21158,32200
21293,32270
21444,32348
21612,32435
21798,32531
21836,32550
21993,32631
22146,32710
22294,32786
22436,32859
22570,32928
22696,32992
22811,33051
22916,33104
23009,33151
23088,33191
23152,33223
23200,33247
23232,33261
23240,33265
23440,33345
23657,33424
23886,33502
24124,33578
24364,33649
24605,33715
24839,33775
25065,33826
25219,33858
25269,33867
25319,33877
25359,33885
25365,33886
25420,33897
25366,34005
25271,34175
25163,34328
25044,34463
24914,34582
24773,34682
24622,34764
24461,34828
24290,34873
24229,34884
24103,34902
23956,34918
23788,34933
23599,34946
23390,34958
23161,34969
22911,34978
22641,34985
22352,34992
22043,34996
21714,35000
21366,35002
20999,35002
20613,35001
20209,34999
19785,34995
19344,34989
18884,34982
18405,34974
17910,34964
17396,34953
16953,34943
16730,34937
16497,34931
16254,34925
16005,34918
15751,34910
15497,34903
15244,34895
14994,34888
14751,34880
14517,34873
14294,34865
14085,34858
13893,34851
13745,34846
13673,34844
13618,34843
13576,34844
13541,34848
13511,34853
13496,34857
13399,34892
13313,34945
13240,35013
13182,35094
13141,35187
13121,35266
13115,35362
6694,35362
6693,35360
6476,34704
6278,34042
6101,33373
5943,32699
5806,32019
5778,31863
5667,31181
5577,30495
5507,29804
5457,29110
5428,28415
5420,27720
5433,27026
5458,26464
5509,25764
5581,25068
5673,24377
5787,23690
5920,23008
6074,22332
6249,21661
6443,20997
6658,20339
6893,19687
7148,19042
7422,18405
7716,17775
8030,17154
8364,16540
8716,15935
8887,15656
9218,15141
9568,14628
9933,14123
10311,13627
10700,13144
11097,12677
11186,12576
11504,12226
11835,11875
12174,11529
12518,11192
12862,10869
13032,10714
13555,10258
14092,9817
14643,9392
15207,8983
15783,8591
16370,8217
16967,7862
17208,7725
17820,7395
18441,7084
19070,6793
19706,6521
20350,6270
21001,6038
21657,5825
22320,5633
22989,5461
23662,5309
24340,5178
25023,5067
25709,4976
26399,4906
27092,4857
27788,4828
28486,4820
29185,4833
Z" /> 
<g >
</g>
</g> 
</svg>
