<?xml version="1.0" standalone="no"?>
 <!DOCTYPE svg PUBLIC "-//W3C//DTD SVG 1.1//EN" 
 "http://www.w3.org/Graphics/SVG/1.1/DTD/svg11.dtd"> 
<svg xmlns="http://www.w3.org/2000/svg" version="1.1" 
    width="29.7002cm" height="21.0007cm" viewBox="0 0 116930 82680 ">
<title>SVG Picture created as stag42-Dwgs_User.svg date 2021/07/30 18:52:47 </title>
  <desc>Picture generated by PCBNEW </desc>
<g style="fill:#000000; fill-opacity:1;stroke:#000000; stroke-opacity:1;
stroke-linecap:round; stroke-linejoin:round; "
 transform="translate(0 0) scale(1 1)">
</g>
<g style="fill:#000000; fill-opacity:0.0; 
stroke:#000000; stroke-width:-0.000393701; stroke-opacity:1; 
stroke-linecap:round; stroke-linejoin:round;">
</g>
<g style="fill:#000000; fill-opacity:0.0; 
stroke:#000000; stroke-width:59.0551; stroke-opacity:1; 
stroke-linecap:round; stroke-linejoin:round;">
<path d="M49781 40369
L50568 40369
" />
<path d="M50568 40369
L50568 41156
" />
<path d="M49781 45880
L50568 45880
" />
<path d="M50568 45880
L50568 45093
" />
<path d="M45056 45093
L45056 45880
" />
<path d="M45056 45880
L45843 45880
" />
<path d="M45843 40369
L45056 40369
" />
<path d="M45056 40369
L45056 41156
" />
<path d="M24375 39375
L71250 39375
" />
<path d="M71250 39375
L71250 46875
" />
<path d="M24375 46875
L71250 46875
" />
<path d="M24375 46875
L24375 39375
" />
<path d="M88218 32869
L89005 32869
" />
<path d="M89005 32869
L89005 33656
" />
<path d="M88218 38380
L89005 38380
" />
<path d="M89005 38380
L89005 37593
" />
<path d="M83494 37593
L83494 38380
" />
<path d="M83494 38380
L84281 38380
" />
<path d="M84281 32869
L83494 32869
" />
<path d="M83494 32869
L83494 33656
" />
<path d="M82500 31875
L90000 31875
" />
<path d="M90000 31875
L90000 39375
" />
<path d="M90000 39375
L82500 39375
" />
<path d="M82500 39375
L82500 31875
" />
<path d="M43218 32869
L44005 32869
" />
<path d="M44005 32869
L44005 33656
" />
<path d="M43218 38380
L44005 38380
" />
<path d="M44005 38380
L44005 37593
" />
<path d="M38494 37593
L38494 38380
" />
<path d="M38494 38380
L39281 38380
" />
<path d="M39281 32869
L38494 32869
" />
<path d="M38494 32869
L38494 33656
" />
<path d="M37500 31875
L45000 31875
" />
<path d="M45000 31875
L45000 39375
" />
<path d="M45000 39375
L37500 39375
" />
<path d="M37500 39375
L37500 31875
" />
<path d="M78843 25369
L79630 25369
" />
<path d="M79630 25369
L79630 26156
" />
<path d="M78843 30880
L79630 30880
" />
<path d="M79630 30880
L79630 30093
" />
<path d="M74119 30093
L74119 30880
" />
<path d="M74119 30880
L74906 30880
" />
<path d="M74906 25369
L74119 25369
" />
<path d="M74119 25369
L74119 26156
" />
<path d="M73125 24375
L80625 24375
" />
<path d="M80625 24375
L80625 31875
" />
<path d="M80625 31875
L73125 31875
" />
<path d="M73125 31875
L73125 24375
" />
<path d="M71343 25369
L72130 25369
" />
<path d="M72130 25369
L72130 26156
" />
<path d="M71343 30880
L72130 30880
" />
<path d="M72130 30880
L72130 30093
" />
<path d="M66619 30093
L66619 30880
" />
<path d="M66619 30880
L67406 30880
" />
<path d="M67406 25369
L66619 25369
" />
<path d="M66619 25369
L66619 26156
" />
<path d="M65625 24375
L73125 24375
" />
<path d="M73125 24375
L73125 31875
" />
<path d="M73125 31875
L65625 31875
" />
<path d="M65625 31875
L65625 24375
" />
<path d="M46968 17869
L47755 17869
" />
<path d="M47755 17869
L47755 18656
" />
<path d="M46968 23380
L47755 23380
" />
<path d="M47755 23380
L47755 22593
" />
<path d="M42244 22593
L42244 23380
" />
<path d="M42244 23380
L43031 23380
" />
<path d="M43031 17869
L42244 17869
" />
<path d="M42244 17869
L42244 18656
" />
<path d="M41250 16875
L48750 16875
" />
<path d="M48750 16875
L48750 24375
" />
<path d="M48750 24375
L41250 24375
" />
<path d="M41250 24375
L41250 16875
" />
<path d="M39468 17869
L40255 17869
" />
<path d="M40255 17869
L40255 18656
" />
<path d="M39468 23380
L40255 23380
" />
<path d="M40255 23380
L40255 22593
" />
<path d="M34744 22593
L34744 23380
" />
<path d="M34744 23380
L35531 23380
" />
<path d="M35531 17869
L34744 17869
" />
<path d="M34744 17869
L34744 18656
" />
<path d="M33750 16875
L41250 16875
" />
<path d="M41250 16875
L41250 24375
" />
<path d="M41250 24375
L33750 24375
" />
<path d="M33750 24375
L33750 16875
" />
<path d="M41156 15880
L40369 15880
" />
<path d="M40369 15880
L40369 15093
" />
<path d="M41156 10369
L40369 10369
" />
<path d="M40369 10369
L40369 11156
" />
<path d="M45880 11156
L45880 10369
" />
<path d="M45880 10369
L45093 10369
" />
<path d="M45093 15880
L45880 15880
" />
<path d="M45880 15880
L45880 15093
" />
<path d="M46875 16875
L39375 16875
" />
<path d="M39375 16875
L39375 9375
" />
<path d="M39375 9375
L46875 9375
" />
<path d="M46875 9375
L46875 16875
" />
<path d="M103275 32869
L104062 32869
" />
<path d="M104062 32869
L104062 33656
" />
<path d="M103275 38380
L104062 38380
" />
<path d="M104062 38380
L104062 37593
" />
<path d="M98550 37593
L98550 38380
" />
<path d="M98550 38380
L99338 38380
" />
<path d="M99338 32869
L98550 32869
" />
<path d="M98550 32869
L98550 33656
" />
<path d="M97556 31875
L105056 31875
" />
<path d="M105056 31875
L105056 39375
" />
<path d="M105056 39375
L97556 39375
" />
<path d="M97556 39375
L97556 31875
" />
<path d="M95718 32869
L96505 32869
" />
<path d="M96505 32869
L96505 33656
" />
<path d="M95718 38380
L96505 38380
" />
<path d="M96505 38380
L96505 37593
" />
<path d="M90994 37593
L90994 38380
" />
<path d="M90994 38380
L91781 38380
" />
<path d="M91781 32869
L90994 32869
" />
<path d="M90994 32869
L90994 33656
" />
<path d="M90000 31875
L97500 31875
" />
<path d="M97500 31875
L97500 39375
" />
<path d="M97500 39375
L90000 39375
" />
<path d="M90000 39375
L90000 31875
" />
<path d="M101343 25369
L102130 25369
" />
<path d="M102130 25369
L102130 26156
" />
<path d="M101343 30880
L102130 30880
" />
<path d="M102130 30880
L102130 30093
" />
<path d="M96619 30093
L96619 30880
" />
<path d="M96619 30880
L97406 30880
" />
<path d="M97406 25369
L96619 25369
" />
<path d="M96619 25369
L96619 26156
" />
<path d="M95625 24375
L103125 24375
" />
<path d="M103125 24375
L103125 31875
" />
<path d="M103125 31875
L95625 31875
" />
<path d="M95625 31875
L95625 24375
" />
<path d="M93843 25369
L94630 25369
" />
<path d="M94630 25369
L94630 26156
" />
<path d="M93843 30880
L94630 30880
" />
<path d="M94630 30880
L94630 30093
" />
<path d="M89119 30093
L89119 30880
" />
<path d="M89119 30880
L89906 30880
" />
<path d="M89906 25369
L89119 25369
" />
<path d="M89119 25369
L89119 26156
" />
<path d="M88125 24375
L95625 24375
" />
<path d="M95625 24375
L95625 31875
" />
<path d="M95625 31875
L88125 31875
" />
<path d="M88125 31875
L88125 24375
" />
<path d="M99468 17869
L100255 17869
" />
<path d="M100255 17869
L100255 18656
" />
<path d="M99468 23380
L100255 23380
" />
<path d="M100255 23380
L100255 22593
" />
<path d="M94744 22593
L94744 23380
" />
<path d="M94744 23380
L95531 23380
" />
<path d="M95531 17869
L94744 17869
" />
<path d="M94744 17869
L94744 18656
" />
<path d="M93750 16875
L101250 16875
" />
<path d="M101250 16875
L101250 24375
" />
<path d="M101250 24375
L93750 24375
" />
<path d="M93750 24375
L93750 16875
" />
<path d="M91968 17869
L92755 17869
" />
<path d="M92755 17869
L92755 18656
" />
<path d="M91968 23380
L92755 23380
" />
<path d="M92755 23380
L92755 22593
" />
<path d="M87244 22593
L87244 23380
" />
<path d="M87244 23380
L88031 23380
" />
<path d="M88031 17869
L87244 17869
" />
<path d="M87244 17869
L87244 18656
" />
<path d="M86250 16875
L93750 16875
" />
<path d="M93750 16875
L93750 24375
" />
<path d="M93750 24375
L86250 24375
" />
<path d="M86250 24375
L86250 16875
" />
<path d="M50718 32869
L51505 32869
" />
<path d="M51505 32869
L51505 33656
" />
<path d="M50718 38380
L51505 38380
" />
<path d="M51505 38380
L51505 37593
" />
<path d="M45994 37593
L45994 38380
" />
<path d="M45994 38380
L46781 38380
" />
<path d="M46781 32869
L45994 32869
" />
<path d="M45994 32869
L45994 33656
" />
<path d="M45000 31875
L52500 31875
" />
<path d="M52500 31875
L52500 39375
" />
<path d="M52500 39375
L45000 39375
" />
<path d="M45000 39375
L45000 31875
" />
<path d="M35718 32869
L36505 32869
" />
<path d="M36505 32869
L36505 33656
" />
<path d="M35718 38380
L36505 38380
" />
<path d="M36505 38380
L36505 37593
" />
<path d="M30994 37593
L30994 38380
" />
<path d="M30994 38380
L31781 38380
" />
<path d="M31781 32869
L30994 32869
" />
<path d="M30994 32869
L30994 33656
" />
<path d="M30000 31875
L37500 31875
" />
<path d="M37500 31875
L37500 39375
" />
<path d="M37500 39375
L30000 39375
" />
<path d="M30000 39375
L30000 31875
" />
<path d="M28218 32869
L29005 32869
" />
<path d="M29005 32869
L29005 33656
" />
<path d="M28218 38380
L29005 38380
" />
<path d="M29005 38380
L29005 37593
" />
<path d="M23494 37593
L23494 38380
" />
<path d="M23494 38380
L24281 38380
" />
<path d="M24281 32869
L23494 32869
" />
<path d="M23494 32869
L23494 33656
" />
<path d="M22500 31875
L30000 31875
" />
<path d="M30000 31875
L30000 39375
" />
<path d="M30000 39375
L22500 39375
" />
<path d="M22500 39375
L22500 31875
" />
<path d="M20718 32869
L21505 32869
" />
<path d="M21505 32869
L21505 33656
" />
<path d="M20718 38380
L21505 38380
" />
<path d="M21505 38380
L21505 37593
" />
<path d="M15994 37593
L15994 38380
" />
<path d="M15994 38380
L16781 38380
" />
<path d="M16781 32869
L15994 32869
" />
<path d="M15994 32869
L15994 33656
" />
<path d="M15000 31875
L22500 31875
" />
<path d="M22500 31875
L22500 39375
" />
<path d="M22500 39375
L15000 39375
" />
<path d="M15000 39375
L15000 31875
" />
<path d="M80718 32869
L81505 32869
" />
<path d="M81505 32869
L81505 33656
" />
<path d="M80718 38380
L81505 38380
" />
<path d="M81505 38380
L81505 37593
" />
<path d="M75994 37593
L75994 38380
" />
<path d="M75994 38380
L76781 38380
" />
<path d="M76781 32869
L75994 32869
" />
<path d="M75994 32869
L75994 33656
" />
<path d="M75000 31875
L82500 31875
" />
<path d="M82500 31875
L82500 39375
" />
<path d="M82500 39375
L75000 39375
" />
<path d="M75000 39375
L75000 31875
" />
<path d="M73218 32869
L74005 32869
" />
<path d="M74005 32869
L74005 33656
" />
<path d="M73218 38380
L74005 38380
" />
<path d="M74005 38380
L74005 37593
" />
<path d="M68494 37593
L68494 38380
" />
<path d="M68494 38380
L69281 38380
" />
<path d="M69281 32869
L68494 32869
" />
<path d="M68494 32869
L68494 33656
" />
<path d="M67500 31875
L75000 31875
" />
<path d="M75000 31875
L75000 39375
" />
<path d="M75000 39375
L67500 39375
" />
<path d="M67500 39375
L67500 31875
" />
<path d="M65718 32869
L66505 32869
" />
<path d="M66505 32869
L66505 33656
" />
<path d="M65718 38380
L66505 38380
" />
<path d="M66505 38380
L66505 37593
" />
<path d="M60994 37593
L60994 38380
" />
<path d="M60994 38380
L61781 38380
" />
<path d="M61781 32869
L60994 32869
" />
<path d="M60994 32869
L60994 33656
" />
<path d="M60000 31875
L67500 31875
" />
<path d="M67500 31875
L67500 39375
" />
<path d="M67500 39375
L60000 39375
" />
<path d="M60000 39375
L60000 31875
" />
<path d="M58218 32869
L59005 32869
" />
<path d="M59005 32869
L59005 33656
" />
<path d="M58218 38380
L59005 38380
" />
<path d="M59005 38380
L59005 37593
" />
<path d="M53494 37593
L53494 38380
" />
<path d="M53494 38380
L54281 38380
" />
<path d="M54281 32869
L53494 32869
" />
<path d="M53494 32869
L53494 33656
" />
<path d="M52500 31875
L60000 31875
" />
<path d="M60000 31875
L60000 39375
" />
<path d="M60000 39375
L52500 39375
" />
<path d="M52500 39375
L52500 31875
" />
<path d="M48843 25369
L49630 25369
" />
<path d="M49630 25369
L49630 26156
" />
<path d="M48843 30880
L49630 30880
" />
<path d="M49630 30880
L49630 30093
" />
<path d="M44119 30093
L44119 30880
" />
<path d="M44119 30880
L44906 30880
" />
<path d="M44906 25369
L44119 25369
" />
<path d="M44119 25369
L44119 26156
" />
<path d="M43125 24375
L50625 24375
" />
<path d="M50625 24375
L50625 31875
" />
<path d="M50625 31875
L43125 31875
" />
<path d="M43125 31875
L43125 24375
" />
<path d="M41343 25369
L42130 25369
" />
<path d="M42130 25369
L42130 26156
" />
<path d="M41343 30880
L42130 30880
" />
<path d="M42130 30880
L42130 30093
" />
<path d="M36619 30093
L36619 30880
" />
<path d="M36619 30880
L37406 30880
" />
<path d="M37406 25369
L36619 25369
" />
<path d="M36619 25369
L36619 26156
" />
<path d="M35625 24375
L43125 24375
" />
<path d="M43125 24375
L43125 31875
" />
<path d="M43125 31875
L35625 31875
" />
<path d="M35625 31875
L35625 24375
" />
<path d="M33843 25369
L34630 25369
" />
<path d="M34630 25369
L34630 26156
" />
<path d="M33843 30880
L34630 30880
" />
<path d="M34630 30880
L34630 30093
" />
<path d="M29119 30093
L29119 30880
" />
<path d="M29119 30880
L29906 30880
" />
<path d="M29906 25369
L29119 25369
" />
<path d="M29119 25369
L29119 26156
" />
<path d="M28125 24375
L35625 24375
" />
<path d="M35625 24375
L35625 31875
" />
<path d="M35625 31875
L28125 31875
" />
<path d="M28125 31875
L28125 24375
" />
<path d="M26343 25369
L27130 25369
" />
<path d="M27130 25369
L27130 26156
" />
<path d="M26343 30880
L27130 30880
" />
<path d="M27130 30880
L27130 30093
" />
<path d="M21619 30093
L21619 30880
" />
<path d="M21619 30880
L22406 30880
" />
<path d="M22406 25369
L21619 25369
" />
<path d="M21619 25369
L21619 26156
" />
<path d="M20625 24375
L28125 24375
" />
<path d="M28125 24375
L28125 31875
" />
<path d="M28125 31875
L20625 31875
" />
<path d="M20625 31875
L20625 24375
" />
<path d="M18843 25369
L19630 25369
" />
<path d="M19630 25369
L19630 26156
" />
<path d="M18843 30880
L19630 30880
" />
<path d="M19630 30880
L19630 30093
" />
<path d="M14119 30093
L14119 30880
" />
<path d="M14119 30880
L14906 30880
" />
<path d="M14906 25369
L14119 25369
" />
<path d="M14119 25369
L14119 26156
" />
<path d="M13125 24375
L20625 24375
" />
<path d="M20625 24375
L20625 31875
" />
<path d="M20625 31875
L13125 31875
" />
<path d="M13125 31875
L13125 24375
" />
<path d="M86343 25369
L87130 25369
" />
<path d="M87130 25369
L87130 26156
" />
<path d="M86343 30880
L87130 30880
" />
<path d="M87130 30880
L87130 30093
" />
<path d="M81619 30093
L81619 30880
" />
<path d="M81619 30880
L82406 30880
" />
<path d="M82406 25369
L81619 25369
" />
<path d="M81619 25369
L81619 26156
" />
<path d="M80625 24375
L88125 24375
" />
<path d="M88125 24375
L88125 31875
" />
<path d="M88125 31875
L80625 31875
" />
<path d="M80625 31875
L80625 24375
" />
<path d="M63843 25369
L64630 25369
" />
<path d="M64630 25369
L64630 26156
" />
<path d="M63843 30880
L64630 30880
" />
<path d="M64630 30880
L64630 30093
" />
<path d="M59119 30093
L59119 30880
" />
<path d="M59119 30880
L59906 30880
" />
<path d="M59906 25369
L59119 25369
" />
<path d="M59119 25369
L59119 26156
" />
<path d="M58125 24375
L65625 24375
" />
<path d="M65625 24375
L65625 31875
" />
<path d="M65625 31875
L58125 31875
" />
<path d="M58125 31875
L58125 24375
" />
<path d="M56343 25369
L57130 25369
" />
<path d="M57130 25369
L57130 26156
" />
<path d="M56343 30880
L57130 30880
" />
<path d="M57130 30880
L57130 30093
" />
<path d="M51619 30093
L51619 30880
" />
<path d="M51619 30880
L52406 30880
" />
<path d="M52406 25369
L51619 25369
" />
<path d="M51619 25369
L51619 26156
" />
<path d="M50625 24375
L58125 24375
" />
<path d="M58125 24375
L58125 31875
" />
<path d="M58125 31875
L50625 31875
" />
<path d="M50625 31875
L50625 24375
" />
<path d="M31968 17869
L32755 17869
" />
<path d="M32755 17869
L32755 18656
" />
<path d="M31968 23380
L32755 23380
" />
<path d="M32755 23380
L32755 22593
" />
<path d="M27244 22593
L27244 23380
" />
<path d="M27244 23380
L28031 23380
" />
<path d="M28031 17869
L27244 17869
" />
<path d="M27244 17869
L27244 18656
" />
<path d="M26250 16875
L33750 16875
" />
<path d="M33750 16875
L33750 24375
" />
<path d="M33750 24375
L26250 24375
" />
<path d="M26250 24375
L26250 16875
" />
<path d="M24468 17869
L25255 17869
" />
<path d="M25255 17869
L25255 18656
" />
<path d="M24468 23380
L25255 23380
" />
<path d="M25255 23380
L25255 22593
" />
<path d="M19744 22593
L19744 23380
" />
<path d="M19744 23380
L20531 23380
" />
<path d="M20531 17869
L19744 17869
" />
<path d="M19744 17869
L19744 18656
" />
<path d="M18750 16875
L26250 16875
" />
<path d="M26250 16875
L26250 24375
" />
<path d="M26250 24375
L18750 24375
" />
<path d="M18750 24375
L18750 16875
" />
<path d="M16968 17869
L17755 17869
" />
<path d="M17755 17869
L17755 18656
" />
<path d="M16968 23380
L17755 23380
" />
<path d="M17755 23380
L17755 22593
" />
<path d="M12244 22593
L12244 23380
" />
<path d="M12244 23380
L13031 23380
" />
<path d="M13031 17869
L12244 17869
" />
<path d="M12244 17869
L12244 18656
" />
<path d="M11250 16875
L18750 16875
" />
<path d="M18750 16875
L18750 24375
" />
<path d="M18750 24375
L11250 24375
" />
<path d="M11250 24375
L11250 16875
" />
<path d="M84468 17869
L85255 17869
" />
<path d="M85255 17869
L85255 18656
" />
<path d="M84468 23380
L85255 23380
" />
<path d="M85255 23380
L85255 22593
" />
<path d="M79744 22593
L79744 23380
" />
<path d="M79744 23380
L80531 23380
" />
<path d="M80531 17869
L79744 17869
" />
<path d="M79744 17869
L79744 18656
" />
<path d="M78750 16875
L86250 16875
" />
<path d="M86250 16875
L86250 24375
" />
<path d="M86250 24375
L78750 24375
" />
<path d="M78750 24375
L78750 16875
" />
<path d="M76968 17869
L77755 17869
" />
<path d="M77755 17869
L77755 18656
" />
<path d="M76968 23380
L77755 23380
" />
<path d="M77755 23380
L77755 22593
" />
<path d="M72244 22593
L72244 23380
" />
<path d="M72244 23380
L73031 23380
" />
<path d="M73031 17869
L72244 17869
" />
<path d="M72244 17869
L72244 18656
" />
<path d="M71250 16875
L78750 16875
" />
<path d="M78750 16875
L78750 24375
" />
<path d="M78750 24375
L71250 24375
" />
<path d="M71250 24375
L71250 16875
" />
<path d="M69468 17869
L70255 17869
" />
<path d="M70255 17869
L70255 18656
" />
<path d="M69468 23380
L70255 23380
" />
<path d="M70255 23380
L70255 22593
" />
<path d="M64744 22593
L64744 23380
" />
<path d="M64744 23380
L65531 23380
" />
<path d="M65531 17869
L64744 17869
" />
<path d="M64744 17869
L64744 18656
" />
<path d="M63750 16875
L71250 16875
" />
<path d="M71250 16875
L71250 24375
" />
<path d="M71250 24375
L63750 24375
" />
<path d="M63750 24375
L63750 16875
" />
<path d="M61968 17869
L62755 17869
" />
<path d="M62755 17869
L62755 18656
" />
<path d="M61968 23380
L62755 23380
" />
<path d="M62755 23380
L62755 22593
" />
<path d="M57244 22593
L57244 23380
" />
<path d="M57244 23380
L58031 23380
" />
<path d="M58031 17869
L57244 17869
" />
<path d="M57244 17869
L57244 18656
" />
<path d="M56250 16875
L63750 16875
" />
<path d="M63750 16875
L63750 24375
" />
<path d="M63750 24375
L56250 24375
" />
<path d="M56250 24375
L56250 16875
" />
<path d="M54468 17869
L55255 17869
" />
<path d="M55255 17869
L55255 18656
" />
<path d="M54468 23380
L55255 23380
" />
<path d="M55255 23380
L55255 22593
" />
<path d="M49744 22593
L49744 23380
" />
<path d="M49744 23380
L50531 23380
" />
<path d="M50531 17869
L49744 17869
" />
<path d="M49744 17869
L49744 18656
" />
<path d="M48750 16875
L56250 16875
" />
<path d="M56250 16875
L56250 24375
" />
<path d="M56250 24375
L48750 24375
" />
<path d="M48750 24375
L48750 16875
" />
<path d="M37593 10369
L38380 10369
" />
<path d="M38380 10369
L38380 11156
" />
<path d="M37593 15880
L38380 15880
" />
<path d="M38380 15880
L38380 15093
" />
<path d="M32869 15093
L32869 15880
" />
<path d="M32869 15880
L33656 15880
" />
<path d="M33656 10369
L32869 10369
" />
<path d="M32869 10369
L32869 11156
" />
<path d="M31875 9375
L39375 9375
" />
<path d="M39375 9375
L39375 16875
" />
<path d="M39375 16875
L31875 16875
" />
<path d="M31875 16875
L31875 9375
" />
<path d="M30093 10369
L30880 10369
" />
<path d="M30880 10369
L30880 11156
" />
<path d="M30093 15880
L30880 15880
" />
<path d="M30880 15880
L30880 15093
" />
<path d="M25369 15093
L25369 15880
" />
<path d="M25369 15880
L26156 15880
" />
<path d="M26156 10369
L25369 10369
" />
<path d="M25369 10369
L25369 11156
" />
<path d="M24375 9375
L31875 9375
" />
<path d="M31875 9375
L31875 16875
" />
<path d="M31875 16875
L24375 16875
" />
<path d="M24375 16875
L24375 9375
" />
<path d="M22593 10369
L23380 10369
" />
<path d="M23380 10369
L23380 11156
" />
<path d="M22593 15880
L23380 15880
" />
<path d="M23380 15880
L23380 15093
" />
<path d="M17869 15093
L17869 15880
" />
<path d="M17869 15880
L18656 15880
" />
<path d="M18656 10369
L17869 10369
" />
<path d="M17869 10369
L17869 11156
" />
<path d="M16875 9375
L24375 9375
" />
<path d="M24375 9375
L24375 16875
" />
<path d="M24375 16875
L16875 16875
" />
<path d="M16875 16875
L16875 9375
" />
<path d="M15093 10369
L15880 10369
" />
<path d="M15880 10369
L15880 11156
" />
<path d="M15093 15880
L15880 15880
" />
<path d="M15880 15880
L15880 15093
" />
<path d="M10369 15093
L10369 15880
" />
<path d="M10369 15880
L11156 15880
" />
<path d="M11156 10369
L10369 10369
" />
<path d="M10369 10369
L10369 11156
" />
<path d="M9375 9375
L16875 9375
" />
<path d="M16875 9375
L16875 16875
" />
<path d="M16875 16875
L9375 16875
" />
<path d="M9375 16875
L9375 9375
" />
<g >
</g>
<g >
</g>
<g >
</g>
<g >
</g>
<g >
</g>
<g >
</g>
<g >
</g>
<g >
</g>
<g >
</g>
<g >
</g>
<g >
</g>
<g >
</g>
<g >
</g>
<g >
</g>
<g >
</g>
<g >
</g>
<g >
</g>
<g >
</g>
<g >
</g>
<g >
</g>
<g >
</g>
<g >
</g>
<g >
</g>
<g >
</g>
<g >
</g>
<g >
</g>
<g >
</g>
<g >
</g>
<g >
</g>
<g >
</g>
<g >
</g>
<g >
</g>
<g >
</g>
<g >
</g>
<g >
</g>
<g >
</g>
<g >
</g>
<g >
</g>
<g >
</g>
<g >
</g>
<g >
</g>
<g >
</g>
<g >
</g>
<g >
</g>
<g >
</g>
<g >
</g>
<g >
</g>
<g >
</g>
<g >
</g>
<g >
</g>
<g >
</g>
<g >
</g>
<g >
</g>
<g >
</g>
<g >
</g>
<g >
</g>
<g >
</g>
<g >
</g>
<g >
</g>
<g >
</g>
<g >
</g>
<g >
</g>
<g >
</g>
<g >
</g>
<g >
</g>
<g >
</g>
<g >
</g>
<g >
</g>
<g >
</g>
<g >
</g>
<g >
</g>
<g >
</g>
<g >
</g>
<g >
</g>
<g >
</g>
<g >
</g>
<g >
</g>
<g >
</g>
<g >
</g>
<g >
</g>
<g >
</g>
<g >
</g>
<g >
</g>
<g >
</g>
<g >
</g>
<g >
</g>
<g >
</g>
<g >
</g>
<g >
</g>
<g >
</g>
<g >
</g>
<g >
</g>
<g >
</g>
<g >
</g>
<g >
</g>
<g >
</g>
<g >
</g>
<g >
</g>
<g >
</g>
<g >
</g>
<g >
</g>
<g >
</g>
<g >
</g>
<g >
</g>
</g>
<g style="fill:#000000; fill-opacity:0.0; 
stroke:#000000; stroke-width:59.0551; stroke-opacity:1; 
stroke-linecap:round; stroke-linejoin:round;">
<path d="M47118 44553
L47118 44159
L47250 44440
L47381 44159
L47381 44553
" />
<path d="M47531 44159
L47793 44553
" />
<path d="M47793 44159
L47531 44553
" />
<path d="M47906 44159
L48149 44159
L48018 44309
L48074 44309
L48112 44328
L48131 44346
L48149 44384
L48149 44478
L48131 44515
L48112 44534
L48074 44553
L47962 44553
L47924 44534
L47906 44515
" />
<path d="M48506 44159
L48318 44159
L48299 44346
L48318 44328
L48356 44309
L48449 44309
L48487 44328
L48506 44346
L48524 44384
L48524 44478
L48506 44515
L48487 44534
L48449 44553
L48356 44553
L48318 44534
L48299 44515
" />
<path d="M46331 40178
L46331 39784
L46462 40065
L46593 39784
L46593 40178
" />
<path d="M46743 39784
L47006 40178
" />
<path d="M47006 39784
L46743 40178
" />
<path d="M47156 40028
L47456 40028
" />
<path d="M47643 40178
L47643 39784
L47868 40178
L47868 39784
" />
<path d="M48112 40178
L48074 40159
L48056 40140
L48037 40103
L48037 39990
L48056 39953
L48074 39934
L48112 39915
L48168 39915
L48206 39934
L48224 39953
L48243 39990
L48243 40103
L48224 40140
L48206 40159
L48168 40178
L48112 40178
" />
<path d="M48599 40178
L48412 40178
L48412 39784
" />
<path d="M48731 39971
L48862 39971
" />
<path d="M48918 40178
L48731 40178
L48731 39784
L48918 39784
" />
<path d="M49087 40178
L49087 39784
L49181 39784
L49237 39803
L49274 39840
L49293 39878
L49312 39953
L49312 40009
L49293 40084
L49274 40121
L49237 40159
L49181 40178
L49087 40178
" />
<path d="M85556 37053
L85556 36659
L85687 36940
L85818 36659
L85818 37053
" />
<path d="M85968 36659
L86231 37053
" />
<path d="M86231 36659
L85968 37053
" />
<path d="M86362 36696
L86381 36678
L86418 36659
L86512 36659
L86549 36678
L86568 36696
L86587 36734
L86587 36771
L86568 36828
L86343 37053
L86587 37053
" />
<path d="M86774 37053
L86849 37053
L86887 37034
L86906 37015
L86943 36959
L86962 36884
L86962 36734
L86943 36696
L86924 36678
L86887 36659
L86812 36659
L86774 36678
L86756 36696
L86737 36734
L86737 36828
L86756 36865
L86774 36884
L86812 36903
L86887 36903
L86924 36884
L86943 36865
L86962 36828
" />
<path d="M84768 32678
L84768 32284
L84900 32565
L85031 32284
L85031 32678
" />
<path d="M85181 32284
L85443 32678
" />
<path d="M85443 32284
L85181 32678
" />
<path d="M85593 32528
L85893 32528
" />
<path d="M86081 32678
L86081 32284
L86306 32678
L86306 32284
" />
<path d="M86549 32678
L86512 32659
L86493 32640
L86474 32603
L86474 32490
L86493 32453
L86512 32434
L86549 32415
L86606 32415
L86643 32434
L86662 32453
L86681 32490
L86681 32603
L86662 32640
L86643 32659
L86606 32678
L86549 32678
" />
<path d="M87037 32678
L86849 32678
L86849 32284
" />
<path d="M87168 32471
L87299 32471
" />
<path d="M87356 32678
L87168 32678
L87168 32284
L87356 32284
" />
<path d="M87524 32678
L87524 32284
L87618 32284
L87674 32303
L87712 32340
L87731 32378
L87749 32453
L87749 32509
L87731 32584
L87712 32621
L87674 32659
L87618 32678
L87524 32678
" />
<path d="M40556 37053
L40556 36659
L40687 36940
L40818 36659
L40818 37053
" />
<path d="M40968 36659
L41231 37053
" />
<path d="M41231 36659
L40968 37053
" />
<path d="M41343 36659
L41587 36659
L41456 36809
L41512 36809
L41549 36828
L41568 36846
L41587 36884
L41587 36978
L41568 37015
L41549 37034
L41512 37053
L41399 37053
L41362 37034
L41343 37015
" />
<path d="M41718 36659
L41962 36659
L41831 36809
L41887 36809
L41924 36828
L41943 36846
L41962 36884
L41962 36978
L41943 37015
L41924 37034
L41887 37053
L41774 37053
L41737 37034
L41718 37015
" />
<path d="M39768 32678
L39768 32284
L39900 32565
L40031 32284
L40031 32678
" />
<path d="M40181 32284
L40443 32678
" />
<path d="M40443 32284
L40181 32678
" />
<path d="M40593 32528
L40893 32528
" />
<path d="M41081 32678
L41081 32284
L41306 32678
L41306 32284
" />
<path d="M41549 32678
L41512 32659
L41493 32640
L41474 32603
L41474 32490
L41493 32453
L41512 32434
L41549 32415
L41606 32415
L41643 32434
L41662 32453
L41681 32490
L41681 32603
L41662 32640
L41643 32659
L41606 32678
L41549 32678
" />
<path d="M42037 32678
L41849 32678
L41849 32284
" />
<path d="M42168 32471
L42299 32471
" />
<path d="M42356 32678
L42168 32678
L42168 32284
L42356 32284
" />
<path d="M42524 32678
L42524 32284
L42618 32284
L42674 32303
L42712 32340
L42731 32378
L42749 32453
L42749 32509
L42731 32584
L42712 32621
L42674 32659
L42618 32678
L42524 32678
" />
<path d="M76181 29553
L76181 29159
L76312 29440
L76443 29159
L76443 29553
" />
<path d="M76593 29159
L76856 29553
" />
<path d="M76856 29159
L76593 29553
" />
<path d="M77212 29553
L76987 29553
" />
<path d="M77099 29553
L77099 29159
L77062 29215
L77024 29253
L76987 29271
" />
<path d="M77437 29328
L77399 29309
L77381 29290
L77362 29253
L77362 29234
L77381 29196
L77399 29178
L77437 29159
L77512 29159
L77549 29178
L77568 29196
L77587 29234
L77587 29253
L77568 29290
L77549 29309
L77512 29328
L77437 29328
L77399 29346
L77381 29365
L77362 29403
L77362 29478
L77381 29515
L77399 29534
L77437 29553
L77512 29553
L77549 29534
L77568 29515
L77587 29478
L77587 29403
L77568 29365
L77549 29346
L77512 29328
" />
<path d="M75393 25178
L75393 24784
L75525 25065
L75656 24784
L75656 25178
" />
<path d="M75806 24784
L76068 25178
" />
<path d="M76068 24784
L75806 25178
" />
<path d="M76218 25028
L76518 25028
" />
<path d="M76706 25178
L76706 24784
L76931 25178
L76931 24784
" />
<path d="M77174 25178
L77137 25159
L77118 25140
L77099 25103
L77099 24990
L77118 24953
L77137 24934
L77174 24915
L77231 24915
L77268 24934
L77287 24953
L77306 24990
L77306 25103
L77287 25140
L77268 25159
L77231 25178
L77174 25178
" />
<path d="M77662 25178
L77474 25178
L77474 24784
" />
<path d="M77793 24971
L77924 24971
" />
<path d="M77981 25178
L77793 25178
L77793 24784
L77981 24784
" />
<path d="M78149 25178
L78149 24784
L78243 24784
L78299 24803
L78337 24840
L78356 24878
L78374 24953
L78374 25009
L78356 25084
L78337 25121
L78299 25159
L78243 25178
L78149 25178
" />
<path d="M68681 29553
L68681 29159
L68812 29440
L68943 29159
L68943 29553
" />
<path d="M69093 29159
L69356 29553
" />
<path d="M69356 29159
L69093 29553
" />
<path d="M69712 29553
L69487 29553
" />
<path d="M69599 29553
L69599 29159
L69562 29215
L69524 29253
L69487 29271
" />
<path d="M69843 29159
L70106 29159
L69937 29553
" />
<path d="M67893 25178
L67893 24784
L68025 25065
L68156 24784
L68156 25178
" />
<path d="M68306 24784
L68568 25178
" />
<path d="M68568 24784
L68306 25178
" />
<path d="M68718 25028
L69018 25028
" />
<path d="M69206 25178
L69206 24784
L69431 25178
L69431 24784
" />
<path d="M69674 25178
L69637 25159
L69618 25140
L69599 25103
L69599 24990
L69618 24953
L69637 24934
L69674 24915
L69731 24915
L69768 24934
L69787 24953
L69806 24990
L69806 25103
L69787 25140
L69768 25159
L69731 25178
L69674 25178
" />
<path d="M70162 25178
L69974 25178
L69974 24784
" />
<path d="M70293 24971
L70424 24971
" />
<path d="M70481 25178
L70293 25178
L70293 24784
L70481 24784
" />
<path d="M70649 25178
L70649 24784
L70743 24784
L70799 24803
L70837 24840
L70856 24878
L70874 24953
L70874 25009
L70856 25084
L70837 25121
L70799 25159
L70743 25178
L70649 25178
" />
<path d="M44306 22053
L44306 21659
L44437 21940
L44568 21659
L44568 22053
" />
<path d="M44718 21659
L44981 22053
" />
<path d="M44981 21659
L44718 22053
" />
<path d="M45337 22053
L45112 22053
" />
<path d="M45224 22053
L45224 21659
L45187 21715
L45149 21753
L45112 21771
" />
<path d="M45674 21790
L45674 22053
" />
<path d="M45581 21640
L45487 21921
L45731 21921
" />
<path d="M43518 17678
L43518 17284
L43650 17565
L43781 17284
L43781 17678
" />
<path d="M43931 17284
L44193 17678
" />
<path d="M44193 17284
L43931 17678
" />
<path d="M44343 17528
L44643 17528
" />
<path d="M44831 17678
L44831 17284
L45056 17678
L45056 17284
" />
<path d="M45299 17678
L45262 17659
L45243 17640
L45224 17603
L45224 17490
L45243 17453
L45262 17434
L45299 17415
L45356 17415
L45393 17434
L45412 17453
L45431 17490
L45431 17603
L45412 17640
L45393 17659
L45356 17678
L45299 17678
" />
<path d="M45787 17678
L45599 17678
L45599 17284
" />
<path d="M45918 17471
L46049 17471
" />
<path d="M46106 17678
L45918 17678
L45918 17284
L46106 17284
" />
<path d="M46274 17678
L46274 17284
L46368 17284
L46424 17303
L46462 17340
L46481 17378
L46499 17453
L46499 17509
L46481 17584
L46462 17621
L46424 17659
L46368 17678
L46274 17678
" />
<path d="M36806 22053
L36806 21659
L36937 21940
L37068 21659
L37068 22053
" />
<path d="M37218 21659
L37481 22053
" />
<path d="M37481 21659
L37218 22053
" />
<path d="M37837 22053
L37612 22053
" />
<path d="M37724 22053
L37724 21659
L37687 21715
L37649 21753
L37612 21771
" />
<path d="M37968 21659
L38212 21659
L38081 21809
L38137 21809
L38174 21828
L38193 21846
L38212 21884
L38212 21978
L38193 22015
L38174 22034
L38137 22053
L38024 22053
L37987 22034
L37968 22015
" />
<path d="M36018 17678
L36018 17284
L36150 17565
L36281 17284
L36281 17678
" />
<path d="M36431 17284
L36693 17678
" />
<path d="M36693 17284
L36431 17678
" />
<path d="M36843 17528
L37143 17528
" />
<path d="M37331 17678
L37331 17284
L37556 17678
L37556 17284
" />
<path d="M37799 17678
L37762 17659
L37743 17640
L37724 17603
L37724 17490
L37743 17453
L37762 17434
L37799 17415
L37856 17415
L37893 17434
L37912 17453
L37931 17490
L37931 17603
L37912 17640
L37893 17659
L37856 17678
L37799 17678
" />
<path d="M38287 17678
L38099 17678
L38099 17284
" />
<path d="M38418 17471
L38549 17471
" />
<path d="M38606 17678
L38418 17678
L38418 17284
L38606 17284
" />
<path d="M38774 17678
L38774 17284
L38868 17284
L38924 17303
L38962 17340
L38981 17378
L38999 17453
L38999 17509
L38981 17584
L38962 17621
L38924 17659
L38868 17678
L38774 17678
" />
<path d="M42618 12053
L42618 11659
L42750 11940
L42881 11659
L42881 12053
" />
<path d="M43031 11659
L43293 12053
" />
<path d="M43293 11659
L43031 12053
" />
<path d="M43612 11790
L43612 12053
" />
<path d="M43518 11640
L43424 11921
L43668 11921
" />
<path d="M41643 16428
L41643 16034
L41775 16315
L41906 16034
L41906 16428
" />
<path d="M42056 16034
L42318 16428
" />
<path d="M42318 16034
L42056 16428
" />
<path d="M42468 16278
L42768 16278
" />
<path d="M42956 16428
L42956 16034
L43181 16428
L43181 16034
" />
<path d="M43424 16428
L43387 16409
L43368 16390
L43349 16353
L43349 16240
L43368 16203
L43387 16184
L43424 16165
L43481 16165
L43518 16184
L43537 16203
L43556 16240
L43556 16353
L43537 16390
L43518 16409
L43481 16428
L43424 16428
" />
<path d="M43912 16428
L43724 16428
L43724 16034
" />
<path d="M44043 16221
L44174 16221
" />
<path d="M44231 16428
L44043 16428
L44043 16034
L44231 16034
" />
<path d="M44399 16428
L44399 16034
L44493 16034
L44549 16053
L44587 16090
L44606 16128
L44624 16203
L44624 16259
L44606 16334
L44587 16371
L44549 16409
L44493 16428
L44399 16428
" />
<path d="M100416 37053
L100416 36659
L100547 36940
L100678 36659
L100678 37053
" />
<path d="M100828 36659
L101091 37053
" />
<path d="M101091 36659
L100828 37053
" />
<path d="M101222 36696
L101241 36678
L101278 36659
L101372 36659
L101409 36678
L101428 36696
L101447 36734
L101447 36771
L101428 36828
L101203 37053
L101447 37053
" />
<path d="M101747 36846
L101803 36865
L101822 36884
L101841 36921
L101841 36978
L101822 37015
L101803 37034
L101766 37053
L101616 37053
L101616 36659
L101747 36659
L101784 36678
L101803 36696
L101822 36734
L101822 36771
L101803 36809
L101784 36828
L101747 36846
L101616 36846
" />
<path d="M102216 37053
L101991 37053
" />
<path d="M102103 37053
L102103 36659
L102066 36715
L102028 36753
L101991 36771
" />
<path d="M99825 32678
L99825 32284
L99956 32565
L100088 32284
L100088 32678
" />
<path d="M100238 32284
L100500 32678
" />
<path d="M100500 32284
L100238 32678
" />
<path d="M100650 32528
L100950 32528
" />
<path d="M101138 32678
L101138 32284
L101362 32678
L101362 32284
" />
<path d="M101606 32678
L101569 32659
L101550 32640
L101531 32603
L101531 32490
L101550 32453
L101569 32434
L101606 32415
L101662 32415
L101700 32434
L101719 32453
L101737 32490
L101737 32603
L101719 32640
L101700 32659
L101662 32678
L101606 32678
" />
<path d="M102094 32678
L101906 32678
L101906 32284
" />
<path d="M102225 32471
L102356 32471
" />
<path d="M102412 32678
L102225 32678
L102225 32284
L102412 32284
" />
<path d="M102581 32678
L102581 32284
L102675 32284
L102731 32303
L102769 32340
L102787 32378
L102806 32453
L102806 32509
L102787 32584
L102769 32621
L102731 32659
L102675 32678
L102581 32678
" />
<path d="M92887 37053
L92887 36659
L93018 36940
L93150 36659
L93150 37053
" />
<path d="M93300 36659
L93562 37053
" />
<path d="M93562 36659
L93300 37053
" />
<path d="M93693 36696
L93712 36678
L93750 36659
L93843 36659
L93881 36678
L93899 36696
L93918 36734
L93918 36771
L93899 36828
L93675 37053
L93918 37053
" />
<path d="M94068 36940
L94256 36940
" />
<path d="M94031 37053
L94162 36659
L94293 37053
" />
<path d="M94631 37053
L94406 37053
" />
<path d="M94518 37053
L94518 36659
L94481 36715
L94443 36753
L94406 36771
" />
<path d="M92268 32678
L92268 32284
L92400 32565
L92531 32284
L92531 32678
" />
<path d="M92681 32284
L92943 32678
" />
<path d="M92943 32284
L92681 32678
" />
<path d="M93093 32528
L93393 32528
" />
<path d="M93581 32678
L93581 32284
L93806 32678
L93806 32284
" />
<path d="M94049 32678
L94012 32659
L93993 32640
L93974 32603
L93974 32490
L93993 32453
L94012 32434
L94049 32415
L94106 32415
L94143 32434
L94162 32453
L94181 32490
L94181 32603
L94162 32640
L94143 32659
L94106 32678
L94049 32678
" />
<path d="M94537 32678
L94349 32678
L94349 32284
" />
<path d="M94668 32471
L94799 32471
" />
<path d="M94856 32678
L94668 32678
L94668 32284
L94856 32284
" />
<path d="M95024 32678
L95024 32284
L95118 32284
L95174 32303
L95212 32340
L95231 32378
L95249 32453
L95249 32509
L95231 32584
L95212 32621
L95174 32659
L95118 32678
L95024 32678
" />
<path d="M98484 29553
L98484 29159
L98615 29440
L98746 29159
L98746 29553
" />
<path d="M98896 29159
L99159 29553
" />
<path d="M99159 29159
L98896 29553
" />
<path d="M99515 29553
L99290 29553
" />
<path d="M99403 29553
L99403 29159
L99365 29215
L99328 29253
L99290 29271
" />
<path d="M99815 29346
L99871 29365
L99890 29384
L99909 29421
L99909 29478
L99890 29515
L99871 29534
L99834 29553
L99684 29553
L99684 29159
L99815 29159
L99853 29178
L99871 29196
L99890 29234
L99890 29271
L99871 29309
L99853 29328
L99815 29346
L99684 29346
" />
<path d="M100284 29553
L100059 29553
" />
<path d="M100171 29553
L100171 29159
L100134 29215
L100096 29253
L100059 29271
" />
<path d="M97893 25178
L97893 24784
L98025 25065
L98156 24784
L98156 25178
" />
<path d="M98306 24784
L98568 25178
" />
<path d="M98568 24784
L98306 25178
" />
<path d="M98718 25028
L99018 25028
" />
<path d="M99206 25178
L99206 24784
L99431 25178
L99431 24784
" />
<path d="M99674 25178
L99637 25159
L99618 25140
L99599 25103
L99599 24990
L99618 24953
L99637 24934
L99674 24915
L99731 24915
L99768 24934
L99787 24953
L99806 24990
L99806 25103
L99787 25140
L99768 25159
L99731 25178
L99674 25178
" />
<path d="M100162 25178
L99974 25178
L99974 24784
" />
<path d="M100293 24971
L100424 24971
" />
<path d="M100481 25178
L100293 25178
L100293 24784
L100481 24784
" />
<path d="M100649 25178
L100649 24784
L100743 24784
L100799 24803
L100837 24840
L100856 24878
L100874 24953
L100874 25009
L100856 25084
L100837 25121
L100799 25159
L100743 25178
L100649 25178
" />
<path d="M91012 29553
L91012 29159
L91143 29440
L91275 29159
L91275 29553
" />
<path d="M91425 29159
L91687 29553
" />
<path d="M91687 29159
L91425 29553
" />
<path d="M92043 29553
L91818 29553
" />
<path d="M91931 29553
L91931 29159
L91893 29215
L91856 29253
L91818 29271
" />
<path d="M92193 29440
L92381 29440
" />
<path d="M92156 29553
L92287 29159
L92418 29553
" />
<path d="M92756 29553
L92531 29553
" />
<path d="M92643 29553
L92643 29159
L92606 29215
L92568 29253
L92531 29271
" />
<path d="M90393 25178
L90393 24784
L90525 25065
L90656 24784
L90656 25178
" />
<path d="M90806 24784
L91068 25178
" />
<path d="M91068 24784
L90806 25178
" />
<path d="M91218 25028
L91518 25028
" />
<path d="M91706 25178
L91706 24784
L91931 25178
L91931 24784
" />
<path d="M92174 25178
L92137 25159
L92118 25140
L92099 25103
L92099 24990
L92118 24953
L92137 24934
L92174 24915
L92231 24915
L92268 24934
L92287 24953
L92306 24990
L92306 25103
L92287 25140
L92268 25159
L92231 25178
L92174 25178
" />
<path d="M92662 25178
L92474 25178
L92474 24784
" />
<path d="M92793 24971
L92924 24971
" />
<path d="M92981 25178
L92793 25178
L92793 24784
L92981 24784
" />
<path d="M93149 25178
L93149 24784
L93243 24784
L93299 24803
L93337 24840
L93356 24878
L93374 24953
L93374 25009
L93356 25084
L93337 25121
L93299 25159
L93243 25178
L93149 25178
" />
<path d="M96609 22053
L96609 21659
L96740 21940
L96871 21659
L96871 22053
" />
<path d="M97021 21659
L97284 22053
" />
<path d="M97284 21659
L97021 22053
" />
<path d="M97509 21659
L97546 21659
L97584 21678
L97603 21696
L97621 21734
L97640 21809
L97640 21903
L97621 21978
L97603 22015
L97584 22034
L97546 22053
L97509 22053
L97471 22034
L97453 22015
L97434 21978
L97415 21903
L97415 21809
L97434 21734
L97453 21696
L97471 21678
L97509 21659
" />
<path d="M97940 21846
L97996 21865
L98015 21884
L98034 21921
L98034 21978
L98015 22015
L97996 22034
L97959 22053
L97809 22053
L97809 21659
L97940 21659
L97978 21678
L97996 21696
L98015 21734
L98015 21771
L97996 21809
L97978 21828
L97940 21846
L97809 21846
" />
<path d="M98409 22053
L98184 22053
" />
<path d="M98296 22053
L98296 21659
L98259 21715
L98221 21753
L98184 21771
" />
<path d="M96018 17678
L96018 17284
L96150 17565
L96281 17284
L96281 17678
" />
<path d="M96431 17284
L96693 17678
" />
<path d="M96693 17284
L96431 17678
" />
<path d="M96843 17528
L97143 17528
" />
<path d="M97331 17678
L97331 17284
L97556 17678
L97556 17284
" />
<path d="M97799 17678
L97762 17659
L97743 17640
L97724 17603
L97724 17490
L97743 17453
L97762 17434
L97799 17415
L97856 17415
L97893 17434
L97912 17453
L97931 17490
L97931 17603
L97912 17640
L97893 17659
L97856 17678
L97799 17678
" />
<path d="M98287 17678
L98099 17678
L98099 17284
" />
<path d="M98418 17471
L98549 17471
" />
<path d="M98606 17678
L98418 17678
L98418 17284
L98606 17284
" />
<path d="M98774 17678
L98774 17284
L98868 17284
L98924 17303
L98962 17340
L98981 17378
L98999 17453
L98999 17509
L98981 17584
L98962 17621
L98924 17659
L98868 17678
L98774 17678
" />
<path d="M89137 22053
L89137 21659
L89268 21940
L89400 21659
L89400 22053
" />
<path d="M89550 21659
L89812 22053
" />
<path d="M89812 21659
L89550 22053
" />
<path d="M90037 21659
L90074 21659
L90112 21678
L90131 21696
L90149 21734
L90168 21809
L90168 21903
L90149 21978
L90131 22015
L90112 22034
L90074 22053
L90037 22053
L90000 22034
L89981 22015
L89962 21978
L89943 21903
L89943 21809
L89962 21734
L89981 21696
L90000 21678
L90037 21659
" />
<path d="M90318 21940
L90506 21940
" />
<path d="M90281 22053
L90412 21659
L90543 22053
" />
<path d="M90881 22053
L90656 22053
" />
<path d="M90768 22053
L90768 21659
L90731 21715
L90693 21753
L90656 21771
" />
<path d="M88518 17678
L88518 17284
L88650 17565
L88781 17284
L88781 17678
" />
<path d="M88931 17284
L89193 17678
" />
<path d="M89193 17284
L88931 17678
" />
<path d="M89343 17528
L89643 17528
" />
<path d="M89831 17678
L89831 17284
L90056 17678
L90056 17284
" />
<path d="M90299 17678
L90262 17659
L90243 17640
L90224 17603
L90224 17490
L90243 17453
L90262 17434
L90299 17415
L90356 17415
L90393 17434
L90412 17453
L90431 17490
L90431 17603
L90412 17640
L90393 17659
L90356 17678
L90299 17678
" />
<path d="M90787 17678
L90599 17678
L90599 17284
" />
<path d="M90918 17471
L91049 17471
" />
<path d="M91106 17678
L90918 17678
L90918 17284
L91106 17284
" />
<path d="M91274 17678
L91274 17284
L91368 17284
L91424 17303
L91462 17340
L91481 17378
L91499 17453
L91499 17509
L91481 17584
L91462 17621
L91424 17659
L91368 17678
L91274 17678
" />
<path d="M48056 37053
L48056 36659
L48187 36940
L48318 36659
L48318 37053
" />
<path d="M48468 36659
L48731 37053
" />
<path d="M48731 36659
L48468 37053
" />
<path d="M48843 36659
L49087 36659
L48956 36809
L49012 36809
L49049 36828
L49068 36846
L49087 36884
L49087 36978
L49068 37015
L49049 37034
L49012 37053
L48899 37053
L48862 37034
L48843 37015
" />
<path d="M49424 36790
L49424 37053
" />
<path d="M49331 36640
L49237 36921
L49481 36921
" />
<path d="M47268 32678
L47268 32284
L47400 32565
L47531 32284
L47531 32678
" />
<path d="M47681 32284
L47943 32678
" />
<path d="M47943 32284
L47681 32678
" />
<path d="M48093 32528
L48393 32528
" />
<path d="M48581 32678
L48581 32284
L48806 32678
L48806 32284
" />
<path d="M49049 32678
L49012 32659
L48993 32640
L48974 32603
L48974 32490
L48993 32453
L49012 32434
L49049 32415
L49106 32415
L49143 32434
L49162 32453
L49181 32490
L49181 32603
L49162 32640
L49143 32659
L49106 32678
L49049 32678
" />
<path d="M49537 32678
L49349 32678
L49349 32284
" />
<path d="M49668 32471
L49799 32471
" />
<path d="M49856 32678
L49668 32678
L49668 32284
L49856 32284
" />
<path d="M50024 32678
L50024 32284
L50118 32284
L50174 32303
L50212 32340
L50231 32378
L50249 32453
L50249 32509
L50231 32584
L50212 32621
L50174 32659
L50118 32678
L50024 32678
" />
<path d="M33056 37053
L33056 36659
L33187 36940
L33318 36659
L33318 37053
" />
<path d="M33468 36659
L33731 37053
" />
<path d="M33731 36659
L33468 37053
" />
<path d="M33843 36659
L34087 36659
L33956 36809
L34012 36809
L34049 36828
L34068 36846
L34087 36884
L34087 36978
L34068 37015
L34049 37034
L34012 37053
L33899 37053
L33862 37034
L33843 37015
" />
<path d="M34237 36696
L34256 36678
L34293 36659
L34387 36659
L34424 36678
L34443 36696
L34462 36734
L34462 36771
L34443 36828
L34218 37053
L34462 37053
" />
<path d="M32268 32678
L32268 32284
L32400 32565
L32531 32284
L32531 32678
" />
<path d="M32681 32284
L32943 32678
" />
<path d="M32943 32284
L32681 32678
" />
<path d="M33093 32528
L33393 32528
" />
<path d="M33581 32678
L33581 32284
L33806 32678
L33806 32284
" />
<path d="M34049 32678
L34012 32659
L33993 32640
L33974 32603
L33974 32490
L33993 32453
L34012 32434
L34049 32415
L34106 32415
L34143 32434
L34162 32453
L34181 32490
L34181 32603
L34162 32640
L34143 32659
L34106 32678
L34049 32678
" />
<path d="M34537 32678
L34349 32678
L34349 32284
" />
<path d="M34668 32471
L34799 32471
" />
<path d="M34856 32678
L34668 32678
L34668 32284
L34856 32284
" />
<path d="M35024 32678
L35024 32284
L35118 32284
L35174 32303
L35212 32340
L35231 32378
L35249 32453
L35249 32509
L35231 32584
L35212 32621
L35174 32659
L35118 32678
L35024 32678
" />
<path d="M25556 37053
L25556 36659
L25687 36940
L25818 36659
L25818 37053
" />
<path d="M25968 36659
L26231 37053
" />
<path d="M26231 36659
L25968 37053
" />
<path d="M26343 36659
L26587 36659
L26456 36809
L26512 36809
L26549 36828
L26568 36846
L26587 36884
L26587 36978
L26568 37015
L26549 37034
L26512 37053
L26399 37053
L26362 37034
L26343 37015
" />
<path d="M26962 37053
L26737 37053
" />
<path d="M26849 37053
L26849 36659
L26812 36715
L26774 36753
L26737 36771
" />
<path d="M24768 32678
L24768 32284
L24900 32565
L25031 32284
L25031 32678
" />
<path d="M25181 32284
L25443 32678
" />
<path d="M25443 32284
L25181 32678
" />
<path d="M25593 32528
L25893 32528
" />
<path d="M26081 32678
L26081 32284
L26306 32678
L26306 32284
" />
<path d="M26549 32678
L26512 32659
L26493 32640
L26474 32603
L26474 32490
L26493 32453
L26512 32434
L26549 32415
L26606 32415
L26643 32434
L26662 32453
L26681 32490
L26681 32603
L26662 32640
L26643 32659
L26606 32678
L26549 32678
" />
<path d="M27037 32678
L26849 32678
L26849 32284
" />
<path d="M27168 32471
L27299 32471
" />
<path d="M27356 32678
L27168 32678
L27168 32284
L27356 32284
" />
<path d="M27524 32678
L27524 32284
L27618 32284
L27674 32303
L27712 32340
L27731 32378
L27749 32453
L27749 32509
L27731 32584
L27712 32621
L27674 32659
L27618 32678
L27524 32678
" />
<path d="M18056 37053
L18056 36659
L18187 36940
L18318 36659
L18318 37053
" />
<path d="M18468 36659
L18731 37053
" />
<path d="M18731 36659
L18468 37053
" />
<path d="M18843 36659
L19087 36659
L18956 36809
L19012 36809
L19049 36828
L19068 36846
L19087 36884
L19087 36978
L19068 37015
L19049 37034
L19012 37053
L18899 37053
L18862 37034
L18843 37015
" />
<path d="M19331 36659
L19368 36659
L19406 36678
L19424 36696
L19443 36734
L19462 36809
L19462 36903
L19443 36978
L19424 37015
L19406 37034
L19368 37053
L19331 37053
L19293 37034
L19274 37015
L19256 36978
L19237 36903
L19237 36809
L19256 36734
L19274 36696
L19293 36678
L19331 36659
" />
<path d="M17268 32678
L17268 32284
L17400 32565
L17531 32284
L17531 32678
" />
<path d="M17681 32284
L17943 32678
" />
<path d="M17943 32284
L17681 32678
" />
<path d="M18093 32528
L18393 32528
" />
<path d="M18581 32678
L18581 32284
L18806 32678
L18806 32284
" />
<path d="M19049 32678
L19012 32659
L18993 32640
L18974 32603
L18974 32490
L18993 32453
L19012 32434
L19049 32415
L19106 32415
L19143 32434
L19162 32453
L19181 32490
L19181 32603
L19162 32640
L19143 32659
L19106 32678
L19049 32678
" />
<path d="M19537 32678
L19349 32678
L19349 32284
" />
<path d="M19668 32471
L19799 32471
" />
<path d="M19856 32678
L19668 32678
L19668 32284
L19856 32284
" />
<path d="M20024 32678
L20024 32284
L20118 32284
L20174 32303
L20212 32340
L20231 32378
L20249 32453
L20249 32509
L20231 32584
L20212 32621
L20174 32659
L20118 32678
L20024 32678
" />
<path d="M78056 37053
L78056 36659
L78187 36940
L78318 36659
L78318 37053
" />
<path d="M78468 36659
L78731 37053
" />
<path d="M78731 36659
L78468 37053
" />
<path d="M78862 36696
L78881 36678
L78918 36659
L79012 36659
L79049 36678
L79068 36696
L79087 36734
L79087 36771
L79068 36828
L78843 37053
L79087 37053
" />
<path d="M79312 36828
L79274 36809
L79256 36790
L79237 36753
L79237 36734
L79256 36696
L79274 36678
L79312 36659
L79387 36659
L79424 36678
L79443 36696
L79462 36734
L79462 36753
L79443 36790
L79424 36809
L79387 36828
L79312 36828
L79274 36846
L79256 36865
L79237 36903
L79237 36978
L79256 37015
L79274 37034
L79312 37053
L79387 37053
L79424 37034
L79443 37015
L79462 36978
L79462 36903
L79443 36865
L79424 36846
L79387 36828
" />
<path d="M77268 32678
L77268 32284
L77400 32565
L77531 32284
L77531 32678
" />
<path d="M77681 32284
L77943 32678
" />
<path d="M77943 32284
L77681 32678
" />
<path d="M78093 32528
L78393 32528
" />
<path d="M78581 32678
L78581 32284
L78806 32678
L78806 32284
" />
<path d="M79049 32678
L79012 32659
L78993 32640
L78974 32603
L78974 32490
L78993 32453
L79012 32434
L79049 32415
L79106 32415
L79143 32434
L79162 32453
L79181 32490
L79181 32603
L79162 32640
L79143 32659
L79106 32678
L79049 32678
" />
<path d="M79537 32678
L79349 32678
L79349 32284
" />
<path d="M79668 32471
L79799 32471
" />
<path d="M79856 32678
L79668 32678
L79668 32284
L79856 32284
" />
<path d="M80024 32678
L80024 32284
L80118 32284
L80174 32303
L80212 32340
L80231 32378
L80249 32453
L80249 32509
L80231 32584
L80212 32621
L80174 32659
L80118 32678
L80024 32678
" />
<path d="M70556 37053
L70556 36659
L70687 36940
L70818 36659
L70818 37053
" />
<path d="M70968 36659
L71231 37053
" />
<path d="M71231 36659
L70968 37053
" />
<path d="M71362 36696
L71381 36678
L71418 36659
L71512 36659
L71549 36678
L71568 36696
L71587 36734
L71587 36771
L71568 36828
L71343 37053
L71587 37053
" />
<path d="M71718 36659
L71981 36659
L71812 37053
" />
<path d="M69768 32678
L69768 32284
L69900 32565
L70031 32284
L70031 32678
" />
<path d="M70181 32284
L70443 32678
" />
<path d="M70443 32284
L70181 32678
" />
<path d="M70593 32528
L70893 32528
" />
<path d="M71081 32678
L71081 32284
L71306 32678
L71306 32284
" />
<path d="M71549 32678
L71512 32659
L71493 32640
L71474 32603
L71474 32490
L71493 32453
L71512 32434
L71549 32415
L71606 32415
L71643 32434
L71662 32453
L71681 32490
L71681 32603
L71662 32640
L71643 32659
L71606 32678
L71549 32678
" />
<path d="M72037 32678
L71849 32678
L71849 32284
" />
<path d="M72168 32471
L72299 32471
" />
<path d="M72356 32678
L72168 32678
L72168 32284
L72356 32284
" />
<path d="M72524 32678
L72524 32284
L72618 32284
L72674 32303
L72712 32340
L72731 32378
L72749 32453
L72749 32509
L72731 32584
L72712 32621
L72674 32659
L72618 32678
L72524 32678
" />
<path d="M63056 37053
L63056 36659
L63187 36940
L63318 36659
L63318 37053
" />
<path d="M63468 36659
L63731 37053
" />
<path d="M63731 36659
L63468 37053
" />
<path d="M63862 36696
L63881 36678
L63918 36659
L64012 36659
L64049 36678
L64068 36696
L64087 36734
L64087 36771
L64068 36828
L63843 37053
L64087 37053
" />
<path d="M64424 36659
L64349 36659
L64312 36678
L64293 36696
L64256 36753
L64237 36828
L64237 36978
L64256 37015
L64274 37034
L64312 37053
L64387 37053
L64424 37034
L64443 37015
L64462 36978
L64462 36884
L64443 36846
L64424 36828
L64387 36809
L64312 36809
L64274 36828
L64256 36846
L64237 36884
" />
<path d="M62268 32678
L62268 32284
L62400 32565
L62531 32284
L62531 32678
" />
<path d="M62681 32284
L62943 32678
" />
<path d="M62943 32284
L62681 32678
" />
<path d="M63093 32528
L63393 32528
" />
<path d="M63581 32678
L63581 32284
L63806 32678
L63806 32284
" />
<path d="M64049 32678
L64012 32659
L63993 32640
L63974 32603
L63974 32490
L63993 32453
L64012 32434
L64049 32415
L64106 32415
L64143 32434
L64162 32453
L64181 32490
L64181 32603
L64162 32640
L64143 32659
L64106 32678
L64049 32678
" />
<path d="M64537 32678
L64349 32678
L64349 32284
" />
<path d="M64668 32471
L64799 32471
" />
<path d="M64856 32678
L64668 32678
L64668 32284
L64856 32284
" />
<path d="M65024 32678
L65024 32284
L65118 32284
L65174 32303
L65212 32340
L65231 32378
L65249 32453
L65249 32509
L65231 32584
L65212 32621
L65174 32659
L65118 32678
L65024 32678
" />
<path d="M55556 37053
L55556 36659
L55687 36940
L55818 36659
L55818 37053
" />
<path d="M55968 36659
L56231 37053
" />
<path d="M56231 36659
L55968 37053
" />
<path d="M56362 36696
L56381 36678
L56418 36659
L56512 36659
L56549 36678
L56568 36696
L56587 36734
L56587 36771
L56568 36828
L56343 37053
L56587 37053
" />
<path d="M56943 36659
L56756 36659
L56737 36846
L56756 36828
L56793 36809
L56887 36809
L56924 36828
L56943 36846
L56962 36884
L56962 36978
L56943 37015
L56924 37034
L56887 37053
L56793 37053
L56756 37034
L56737 37015
" />
<path d="M54768 32678
L54768 32284
L54900 32565
L55031 32284
L55031 32678
" />
<path d="M55181 32284
L55443 32678
" />
<path d="M55443 32284
L55181 32678
" />
<path d="M55593 32528
L55893 32528
" />
<path d="M56081 32678
L56081 32284
L56306 32678
L56306 32284
" />
<path d="M56549 32678
L56512 32659
L56493 32640
L56474 32603
L56474 32490
L56493 32453
L56512 32434
L56549 32415
L56606 32415
L56643 32434
L56662 32453
L56681 32490
L56681 32603
L56662 32640
L56643 32659
L56606 32678
L56549 32678
" />
<path d="M57037 32678
L56849 32678
L56849 32284
" />
<path d="M57168 32471
L57299 32471
" />
<path d="M57356 32678
L57168 32678
L57168 32284
L57356 32284
" />
<path d="M57524 32678
L57524 32284
L57618 32284
L57674 32303
L57712 32340
L57731 32378
L57749 32453
L57749 32509
L57731 32584
L57712 32621
L57674 32659
L57618 32678
L57524 32678
" />
<path d="M46181 29553
L46181 29159
L46312 29440
L46443 29159
L46443 29553
" />
<path d="M46593 29159
L46856 29553
" />
<path d="M46856 29159
L46593 29553
" />
<path d="M46987 29196
L47006 29178
L47043 29159
L47137 29159
L47174 29178
L47193 29196
L47212 29234
L47212 29271
L47193 29328
L46968 29553
L47212 29553
" />
<path d="M47549 29290
L47549 29553
" />
<path d="M47456 29140
L47362 29421
L47606 29421
" />
<path d="M45393 25178
L45393 24784
L45525 25065
L45656 24784
L45656 25178
" />
<path d="M45806 24784
L46068 25178
" />
<path d="M46068 24784
L45806 25178
" />
<path d="M46218 25028
L46518 25028
" />
<path d="M46706 25178
L46706 24784
L46931 25178
L46931 24784
" />
<path d="M47174 25178
L47137 25159
L47118 25140
L47099 25103
L47099 24990
L47118 24953
L47137 24934
L47174 24915
L47231 24915
L47268 24934
L47287 24953
L47306 24990
L47306 25103
L47287 25140
L47268 25159
L47231 25178
L47174 25178
" />
<path d="M47662 25178
L47474 25178
L47474 24784
" />
<path d="M47793 24971
L47924 24971
" />
<path d="M47981 25178
L47793 25178
L47793 24784
L47981 24784
" />
<path d="M48149 25178
L48149 24784
L48243 24784
L48299 24803
L48337 24840
L48356 24878
L48374 24953
L48374 25009
L48356 25084
L48337 25121
L48299 25159
L48243 25178
L48149 25178
" />
<path d="M38681 29553
L38681 29159
L38812 29440
L38943 29159
L38943 29553
" />
<path d="M39093 29159
L39356 29553
" />
<path d="M39356 29159
L39093 29553
" />
<path d="M39487 29196
L39506 29178
L39543 29159
L39637 29159
L39674 29178
L39693 29196
L39712 29234
L39712 29271
L39693 29328
L39468 29553
L39712 29553
" />
<path d="M39843 29159
L40087 29159
L39956 29309
L40012 29309
L40049 29328
L40068 29346
L40087 29384
L40087 29478
L40068 29515
L40049 29534
L40012 29553
L39899 29553
L39862 29534
L39843 29515
" />
<path d="M37893 25178
L37893 24784
L38025 25065
L38156 24784
L38156 25178
" />
<path d="M38306 24784
L38568 25178
" />
<path d="M38568 24784
L38306 25178
" />
<path d="M38718 25028
L39018 25028
" />
<path d="M39206 25178
L39206 24784
L39431 25178
L39431 24784
" />
<path d="M39674 25178
L39637 25159
L39618 25140
L39599 25103
L39599 24990
L39618 24953
L39637 24934
L39674 24915
L39731 24915
L39768 24934
L39787 24953
L39806 24990
L39806 25103
L39787 25140
L39768 25159
L39731 25178
L39674 25178
" />
<path d="M40162 25178
L39974 25178
L39974 24784
" />
<path d="M40293 24971
L40424 24971
" />
<path d="M40481 25178
L40293 25178
L40293 24784
L40481 24784
" />
<path d="M40649 25178
L40649 24784
L40743 24784
L40799 24803
L40837 24840
L40856 24878
L40874 24953
L40874 25009
L40856 25084
L40837 25121
L40799 25159
L40743 25178
L40649 25178
" />
<path d="M31181 29553
L31181 29159
L31312 29440
L31443 29159
L31443 29553
" />
<path d="M31593 29159
L31856 29553
" />
<path d="M31856 29159
L31593 29553
" />
<path d="M31987 29196
L32006 29178
L32043 29159
L32137 29159
L32174 29178
L32193 29196
L32212 29234
L32212 29271
L32193 29328
L31968 29553
L32212 29553
" />
<path d="M32362 29196
L32381 29178
L32418 29159
L32512 29159
L32549 29178
L32568 29196
L32587 29234
L32587 29271
L32568 29328
L32343 29553
L32587 29553
" />
<path d="M30393 25178
L30393 24784
L30525 25065
L30656 24784
L30656 25178
" />
<path d="M30806 24784
L31068 25178
" />
<path d="M31068 24784
L30806 25178
" />
<path d="M31218 25028
L31518 25028
" />
<path d="M31706 25178
L31706 24784
L31931 25178
L31931 24784
" />
<path d="M32174 25178
L32137 25159
L32118 25140
L32099 25103
L32099 24990
L32118 24953
L32137 24934
L32174 24915
L32231 24915
L32268 24934
L32287 24953
L32306 24990
L32306 25103
L32287 25140
L32268 25159
L32231 25178
L32174 25178
" />
<path d="M32662 25178
L32474 25178
L32474 24784
" />
<path d="M32793 24971
L32924 24971
" />
<path d="M32981 25178
L32793 25178
L32793 24784
L32981 24784
" />
<path d="M33149 25178
L33149 24784
L33243 24784
L33299 24803
L33337 24840
L33356 24878
L33374 24953
L33374 25009
L33356 25084
L33337 25121
L33299 25159
L33243 25178
L33149 25178
" />
<path d="M23681 29553
L23681 29159
L23812 29440
L23943 29159
L23943 29553
" />
<path d="M24093 29159
L24356 29553
" />
<path d="M24356 29159
L24093 29553
" />
<path d="M24487 29196
L24506 29178
L24543 29159
L24637 29159
L24674 29178
L24693 29196
L24712 29234
L24712 29271
L24693 29328
L24468 29553
L24712 29553
" />
<path d="M25087 29553
L24862 29553
" />
<path d="M24974 29553
L24974 29159
L24937 29215
L24899 29253
L24862 29271
" />
<path d="M22893 25178
L22893 24784
L23025 25065
L23156 24784
L23156 25178
" />
<path d="M23306 24784
L23568 25178
" />
<path d="M23568 24784
L23306 25178
" />
<path d="M23718 25028
L24018 25028
" />
<path d="M24206 25178
L24206 24784
L24431 25178
L24431 24784
" />
<path d="M24674 25178
L24637 25159
L24618 25140
L24599 25103
L24599 24990
L24618 24953
L24637 24934
L24674 24915
L24731 24915
L24768 24934
L24787 24953
L24806 24990
L24806 25103
L24787 25140
L24768 25159
L24731 25178
L24674 25178
" />
<path d="M25162 25178
L24974 25178
L24974 24784
" />
<path d="M25293 24971
L25424 24971
" />
<path d="M25481 25178
L25293 25178
L25293 24784
L25481 24784
" />
<path d="M25649 25178
L25649 24784
L25743 24784
L25799 24803
L25837 24840
L25856 24878
L25874 24953
L25874 25009
L25856 25084
L25837 25121
L25799 25159
L25743 25178
L25649 25178
" />
<path d="M16181 29553
L16181 29159
L16312 29440
L16443 29159
L16443 29553
" />
<path d="M16593 29159
L16856 29553
" />
<path d="M16856 29159
L16593 29553
" />
<path d="M16987 29196
L17006 29178
L17043 29159
L17137 29159
L17174 29178
L17193 29196
L17212 29234
L17212 29271
L17193 29328
L16968 29553
L17212 29553
" />
<path d="M17456 29159
L17493 29159
L17531 29178
L17549 29196
L17568 29234
L17587 29309
L17587 29403
L17568 29478
L17549 29515
L17531 29534
L17493 29553
L17456 29553
L17418 29534
L17399 29515
L17381 29478
L17362 29403
L17362 29309
L17381 29234
L17399 29196
L17418 29178
L17456 29159
" />
<path d="M15393 25178
L15393 24784
L15525 25065
L15656 24784
L15656 25178
" />
<path d="M15806 24784
L16068 25178
" />
<path d="M16068 24784
L15806 25178
" />
<path d="M16218 25028
L16518 25028
" />
<path d="M16706 25178
L16706 24784
L16931 25178
L16931 24784
" />
<path d="M17174 25178
L17137 25159
L17118 25140
L17099 25103
L17099 24990
L17118 24953
L17137 24934
L17174 24915
L17231 24915
L17268 24934
L17287 24953
L17306 24990
L17306 25103
L17287 25140
L17268 25159
L17231 25178
L17174 25178
" />
<path d="M17662 25178
L17474 25178
L17474 24784
" />
<path d="M17793 24971
L17924 24971
" />
<path d="M17981 25178
L17793 25178
L17793 24784
L17981 24784
" />
<path d="M18149 25178
L18149 24784
L18243 24784
L18299 24803
L18337 24840
L18356 24878
L18374 24953
L18374 25009
L18356 25084
L18337 25121
L18299 25159
L18243 25178
L18149 25178
" />
<path d="M83681 29553
L83681 29159
L83812 29440
L83943 29159
L83943 29553
" />
<path d="M84093 29159
L84356 29553
" />
<path d="M84356 29159
L84093 29553
" />
<path d="M84712 29553
L84487 29553
" />
<path d="M84599 29553
L84599 29159
L84562 29215
L84524 29253
L84487 29271
" />
<path d="M84899 29553
L84974 29553
L85012 29534
L85031 29515
L85068 29459
L85087 29384
L85087 29234
L85068 29196
L85049 29178
L85012 29159
L84937 29159
L84899 29178
L84881 29196
L84862 29234
L84862 29328
L84881 29365
L84899 29384
L84937 29403
L85012 29403
L85049 29384
L85068 29365
L85087 29328
" />
<path d="M82893 25178
L82893 24784
L83025 25065
L83156 24784
L83156 25178
" />
<path d="M83306 24784
L83568 25178
" />
<path d="M83568 24784
L83306 25178
" />
<path d="M83718 25028
L84018 25028
" />
<path d="M84206 25178
L84206 24784
L84431 25178
L84431 24784
" />
<path d="M84674 25178
L84637 25159
L84618 25140
L84599 25103
L84599 24990
L84618 24953
L84637 24934
L84674 24915
L84731 24915
L84768 24934
L84787 24953
L84806 24990
L84806 25103
L84787 25140
L84768 25159
L84731 25178
L84674 25178
" />
<path d="M85162 25178
L84974 25178
L84974 24784
" />
<path d="M85293 24971
L85424 24971
" />
<path d="M85481 25178
L85293 25178
L85293 24784
L85481 24784
" />
<path d="M85649 25178
L85649 24784
L85743 24784
L85799 24803
L85837 24840
L85856 24878
L85874 24953
L85874 25009
L85856 25084
L85837 25121
L85799 25159
L85743 25178
L85649 25178
" />
<path d="M61181 29553
L61181 29159
L61312 29440
L61443 29159
L61443 29553
" />
<path d="M61593 29159
L61856 29553
" />
<path d="M61856 29159
L61593 29553
" />
<path d="M62212 29553
L61987 29553
" />
<path d="M62099 29553
L62099 29159
L62062 29215
L62024 29253
L61987 29271
" />
<path d="M62549 29159
L62474 29159
L62437 29178
L62418 29196
L62381 29253
L62362 29328
L62362 29478
L62381 29515
L62399 29534
L62437 29553
L62512 29553
L62549 29534
L62568 29515
L62587 29478
L62587 29384
L62568 29346
L62549 29328
L62512 29309
L62437 29309
L62399 29328
L62381 29346
L62362 29384
" />
<path d="M60393 25178
L60393 24784
L60525 25065
L60656 24784
L60656 25178
" />
<path d="M60806 24784
L61068 25178
" />
<path d="M61068 24784
L60806 25178
" />
<path d="M61218 25028
L61518 25028
" />
<path d="M61706 25178
L61706 24784
L61931 25178
L61931 24784
" />
<path d="M62174 25178
L62137 25159
L62118 25140
L62099 25103
L62099 24990
L62118 24953
L62137 24934
L62174 24915
L62231 24915
L62268 24934
L62287 24953
L62306 24990
L62306 25103
L62287 25140
L62268 25159
L62231 25178
L62174 25178
" />
<path d="M62662 25178
L62474 25178
L62474 24784
" />
<path d="M62793 24971
L62924 24971
" />
<path d="M62981 25178
L62793 25178
L62793 24784
L62981 24784
" />
<path d="M63149 25178
L63149 24784
L63243 24784
L63299 24803
L63337 24840
L63356 24878
L63374 24953
L63374 25009
L63356 25084
L63337 25121
L63299 25159
L63243 25178
L63149 25178
" />
<path d="M53681 29553
L53681 29159
L53812 29440
L53943 29159
L53943 29553
" />
<path d="M54093 29159
L54356 29553
" />
<path d="M54356 29159
L54093 29553
" />
<path d="M54712 29553
L54487 29553
" />
<path d="M54599 29553
L54599 29159
L54562 29215
L54524 29253
L54487 29271
" />
<path d="M55068 29159
L54881 29159
L54862 29346
L54881 29328
L54918 29309
L55012 29309
L55049 29328
L55068 29346
L55087 29384
L55087 29478
L55068 29515
L55049 29534
L55012 29553
L54918 29553
L54881 29534
L54862 29515
" />
<path d="M52893 25178
L52893 24784
L53025 25065
L53156 24784
L53156 25178
" />
<path d="M53306 24784
L53568 25178
" />
<path d="M53568 24784
L53306 25178
" />
<path d="M53718 25028
L54018 25028
" />
<path d="M54206 25178
L54206 24784
L54431 25178
L54431 24784
" />
<path d="M54674 25178
L54637 25159
L54618 25140
L54599 25103
L54599 24990
L54618 24953
L54637 24934
L54674 24915
L54731 24915
L54768 24934
L54787 24953
L54806 24990
L54806 25103
L54787 25140
L54768 25159
L54731 25178
L54674 25178
" />
<path d="M55162 25178
L54974 25178
L54974 24784
" />
<path d="M55293 24971
L55424 24971
" />
<path d="M55481 25178
L55293 25178
L55293 24784
L55481 24784
" />
<path d="M55649 25178
L55649 24784
L55743 24784
L55799 24803
L55837 24840
L55856 24878
L55874 24953
L55874 25009
L55856 25084
L55837 25121
L55799 25159
L55743 25178
L55649 25178
" />
<path d="M29306 22053
L29306 21659
L29437 21940
L29568 21659
L29568 22053
" />
<path d="M29718 21659
L29981 22053
" />
<path d="M29981 21659
L29718 22053
" />
<path d="M30337 22053
L30112 22053
" />
<path d="M30224 22053
L30224 21659
L30187 21715
L30149 21753
L30112 21771
" />
<path d="M30487 21696
L30506 21678
L30543 21659
L30637 21659
L30674 21678
L30693 21696
L30712 21734
L30712 21771
L30693 21828
L30468 22053
L30712 22053
" />
<path d="M28518 17678
L28518 17284
L28650 17565
L28781 17284
L28781 17678
" />
<path d="M28931 17284
L29193 17678
" />
<path d="M29193 17284
L28931 17678
" />
<path d="M29343 17528
L29643 17528
" />
<path d="M29831 17678
L29831 17284
L30056 17678
L30056 17284
" />
<path d="M30299 17678
L30262 17659
L30243 17640
L30224 17603
L30224 17490
L30243 17453
L30262 17434
L30299 17415
L30356 17415
L30393 17434
L30412 17453
L30431 17490
L30431 17603
L30412 17640
L30393 17659
L30356 17678
L30299 17678
" />
<path d="M30787 17678
L30599 17678
L30599 17284
" />
<path d="M30918 17471
L31049 17471
" />
<path d="M31106 17678
L30918 17678
L30918 17284
L31106 17284
" />
<path d="M31274 17678
L31274 17284
L31368 17284
L31424 17303
L31462 17340
L31481 17378
L31499 17453
L31499 17509
L31481 17584
L31462 17621
L31424 17659
L31368 17678
L31274 17678
" />
<path d="M21806 22053
L21806 21659
L21937 21940
L22068 21659
L22068 22053
" />
<path d="M22218 21659
L22481 22053
" />
<path d="M22481 21659
L22218 22053
" />
<path d="M22837 22053
L22612 22053
" />
<path d="M22724 22053
L22724 21659
L22687 21715
L22649 21753
L22612 21771
" />
<path d="M23212 22053
L22987 22053
" />
<path d="M23099 22053
L23099 21659
L23062 21715
L23024 21753
L22987 21771
" />
<path d="M21018 17678
L21018 17284
L21150 17565
L21281 17284
L21281 17678
" />
<path d="M21431 17284
L21693 17678
" />
<path d="M21693 17284
L21431 17678
" />
<path d="M21843 17528
L22143 17528
" />
<path d="M22331 17678
L22331 17284
L22556 17678
L22556 17284
" />
<path d="M22799 17678
L22762 17659
L22743 17640
L22724 17603
L22724 17490
L22743 17453
L22762 17434
L22799 17415
L22856 17415
L22893 17434
L22912 17453
L22931 17490
L22931 17603
L22912 17640
L22893 17659
L22856 17678
L22799 17678
" />
<path d="M23287 17678
L23099 17678
L23099 17284
" />
<path d="M23418 17471
L23549 17471
" />
<path d="M23606 17678
L23418 17678
L23418 17284
L23606 17284
" />
<path d="M23774 17678
L23774 17284
L23868 17284
L23924 17303
L23962 17340
L23981 17378
L23999 17453
L23999 17509
L23981 17584
L23962 17621
L23924 17659
L23868 17678
L23774 17678
" />
<path d="M14306 22053
L14306 21659
L14437 21940
L14568 21659
L14568 22053
" />
<path d="M14718 21659
L14981 22053
" />
<path d="M14981 21659
L14718 22053
" />
<path d="M15337 22053
L15112 22053
" />
<path d="M15224 22053
L15224 21659
L15187 21715
L15149 21753
L15112 21771
" />
<path d="M15581 21659
L15618 21659
L15656 21678
L15674 21696
L15693 21734
L15712 21809
L15712 21903
L15693 21978
L15674 22015
L15656 22034
L15618 22053
L15581 22053
L15543 22034
L15524 22015
L15506 21978
L15487 21903
L15487 21809
L15506 21734
L15524 21696
L15543 21678
L15581 21659
" />
<path d="M13518 17678
L13518 17284
L13650 17565
L13781 17284
L13781 17678
" />
<path d="M13931 17284
L14193 17678
" />
<path d="M14193 17284
L13931 17678
" />
<path d="M14343 17528
L14643 17528
" />
<path d="M14831 17678
L14831 17284
L15056 17678
L15056 17284
" />
<path d="M15299 17678
L15262 17659
L15243 17640
L15224 17603
L15224 17490
L15243 17453
L15262 17434
L15299 17415
L15356 17415
L15393 17434
L15412 17453
L15431 17490
L15431 17603
L15412 17640
L15393 17659
L15356 17678
L15299 17678
" />
<path d="M15787 17678
L15599 17678
L15599 17284
" />
<path d="M15918 17471
L16049 17471
" />
<path d="M16106 17678
L15918 17678
L15918 17284
L16106 17284
" />
<path d="M16274 17678
L16274 17284
L16368 17284
L16424 17303
L16462 17340
L16481 17378
L16499 17453
L16499 17509
L16481 17584
L16462 17621
L16424 17659
L16368 17678
L16274 17678
" />
<path d="M81993 22053
L81993 21659
L82125 21940
L82256 21659
L82256 22053
" />
<path d="M82406 21659
L82668 22053
" />
<path d="M82668 21659
L82406 22053
" />
<path d="M82837 22053
L82912 22053
L82949 22034
L82968 22015
L83006 21959
L83024 21884
L83024 21734
L83006 21696
L82987 21678
L82949 21659
L82874 21659
L82837 21678
L82818 21696
L82799 21734
L82799 21828
L82818 21865
L82837 21884
L82874 21903
L82949 21903
L82987 21884
L83006 21865
L83024 21828
" />
<path d="M81018 17678
L81018 17284
L81150 17565
L81281 17284
L81281 17678
" />
<path d="M81431 17284
L81693 17678
" />
<path d="M81693 17284
L81431 17678
" />
<path d="M81843 17528
L82143 17528
" />
<path d="M82331 17678
L82331 17284
L82556 17678
L82556 17284
" />
<path d="M82799 17678
L82762 17659
L82743 17640
L82724 17603
L82724 17490
L82743 17453
L82762 17434
L82799 17415
L82856 17415
L82893 17434
L82912 17453
L82931 17490
L82931 17603
L82912 17640
L82893 17659
L82856 17678
L82799 17678
" />
<path d="M83287 17678
L83099 17678
L83099 17284
" />
<path d="M83418 17471
L83549 17471
" />
<path d="M83606 17678
L83418 17678
L83418 17284
L83606 17284
" />
<path d="M83774 17678
L83774 17284
L83868 17284
L83924 17303
L83962 17340
L83981 17378
L83999 17453
L83999 17509
L83981 17584
L83962 17621
L83924 17659
L83868 17678
L83774 17678
" />
<path d="M74493 22053
L74493 21659
L74625 21940
L74756 21659
L74756 22053
" />
<path d="M74906 21659
L75168 22053
" />
<path d="M75168 21659
L74906 22053
" />
<path d="M75374 21828
L75337 21809
L75318 21790
L75299 21753
L75299 21734
L75318 21696
L75337 21678
L75374 21659
L75449 21659
L75487 21678
L75506 21696
L75524 21734
L75524 21753
L75506 21790
L75487 21809
L75449 21828
L75374 21828
L75337 21846
L75318 21865
L75299 21903
L75299 21978
L75318 22015
L75337 22034
L75374 22053
L75449 22053
L75487 22034
L75506 22015
L75524 21978
L75524 21903
L75506 21865
L75487 21846
L75449 21828
" />
<path d="M73518 17678
L73518 17284
L73650 17565
L73781 17284
L73781 17678
" />
<path d="M73931 17284
L74193 17678
" />
<path d="M74193 17284
L73931 17678
" />
<path d="M74343 17528
L74643 17528
" />
<path d="M74831 17678
L74831 17284
L75056 17678
L75056 17284
" />
<path d="M75299 17678
L75262 17659
L75243 17640
L75224 17603
L75224 17490
L75243 17453
L75262 17434
L75299 17415
L75356 17415
L75393 17434
L75412 17453
L75431 17490
L75431 17603
L75412 17640
L75393 17659
L75356 17678
L75299 17678
" />
<path d="M75787 17678
L75599 17678
L75599 17284
" />
<path d="M75918 17471
L76049 17471
" />
<path d="M76106 17678
L75918 17678
L75918 17284
L76106 17284
" />
<path d="M76274 17678
L76274 17284
L76368 17284
L76424 17303
L76462 17340
L76481 17378
L76499 17453
L76499 17509
L76481 17584
L76462 17621
L76424 17659
L76368 17678
L76274 17678
" />
<path d="M66993 22053
L66993 21659
L67125 21940
L67256 21659
L67256 22053
" />
<path d="M67406 21659
L67668 22053
" />
<path d="M67668 21659
L67406 22053
" />
<path d="M67781 21659
L68043 21659
L67874 22053
" />
<path d="M66018 17678
L66018 17284
L66150 17565
L66281 17284
L66281 17678
" />
<path d="M66431 17284
L66693 17678
" />
<path d="M66693 17284
L66431 17678
" />
<path d="M66843 17528
L67143 17528
" />
<path d="M67331 17678
L67331 17284
L67556 17678
L67556 17284
" />
<path d="M67799 17678
L67762 17659
L67743 17640
L67724 17603
L67724 17490
L67743 17453
L67762 17434
L67799 17415
L67856 17415
L67893 17434
L67912 17453
L67931 17490
L67931 17603
L67912 17640
L67893 17659
L67856 17678
L67799 17678
" />
<path d="M68287 17678
L68099 17678
L68099 17284
" />
<path d="M68418 17471
L68549 17471
" />
<path d="M68606 17678
L68418 17678
L68418 17284
L68606 17284
" />
<path d="M68774 17678
L68774 17284
L68868 17284
L68924 17303
L68962 17340
L68981 17378
L68999 17453
L68999 17509
L68981 17584
L68962 17621
L68924 17659
L68868 17678
L68774 17678
" />
<path d="M59493 22053
L59493 21659
L59625 21940
L59756 21659
L59756 22053
" />
<path d="M59906 21659
L60168 22053
" />
<path d="M60168 21659
L59906 22053
" />
<path d="M60487 21659
L60412 21659
L60374 21678
L60356 21696
L60318 21753
L60299 21828
L60299 21978
L60318 22015
L60337 22034
L60374 22053
L60449 22053
L60487 22034
L60506 22015
L60524 21978
L60524 21884
L60506 21846
L60487 21828
L60449 21809
L60374 21809
L60337 21828
L60318 21846
L60299 21884
" />
<path d="M58518 17678
L58518 17284
L58650 17565
L58781 17284
L58781 17678
" />
<path d="M58931 17284
L59193 17678
" />
<path d="M59193 17284
L58931 17678
" />
<path d="M59343 17528
L59643 17528
" />
<path d="M59831 17678
L59831 17284
L60056 17678
L60056 17284
" />
<path d="M60299 17678
L60262 17659
L60243 17640
L60224 17603
L60224 17490
L60243 17453
L60262 17434
L60299 17415
L60356 17415
L60393 17434
L60412 17453
L60431 17490
L60431 17603
L60412 17640
L60393 17659
L60356 17678
L60299 17678
" />
<path d="M60787 17678
L60599 17678
L60599 17284
" />
<path d="M60918 17471
L61049 17471
" />
<path d="M61106 17678
L60918 17678
L60918 17284
L61106 17284
" />
<path d="M61274 17678
L61274 17284
L61368 17284
L61424 17303
L61462 17340
L61481 17378
L61499 17453
L61499 17509
L61481 17584
L61462 17621
L61424 17659
L61368 17678
L61274 17678
" />
<path d="M51993 22053
L51993 21659
L52125 21940
L52256 21659
L52256 22053
" />
<path d="M52406 21659
L52668 22053
" />
<path d="M52668 21659
L52406 22053
" />
<path d="M53006 21659
L52818 21659
L52799 21846
L52818 21828
L52856 21809
L52949 21809
L52987 21828
L53006 21846
L53024 21884
L53024 21978
L53006 22015
L52987 22034
L52949 22053
L52856 22053
L52818 22034
L52799 22015
" />
<path d="M51018 17678
L51018 17284
L51150 17565
L51281 17284
L51281 17678
" />
<path d="M51431 17284
L51693 17678
" />
<path d="M51693 17284
L51431 17678
" />
<path d="M51843 17528
L52143 17528
" />
<path d="M52331 17678
L52331 17284
L52556 17678
L52556 17284
" />
<path d="M52799 17678
L52762 17659
L52743 17640
L52724 17603
L52724 17490
L52743 17453
L52762 17434
L52799 17415
L52856 17415
L52893 17434
L52912 17453
L52931 17490
L52931 17603
L52912 17640
L52893 17659
L52856 17678
L52799 17678
" />
<path d="M53287 17678
L53099 17678
L53099 17284
" />
<path d="M53418 17471
L53549 17471
" />
<path d="M53606 17678
L53418 17678
L53418 17284
L53606 17284
" />
<path d="M53774 17678
L53774 17284
L53868 17284
L53924 17303
L53962 17340
L53981 17378
L53999 17453
L53999 17509
L53981 17584
L53962 17621
L53924 17659
L53868 17678
L53774 17678
" />
<path d="M35118 14553
L35118 14159
L35250 14440
L35381 14159
L35381 14553
" />
<path d="M35531 14159
L35793 14553
" />
<path d="M35793 14159
L35531 14553
" />
<path d="M35906 14159
L36149 14159
L36018 14309
L36074 14309
L36112 14328
L36131 14346
L36149 14384
L36149 14478
L36131 14515
L36112 14534
L36074 14553
L35962 14553
L35924 14534
L35906 14515
" />
<path d="M34143 10178
L34143 9784
L34275 10065
L34406 9784
L34406 10178
" />
<path d="M34556 9784
L34818 10178
" />
<path d="M34818 9784
L34556 10178
" />
<path d="M34968 10028
L35268 10028
" />
<path d="M35456 10178
L35456 9784
L35681 10178
L35681 9784
" />
<path d="M35924 10178
L35887 10159
L35868 10140
L35849 10103
L35849 9990
L35868 9953
L35887 9934
L35924 9915
L35981 9915
L36018 9934
L36037 9953
L36056 9990
L36056 10103
L36037 10140
L36018 10159
L35981 10178
L35924 10178
" />
<path d="M36412 10178
L36224 10178
L36224 9784
" />
<path d="M36543 9971
L36674 9971
" />
<path d="M36731 10178
L36543 10178
L36543 9784
L36731 9784
" />
<path d="M36899 10178
L36899 9784
L36993 9784
L37049 9803
L37087 9840
L37106 9878
L37124 9953
L37124 10009
L37106 10084
L37087 10121
L37049 10159
L36993 10178
L36899 10178
" />
<path d="M27618 14553
L27618 14159
L27750 14440
L27881 14159
L27881 14553
" />
<path d="M28031 14159
L28293 14553
" />
<path d="M28293 14159
L28031 14553
" />
<path d="M28424 14196
L28443 14178
L28481 14159
L28574 14159
L28612 14178
L28631 14196
L28649 14234
L28649 14271
L28631 14328
L28406 14553
L28649 14553
" />
<path d="M26643 10178
L26643 9784
L26775 10065
L26906 9784
L26906 10178
" />
<path d="M27056 9784
L27318 10178
" />
<path d="M27318 9784
L27056 10178
" />
<path d="M27468 10028
L27768 10028
" />
<path d="M27956 10178
L27956 9784
L28181 10178
L28181 9784
" />
<path d="M28424 10178
L28387 10159
L28368 10140
L28349 10103
L28349 9990
L28368 9953
L28387 9934
L28424 9915
L28481 9915
L28518 9934
L28537 9953
L28556 9990
L28556 10103
L28537 10140
L28518 10159
L28481 10178
L28424 10178
" />
<path d="M28912 10178
L28724 10178
L28724 9784
" />
<path d="M29043 9971
L29174 9971
" />
<path d="M29231 10178
L29043 10178
L29043 9784
L29231 9784
" />
<path d="M29399 10178
L29399 9784
L29493 9784
L29549 9803
L29587 9840
L29606 9878
L29624 9953
L29624 10009
L29606 10084
L29587 10121
L29549 10159
L29493 10178
L29399 10178
" />
<path d="M20118 14553
L20118 14159
L20250 14440
L20381 14159
L20381 14553
" />
<path d="M20531 14159
L20793 14553
" />
<path d="M20793 14159
L20531 14553
" />
<path d="M21149 14553
L20924 14553
" />
<path d="M21037 14553
L21037 14159
L20999 14215
L20962 14253
L20924 14271
" />
<path d="M19143 10178
L19143 9784
L19275 10065
L19406 9784
L19406 10178
" />
<path d="M19556 9784
L19818 10178
" />
<path d="M19818 9784
L19556 10178
" />
<path d="M19968 10028
L20268 10028
" />
<path d="M20456 10178
L20456 9784
L20681 10178
L20681 9784
" />
<path d="M20924 10178
L20887 10159
L20868 10140
L20849 10103
L20849 9990
L20868 9953
L20887 9934
L20924 9915
L20981 9915
L21018 9934
L21037 9953
L21056 9990
L21056 10103
L21037 10140
L21018 10159
L20981 10178
L20924 10178
" />
<path d="M21412 10178
L21224 10178
L21224 9784
" />
<path d="M21543 9971
L21674 9971
" />
<path d="M21731 10178
L21543 10178
L21543 9784
L21731 9784
" />
<path d="M21899 10178
L21899 9784
L21993 9784
L22049 9803
L22087 9840
L22106 9878
L22124 9953
L22124 10009
L22106 10084
L22087 10121
L22049 10159
L21993 10178
L21899 10178
" />
<path d="M12618 14553
L12618 14159
L12750 14440
L12881 14159
L12881 14553
" />
<path d="M13031 14159
L13293 14553
" />
<path d="M13293 14159
L13031 14553
" />
<path d="M13518 14159
L13556 14159
L13593 14178
L13612 14196
L13631 14234
L13649 14309
L13649 14403
L13631 14478
L13612 14515
L13593 14534
L13556 14553
L13518 14553
L13481 14534
L13462 14515
L13443 14478
L13424 14403
L13424 14309
L13443 14234
L13462 14196
L13481 14178
L13518 14159
" />
<path d="M11643 10178
L11643 9784
L11775 10065
L11906 9784
L11906 10178
" />
<path d="M12056 9784
L12318 10178
" />
<path d="M12318 9784
L12056 10178
" />
<path d="M12468 10028
L12768 10028
" />
<path d="M12956 10178
L12956 9784
L13181 10178
L13181 9784
" />
<path d="M13424 10178
L13387 10159
L13368 10140
L13349 10103
L13349 9990
L13368 9953
L13387 9934
L13424 9915
L13481 9915
L13518 9934
L13537 9953
L13556 9990
L13556 10103
L13537 10140
L13518 10159
L13481 10178
L13424 10178
" />
<path d="M13912 10178
L13724 10178
L13724 9784
" />
<path d="M14043 9971
L14174 9971
" />
<path d="M14231 10178
L14043 10178
L14043 9784
L14231 9784
" />
<path d="M14399 10178
L14399 9784
L14493 9784
L14549 9803
L14587 9840
L14606 9878
L14624 9953
L14624 10009
L14606 10084
L14587 10121
L14549 10159
L14493 10178
L14399 10178
" />
<g >
</g>
</g> 
</svg>
